<svg width="354" height="365" viewBox="0 0 354 365" fill="none" xmlns="http://www.w3.org/2000/svg">
<path d="M242.897 3.4C240.631 5.66674 238.01 7.79174 235.034 9.775C232.058 11.7583 228.092 13.8833 223.135 16.15C218.175 18.4167 212.721 21.1792 206.772 24.4375C200.822 27.6958 194.518 31.6625 187.858 36.3375C181.201 41.0125 176.808 44.3417 174.683 46.325C172.558 48.3083 169.725 51.5667 166.183 56.1C162.643 60.6333 159.667 65.5917 157.26 70.975C154.851 76.3583 153.08 81.3875 151.946 86.0625C150.813 90.7375 150.246 95.625 150.246 100.725C150.246 103.275 150.246 105.825 150.246 108.375C148.617 106.179 146.988 103.983 145.359 101.787C142.101 97.3958 138.701 93.5 135.159 90.1C131.617 86.7 127.934 83.5833 124.109 80.75C120.284 77.9167 111.288 72.8875 97.1214 65.6625C82.9546 58.4375 72.6131 53.4792 66.0964 50.7875C59.5796 48.0958 53.2756 44.9792 47.1839 41.4375C41.0921 37.8958 36.9131 35.275 34.6464 33.575C32.3796 31.875 30.6089 31.2375 29.3339 31.6625C28.0589 32.0875 27.3506 32.8667 27.2089 34C27.0671 35.1333 27.7756 36.9042 29.3339 39.3125C30.8921 41.7208 32.4506 44.9083 34.0089 48.875C35.5671 52.8417 37.4796 61.9792 39.7464 76.2875C42.0131 90.5958 43.6421 99.6625 44.6339 103.487C45.6256 107.312 47.1839 112.129 49.3089 117.937C51.4339 123.746 53.5589 128.704 55.6839 132.812C57.8089 136.921 60.5006 141.171 63.7589 145.562C67.0171 149.954 71.1256 154.558 76.0839 159.375C81.0421 164.192 86.0714 168.3 91.1714 171.699C93.7214 173.401 96.2714 175.1 98.8214 176.8C96.6256 177.012 94.4296 177.225 92.2339 177.437C87.8421 177.863 83.3796 178.784 78.8464 180.199C74.3131 181.617 69.5671 183.671 64.6089 186.363C59.6506 189.054 55.4714 191.959 52.0714 195.074C48.6714 198.191 45.4131 201.733 42.2964 205.699C39.1796 209.667 35.8506 214.483 32.3089 220.151C28.7671 225.816 24.0921 234.387 18.2839 245.863C12.4756 257.338 7.94213 265.272 4.68387 269.663C1.4256 274.054 -0.132874 276.887 0.00886175 278.163C0.150598 279.437 1.0006 280.358 2.55886 280.925C4.11712 281.492 6.17136 281.066 8.72136 279.651C11.2714 278.233 14.0339 277.03 17.0089 276.038C19.9839 275.046 24.7296 273.842 31.2464 272.425C37.7631 271.008 47.2546 269.945 59.7214 269.237C72.1881 268.53 81.9631 267.467 89.0464 266.05C96.1296 264.633 101.584 263.217 105.409 261.8C109.234 260.383 113.059 258.683 116.884 256.699C120.709 254.717 124.18 252.592 127.296 250.324C130.413 248.058 133.813 245.155 137.496 241.613C139.338 239.842 141.18 238.07 143.021 236.3C142.667 238.213 142.313 240.125 141.959 242.038C141.251 245.862 140.896 250.82 140.896 256.913C140.896 263.004 141.251 268.175 141.959 272.425C142.667 276.675 143.871 281.703 145.571 287.512C147.271 293.32 149.68 299.483 152.796 306C155.913 312.516 159.455 318.963 163.421 325.338C167.389 331.713 171.425 337.733 175.534 343.401C179.643 349.066 182.546 353.883 184.246 357.85C185.947 361.816 187.362 363.941 188.496 364.225C189.631 364.508 190.621 364.155 191.471 363.163C192.322 362.171 192.959 360.542 193.385 358.276C193.808 356.008 194.729 353.246 196.147 349.987C197.562 346.729 200.183 342.409 204.01 337.026C207.834 331.641 211.518 325.834 215.058 319.6C218.6 313.367 221.362 307.346 223.346 301.538C225.33 295.729 226.818 290.487 227.808 285.812C228.8 281.137 229.437 276.746 229.721 272.637C230.006 268.53 229.651 262.933 228.659 255.85C227.667 248.766 226.108 242.32 223.983 236.512C221.858 230.703 219.522 225.746 216.971 221.637C215.697 219.584 214.421 217.53 213.147 215.475C214.635 216.112 216.121 216.75 217.608 217.387C220.584 218.663 225.187 220.221 231.421 222.062C237.655 223.905 242.542 225.108 246.084 225.675C249.625 226.242 254.088 226.453 259.471 226.312C264.854 226.171 269.459 225.675 273.284 224.824C277.108 223.975 281.147 222.842 285.397 221.425C289.647 220.008 300.058 215.617 316.635 208.25C333.209 200.883 343.479 196.562 347.447 195.288C351.413 194.012 353.467 192.171 353.608 189.762C353.75 187.354 350.705 185.725 344.471 184.875C338.237 184.026 333.139 182.82 329.171 181.262C325.205 179.703 320.955 177.437 316.421 174.463C311.889 171.487 305.3 166.458 296.659 159.375C288.018 152.292 281.006 147.262 275.621 144.287C270.237 141.312 265.705 139.188 262.022 137.913C258.338 136.637 254.3 135.575 249.909 134.725C245.518 133.875 240.701 133.592 235.459 133.875C230.217 134.158 225.826 134.796 222.284 135.788C220.514 136.283 218.742 136.779 216.971 137.275C218.459 135.221 219.947 133.167 221.433 131.112C224.409 127.004 227.1 122.612 229.51 117.937C231.917 113.262 234.326 107.737 236.733 101.362C239.143 94.9875 241.054 89.1083 242.471 83.725C243.889 78.3417 244.881 73.1 245.447 68C246.014 62.9 246.51 53.9042 246.933 41.0125C247.358 28.1208 247.925 19.2667 248.635 14.45C249.342 9.63327 249.979 6.72924 250.546 5.7375C251.112 4.74577 251.397 3.89576 251.397 3.1875C251.397 2.47924 251.112 1.77077 250.546 1.0625C249.979 0.354238 249.131 0 247.996 0C246.862 0 245.163 1.13326 242.897 3.4ZM240.346 12.5375C241.197 12.9625 241.479 16.15 241.197 22.1C240.913 28.05 240.913 34.425 241.197 41.225C241.479 48.025 241.268 54.825 240.558 61.625C239.85 68.425 238.647 75.2958 236.947 82.2375C235.246 89.1792 233.687 94.35 232.272 97.75C230.854 101.15 229.084 104.762 226.959 108.588C224.834 112.412 222 116.733 218.459 121.55C214.917 126.367 211.659 130.262 208.683 133.237C205.709 136.212 202.947 138.692 200.397 140.675C197.846 142.658 196.358 143.65 195.933 143.65C195.51 143.65 194.8 143.154 193.808 142.162C192.818 141.171 190.975 139.825 188.284 138.125C185.592 136.425 182.83 134.937 179.996 133.662C177.163 132.387 174.33 131.467 171.496 130.9C168.663 130.333 166.112 130.05 163.846 130.05C161.58 130.05 160.092 128.279 159.385 124.737C158.675 121.196 158.322 116.308 158.322 110.075C158.322 103.842 158.534 99.0958 158.959 95.8375C159.385 92.5792 160.163 88.8958 161.296 84.7875C162.429 80.6792 164.272 76.0042 166.822 70.7625C169.371 65.5208 171.709 61.4833 173.834 58.65C175.959 55.8167 179.429 52.275 184.246 48.025C189.062 43.775 193.737 40.3042 198.272 37.6125C202.804 34.9208 208.542 31.875 215.483 28.475C222.425 25.075 227.03 22.5958 229.296 21.0375C231.562 19.4792 233.76 17.5667 235.885 15.3C238.01 13.0333 239.496 12.1125 240.346 12.5375ZM235.034 21.0375C233.76 22.3125 232.131 23.5875 230.147 24.8625C228.163 26.1375 223.558 28.5458 216.334 32.0875C209.108 35.6292 203.584 38.5333 199.76 40.8C195.933 43.0667 192.675 45.2625 189.983 47.3875C187.292 49.5125 184.246 52.4167 180.846 56.1C177.447 59.7833 174.542 63.75 172.135 68C169.725 72.25 167.6 77.35 165.76 83.3C163.917 89.25 162.784 94.0667 162.358 97.75C161.933 101.433 161.721 105.967 161.721 111.35C161.721 116.733 161.933 120.7 162.358 123.25C162.784 125.8 164.342 127.075 167.034 127.075C169.725 127.075 172.205 127.358 174.471 127.925C176.737 128.492 179.5 129.554 182.76 131.112C186.018 132.671 188.992 134.442 191.683 136.425C194.375 138.408 195.933 139.4 196.358 139.4C196.784 139.4 198.768 137.771 202.308 134.512C205.85 131.254 209.25 127.571 212.51 123.462C215.768 119.354 218.6 115.387 221.01 111.562C223.417 107.737 225.33 104.338 226.746 101.362C228.163 98.3875 229.437 95.3417 230.572 92.225C231.705 89.1083 232.838 85.1417 233.971 80.325C235.104 75.5083 236.096 68.5667 236.947 59.5C237.796 50.4333 238.01 41.4375 237.584 32.5125C237.371 28.05 237.159 23.5875 236.947 19.125C236.308 19.7625 235.671 20.4 235.034 21.0375ZM43.7839 47.8125C44.4921 47.9542 46.1214 49.0167 48.6714 51C51.2214 52.9833 54.0546 54.825 57.1714 56.525C60.2881 58.225 69.5671 62.7583 85.0089 70.125C100.451 77.4917 109.942 82.2375 113.484 84.3625C117.026 86.4875 121.205 89.6042 126.021 93.7125C130.838 97.8208 134.805 101.929 137.921 106.037C141.038 110.146 143.446 113.829 145.146 117.087C146.846 120.346 148.263 123.533 149.396 126.65C150.53 129.767 149.042 132.6 144.934 135.15C140.826 137.7 137.355 140.533 134.521 143.65C131.688 146.767 129.351 150.45 127.509 154.7C125.667 158.95 124.392 163.271 123.684 167.663C122.976 172.054 122.338 174.32 121.771 174.463C121.205 174.604 120.284 174.463 119.009 174.038C117.734 173.613 115.751 172.762 113.059 171.488C110.367 170.213 106.471 167.875 101.371 164.475C96.2714 161.075 91.4546 157.25 86.9214 153C82.3881 148.75 78.1381 144.075 74.1714 138.975C70.2046 133.875 66.8046 128.704 63.9714 123.462C61.1381 118.221 58.9421 113.617 57.3839 109.65C55.8256 105.683 54.2671 100.371 52.7089 93.7125C51.1506 87.0542 49.8046 80.1125 48.6714 72.8875C47.5381 65.6625 46.6171 60.9875 45.9089 58.8625C45.2006 56.7375 44.2796 54.7542 43.1464 52.9125C42.0131 51.0708 41.4464 49.8667 41.4464 49.3C41.4464 48.7333 41.6589 48.3083 42.0839 48.025C42.5089 47.7417 43.0756 47.6708 43.7839 47.8125ZM49.7339 59.925C50.7256 63.0417 51.7881 68.3542 52.9214 75.8625C54.0546 83.3708 55.1881 89.4625 56.3214 94.1375C57.4546 98.8125 59.0839 103.842 61.2089 109.225C63.3339 114.608 65.6006 119.425 68.0089 123.675C70.4171 127.925 73.3921 132.317 76.9339 136.85C80.4756 141.383 84.2296 145.562 88.1964 149.387C92.1631 153.212 97.0506 157.108 102.859 161.075C108.667 165.042 112.988 167.592 115.821 168.725C117.238 169.292 118.655 169.858 120.071 170.425C120.355 168.441 120.638 166.458 120.921 164.475C121.488 160.508 122.905 156.188 125.171 151.512C127.438 146.838 130.059 143.012 133.034 140.037C136.009 137.062 139.126 134.654 142.384 132.812C145.642 130.971 145.926 127.287 143.234 121.762C140.542 116.237 138.276 112.2 136.434 109.65C134.592 107.1 132.255 104.338 129.421 101.362C126.588 98.3875 123.33 95.5542 119.646 92.8625C115.963 90.1708 110.792 87.0542 104.134 83.5125C97.4756 79.9708 88.8339 75.7208 78.2089 70.7625C67.5839 65.8042 59.9339 61.9792 55.2589 59.2875C52.9214 57.9417 50.5839 56.5958 48.2464 55.25C48.7421 56.8083 49.2381 58.3667 49.7339 59.925ZM166.822 137.913C168.237 138.054 169.018 138.621 169.159 139.613C169.3 140.604 169.088 141.95 168.522 143.65C167.955 145.35 166.893 147.404 165.334 149.812C163.776 152.221 161.51 154.912 158.534 157.887C157.046 159.375 155.559 160.863 154.071 162.35C154.213 161.004 154.355 159.658 154.496 158.312C154.78 155.621 155.276 153.071 155.984 150.662C156.692 148.254 157.826 145.704 159.385 143.012C160.943 140.321 162.217 138.762 163.209 138.337C164.201 137.912 165.405 137.771 166.822 137.913ZM154.921 138.55C155.205 138.833 154.851 139.825 153.859 141.525C152.867 143.225 151.946 145.421 151.096 148.112C150.246 150.804 149.538 154.629 148.971 159.587C148.405 164.546 146.067 168.3 141.959 170.85C137.851 173.401 135.159 174.675 133.884 174.675C132.609 174.675 131.83 174.463 131.546 174.038C131.263 173.613 131.192 172.125 131.334 169.574C131.476 167.025 132.326 163.483 133.884 158.95C135.442 154.417 137.567 150.733 140.259 147.9C142.951 145.067 145.996 142.729 149.396 140.887C152.796 139.046 154.638 138.267 154.921 138.55ZM174.471 138.55C174.826 138.621 175.179 138.692 175.534 138.762C176.242 138.904 177.304 139.542 178.721 140.675C180.139 141.808 181.201 142.942 181.909 144.075C182.617 145.208 183.112 146.413 183.397 147.688C183.679 148.962 183.679 150.875 183.397 153.425C183.112 155.975 182.05 159.375 180.209 163.625C178.367 167.875 176.385 171.487 174.26 174.463C173.197 175.949 172.135 177.437 171.072 178.925C170.151 178.147 169.229 177.367 168.308 176.588C166.467 175.03 164.979 174.038 163.846 173.612C162.713 173.187 160.729 173.117 157.897 173.401C156.48 173.542 155.063 173.683 153.646 173.824C153.646 173.117 153.646 172.409 153.646 171.699C153.646 170.284 154.213 169.221 155.346 168.512C156.48 167.804 158.25 166.246 160.659 163.837C163.068 161.429 165.334 158.879 167.459 156.187C169.584 153.496 171.213 150.946 172.346 148.537C173.479 146.129 174.117 143.863 174.26 141.738C174.33 140.675 174.401 139.612 174.471 138.55ZM243.108 142.162C248.635 142.587 254.018 143.721 259.26 145.562C264.5 147.404 268.608 149.175 271.584 150.875C274.558 152.575 279.447 156.188 286.246 161.712C293.046 167.238 298.925 171.629 303.885 174.887C308.842 178.147 313.8 180.979 318.76 183.387C323.717 185.796 328.534 187.425 333.209 188.276C337.885 189.125 340.506 189.762 341.072 190.187C341.639 190.612 341.921 191.108 341.921 191.675C341.921 192.242 335.334 194.651 322.159 198.901C308.983 203.151 298.147 206.975 289.647 210.375C281.147 213.776 274.701 215.971 270.308 216.963C265.917 217.953 261.737 218.522 257.772 218.663C253.804 218.804 250.121 218.592 246.721 218.026C243.322 217.459 237.514 215.828 229.296 213.137C221.08 210.445 214.987 208.038 211.022 205.913C207.054 203.788 203.867 201.804 201.459 199.963C199.05 198.121 198.342 195.358 199.334 191.675C200.326 187.992 201.034 184.522 201.459 181.262C201.885 178.004 201.955 174.604 201.671 171.062C201.389 167.521 200.75 163.767 199.76 159.8C198.768 155.833 198.768 153.425 199.76 152.575C200.75 151.725 203.229 150.45 207.197 148.75C211.163 147.05 214.776 145.704 218.034 144.712C221.292 143.721 224.905 142.942 228.871 142.375C232.838 141.808 237.584 141.738 243.108 142.162ZM225.471 146.625C221.221 147.475 216.264 149.033 210.596 151.3C204.929 153.567 202.592 156.754 203.584 160.862C204.576 164.971 205.143 169.078 205.284 173.187C205.425 177.296 204.788 182.112 203.371 187.637C201.955 193.163 203.159 197.129 206.983 199.538C210.808 201.945 215.201 204.213 220.159 206.338C225.117 208.463 229.792 210.163 234.183 211.437C238.576 212.713 242.187 213.633 245.022 214.199C247.854 214.766 251.397 215.05 255.647 215.05C259.897 215.05 264.572 214.483 269.671 213.35C274.772 212.217 281.713 209.879 290.496 206.338C299.28 202.796 308.346 199.538 317.697 196.562C322.371 195.074 327.046 193.588 331.721 192.1C330.233 191.675 328.746 191.25 327.26 190.824C324.284 189.975 320.104 188.133 314.721 185.3C309.338 182.467 303.885 179.137 298.358 175.312C292.834 171.488 288.018 167.804 283.909 164.262C279.8 160.721 275.479 157.604 270.947 154.912C266.413 152.221 261.808 150.096 257.135 148.537C252.459 146.979 247.076 146.058 240.983 145.775C234.893 145.492 229.721 145.775 225.471 146.625ZM190.197 155.125C190.621 155.904 191.046 156.683 191.471 157.462C192.322 159.021 193.03 161.642 193.596 165.325C194.163 169.008 194.375 172.691 194.233 176.375C194.092 180.058 193.808 182.75 193.385 184.449C192.959 186.151 192.25 188.133 191.26 190.401C190.268 192.667 188.85 195.004 187.01 197.413C185.167 199.82 183.397 201.522 181.697 202.512C179.996 203.504 178.366 204.213 176.808 204.637C176.03 204.85 175.25 205.062 174.471 205.276C174.612 203.858 174.756 202.441 174.897 201.026C175.179 198.191 174.897 194.721 174.046 190.613C173.197 186.504 174.187 182.75 177.022 179.35C179.854 175.949 182.405 172.125 184.671 167.875C186.937 163.625 188.425 160.437 189.135 158.312C189.487 157.25 189.842 156.188 190.197 155.125ZM148.121 173.824C148.263 173.824 148.405 173.824 148.546 173.824C148.546 174.391 148.546 174.959 148.546 175.526C148.546 176.659 147.696 178.217 145.996 180.199C144.296 182.183 143.163 183.953 142.596 185.512C142.03 187.07 141.746 189.054 141.746 191.463C141.746 193.871 142.171 195.641 143.021 196.776C143.871 197.909 144.651 198.617 145.359 198.901C146.067 199.183 147.626 199.112 150.034 198.687C152.442 198.262 154.284 199.467 155.559 202.3C156.834 205.133 157.401 206.691 157.26 206.975C157.117 207.258 156.196 207.187 154.496 206.762C152.796 206.338 150.742 205.417 148.334 204C145.926 202.584 143.588 200.53 141.321 197.838C139.055 195.147 137.213 192.453 135.796 189.762C134.38 187.07 133.813 185.088 134.096 183.812C134.38 182.538 134.876 181.546 135.584 180.838C136.292 180.129 138.063 179.137 140.896 177.862C143.73 176.588 145.571 175.596 146.421 174.887C147.271 174.179 147.838 173.824 148.121 173.824ZM159.596 178.713C161.58 178.854 163.209 179.562 164.483 180.838C165.76 182.112 165.617 183.6 164.058 185.3C162.5 187 161.014 188.276 159.596 189.125C158.179 189.975 157.33 190.328 157.046 190.187C156.764 190.046 156.267 188.417 155.559 185.3C154.851 182.183 154.496 180.413 154.496 179.987C154.496 179.562 154.851 179.209 155.559 178.925C156.267 178.641 157.612 178.57 159.596 178.713ZM149.396 184.026C149.821 185.512 150.246 187 150.671 188.488C151.096 189.975 151.521 191.463 151.946 192.949C151.167 193.092 150.388 193.233 149.609 193.375C148.83 193.516 148.051 193.659 147.271 193.8C147.271 192.879 147.271 191.959 147.271 191.038C147.271 189.195 147.626 187.566 148.334 186.151C148.688 185.441 149.042 184.733 149.396 184.026ZM110.296 184.875C116.246 184.875 120.001 185.016 121.559 185.3C123.117 185.584 124.817 187.425 126.659 190.824C128.501 194.225 130.342 196.987 132.184 199.112C134.026 201.237 136.08 203.151 138.346 204.85C140.613 206.55 143.021 207.967 145.571 209.1C148.121 210.233 149.255 211.508 148.971 212.925C148.688 214.342 147.413 217.034 145.146 221C142.88 224.967 139.621 229.288 135.371 233.963C131.121 238.637 127.155 242.32 123.471 245.012C119.788 247.703 116.459 249.901 113.484 251.6C110.509 253.3 106.259 255.213 100.734 257.338C95.2089 259.463 89.8256 261.022 84.5839 262.012C79.3421 263.004 70.9131 263.854 59.2964 264.562C47.6796 265.272 39.0381 266.121 33.3714 267.112C27.7046 268.104 23.3839 269.096 20.4089 270.088C17.4339 271.078 15.5214 271.433 14.6714 271.151C13.8214 270.867 13.3256 270.371 13.1839 269.663C13.0421 268.953 13.9631 266.828 15.9464 263.288C17.9296 259.746 19.4171 256.558 20.4089 253.725C21.4006 250.891 23.4546 246.429 26.5714 240.338C29.6881 234.246 32.5214 229.217 35.0714 225.25C37.6214 221.284 40.5256 217.459 43.7839 213.776C47.0421 210.092 50.0881 206.975 52.9214 204.425C55.7546 201.875 59.8631 199.042 65.2464 195.925C70.6296 192.808 75.5171 190.542 79.9089 189.125C84.3006 187.709 88.9756 186.647 93.9339 185.937C98.8921 185.229 104.346 184.875 110.296 184.875ZM94.5714 189.55C88.6214 190.401 84.0881 191.32 80.9714 192.312C77.8546 193.304 74.5964 194.651 71.1964 196.35C67.7964 198.05 63.9714 200.53 59.7214 203.788C55.4714 207.046 51.5756 210.588 48.0339 214.413C44.4921 218.237 41.4464 222.062 38.8964 225.887C36.3464 229.713 33.3006 235.096 29.7589 242.038C26.2171 248.979 23.5256 254.788 21.6839 259.463C20.7631 261.8 19.8421 264.137 18.9214 266.475C22.5339 265.766 26.1464 265.058 29.7589 264.35C36.9839 262.933 46.3339 261.871 57.8089 261.163C69.2839 260.453 77.9964 259.534 83.9464 258.401C89.8964 257.266 95.4921 255.637 100.734 253.512C105.976 251.387 111.501 248.413 117.309 244.588C123.117 240.762 128.43 236.159 133.246 230.776C138.063 225.391 141.321 221 143.021 217.6C144.721 214.199 143.73 211.508 140.046 209.526C136.363 207.542 133.246 205.203 130.696 202.512C128.146 199.82 126.021 196.846 124.321 193.588C122.621 190.328 118.726 188.629 112.634 188.488C106.542 188.346 100.521 188.699 94.5714 189.55ZM168.096 189.125C168.308 189.691 168.522 190.258 168.733 190.824C169.159 191.959 169.443 193.871 169.584 196.562C169.725 199.254 169.655 201.449 169.371 203.151C169.088 204.85 168.592 205.983 167.885 206.55C167.175 207.117 166.112 206.975 164.697 206.125C163.28 205.276 162.217 204.284 161.51 203.151C160.8 202.016 160.163 200.459 159.596 198.475C159.03 196.492 159.526 195.147 161.084 194.437C162.643 193.729 164.201 192.667 165.76 191.25C166.538 190.542 167.318 189.834 168.096 189.125ZM190.621 205.699C191.471 205.699 194.022 207.613 198.272 211.437C202.522 215.262 205.921 218.733 208.471 221.85C211.022 224.967 213.147 228.084 214.846 231.199C216.546 234.316 217.822 237.078 218.671 239.488C219.522 241.897 220.3 244.941 221.01 248.625C221.717 252.308 222.143 257.55 222.284 264.35C222.425 271.151 222 277.383 221.01 283.05C220.018 288.717 218.53 294.242 216.546 299.625C214.562 305.008 212.225 310.25 209.534 315.35C206.842 320.449 203.725 325.834 200.183 331.5C196.643 337.167 194.022 342.054 192.322 346.163C190.621 350.272 189.417 352.397 188.709 352.538C188 352.679 187.433 352.538 187.01 352.112C186.584 351.687 186.018 350.272 185.308 347.862C184.6 345.453 181.131 339.151 174.897 328.949C168.663 318.75 164.131 310.675 161.296 304.725C158.463 298.776 156.196 292.471 154.496 285.812C152.796 279.155 151.805 272.284 151.521 265.199C151.238 258.117 151.592 251.246 152.584 244.588C153.576 237.929 155.276 231.625 157.683 225.675C160.092 219.725 161.58 216.538 162.147 216.113C162.713 215.687 164.342 215.475 167.034 215.475C169.725 215.475 172.276 215.121 174.683 214.413C177.092 213.703 179.572 212.641 182.121 211.225C184.671 209.808 186.514 208.534 187.647 207.401C188.78 206.266 189.772 205.699 190.621 205.699ZM188.284 211.012C187.292 212.004 185.381 213.28 182.546 214.838C179.713 216.397 177.304 217.459 175.322 218.026C173.338 218.592 170.858 218.945 167.885 219.088C164.909 219.229 162.288 222.629 160.022 229.288C157.756 235.945 156.267 242.534 155.559 249.05C154.851 255.566 154.709 261.871 155.134 267.963C155.559 274.054 156.692 280.429 158.534 287.088C160.375 293.746 162.288 299.129 164.272 303.237C166.256 307.346 169.937 313.721 175.322 322.362C180.705 331.004 184.246 337.026 185.947 340.425C186.796 342.125 187.647 343.824 188.496 345.526C189.135 344.179 189.772 342.834 190.409 341.487C191.683 338.796 194.518 333.838 198.909 326.612C203.3 319.387 206.631 313.437 208.897 308.762C211.163 304.088 213.076 299.342 214.635 294.526C216.193 289.709 217.326 284.75 218.034 279.651C218.742 274.55 218.955 268.742 218.671 262.225C218.389 255.709 217.608 250.042 216.334 245.225C215.058 240.409 213.006 235.663 210.171 230.987C207.338 226.312 204.576 222.558 201.885 219.725C199.193 216.891 196.784 214.554 194.659 212.713C192.534 210.871 191.187 209.879 190.621 209.737C190.054 209.596 189.276 210.022 188.284 211.012Z" fill="black"/>
</svg>
