<svg width="340" height="345" viewBox="0 0 340 345" fill="none" xmlns="http://www.w3.org/2000/svg">
<path d="M82.6241 78.3541C83.2562 78.2198 85.741 78.3132 86.8411 78.2132C85.6449 79.296 80.4149 78.834 82.6241 78.3541ZM194.601 0.535057C193.674 0.808723 192.745 1.0826 191.812 1.35668C194.478 1.45756 198.044 1.19027 200.505 1.37407C200.907 1.40517 199.884 2.15825 200.833 2.1694C201.786 2.1803 201.585 1.18724 202.972 1.04951C204.516 0.897652 211.669 1.43667 214.132 1.36887C223.374 1.10741 232.666 0.356617 241.967 0.615505C232.398 1.51762 242.067 2.10033 244.743 1.7393C245.091 1.69031 245.215 1.02944 247.155 0.558712C248.617 0.227966 250.948 -0.0117569 255.025 0.144855C261.344 0.407928 255.452 3.05031 266.11 1.74405C257.928 -0.124187 265.888 -0.0306816 272.593 0.0397148C273.773 0.051178 282.967 0.502308 288.992 1.10792C291.013 1.33772 294.278 0.578751 299.98 2.08931C301.409 2.48571 302.834 3.01311 304.382 3.69886C305.887 4.3594 307.621 5.28258 308.207 5.65302C310.155 6.6613 312.416 7.99297 314.707 9.63578C322.052 15.0763 324.783 19.4606 326.903 22.4057C328.197 24.2432 330.284 27.9368 331.347 30.5197C332.516 33.2594 333.18 35.3741 333.711 37.2192C334.732 40.8623 335.196 43.4451 335.603 45.8506C336.368 50.5568 336.726 54.3759 337.012 58.1642C334.009 52.9201 336.351 62.5386 336.224 62.8845C335.737 65.1109 334.705 55.3068 334.622 59.2398C334.924 62.1601 335.174 64.9849 335.397 67.7588C335.592 70.18 335.765 72.5554 335.927 74.9262C336.013 70.7487 338.316 80.3204 337.564 82.0891C339.778 81.2757 336.529 104.733 337.328 108.185C337.502 108.912 338.464 104.086 338.272 115.228C338.249 116.437 337.571 115.998 337.65 116.628C337.697 117.003 339.87 119.24 338.761 121.71C338.353 122.613 336.841 116.941 337.679 129.443C339.592 124.762 339.262 143.855 338.765 149.882C338.731 150.345 338.696 150.728 338.663 151.022C338.784 150.645 338.905 150.264 339.026 149.879C339.185 149.418 339.343 148.949 339.501 148.473C339.408 149.001 339.339 149.465 339.289 149.876C338.945 152.914 339.494 153.617 339.463 154.459C339.32 158.383 338.516 163.901 338.45 167.717C338.356 172.244 339.713 172.305 338.832 177.72C339.22 176.444 339.597 175.159 339.962 173.908C339.687 177.616 339.31 181.485 338.844 185.22C337.927 176.324 338.591 187.14 338.521 187.729C338.463 188.792 337.918 187.206 337.804 188.956C337.799 189.114 338.501 189.032 338.276 191.512C337.855 196.315 337.139 195.175 336.98 196.829C336.979 196.843 336.985 196.852 336.996 196.858C337.093 196.927 337.631 196.784 337.405 200.356C336.599 212.494 336.943 200.346 336.906 199.758C336.864 199.21 334.782 201.985 335.228 196.693C335.281 195.988 335.431 195.064 335.749 193.65C335.225 196.033 334.357 196.306 334.054 196.583C333.998 196.651 333.962 196.71 333.952 196.773C333.901 197.179 333.437 203.308 333.441 203.59C333.519 206.512 334.561 204.064 334.641 204.639C334.697 205.166 332.965 211.849 335.154 213.563C332.707 216.439 333.356 211.685 333.627 206.098C333.269 205.269 332.205 211.215 332.184 211.488C331.448 218.951 333.629 214.978 334.601 216.704C335.113 217.599 333.647 220.452 335.474 217.86C335.073 224.467 334.501 220.388 334.326 220.808C334.071 221.425 334.346 223.774 334.266 224.06C334.145 224.473 333.704 222.969 333.388 224.617C333.339 224.9 334.092 227.655 334.794 224.218C334.327 228.844 335.176 228.52 333.451 229.997C336.342 233.388 331.499 232.236 331.258 233.507C330.634 236.89 333.104 236.03 333.212 236.211C333.763 237.213 333.108 243.411 333.01 247.148C332.975 248.376 332.959 249.385 333.004 250.02C332.48 249.616 332.318 248.513 332.314 247.13C332.285 244.743 333.153 241.288 332.959 240.28C332.017 235.296 331.846 247.199 329.783 243.542C330.21 244.741 330.641 245.892 331.075 247.098C331.2 247.55 331.324 247.998 331.447 248.444C329.862 252.041 329.633 246.705 329.457 256.716C330.573 258.429 329.749 249.642 330.579 251.455C331.121 252.462 330.791 258.355 331.044 258.529C331.413 258.653 331.409 253.288 331.883 254.173C333.238 255.943 329.274 276.087 330.714 260.66C330.238 264.922 327.553 266.779 327.614 270.454C327.592 272.71 333.475 260.945 328.867 279.401C327.696 279.645 330.19 272.144 330.128 271.774C330.066 271.456 327.313 272.439 327.14 272.653C326.812 273.208 325.411 281.113 324.238 285.845C323.061 290.892 320.898 296.114 319.42 298.148C321.011 296.798 316.68 307.24 308.861 314.794C303.227 320.321 299.173 322.202 298.275 322.983C297.524 323.573 301.003 322.531 300.187 323.129C294.247 327.68 282.999 329.631 279.164 330.485C274.597 331.594 275.414 332.133 275.152 332.205C273.241 332.591 274.648 331.743 273.486 332.002C271.582 332.5 260.569 334.353 260.16 334.485C260.01 334.544 261.887 335.128 259.596 335.666C259.221 335.748 259.236 334.728 252.664 336.157C244.823 337.844 258.38 336.623 255.245 338.18C249.882 337.411 250.306 338.887 248.912 338.966C248.414 338.993 244.744 338.192 241.018 338.784C243.66 338.209 246.35 337.624 249.061 337.024C246.323 337.185 241.217 338.172 239.027 338.208C237.96 338.227 238.669 337.048 236.398 337.386C235.925 337.462 234.332 340.316 240.17 338.338C240.777 339.197 237.831 338.985 236.559 339.424C236.403 339.479 235.999 340.572 234.878 340.598C234.583 340.609 234.246 340.561 233.861 340.426C233.376 340.218 237.715 335.195 225.453 339.931C225.051 340.081 226.546 340.492 226.156 340.653C225.874 340.768 222.634 340.87 222.258 340.983C221.894 341.106 223.544 341.569 223.114 341.734C220.888 342.586 217.734 340.395 222.385 340.151C220.788 340 219.255 339.831 217.658 339.657C219.468 341.371 215.278 340.382 213.119 340.576C199.305 341.714 208.62 342.401 206.268 343.156C202.438 344.307 205.287 341.048 199.576 342.15C199.028 342.218 206.064 343.559 192.409 342.881C194.411 342.839 196.426 342.776 198.448 342.69C197.252 340.931 191.194 342.854 190.693 342.856C185.282 342.994 188.992 342.493 180.868 343.077C180.135 343.124 178.573 342.596 177.015 342.713C170.456 343.201 185.507 343.788 185.845 344.42C186.071 344.903 169.916 343.828 169.246 343.445C166.923 342.486 176.754 343.789 174.92 342.68C174.45 342.422 164.893 341.986 155.772 340.358C148.658 339.044 144.26 337.404 142.322 336.624C136.274 334.021 134.942 330.628 133.768 333.133C133.265 329.985 131.172 331.032 130.466 330.679C122.194 326.333 122.32 326.322 115.154 322.203C113.574 321.255 112.717 319.68 112.087 319.41C111.718 319.252 111.825 320.402 110.084 319.498C108.384 318.629 101.488 313.12 96.6748 307.104C92.535 302.129 91.7229 299.828 91.4077 299.163C91.0329 297.843 93.4363 302.372 97.4037 306.442C98.3745 307.367 99.0496 307.843 98.7928 307.184C98.4584 306.824 98.1248 306.46 97.7921 306.089C88.8164 295.091 88.3757 290.96 86.1203 285.668C85.36 283.494 86.2882 284.407 85.9689 283.486C85.7585 283.005 83.0994 276.315 83.0299 276.687C82.9263 277.129 84.3772 282.295 86.4471 287.805C88.308 293.101 92.1045 300.019 89.202 295.724C88.0386 294.004 87.155 288.707 86.0688 290.093C78.8828 270.691 77.0809 257.618 74.0833 242.823C73.6735 240.66 73.3036 238.562 72.947 236.393C73.5671 238.464 74.1199 240.529 74.6592 242.702C76.6135 250.429 77.8284 258.911 80.0554 267.154C80.4189 268.555 81.6359 273.527 82.231 272.71C79.8607 263.583 77.1086 253.221 75.901 245.078C75.8637 244.821 76.752 245.603 76.6599 244.632C76.6118 244.125 76.3954 243.326 76.1085 242.399C75.3146 239.785 74.1271 236.344 74.1973 235.519C74.2252 235.32 75.8295 238.812 76.2006 237.586C77.1551 234.456 73.7293 234.378 73.3462 231.876C72.9779 229.965 72.8482 216.922 71.6126 213.792C70.1534 210.459 71.9998 223.414 71.0551 222.546C69.0205 213.857 69.2945 204.782 68.9882 196.327C68.9823 196.178 68.3097 197.484 68.1697 195.607C67.9379 192.287 68.9445 191.431 69.1054 189.818C69.258 188.092 69.2774 181.953 69.6977 181.111C69.7491 181.006 70.6838 182.311 70.7057 182.499C71.0188 185.15 69.7309 186.098 69.7075 186.329C69.6414 187.231 70.12 188.162 70.0846 188.979C70.027 190.318 69.5704 191.122 69.5446 192.894C69.5284 194.133 70.386 192.926 70.3616 194.123C70.3377 194.573 68.4724 199.362 70.5306 199.71C70.4851 199.826 72.6698 161.452 74.2292 156.252C73.2728 159.993 72.5338 163.483 71.8915 166.901C73.1398 160.478 73.3402 152.147 76.0539 149.197C76.2467 149 76.437 148.882 76.6236 148.847C82.9229 128.587 98.2628 118.892 107.907 113.75C125.558 104.525 143.277 102.152 159.19 101.747C160.397 101.716 161.602 101.738 162.797 101.812C169.752 102.513 170.912 103.715 173.133 104.708C175.136 105.814 178.785 107.149 185.118 111.358C182.296 108.719 178.614 105.948 173.65 103.752C179.165 105.379 189.345 112.341 193.946 118.071C199.03 123.859 201.803 128.63 202.839 129.875C203.067 130.178 204.667 129.96 207.115 133.881C209.219 137.32 208.548 138.346 209.329 140.224C209.978 141.799 211.059 143.32 211.226 143.779C211.352 144.132 210.851 144.559 211.145 145.398C212.069 148.043 212.7 145.241 212.036 148.601C211.676 148.039 211.316 147.481 210.949 146.914C212.161 150.049 213.164 154.407 210.704 150.306C210.275 149.597 211.141 149.968 210.871 149.412C199.16 126.971 207.854 145.786 212.084 152.79C212.102 153.312 212.393 154.241 212.826 155.373C215.176 160.74 218.104 169.993 217.983 170.425C217.899 171.187 216.564 168.783 216.763 172.318C217.346 173.103 219.901 192.948 217.984 185.888C217.745 184.479 216.666 174.944 215.949 172.629C215.542 178.399 219.223 190.49 219.021 191.954C218.839 197.538 217.056 181.3 217.126 193.813C216.749 203.298 218.274 194.429 218.717 198.11C219.082 200.264 216.473 210.649 218.254 210.595C217.885 214.216 217.244 211.959 217.106 212.389C217.022 212.795 216.202 219.903 215.223 221.976C215.111 222.23 214.38 221.174 214.237 221.426C214.069 221.76 213.301 224.976 212.844 226.789L212.967 226.34C212.741 227.332 212.562 228.095 212.562 228.192C212.571 228.38 213.83 226.988 213.844 227.708C213.958 228.449 211.514 235.385 211.418 236.052C211.734 236.577 214.326 227.804 214.719 229.556C213.448 233.239 211.57 240.456 209.31 245.461C209.99 244.108 212.494 238.881 213.053 237.481C213.55 238.092 212.822 240.869 211.409 243.573C210.031 246.253 207.978 248.69 209.148 245.91C208.44 247.583 208.358 248.038 208.496 248.235C208.608 248.454 208.901 248.439 208.378 249.617C208.236 249.917 207.237 251.371 205.622 253.162C204.076 254.933 201.558 257.07 200.614 257.851C200.52 257.965 203.065 256.283 204.692 254.915C206.383 253.535 207.515 252.47 207.09 253.176C206.544 253.926 205.057 256.069 200.66 259.217C200.343 259.469 199.287 260.066 198.954 260.295C196.611 261.85 191.7 263.928 189.189 264.556C186.536 265.296 185.187 265.48 184.862 265.509C183.735 265.536 184.925 265.128 187.107 264.353C189.197 263.658 193.216 261.913 193.724 261.321C193.829 261.249 190.382 262.334 188.013 262.62C185.589 262.964 183.99 262.928 183.915 262.899C183.642 262.395 185.187 262.051 187.455 261.375C189.675 260.75 192.794 259.427 191.82 259.29C188.468 260.398 186.048 260.714 184.199 260.908C185.353 260.489 186.846 260.04 189.019 259.24C191.13 258.486 194.261 257.024 196.285 255.734C196.559 255.546 197.427 255.055 197.687 254.848C206.037 248.463 207.077 244.347 208.747 241.391C210.107 238.441 210.628 236.461 210.668 235.339C208.61 240.045 207.952 245.938 197.092 253.973C196.842 254.171 196.012 254.641 195.75 254.821C193.097 256.246 189.806 257.27 188.212 257.386C186.504 257.556 185.719 257.246 185.558 256.658C185.434 256.137 186.578 255.428 188.017 254.596C189.45 253.781 191.026 252.804 190.824 252.746C190.155 252.549 187.508 253.654 185.656 254.266C183.771 254.922 182.48 255.406 182.364 255.409C182.189 255.383 182.103 255.342 182.092 255.287C182.092 255.287 182.092 255.287 182.092 255.287C182.068 254.987 183.739 254.493 186.484 253.459C189.318 252.461 192.773 250.376 192.771 250.194C193.527 249.325 187.569 250.222 187.47 249.665C187.497 249.632 190.105 248.371 191.346 247.298C191.511 247.185 192.032 246.89 192.189 246.766C194.229 245.074 194.851 243.944 193.316 244.896C192.852 245.165 192.285 245.51 191.595 245.893C191.45 246.008 190.966 246.282 190.813 246.387C189.505 246.895 187.214 247.822 185.666 248.229C184.097 248.667 183.139 248.848 183.048 248.841C182.684 248.758 183.483 248.443 184.97 247.834C186.423 247.266 188.861 246.04 190.084 245.142C190.221 245.048 190.653 244.803 190.783 244.7C192.559 243.356 193.259 242.405 193.317 242.27C193.328 242.154 192.288 243.07 190.39 244.122C190.268 244.219 189.86 244.45 189.731 244.539C188.29 245.1 186.171 245.637 186.07 245.521C185.887 245.436 187.767 244.39 188.956 243.216C189.068 243.139 189.422 242.939 189.528 242.855C190.639 241.86 191.302 240.894 191.607 240.224C191.913 239.499 191.28 239.849 190.548 240.285C189.82 240.729 188.887 241.258 189.218 240.954C189.551 240.747 191.935 238.516 193.051 236.63C194.288 234.717 195.002 233.025 195.046 232.838C195.142 232.306 193.827 233.539 193.784 233.244C193.753 232.821 194.867 230.893 194.52 231.066C194.387 231.128 193.031 232.882 191.24 234.541C189.532 236.227 186.898 237.653 186.706 237.353C186.847 236.451 193.634 230.739 185.529 234.77C185.498 234.779 185.105 235.281 184.645 235.676C184.631 235.687 184.585 235.713 184.57 235.723C184.25 235.977 183.938 236.194 183.913 236.195C183.34 236.133 183.861 235.447 184.102 234.923C184.106 234.92 184.119 234.912 184.123 234.909C184.304 234.465 184.321 234.173 183.786 234.414L183.799 234.405C183.368 234.544 182.617 234.988 181.1 235.517C182.195 235.046 182.981 234.521 183.585 234.04L183.548 234.063C184.702 232.89 184.877 232.018 184.867 231.744C184.833 231.442 184.505 231.598 184.08 231.81C183.654 232.026 183.125 232.259 182.74 232.229C182.348 232.207 182.123 231.97 182.012 231.567C181.904 231.239 182.224 230.64 182.603 229.753C182.977 228.897 183.331 227.94 183.291 227.914C182.373 227.89 182.382 229.21 181.841 229.254C181.571 229.381 182.259 226.152 181.395 226.538C181.182 226.645 180.718 227.494 180.332 228.057C180.14 228.343 179.979 228.553 179.89 228.654C179.798 228.758 179.777 228.768 179.764 228.762C179.502 228.265 178.929 227.977 178.684 227.677C178.621 227.596 178.592 227.499 178.898 227.229L179.409 226.906C179.046 227.043 178.912 227.064 178.865 227.055C178.848 227.035 178.873 226.934 178.89 226.794C178.911 226.652 178.914 226.48 179.015 226.232L178.459 226.583C177.571 226.837 177.422 226.611 177.286 226.454C177.197 226.335 176.999 226.291 176.901 226.152C176.793 226.023 176.847 225.763 176.739 225.784C176.423 225.843 176.407 225.864 176.541 225.716C176.671 225.578 176.918 225.312 177.059 225.091C177.2 224.87 177.237 224.708 177.004 224.713C176.782 224.694 176.239 224.936 175.481 224.9C175.391 224.892 175.298 224.987 175.305 224.963C175.301 224.95 175.437 224.801 175.436 224.78C175.386 224.554 175.296 224.44 175.138 224.43C174.983 224.417 174.807 224.472 174.691 224.471C174.446 224.492 174.449 224.182 174.224 223.943C173.839 223.541 173.575 223.77 173.506 223.726C173.467 223.715 173.458 223.676 173.396 223.648C173.341 223.609 173.219 223.623 173.189 223.295C172.889 223.414 172.743 223.331 172.875 223.008C173.03 222.686 173.382 222.091 174.746 221.125L175.679 220.535C175.661 220.536 175.905 220.413 176.118 220.35C176.333 220.283 176.444 220.295 176.266 220.384C176.431 220.302 176.348 220.266 176.119 220.301C175.894 220.331 175.598 220.419 175.574 220.354L174.628 220.952C173.07 221.92 172.652 222.375 172.308 222.557C171.994 222.742 171.865 222.696 171.74 222.606C171.508 222.407 171.323 222.058 171.061 221.909C170.811 221.736 170.481 221.776 170.268 221.724C170.173 221.685 170.093 221.621 170.271 221.262C170.513 220.902 170.735 220.202 172.998 218.556L174.11 217.854C174.163 217.816 174.38 217.692 174.648 217.571C174.353 217.714 174.148 217.805 174.076 217.795L172.96 218.5C170.545 220.089 170.359 220.131 169.778 220.223C169.311 220.27 168.974 220.226 168.814 220.431C168.757 220.505 168.72 220.733 168.764 220.835C168.803 220.944 168.911 220.927 168.944 220.803C169.025 220.523 168.684 220.098 166.959 219.703C166.747 219.648 166.693 219.819 166.706 219.735C166.71 219.667 166.784 219.388 166.304 219.322C166.176 219.595 166.245 219.513 166.275 219.444C166.313 219.364 166.344 219.263 166.345 219.204C166.352 219.076 166.245 219.121 166.112 219.194C165.978 219.269 165.832 219.331 165.768 219.264C165.698 219.207 165.718 219.03 165.693 219.015C165.185 218.721 164.694 219.12 164.899 218.378C165.07 217.696 165.708 216.019 166.335 214.013C166.368 213.916 166.436 213.616 166.471 213.52C167.683 209.938 168.545 206.958 168.647 205.845C168.907 203.011 167.56 200.447 167.615 199.887C167.796 198.003 168.461 199.644 168.8 199.248C169.2 198.789 167.849 193.459 167.873 193.275C168.205 192.293 169.189 193.273 169.236 193.174C169.929 191.831 168.526 185.292 168.253 183.716C167.68 183.896 168.241 187.274 166.868 185.358C165.248 183.258 167.85 182.518 167.96 182.4C167.448 180.475 166.8 178.685 166.023 177.015C162.921 170.327 159.734 163.945 156.744 159.356C155.307 157.11 153.796 155.333 153.398 155.01C153.231 154.844 153.401 155.113 154.514 155.692C155.574 156.254 157.879 157.04 160.401 157.012C160.344 157.375 159.213 157.621 157.71 157.456C156.204 157.308 154.603 156.684 153.834 156.2C153.025 155.705 152.9 155.448 152.947 155.426C152.996 155.395 153.173 155.521 153.143 155.561C153.057 155.728 152.893 155.774 152.741 155.8C152.595 155.828 152.451 155.85 152.624 156.079C152.8 156.296 153.324 156.788 154.721 157.406C156.071 158.018 158.48 158.607 160.804 158.51C157.549 158.58 154.764 158.719 154.006 158.599C155.522 158.766 157.054 158.971 158.601 159.212C156.09 160.999 150.342 159.372 147.188 160.818C146.189 161.268 148.335 161.503 148.3 161.562C147.228 162.424 145.317 162.342 146.498 161.174C143.887 162.636 144.093 161.64 142.06 162.158C141.967 162.187 142.976 162.581 141.554 163.331C140.837 163.655 137.455 165.026 137.365 165.787C137.336 166.072 139.911 167.811 139.231 165.634C143.239 165.281 140.021 164.206 141.534 163.724C141.824 163.676 141.466 164.977 145.512 163.307C145.153 165.692 140.326 165.417 139.801 166.002C138.603 167.036 144.774 166.033 145.87 164.07C145.693 165.962 146.39 164.172 148.09 163.911C149.954 163.641 149.236 164.321 150.255 164.151C153.077 163.742 151.751 162.649 154.319 163.505C151.49 160.233 158.613 162.606 160.707 163.547C157.372 163.829 154.195 164.276 151.274 164.89C151.473 165.048 151.663 165.208 151.857 165.368C151.08 165.451 150.309 165.546 149.568 165.65C149.656 165.454 149.744 165.259 149.834 165.063C146.22 166.887 145.27 165.911 144.937 165.961C142.084 166.598 139.482 167.575 137.332 168.729C136.536 169.154 135.981 169.48 135.555 169.748C135.419 169.835 135.544 170.097 135.45 170.372C135.406 170.508 135.31 170.646 135.165 170.731C135.024 170.811 134.83 170.848 134.703 170.66C134.591 170.364 133.829 169.861 134.097 169.771C135.172 170.406 135.49 170.192 135.428 169.963C135.38 169.714 135.019 169.378 135.112 169.231C135.674 168.368 136.596 167.623 136.646 167.505C136.763 167.236 136.875 166.933 136.975 166.607C137.075 166.279 136.98 166.633 136.897 167.025C136.814 167.41 136.704 167.949 136.601 168.51C136.392 169.641 136.198 170.928 136.081 172.067C136.084 172.117 137.02 170.82 136.559 172.547C136.392 173.067 132.491 178.636 133.343 184.219C133.616 182.811 133.908 181.428 134.22 180.049C133.687 181.64 134.313 193.356 135.226 190.495C135.736 188.762 133.791 184.457 135.81 184.066C134.675 187.788 136.648 209.484 136.695 211.217C136.655 211.457 135.854 210.096 135.808 210.426C135.756 210.674 136.526 215.655 136.395 216.369C136.303 216.788 135.605 214.612 135.402 214.825C135.234 215.011 135.902 221.335 136.784 221.553C136.193 220.079 135.839 215.702 136.847 217.868C136.972 218.141 136.693 219.747 136.855 220.072C138.339 223.179 136.592 213.455 136.489 211.935C137.803 216.507 138.308 223.115 139.578 229.112C140.028 231.257 140.51 233.264 141.083 235.124C141.111 238.41 139.064 230.672 139.29 234.345C139.79 242.004 140.63 236.116 140.763 236.327C141.82 238.025 139.698 244.979 142.4 244.335C142.618 247.011 142.072 246.288 143.324 249.762C143.391 249.252 143.454 248.721 143.525 248.216C146.046 251.89 144.395 260.517 143.946 259.993C142.691 258.828 142.764 254.373 142.639 253.995C142.461 253.481 139.304 252.778 140.233 245.981C137.768 243.94 141.438 255.965 138.788 250.767C139.779 254.699 143.277 269.307 143.826 267.432C143.879 267.416 144.307 267.164 144.633 267.003C144.793 266.917 144.934 266.864 144.938 266.784C144.921 266.684 144.861 266.636 144.072 265.972C143.666 265.63 143.494 265.569 143.574 265.78C143.635 265.969 143.862 266.359 143.968 266.615C144.216 267.176 144.119 267.269 143.911 267.33C143.814 267.345 143.714 267.327 143.513 267.156C143.295 266.971 143.03 266.648 142.175 265.772C142.227 266.559 147.591 271.016 153.964 274.111C160.312 277.378 166.454 278.913 167.101 278.896C167.175 278.909 167.248 278.921 167.32 278.933C167.697 279 167.425 279.543 167.801 279.604C168.804 279.785 173.151 279.526 175.32 280C170.957 278.446 179.662 279.307 181.974 279.502C185.445 279.885 185.19 280.878 186.721 281.159C192.616 282.257 201.89 279.632 206.68 281.6C206.296 279.384 214.894 282.182 218.791 281.748C221.821 281.451 226.003 279.409 221.834 279.004C223.371 278.853 224.865 278.649 226.421 278.398C230.51 277.746 234.551 276.956 238.224 276.344C239.079 276.201 237.993 277.028 239.444 276.763C239.575 276.733 239.678 276.059 240.916 275.813C251.046 273.756 246.27 275.849 248.225 275.972C249.321 276.034 250.088 276.026 250.659 275.972C244.93 277.031 237.919 278.25 236.03 278.532C237.882 279.749 249.414 276.357 252.607 276.173C252.724 276.167 252.457 277.02 252.574 277.006C252.577 277.006 252.579 277.005 252.582 277.005C253.913 276.882 261.165 275.181 259.452 274.537C259.029 274.367 255.763 275.034 251.508 275.815C252.621 275.45 251.623 274.71 251.818 274.64C254.234 273.812 260.062 273.594 261.787 273.285C262.2 273.216 262.042 272.665 262.107 272.649C263.676 272.404 263.502 274.133 264.54 272.116C266.025 272.754 264.975 273.15 263.383 273.532C261.805 273.915 259.67 274.253 260.125 274.833C260.336 275.183 263.678 274.673 266.439 273.79C267.791 273.368 268.957 272.822 269.162 272.579C269.421 272.324 268.458 272.539 266.976 273.748C266.499 273.879 266.176 273.816 265.868 273.598C266.001 273.706 266.143 273.874 266.322 274.042C266.512 274.236 266.615 274.291 266.779 273.883C266.934 273.508 267.065 272.705 266.986 272.428C266.953 272.332 265.446 271.943 265.458 271.847C265.464 271.796 265.555 271.64 265.694 271.367C266.643 268.654 268.581 263.521 268.241 261.538C267.741 262.807 267.198 264.157 266.612 265.624C267.712 261.117 267.804 259.772 267.716 259.354C267.605 258.993 267.215 259.832 266.708 261.077C266.675 261.206 266.59 261.322 266.556 261.446C265.787 263.364 264.689 266.373 264.554 266.409C264.305 266.421 265.139 262.429 265.743 259.702C266.371 256.929 266.944 254.629 267.505 255.868C267.713 256.187 265.978 261.812 267.543 259.147C267.846 258.657 268.124 255.005 268.239 254.824C269.242 253.596 268.869 261.849 270.024 261.161C269.473 258.84 270.418 256.489 270.421 254.136C270.423 253.07 269.667 252.728 269.666 252.598C269.642 250.615 270.356 251.78 270.391 251.117C270.427 250.774 268.9 246.581 271.253 247.457C271.195 246.771 271.133 246.143 271.07 245.55C270.28 235.239 269.864 238.774 269.64 245.513C269.577 247.535 269.49 249.799 269.343 251.851C268.951 250.302 269.049 247.855 269.101 245.499C269.148 243.565 269.219 241.801 269.179 240.612C269.143 239.513 268.319 240.123 268.226 238.271C267.951 234.479 269.983 215.992 270.744 211.229C270.761 214.198 271.705 213.416 271.851 211.142C272.002 208.873 270.665 210.667 270.582 210.213C270.479 209.674 272.107 199.3 272.13 197.747C271.743 205.369 272.795 203.7 273.563 197.341C273.716 198.276 273.867 199.224 274.017 200.177C274.05 197.793 274.895 193.997 275.425 191.109C275.801 188.794 276.114 187.006 276.068 186.117C276.049 185.74 275.166 186.981 275.155 186.771C275.121 184.435 276.563 178.683 276.315 178.455C276.135 178.205 275.26 180.569 275.059 179.632C275.018 179.432 276.259 177.213 276.198 174.963C276.177 174.113 275.447 174.568 275.423 174.355C275.221 172.575 276.323 173.716 276.331 170.456C276.323 168.032 275.263 166.212 275.72 162.773C273.898 173.856 274.887 164.609 274.483 159.814C274.417 159.03 273.177 159.726 273.792 155.081C275.804 163.967 275.205 154.569 275.006 150.624C274.987 150.204 274.975 149.843 274.974 149.578C274.98 149.434 275.807 149.344 275.803 148.017C275.801 147.9 275.244 148.084 275.183 146.815C274.594 134.925 275.343 142.52 275.859 140.244C276.079 139.285 275.178 133.484 275.125 131.918C275.115 131.558 275.7 131.716 275.648 130.317C275.554 127.861 274.884 125.658 274.796 124.036C274.788 123.848 275.707 123.813 275.333 120.741C275.228 119.876 274.877 118.908 274.645 120.149C273.884 124.256 275.558 131.949 274.777 136.593C274.071 140.809 273.735 127.557 273.706 126.863C273.698 126.609 274.212 129.186 274.242 126.557C274.266 124.302 272.583 120.236 272.839 116.883C272.858 116.627 274.128 113.918 274.209 114.038C274.271 114.15 274.672 118.249 275.044 117.643C275.087 117.569 275.008 114.96 275.288 114.61C275.629 114.182 279.054 112.961 279.124 112.4C279.298 110.961 278.536 111.916 278.564 110.988C278.625 108.997 279.43 102.084 278.222 101.899C278.189 103.042 278.154 104.172 278.119 105.315C277.792 98.996 277.367 101.709 277.113 100.822C276.838 99.8725 277.9 100.099 277.924 97.9721C277.936 97.499 277.374 88.641 276.933 88.8233C277.835 93.6874 276.459 91.9351 276.445 92.1588C276.394 93.0121 277.166 94.0893 277.194 95.2423C277.372 103.369 275.927 95.2203 275.699 97.1477C275.624 97.8134 276.293 99.1007 276.27 99.3849C276.199 100.303 275.383 100.344 275.47 100.948C275.671 102.36 276.77 100.666 276.833 100.777C277.6 102.02 276.86 107.026 275.505 103.969C275.112 105.842 276.645 106.011 276.08 107.505C274.96 110.476 275.138 106.072 274.898 104.89C274.036 100.65 274.584 99.3671 274.157 93.3626C274.004 91.207 273.157 88.6769 273.073 87.6895C273.025 87.0533 275.331 81.0309 271.282 81.058C271.562 78.7612 274.027 75.0643 273.758 72.785C273.706 72.3349 273.597 72.0284 273.46 71.8162C272.969 71.0271 272.116 71.4571 272.063 71.3092C271.958 71.0153 271.901 68.5933 271.633 67.7899C271.32 66.8648 270.816 67.3805 270.471 65.9146C269.602 62.3441 271.044 62.3635 271.106 61.983C271.744 57.8416 269.875 59.8914 269.609 59.0654C269.527 58.8459 269.384 57.3031 269.24 56.1402C269.183 55.5976 269.089 55.1312 269.272 55.6159C269.371 55.8619 269.56 56.3962 269.989 57.294C270.371 58.1308 271.206 59.4976 271.374 59.7097C271.436 59.7682 271.858 60.4408 272.982 61.6201C274.066 62.7859 275.908 64.2449 277.088 65.0281C273.927 62.7524 272.607 60.6083 272.335 59.8219C273.026 60.0734 273.934 61.2071 275.454 62.482C276.953 63.7588 278.723 64.7805 279.544 64.7933C279.533 64.6507 279.618 64.4938 279.725 64.2643C279.398 64.8342 279.401 65.2826 280.155 65.8115C280.881 66.3295 281.855 66.6513 282.294 66.7009C283.233 66.8052 282.659 66.2429 282.389 66.2561C282.157 66.2563 282.115 66.7028 281.772 66.6857C280.479 66.5922 275.357 65.9978 274.066 66.2036C268.596 66.9974 282.606 69.1285 281.886 69.3726C281.67 69.133 268.909 69.3068 274.586 70.7589C275.434 70.9807 276.955 69.8645 277.394 69.8414C280.338 69.6977 277.994 70.6266 278.22 70.7393C278.597 70.9183 280.466 70.0224 280.798 70.1806C280.861 70.2058 280.662 70.438 280.715 70.6903C280.74 70.8163 280.835 70.9476 281.022 71.059C281.218 71.1712 281.531 71.267 281.804 71.3067C281.941 72.1301 273.5 70.9447 272.156 71.1834C271.692 71.2628 274.471 73.2549 266.514 71.2339C266.607 71.4187 266.699 71.6034 266.79 71.7882C262.268 71.8262 257.684 71.9242 253.009 72.0518C253.517 71.6219 256.097 70.7437 252.823 70.959C250.89 71.0864 252.333 72.0136 252.158 72.0431C251.781 72.0986 250.452 72.1427 248.256 72.1907C239.388 72.3753 218.276 72.6068 213.438 72.8007C211.379 72.8782 205.685 73.7622 205.254 73.7863C202.636 73.9192 193.408 73.6384 191.567 73.7906C190.42 73.8866 191.531 74.6497 190.504 74.6372C189.547 74.6246 190.519 73.8382 190.234 73.8131C187.878 73.5885 170.061 75.0367 165.809 74.4359C168.404 74.5797 181.281 72.7257 181.012 72.1963C180.954 72.1238 177.795 71.6226 177.156 71.9221C176.07 71.2887 172.445 73.3936 170.438 73.0512C170.21 73.0124 171.072 71.8608 167.499 71.7505C166.267 71.7131 163.074 72.678 159.812 71.7818C155.136 72.3715 130.479 71.6501 128.84 72.9304C128.793 72.9958 132.277 73.3005 129.95 73.8736C126.855 74.6363 129.565 72.3186 125.962 72.2458C125.378 72.2328 115.375 72.8065 115.032 72.9606C112.043 74.3193 120.82 74.51 120.715 74.6616C120.407 75.0365 113.147 75.5186 112.848 75.4455C112.584 75.3654 118.428 73.4916 111.32 74.384C112.139 74.5512 112.991 74.7175 113.804 74.8856C110.437 75.3961 110.109 74.2636 109.294 74.2246C108.136 74.1695 106.971 74.5122 105.69 74.7254C104.052 74.9896 102.303 75.0574 100.017 73.9729C98.9401 73.4492 100.66 72.7395 100.527 72.6598C99.2317 71.9475 97.6795 74.0727 95.7224 72.6308C95.563 72.5257 99.9599 71.3934 92.2141 71.7647C92.7444 71.8854 93.2807 72.0062 93.8232 72.127C92.7752 72.4993 84.9106 73.1074 83.8763 73.0961C80.7772 73.0486 83.4018 71.8381 80.3275 72.1475C82.3803 73.4644 73.0417 74.2428 73.5077 72.9744C72.3053 74.6137 64.3202 73.9844 60.4996 74.2608C58.116 74.429 53.1202 75.514 52.2602 75.4956C51.2647 75.4724 51.486 74.3892 49.6352 74.2841C49.2003 74.2515 45.0808 75.1394 40.3453 74.7548C39.6776 74.687 39.0148 74.5882 38.3717 74.4501C37.4937 74.2643 35.5922 72.5117 37.2091 72.0116C38.0796 71.7477 39.1281 71.6888 40.2498 71.6993C43.1551 71.7138 45.9764 72.0093 45.8794 71.2751C45.7879 70.606 43.0474 70.7341 40.2239 70.8693C38.5182 70.9572 36.8679 71.0856 36.0835 71.0472C27.2539 70.6087 32.3156 69.2481 32.0705 68.8878C31.4737 68.0118 26.6545 68.1656 26.449 68.0889C25.6111 67.7531 28.9935 66.9601 29.0417 66.4125C29.071 65.7025 24.4164 64.5369 25.4633 64.2711C26.9741 63.8955 31.2413 64.851 31.5103 64.7917C35.005 64.0053 30.1347 62.5001 28.8068 61.7271C28.4037 61.4897 29.9757 61.0405 29.6449 60.9765C24.541 60.0048 28.6404 63.3105 25.2499 63.1672C22.2154 63.037 26.0858 61.8658 25.9624 61.8087C25.8207 61.7477 22.2002 61.7748 21.6323 61.4049C21.3611 61.2253 30.6713 58.8968 30.2462 57.9626C27.2673 58.2501 24.2825 58.5312 21.3099 58.8044C21.028 57.5854 25.3812 58.3872 25.7984 58.2491C26.6823 57.9737 24.1903 57.414 24.2777 57.0238C24.3481 56.7758 27.2169 55.8256 24.5858 55.527C23.6629 55.4235 21.7912 56.3295 18.4585 55.5199C29.9296 54.1438 21.9696 53.6319 21.6033 53.2066C21.256 52.7802 26.7321 51.6339 20.0697 51.9644C19.7249 49.5849 20.214 51.2076 22.0771 50.746C24.3963 50.1751 19.0112 49.5218 27.4816 49.9099C26.9738 48.8084 20.1983 49.0474 19.8228 48.963C19.509 48.889 21.0108 48.3068 20.4661 48.1325C14.0671 46.1072 18.4451 47.0017 16.5789 45.6609C16.4099 45.5431 10.41 45.1379 14.9667 44.8562C23.2814 44.3332 26.8107 45.8111 28.1198 42.3945C21.9227 41.0895 14.5305 43.4165 12.6542 43.4818C9.79492 43.5816 12.7475 42.8435 12.3896 42.6557C12.2775 42.5957 9.8017 42.691 9.76797 42.6361C7.9761 40.0903 20.7389 42.4106 24.7474 41.8484C23.6558 41.4882 22.5861 41.1266 21.4937 40.7646C22.9703 40.7158 24.4054 40.6662 25.8656 40.6144C18.9099 40.0041 25.611 40.329 27.2881 38.1932C27.6651 37.7139 23.135 38.6351 28.2994 37.1971C24.465 36.9942 25.6689 36.537 22.2164 37.2078C22.2726 36.3718 30.0781 35.2339 33.12 34.7122C22.2407 34.065 28.4949 36.9804 19.0836 35.5694C17.3565 36.6439 21.8434 36.3456 21.473 36.5241C20.172 37.1691 17.095 36.26 13.4138 38.4813C12.8166 38.8455 15.3892 39.893 11.6099 39.9033C11.1728 39.9035 8.77807 39.0066 8.7934 38.9383C9.1201 38.2048 11.478 38.4429 11.5897 38.136C11.6631 37.8471 9.02438 38.0601 9.00819 37.9797C8.92328 37.0672 11.2181 37.598 10.8798 37.3167C10.163 36.7061 0.573124 34.8752 13.0478 35.2678C2.70494 36.4566 11.724 36.3092 15.7656 35.8311C16.7765 35.7121 17.049 35.1609 18.4992 34.9414C20.3726 34.6573 22.6071 34.868 23.567 34.7448C24.6128 34.6082 18.6195 33.465 27.2541 33.6373C22.8287 32.4707 15.1234 34.0049 10.8001 33.1656C2.13115 31.4695 16.7975 30.8657 18.3383 30.639C18.7457 30.5827 17.3624 29.8737 17.6345 29.8229C18.0782 29.7497 26.4425 29.8976 27.2523 29.2614C28.0583 28.6313 24.1881 29.3671 23.9214 28.7366C23.7208 28.3186 33.8115 27.292 28.3311 27.1451C24.5578 27.0479 17.6764 28.9192 16.4722 27.0901C22.0043 26.8283 27.5046 26.5382 33.0386 26.2266C29.9897 25.6101 26.9511 24.987 23.916 24.3564C29.185 24.0391 33.8419 24.4531 38.7546 23.8481C39.5072 23.7451 40.2691 23.6043 41.049 23.4163C40.11 23.2947 39.349 23.1711 38.7298 23.0524C34.4207 22.3471 35.9252 21.9544 38.6877 21.7056C41.1894 21.4645 45.2072 21.2274 45.3134 21.086C45.3117 20.9332 40.18 19.407 39.468 19.0778C43.283 18.3032 58.358 16.6645 49.453 15.1252C51.0333 15.5134 54.8503 13.942 54.7786 13.853C54.1359 12.9055 45.9263 14.2041 47.2345 13.1934C48.6651 12.0367 50.9524 13.278 53.4169 12.9662C66.191 11.3735 62.3619 6.4103 75.5246 6.38587C75.2527 6.21662 74.9824 6.04737 74.7137 5.87811C84.1563 5.48871 93.551 5.22987 102.894 5.05005C107.643 4.95971 112.367 4.88518 117.096 4.81936C122.505 3.0312 136.982 1.59816 144.074 1.57021C145.509 1.56115 152.561 2.19433 153.088 2.32682C154.079 2.57933 148.683 2.83966 151.139 3.2962C151.655 3.38717 163.549 3.41085 162.673 2.54562C161.34 2.4779 157.185 3.03934 156.499 2.84876C151.665 1.46942 188.32 1.70833 190.113 1.08136C189.297 0.811501 188.479 0.541794 187.66 0.272232C189.976 0.35891 192.287 0.446583 194.601 0.535057ZM91.5122 75.3437C90.2017 76.3032 86.8598 75.807 84.8631 76.1718C82.1418 76.6737 77.7572 80.3941 79.521 76.8302C83.4946 76.3129 87.4989 75.8184 91.5122 75.3437ZM151.403 74.5147C148.628 74.1147 150.709 72.1278 153.007 72.8632C153.263 72.947 155.171 75.0532 151.403 74.5147ZM122.417 74.5054C122.527 74.476 124.909 74.4461 124.998 74.4735C127.159 75.1738 119.985 75.2595 122.417 74.5054ZM262.105 70.2989C259.145 70.3859 261.344 72.1308 263.09 71.413C263.202 71.3673 262.299 70.2946 262.105 70.2989ZM260.022 70.2558C257.727 68.6926 253.142 71.9123 256.813 71.562C257.137 71.5259 260.151 70.3305 260.022 70.2558ZM141.521 74.0401C141.809 73.4302 144.688 73.6339 145.899 73.7422C145.886 74.2912 142.712 73.9366 141.521 74.0401ZM213.961 72.0286C214.054 71.5529 204.147 71.7949 203.471 72.4342C205.044 72.1334 213.838 72.4548 213.961 72.0286ZM239.402 70.8692C239.147 70.7917 235.72 70.977 235.833 71.392C237.477 71.9087 240.552 71.2188 239.402 70.8692ZM281.156 71.0883C281.104 71.025 281.689 70.5173 281.721 70.0563C281.73 69.8229 281.72 69.64 281.192 69.451C280.929 69.3541 280.489 69.2452 279.739 69.0408C279.354 68.9349 278.887 68.7975 278.441 68.6645C278 68.5353 277.57 68.3994 277.718 68.5607C276.98 68.2726 276.149 67.9054 275.296 67.4718C273.94 66.7373 275.453 68.1124 277.37 69.2786C277.121 69.2788 277.597 69.623 277.991 69.8765C278.371 70.1265 278.654 70.298 278.482 70.2567C277.523 70.0181 276.854 69.7702 277.06 69.9191C276.592 69.713 276.147 69.4939 275.741 69.2742C276.171 69.5245 276.606 69.7614 277.031 69.9784C276.821 69.904 277.352 70.1915 277.968 70.4674C278.609 70.7559 279.259 71.0084 279.796 71.1963C280.86 71.5657 281.358 71.6861 281.624 71.7582C282.122 71.8833 281.885 71.8172 281.904 71.7459C281.812 71.3495 282.051 71.2723 282.022 71.2481C282.003 71.2346 281.866 71.2239 281.651 71.19C281.438 71.1572 281.169 71.103 281.156 71.0883ZM268.115 63.015C268.598 63.4216 268.66 66.697 268.538 67.4902C268.515 67.6279 267.337 67.1295 267.539 68.6479C267.7 69.8578 268.727 67.9258 268.715 70.356C268.695 72.7794 267.645 69.6138 267.598 69.8199C267.568 69.9894 267.784 71.1189 267.877 72.1819C267.953 73.0302 267.943 73.8279 267.63 73.7906C267.426 73.7674 267.317 73.0652 267.249 72.223C267.145 70.9178 267.12 69.2618 267.013 68.6951C266.778 67.4446 266.065 69.0159 266.079 66.9448C266.083 65.6513 267.607 66.2409 267.658 65.9648C267.705 65.6819 266.441 61.4822 268.111 63.0222C268.113 63.0198 268.114 63.0174 268.115 63.015ZM273.453 67.7784C274.027 68.2356 274.778 68.7538 275.741 69.2742C274.938 68.8079 274.157 68.2932 273.453 67.7784ZM99.3054 74.3293C100.736 74.7193 96.5617 75.4866 94.9733 74.9697C94.9233 74.4912 99.0979 74.2663 99.3054 74.3293ZM269.622 62.7656C268.721 61.8293 268.65 61.8287 268.485 61.7905C268.356 61.7872 268.275 61.8605 268.276 62.0469C268.432 62.3688 268.142 63.58 273.453 67.7784C271.868 66.492 271.497 65.6728 271.077 64.9191C270.694 64.1815 270.276 63.4348 269.622 62.7656ZM177.156 71.9221C177.337 72.0271 177.454 72.1951 177.475 72.4755C177.001 72.1803 176.954 72.0165 177.156 71.9221ZM187 72.1788C190.343 71.2421 183.506 71.4427 183.559 72.0542C183.587 72.2845 186.867 72.2159 187 72.1788ZM265.801 70.3938C265.519 70.31 270.068 67.7506 263.469 69.6555C266.991 69.9725 263.293 70.2394 263.325 70.467C263.512 71.1105 269.347 70.5255 270.573 70.8401C271.583 69.6906 266.793 70.6682 265.809 70.3938C265.806 70.3938 265.803 70.3938 265.801 70.3938ZM269.788 108.783C269.082 107.967 269.22 105.312 269.201 103.528C269.91 104.337 269.775 106.992 269.788 108.783ZM136.56 174.318C136.255 184.09 133.508 185.422 135.296 176.279C135.33 176.104 136.345 173.693 136.56 174.318ZM147.905 263.48C147.023 264.54 146.042 262.624 145.906 260.579C145.875 260.133 146.558 258.246 147.34 259.892C145.925 260.308 146.29 263.126 147.905 263.48ZM269.286 61.0634C269.445 60.684 267.87 57.7148 267.542 56.7402C267.106 55.6536 267.052 55.9094 267.037 56.187C266.69 56.1065 266.476 55.7708 266.766 56.614C266.917 57.0305 267.246 57.824 267.807 58.8448C268.352 59.8519 269.092 60.8942 269.286 61.0634ZM135.087 208.187C135.104 209.308 136.235 209.96 136.301 209.756C136.605 208.846 135.562 206.872 135.087 208.187ZM282.149 69.4337C282.119 69.1808 282.705 69.0454 282.154 68.9114C281.776 68.874 278.826 68.0534 278.429 68.4734C278.83 68.6275 279.772 68.9929 280.546 69.2258C281.335 69.4675 281.848 69.5784 282.077 69.6195C282.534 69.6928 282.121 69.5784 282.149 69.4337ZM270.046 105.401C270.267 104.626 270.83 108.588 270.621 109.799C270.106 109.717 269.903 105.908 270.046 105.401ZM138.042 226.076C138.116 226.835 138.407 228.459 138.761 229.283C138.878 229.573 138.998 229.772 139.113 229.825C139.286 229.903 139.323 229.625 139.271 229.176C139.162 228.182 138.56 226.305 138.042 226.076ZM163.341 196.198C163.159 196.26 161.868 193.431 162.156 192.292C162.772 189.987 163.57 196.015 163.341 196.198ZM133.819 197.656C134.707 194.499 133.86 197.997 134.912 197.821C134.844 195.722 134.836 190.483 133.853 194.112C133.663 194.799 133.846 196.684 133.819 197.656ZM133.606 200.582C133.963 200.906 135.18 203.117 134.981 201.153C134.89 200.247 133.621 198.855 133.606 200.582ZM160.902 181.296C161.064 180.444 161.681 181.605 162.115 183.213C162.561 184.801 162.746 186.875 162.679 187.005C162.614 187.14 162.546 187.232 162.485 187.288C162.83 187.521 163.081 189.088 162.348 189.352C162.367 188.867 162.135 187.629 162.191 187.481C162.217 187.415 162.242 187.364 162.271 187.327C161.646 186.775 160.932 181.535 160.902 181.296ZM153.037 163.586C155.59 165.153 153.837 166.891 153.641 166.678C151.306 164.524 153.779 165.373 153.804 165.25C153.807 164.971 152.074 163.644 153.042 163.593C153.04 163.591 153.039 163.588 153.037 163.586ZM160.117 178.537C160.151 178.582 160.347 179.01 160.577 179.534C160.741 179.927 160.918 180.442 160.91 180.484C160.747 181.231 160.295 180.442 160.063 179.771C159.578 178.575 159.328 177.559 160.117 178.537ZM271.008 81.3317C270.883 83.5584 269.919 81.4159 270.154 79.9593C270.178 79.8313 271.118 79.4036 271.008 81.3317ZM133.931 202.13C133.707 202.579 134.245 214.231 135.526 213.39C135.13 212.411 134.721 199.257 133.931 202.13ZM152.446 268.486C151.067 267.648 153.19 267.501 153.716 268.322C153.914 268.631 152.798 268.698 152.446 268.486ZM278.081 67.9907C276.04 68.5652 276.567 66.3251 278.272 67.1881C278.338 67.2221 278.161 67.9686 278.081 67.9907ZM146.347 263.53C146.145 263.247 145.907 262.942 145.638 262.626C145.753 262.61 145.936 262.893 145.986 263.161C146.046 263.441 145.982 263.727 145.793 263.931C145.459 264.379 144.397 264.279 144.055 264.064C145.679 265.981 145.883 266.57 145.994 266.192C146.17 266.156 146.333 266.093 146.477 265.994C146.561 266.005 146.398 265.541 146.305 265.201C146.206 264.853 146.124 264.551 146.091 264.393C146.017 264.054 146.123 264.264 146.295 264.654C146.469 265.05 146.712 265.592 146.808 265.753C146.918 265.943 146.779 265.609 146.486 265.086C146.265 264.692 146.341 264.499 146.476 264.368C146.592 264.22 146.772 264.131 146.358 263.536C146.355 263.534 146.351 263.532 146.347 263.53ZM160.202 272.525C164.19 277.209 155.1 271.461 152.343 270.042C155.486 270.536 158.81 272.378 154.746 268.945C161.568 272.216 158.335 271.696 158.549 271.949C158.834 272.197 160.041 272.329 160.202 272.525ZM147.937 265.652C147.642 265.549 146.548 263.987 146.18 263.766C147.14 263.426 149.66 266.23 147.937 265.652ZM160.77 163.006C160.806 162.87 160.854 162.739 160.921 162.618C160.244 162.076 158.518 161.943 155.261 161.309C156.206 161.975 158.871 162.749 160.931 162.945C160.875 162.965 160.822 162.986 160.77 163.006ZM88.7717 71.5922C86.924 71.6345 83.2955 71.5608 84.4477 72.2738C84.5732 72.3311 88.7699 72.027 88.7717 71.5922ZM138.556 236.401C138.537 236.837 140.648 246.261 140.693 242.835C140.689 241.826 138.665 233.17 138.556 236.401ZM133.056 190.119C133.038 190.856 133.208 193.818 133.389 193.893C133.989 194.068 133.623 190.446 133.056 190.119ZM79.5302 71.3595C79.3124 71.292 73.7368 71.7874 74.3854 72.1065C75.6005 72.7012 80.3607 71.5714 79.5302 71.3595ZM273.1 89.3188C273.147 89.7938 272.37 90.435 272.368 90.5986C272.378 90.98 273.004 99.5654 271.854 96.316C271.673 95.7569 271.566 83.4326 271.572 81.8584C272.646 81.202 271.843 86.45 272.007 87.7389C272.038 87.9628 272.965 88.0612 273.095 89.3151C273.097 89.3163 273.098 89.3176 273.1 89.3188ZM149.88 158.892C150.118 158.64 150.688 158.779 151.558 159.782C152.383 160.716 153.234 162.237 152.845 162.418C151.554 160.562 150.29 159.146 149.88 158.892ZM150.611 159.307C150.919 159.37 151.034 159.319 150.982 159.187C150.933 159.056 150.756 158.861 150.61 158.702C150.291 158.361 150.251 158.316 150.226 158.45C150.061 158.616 149.903 158.648 150.006 158.82C150.086 158.977 150.517 159.29 150.611 159.307ZM131.177 207.033C131.426 207.917 132.204 205.065 132.457 205.669C132.609 206.044 132.409 208.096 132.792 208.689C132.908 208.859 133.671 206.741 133.582 206.157C133.457 205.331 132.771 206.199 132.691 205.294C132.431 202.256 132.819 199.562 132.708 196.748C132.697 196.493 132.232 198.479 132.165 196.313C132.155 195.967 132.881 193.928 132.754 191.367C130.302 185.651 132.833 181.461 132.656 174.573C132.374 174.786 131.301 179.933 131.28 180.281C130.405 186.156 130.423 197.204 130.958 203.672C131.079 205.34 131.54 204.498 131.613 205.202C131.674 205.762 130.651 205.165 131.177 207.033ZM89.7083 71.0092C88.8019 70.0902 85.7542 70.8633 83.8208 70.9248C84.5378 71.7537 87.7863 70.8934 89.7083 71.0092ZM137.009 166.235C136.847 166.332 136.527 166.46 136.195 166.604C135.502 166.916 134.937 167.19 134.965 167.387C135.001 167.63 135.693 167.425 136.408 167.003C136.791 166.769 137.088 166.488 137.009 166.235ZM274.216 138.101C274.244 138.206 274.235 140.575 274.206 140.677C273.47 142.827 273.501 135.65 274.216 138.101ZM271.693 192.345C271.646 194.046 271.759 195.853 270.918 196.368C271.161 195.235 271.174 192.084 271.693 192.345ZM264.592 267.272C265.267 267.202 264.767 269.125 264.176 270.992C263.991 271.424 263.785 271.699 263.719 271.796C263.545 271.691 263.435 271.323 263.438 270.809C263.704 269.074 264.151 267.315 264.592 267.272ZM160.36 159.803C160.532 159.801 160.692 159.793 160.841 159.781C156.799 159.548 157.739 158.158 155.319 158.191C155.123 158.189 154.46 158.834 154.364 159.515C154.289 160.163 154.743 161.066 157.722 160.954C158.228 160.921 157.602 160.604 157.579 160.344C157.555 160.047 158.065 160.046 160.842 159.844C160.693 159.829 160.533 159.815 160.36 159.803ZM145.829 265.769C145.101 265.825 144.733 264.43 144.357 263.206C144.929 263.344 145.624 265.49 145.829 265.769ZM69.4755 71.2513C67.8893 70.3993 60.8084 71.6586 62.6243 72.1526C62.9024 72.2104 68.4624 71.2834 69.4755 71.2513ZM270.08 56.2296C270.595 56.987 270.756 56.4387 270.686 55.7527C270.652 55.4219 270.566 55.1232 270.482 55.0803C270.395 55.0237 270.334 55.2798 270.266 55.6373C270.232 55.505 270.152 55.3009 270.104 55.2234C270.054 55.1403 270.029 55.1805 270.023 55.3188C270.011 55.591 270.047 56.1828 270.08 56.2296ZM267.977 252.749C268.005 252.869 267.667 255.113 267.609 255.198C266.612 256.927 267.551 250.615 267.977 252.749ZM274.887 174.132C275.464 175.152 274.302 181.458 273.442 183.182C272.814 181.257 274.247 172.908 274.887 174.132ZM150.079 161.178C151.75 160.882 153.434 160.874 155.092 160.993C154.769 161.514 150.3 161.504 150.079 161.178ZM266.708 261.077C266.675 261.206 266.59 261.322 266.556 261.446C266.607 261.319 266.659 261.197 266.708 261.077ZM132.548 167.313C132.094 168.628 133.087 168.557 133.132 168.457C133.62 167.444 133.058 165.94 132.548 167.313ZM87.3863 69.7101C86.6741 68.8833 83.4126 69.7334 81.4934 69.6427C82.0703 70.2896 85.891 69.879 87.3863 69.7101ZM164.688 276.125C165.229 276.78 164.074 276.978 162.381 276.691C160.701 276.418 158.563 275.627 157.972 275.022C158.177 274.564 164.706 276.102 164.688 276.125ZM272.993 58.7169C273.294 58.5381 273.319 58.7273 274.093 59.8128C274.793 60.8543 276.486 62.5281 275.49 61.9381C274.855 61.5808 273.503 60.2627 273.14 59.6542C272.709 58.9979 272.827 58.8377 272.993 58.7169ZM154.739 273.022C154.007 272.883 152.886 271.512 153.587 271.431C154.471 271.322 154.923 273.051 154.739 273.022ZM132.16 219.965C132.1 220.346 133.633 225.178 133.961 223.017C134.189 221.519 133.193 221.461 133.135 221.129C133.055 220.765 133.078 212.669 132.16 219.965ZM211.033 278.817C209.116 279.223 206.786 279.067 204.792 279.182C205.587 278.737 210.156 278.338 211.033 278.817ZM272.256 61.2241C272.373 60.9979 272.128 57.8984 271.823 56.3747C271.674 55.5893 271.539 55.2203 271.429 55.175C271.32 55.1595 271.207 55.2363 271.201 56.4155C271.2 56.5347 271.308 57.8325 271.488 59.2431C271.667 60.6223 271.916 61.941 272.256 61.2241ZM160.36 159.803C160.023 159.806 159.648 159.788 159.198 159.741C159.643 159.748 160.02 159.78 160.36 159.803ZM135.602 165.076C135.647 164.886 135.5 164.832 135.264 164.865C134.591 165.003 133.58 165.575 133.387 165.918C133.513 166.424 134.776 165.623 135.445 165.203C135.54 165.137 135.599 165.09 135.602 165.076ZM204.671 279.875C203.527 280.215 201.407 279.998 200 280.068C200.218 279.613 204.143 279.445 204.671 279.875ZM265.402 273.349C264.965 273.62 265.331 273.21 265.799 273.544C265.732 273.486 265.667 273.417 265.613 273.334C265.57 273.277 265.84 273.12 266.079 272.869C266.45 272.487 266.76 272.186 266.93 271.975C267.438 271.359 267.427 271.245 267.24 271.261C267.036 271.307 266.561 271.54 265.622 272.422C265.262 272.69 264.939 273.119 264.912 273.248C264.872 273.395 265.077 273.192 265.304 272.937C265.533 272.686 265.774 272.482 265.918 272.733C266.084 272.933 266.052 273.749 266.223 274.016C265.935 273.827 265.663 273.608 265.402 273.349ZM276.674 165.294C277.404 164 276.615 160.247 276.329 161.211C276.145 161.891 275.952 166.592 276.674 165.294ZM272.008 220.123C272.157 219.684 272.015 215.404 271.671 215.268C271.084 217.679 271.293 222.19 272.008 220.123ZM277.61 154.962C277.711 154.123 276.606 153.008 276.559 153.111C276.165 154.006 277 156.414 277.61 154.962ZM154.74 157.182C153.637 156.947 150.45 158.147 149.906 158.984C149.759 158.865 149.387 158.736 148.726 158.626C148.728 158.626 148.73 158.625 148.732 158.625C148.261 158.508 141.825 159.634 138.512 161.089C135.227 162.561 133.695 163.332 140.552 161.445C141.008 161.346 140.174 160.909 142.065 160.451C142.191 160.423 142.406 160.913 142.791 160.83C143.636 160.584 148.745 159.822 149.818 159.279C149.842 159.375 149.926 159.457 150.087 159.519C151.466 160.046 155.538 157.339 154.74 157.182ZM271.571 228.498C271.813 227.661 271.787 224.97 271.338 224.66C271.019 225.97 271.004 230.455 271.571 228.498ZM274.128 60.644C274.366 59.1634 273.21 56.2705 272.964 57.2383C272.822 57.6818 273.867 62.2325 274.128 60.644ZM273.537 201.749C271.987 211.317 273.343 204.038 273.875 205.583C273.76 204.297 273.649 203.011 273.537 201.749ZM159.96 168.316C159.514 167.111 161.412 167.808 161.404 169.435C161.398 169.943 160.211 168.986 159.96 168.316ZM164.827 214.101C165.525 213.825 165.416 214.718 165.09 215.362C164.763 216.009 164.231 216.402 164.053 215.595C164.044 215.549 164.765 214.174 164.827 214.101ZM167.004 181.813C166.052 181.496 165.88 181.177 165.545 179.672C166.518 181.752 166.531 179.478 167.004 181.813ZM265.868 273.598C265.842 273.577 265.824 273.561 265.799 273.544C265.822 273.563 265.844 273.581 265.868 273.598ZM277.313 146.471C277.992 145.322 277.888 142.056 277.205 143.04C277.142 143.133 276.794 146.022 277.313 146.471ZM149.906 158.984C150.037 159.089 149.991 159.178 149.818 159.279C149.795 159.189 149.829 159.095 149.906 158.984ZM277.882 163.183C277.375 163.074 277.033 167.58 277.076 167.752C277.864 170.339 277.886 165.097 277.882 163.183ZM279.51 62.0842C279.308 62.125 280.547 63.5439 281.27 63.0834C281.871 62.7265 280.32 61.9238 279.51 62.0842ZM168.497 187.416C168.631 188.396 168.752 189.837 168.134 190.151C168.195 189.453 168.041 187.454 168.497 187.416ZM166.33 211.946C166.013 210.332 166.747 207.276 167.215 205.321C168.231 205.454 166.525 210.571 166.33 211.946ZM158.138 157.304C158.025 157.257 154.885 157.191 155.373 157.82C156.045 158.718 159.033 157.61 158.138 157.304ZM283.394 63.1654C283.336 63.0375 283.314 62.8553 283.413 62.6959C283.503 62.5348 283.625 62.3719 283.588 62.2273C283.549 61.9402 282.735 61.7483 282.087 62.2275C281.737 62.4703 282.408 62.7448 282.904 62.9437C283.163 63.044 283.342 63.1202 283.399 63.1562C283.462 63.1935 283.401 63.1867 283.394 63.1654ZM278.052 136.304C277.627 133.986 277.057 139.757 277.757 140.548C277.794 139.474 278.202 137.119 278.052 136.304ZM274.349 213.296C277.037 205.74 273.048 209.603 273.232 211.018C273.259 211.211 274.285 213.485 274.349 213.296ZM50.9502 68.7094C49.8813 69.0674 54.0221 69.7541 54.4659 69.0566C54.767 68.6206 51.6433 68.4834 50.9502 68.7094ZM250.659 275.972C250.947 275.919 251.23 275.866 251.508 275.815C251.304 275.881 251.03 275.937 250.659 275.972ZM280.221 115.121C277.558 120.356 279.699 119.756 279.7 120.206C279.694 121.176 278.992 123.448 279.159 125.271C278.795 123.187 278.428 121.104 278.059 119.018C277.91 120.674 277.197 135.048 277.648 135.336C278.304 135.751 278.01 131.247 278.064 131.115C278.141 130.925 279.924 130.173 279.983 129.754C280.084 129.061 279.834 117.057 280.221 115.121ZM275.634 197.431C275.298 198.573 274.554 198.831 274.664 199.399C274.702 199.595 275.375 199.692 275.482 200.353C275.534 199.372 275.585 198.393 275.634 197.431ZM277.434 105.964C278.22 104.48 278.104 111.026 278.014 111.24C277.485 112.374 276.794 107.174 277.434 105.964ZM278.528 160.889C278.588 160.699 278.881 155.936 278.413 155.982C278.076 157.255 277.883 163.529 278.528 160.889ZM275.443 201.154C275.173 202.926 274.134 206.333 275.194 206.041C275.194 206.038 275.195 206.035 275.195 206.033C275.275 204.388 275.359 202.759 275.443 201.154ZM277.837 57.6954C279.008 58.2248 280.101 58.7388 280.585 58.9993C281.088 59.2708 281.077 59.3977 280.663 59.3753C279.881 59.4196 277.158 58.1883 276.207 57.4012C276.341 56.4279 276.95 57.2524 277.837 57.6954ZM282.142 59.6134C281.878 59.2074 273.419 59.1536 274.67 60.0867C275.164 60.3943 279.921 59.8402 280.058 59.9303C280.339 60.0405 278.959 60.8926 281.182 60.8694C281.087 60.5349 282.364 59.731 282.142 59.6134ZM282.083 59.335C282.229 59.235 282.733 59.3453 283.043 59.396C283.377 59.4592 283.599 59.5138 283.738 59.5755C284.011 59.6954 284.011 59.8649 283.995 60.0764C283.971 60.2849 283.921 60.5278 283.821 60.7054C283.715 60.8792 283.559 61.0021 283.007 60.8274C282.577 60.6944 282 60.2207 281.926 59.9176C281.846 59.6153 282.06 59.4223 282.083 59.335ZM276.22 54.1411C276.274 53.8634 276.273 53.3374 276.303 53.4119C276.322 53.451 276.363 53.6733 276.493 54.1479C276.611 54.6073 276.887 55.3626 276.934 55.78C276.621 55.3376 276.145 54.4404 275.977 54.0503C275.788 53.6282 275.75 53.5159 275.752 53.5878C275.767 53.7443 275.918 54.5314 276.043 55.4466C276.505 55.5872 276.136 54.6317 276.219 54.1374C276.219 54.1386 276.219 54.1399 276.22 54.1411ZM174.866 216.874C174.551 217.174 174.523 217.347 174.694 217.391C174.854 217.44 175.225 217.385 175.395 217.397C175.806 217.414 174.886 217.664 174.805 217.589C174.526 217.374 174.907 217.04 175.149 216.825C175.267 216.718 175.321 216.648 175.251 216.653C175.187 216.657 175 216.744 174.866 216.874ZM28.8055 48.8638C28.0744 48.6244 27.5717 47.7871 25.9841 48.2725C27.6089 48.8601 29.2268 49.4458 30.8649 50.0291C32.0718 48.557 29.5979 49.1286 28.8055 48.8638ZM22.5405 43.7614C22.7686 43.721 21.4684 41.5398 24.4407 42.9463C26.4303 43.9002 15.6956 45.116 13.7292 44.1593C15.8748 43.6678 20.5895 44.0921 22.5405 43.7614ZM3.61293 34.5003C3.47501 34.3273 7.53074 34.0267 7.99836 34.1427C10.4612 34.7669 4.26837 35.4455 3.61293 34.5003ZM16.5472 34.7349C14.6386 34.3425 18.8569 33.9835 20.1142 34.2017C20.2388 34.6116 16.8589 34.7924 16.5472 34.7349ZM204.624 214.707C206.566 212.702 203.747 210.082 203.728 213.688C203.725 213.863 204.532 214.788 204.624 214.707ZM7.53128 32.228C9.44722 32.6332 5.23556 32.9642 3.98599 32.7251C3.87217 32.3163 7.24706 32.1703 7.53128 32.228ZM208.461 213.775C210.109 210.814 206.312 211.322 206.109 211.664C205.301 213.136 205.526 218.79 205.555 219.989C206.915 211.811 207.636 215.127 208.461 213.775ZM208.099 198.935C207.878 195.977 206.713 203.413 207.487 204.913C207.619 203.478 208.183 199.782 208.099 198.935ZM208.434 180.548C208.359 178.874 207.636 173.872 206.834 173.186C207.434 174.972 207.783 179.94 208.434 180.548ZM209.457 176.469C209.664 173.656 207.315 173.542 208.616 176.4C208.665 176.511 209.434 176.574 209.457 176.469ZM205.737 161.466C205.841 159.4 202.966 158.414 204.123 161.126C204.455 161.926 205.716 161.684 205.737 161.466ZM213.004 210.437C213.754 208.078 212.604 204.792 211.721 209.865C211.756 208.047 211.746 206.233 211.693 204.412C210.054 210.954 212.143 210.747 211.757 212.652C211.148 215.295 209.412 214.704 208.964 214.084C209.468 215.691 208.579 220.935 207.455 225.247L207.548 224.908C207.105 226.821 206.586 228.728 206.103 230.373C206.785 228.803 207.524 226.972 208.223 225.086L208.126 225.439C209.565 221.946 211.057 217.502 211.827 214.449C212.163 213.145 211.902 211.767 212.135 210.645C212.507 208.838 212.958 210.566 213.002 210.446C213.003 210.443 213.003 210.44 213.004 210.437ZM198.162 145.743C196.846 141.179 196.347 144.831 197.888 146.911C197.967 146.996 198.195 145.856 198.162 145.743ZM2.08145 25.5949C7.47806 26.4641 3.55926 27.7529 14.9387 25.7136C10.1789 27.1087 14.6828 26.661 13.7626 27.2057C13.03 27.6376 10.1949 27.3369 11.846 28.1524C9.67961 27.2828 0.364548 27.6285 0.0324209 27.4621C0.0358026 27.4621 0.0392787 27.4621 0.042853 27.4621C-0.181555 27.3734 0.364729 25.3121 2.08145 25.5949ZM214.118 179.664C216.462 177.436 212.22 177.483 213.626 173.541C209.664 169.57 216.013 186.502 212.954 188.715C211.791 170.336 211.015 200.951 214.287 187.952C213.169 198.621 214.903 191.439 215.477 193.081C216.092 194.87 215.222 200.837 216.204 200.583C216.204 200.579 216.204 200.576 216.204 200.573C216.37 196.91 216.356 193.191 216.123 189.43C214.122 193.142 214.5 185.612 215.845 182.741C215.288 181.708 214.711 180.668 214.118 179.664ZM212.916 200.528C213.06 200.206 212.945 192.372 212.455 192.889C212.339 193.964 212.02 204.888 212.916 200.528ZM206.419 233.42C207.467 230.697 208.847 227.137 208.817 225.243L208.717 225.608C208.707 225.423 208.684 225.236 208.642 225.065C208.594 225.234 208.545 225.396 208.499 225.546L208.598 225.185C207.876 227.81 206.331 231.583 206.419 233.42ZM149.203 113.173C145.873 114.144 156.329 113.417 153.252 112.895C153.094 112.857 149.372 113.111 149.203 113.173ZM211.978 171.183C211.715 167.14 209.754 169.67 211.112 172.262C211.192 172.415 211.99 171.372 211.978 171.183ZM6.4539 25.2405C6.64561 24.6087 14.5478 24.9355 15.9616 24.8962C15.1792 25.5105 6.23178 25.9803 6.4539 25.2405ZM205.949 240.344C210.982 234.714 211.021 228.295 211.151 225.86L211.038 226.272C211.037 225.88 211.075 225.496 211.113 225.4C211.373 224.693 212.017 226.094 212.086 225.948C212.286 225.704 214.323 217.141 214.264 216.699C214.27 216.401 212.583 217.623 212.504 215.811C212.574 217.505 211.597 222.213 210.449 226.104L210.559 225.704C209.421 230.203 207.454 235.124 207.267 235.704C207.172 236.103 208.042 235.026 208.376 234.925C208.631 234.887 208.868 235.412 205.956 240.331C205.953 240.336 205.951 240.34 205.949 240.344ZM211.936 223.561C210.82 225.478 212.286 219.653 212.781 218.241C213.976 215.167 212.132 223.354 211.936 223.561ZM215.421 209.257C215.697 208.591 216.506 202.189 215.846 201.585C214.823 204.573 214.901 210.787 215.421 209.257ZM200.329 140.347C199.519 139.029 197.615 134.898 196.953 134.96C197.96 136.357 199.73 140.423 200.329 140.347ZM33.3861 19.6638C31.1458 19.2489 36.3036 18.9042 37.7937 19.0865C37.8805 19.4671 33.5919 19.7001 33.3861 19.6638ZM217.1 169.121C217.042 168.522 215.213 161.932 212.127 155.696C210.17 151.726 207.992 147.661 207.335 146.646C207.69 147.797 209.625 151.997 211.428 156.019C214.259 162.148 216.003 168.479 216.247 168.968C216.387 169.242 217.111 169.268 217.1 169.121ZM218.389 215.501C218.863 217.519 217.605 218.514 217.544 218.738C216.955 220.966 215.917 225.639 215.398 224.404C216.848 220.611 217.431 211.532 218.389 215.501ZM202.967 137.261C199.32 131.583 204.952 143.181 204.829 141.27C204.839 141.159 203.359 137.853 202.967 137.261ZM217.967 171.556C219.728 173.171 221.246 195.455 220.458 198.649C219.325 195.548 220.333 193.132 220.089 188.917C220.014 187.777 219.505 188.116 219.498 187.994C219.354 186.04 220.05 187.468 219.975 186.249C220.28 185.501 216.757 169.447 217.967 171.556ZM218.757 216.669C218.987 217.492 217.635 224.42 216.623 227.87L216.768 227.345C216.365 228.939 216 230.132 215.92 230.276C215.088 231.74 215.488 229.858 216.11 227.171L215.969 227.683C216.952 223.986 218.585 217.196 218.757 216.669ZM218.538 169.221C220.773 171.33 221.7 182.836 219.646 175.254C219.453 174.54 219.425 171.281 218.538 169.221ZM204.531 137.194C204.483 136.923 200.917 130.479 200.354 130.571C201.007 131.696 206.013 140.721 204.531 137.194ZM207.654 139.59C207.56 139.446 207.555 141.295 206.101 138.4C205.963 138.152 206.681 137.259 204.167 133.731C203.649 133.009 202.353 132.184 202.368 132.288C203.627 137.087 211.904 146.562 207.654 139.59ZM219.511 217.063C220.065 216.456 220.977 218.373 220.02 219.727C219.609 220.294 219.145 218.955 219.511 217.063ZM188.321 115.399C190.942 117.343 188.925 114.812 184.698 111.589C180.676 108.256 172.499 105.09 171.518 105.085C172.008 105.418 177.579 107.48 181.423 110.101C185.381 112.66 188.03 115.214 188.321 115.399ZM38.4045 13.6003C38.4018 13.6004 38.3992 13.6004 38.3965 13.6005C38.4093 13.6009 38.4219 13.6013 38.4345 13.6017C40.6719 13.6991 39.3036 14.3789 39.4073 14.3961C44.4583 15.0971 43.1501 13.685 43.9255 13.4755C45.7152 12.9846 45.516 14.7617 48.6965 13.7885C43.4616 15.2617 48.241 14.4512 48.4652 15.058C49.1832 17.5642 41.3621 14.3996 39.2799 14.972C38.952 15.0621 41.3867 15.7684 40.5643 16.0366C40.036 16.2077 39.2907 16.2071 38.5122 16.0899C34.6106 15.6274 29.7793 13.3268 38.4045 13.6003ZM219.868 220.906C220.077 221.805 219.07 225.815 218.137 228.303L218.29 227.747C217.405 230.426 216.406 232.504 216.638 230.742C216.66 230.563 217.011 229.182 217.414 227.516L217.266 228.054C218.176 224.753 219.525 219.041 219.868 220.906ZM310.262 308.109C307.377 312.888 315.853 303.125 316.026 300.927C316.391 299.881 311.697 306.085 310.262 308.109ZM329.304 255.386C329.447 251.741 326.878 248.023 327.088 252.35C327.116 252.788 328.905 255.758 329.304 255.386ZM130.621 326.762C133.692 329.295 134.237 327.554 131.682 326.383C130.786 325.962 130.525 326.681 130.621 326.762ZM260.457 331.951C260.773 331.968 264.478 331.22 264.286 330.831C262.842 330.843 258.325 331.864 260.457 331.951ZM129.412 326.453C131.589 327.16 128.671 324.314 125.639 324.105C126.928 324.691 129.182 326.382 129.412 326.453ZM219.558 159.356C218.738 158.328 217.715 156.035 216.56 153.646C215.914 152.328 215.274 150.934 214.724 149.907C215.133 149.539 216.128 151.428 217.049 153.42C218.149 155.778 219.078 158.286 219.558 159.356ZM326.133 270.834C326.132 267.339 324.172 274.412 325.159 273.9C325.228 273.84 326.14 270.987 326.133 270.834ZM73.1836 221.895C74.0195 224.021 73.9218 216.938 73.164 218.979C73.1304 219.073 73.135 221.792 73.1836 221.895ZM71.4972 190.963C71.2752 192.673 71.5241 199.945 72.0054 197.098C72.0621 196.659 72.0026 191.118 71.4972 190.963ZM44.0285 12.7806C43.2313 11.8567 47.4474 11.793 48.1419 11.9052C48.3749 11.9605 45.0144 13.9976 44.0285 12.7806ZM156.511 335.894C156.538 335.898 156.565 335.902 156.593 335.906C158.574 336.181 163.419 337.124 164.286 336.709C162.375 336.575 157.476 335.227 156.648 335.607C156.478 335.655 156.423 335.747 156.511 335.894ZM323.001 284.328C324.566 282.474 325.527 278.135 323.915 278.861C322.876 283.463 325.226 278.795 323.001 284.328ZM117.508 321.114C118.882 322.071 120.64 321.555 120.513 321.408C119.322 320.008 116.393 319.795 117.508 321.114ZM227.707 337.081C227.846 337.647 232.168 336.856 231.534 336.561C231.343 336.467 227.585 336.635 227.707 337.081ZM159.127 100.399C158.46 100.265 158.58 100.109 159.139 99.9698C163.326 99.1144 174.914 101.472 177.76 103.613C178.684 104.531 175.29 102.924 170.541 101.762C165.821 100.504 159.953 100.367 159.152 100.402C159.141 100.401 159.132 100.4 159.127 100.399ZM84.3271 276.76C83.396 276.739 86.2672 283.958 85.9738 280.829C85.8711 280 84.6147 276.757 84.3271 276.76ZM70.4365 212.663C71.7587 217.289 71.102 197.41 70.2063 202.688C70.0931 203.059 70.2726 212.258 70.4365 212.663ZM70.3328 179.819C70.1871 180.644 67.3393 180.093 68.6479 176.65C68.8172 176.204 69.4393 178.378 69.6342 178.017C69.7091 177.833 70.691 170.234 70.7014 169.831C70.664 169.443 69.7116 169.801 69.6483 169.405C69.5668 168.962 70.8885 164.261 71.2995 161.652C72.0602 156.727 71.5142 155.919 71.5812 155.478C71.8525 154.141 72.6313 152.525 73.7426 148.537C73.7588 148.48 73.7751 148.424 73.7914 148.368C78.7623 129.071 97.0269 115.211 106.508 111.137C110.215 109.336 113.772 108.057 116.622 107.375C113.229 108.476 109.898 109.953 106.784 111.652C101.513 114.545 95.3853 118.662 89.207 124.982C90.1014 123.009 86.6321 126.688 84.2805 130.198C81.978 133.732 80.4781 136.151 84.5125 129.274C83.2872 131.088 77.7643 137.681 74.6484 148.796C70.8334 164.339 70.7979 177.44 70.3333 179.81C70.3331 179.813 70.333 179.816 70.3328 179.819ZM330.641 242.829C331.549 244.513 331.642 236.072 330.57 235.327C330.351 236.417 330.53 242.611 330.641 242.829ZM324.42 294.468C323.857 296.078 325.787 298.166 319.757 306.744C319.752 306.752 319.747 306.76 319.742 306.768C317.857 309.247 319.345 306.009 318.897 306.407C318.855 306.586 312.451 313.998 316.941 307.313C322.676 297.172 318.895 307.061 321.824 301.688C322.458 300.877 325.172 290.952 324.587 291.554C324.562 291.588 323.822 294.418 323.535 294.868C322.527 296.512 322.303 295.43 322.181 295.669C321.98 296.051 320.705 300.087 318.226 304.557C315.842 309.024 311.993 313.591 310.631 314.347C310.192 314.663 315.762 308.303 318.838 301.742C322.101 295.183 323.482 289.325 323.7 288.933C323.946 288.413 325.465 289.093 325.781 288.562C325.829 288.48 326.044 287.564 326.279 286.349C326.504 284.838 326.921 282.086 327.15 281.593C327.244 281.397 327.33 281.248 327.396 281.14C326.685 281.925 327.998 276.658 328.525 276.872C328.72 277.065 327.703 280.742 327.639 280.814C327.61 280.865 327.576 280.907 327.549 280.948C327.986 280.64 327.251 284.168 326.899 286.503C326.236 289.938 325.437 292.949 326.449 291.138C324.981 297.21 325.503 289.841 324.42 294.468ZM300.349 325.882C300.997 325.303 301.705 324.666 302.398 324.008C289.117 332.562 280.409 332.767 272.438 334.711C270.437 335.123 272.928 335.699 270.297 335.931C268.191 336.111 265.848 335.529 266.874 335.121C267.13 335.024 271.306 334.89 273.5 334.339C279.997 332.683 278.235 332.084 278.587 331.993C278.984 331.878 283.599 331.324 286.431 330.318C289.683 329.183 292.362 327.991 295.675 326.297C299.029 324.409 303.012 322.853 310.256 316.162C310.996 315.462 311.747 314.719 312.508 313.926C311.709 314.967 311.067 315.786 310.559 316.458C308.241 319.223 307.854 319.944 306.902 321.085C305.968 322.153 304.332 323.715 300.349 325.882ZM74.8237 249.591C74.2129 249.485 73.8822 245.549 73.5169 244.209C74.1215 244.308 74.43 248.197 74.8237 249.591ZM212.705 1.62172C211.577 2.58319 220.176 2.63653 217.895 1.90306C217.395 1.73983 213.777 1.60544 212.705 1.62172ZM251.474 1.48933C252.64 1.21485 247.914 0.5998 247.914 1.32811C247.954 1.55936 251.277 1.52421 251.474 1.48933ZM212.322 342.822C212.076 342.873 208.501 342.867 208.392 342.82C205.998 341.975 217.684 341.834 212.322 342.822ZM326.148 22.5979C325.211 21.4004 324.731 20.9247 324.78 21.1204C324.817 21.3056 325.313 22.0983 325.906 23.0752C326.595 24.1675 328.203 26.824 329.308 29.2314C330.439 31.6402 331.186 33.7154 331.682 35.1266C332.179 36.5526 332.468 37.4326 332.619 37.6834C332.758 37.913 332.788 37.573 332.454 36.0282C332.395 35.8221 331.845 33.7007 330.467 30.4605C329.133 27.1987 326.667 23.3005 326.298 22.8119C326.222 22.6996 326.17 22.6257 326.148 22.5979ZM336.204 54.9084C336.081 53.8418 335.689 48.371 335.359 48.2596C334.931 48.3174 335.391 54.4876 336.204 54.9084ZM114.647 323.498C114.629 324.788 108.406 319.707 105.913 317.824C106.016 316.642 112.292 322.262 114.647 323.498ZM161.29 342.326C159.263 342.089 157.285 341.804 155.559 341.515C140.864 338.525 138.178 336.119 138.357 336.108C139.17 335.961 143.371 338.011 155.71 340.695C157.955 341.144 160.524 341.616 163.137 342.064C163.091 342.74 163.157 342.539 161.29 342.326ZM120.354 327.694C121.703 327.69 124.77 329.59 126.931 330.716C126.319 330.959 121.954 328.491 120.354 327.694ZM202.442 0.393211C203.909 -0.496021 210.519 0.414852 209.352 0.793346C209.087 0.874554 201.908 0.875122 202.442 0.393211ZM210.127 343.86C210.836 344.872 202.683 344.825 202.08 344.585C199.552 343.76 209.51 344.165 210.127 343.86ZM79.6687 277.88C78.4418 276.642 77.6687 272.443 77.025 269.949C77.9882 270.923 78.9687 275.569 79.6687 277.88ZM90.224 303.436C90.0502 303.221 88.6881 301.154 87.7333 299.411C86.7597 297.666 86.0532 296.163 86.0009 296.02C85.2848 293.606 86.5231 296.076 88.375 299.386C90.134 302.626 93.3554 307.214 90.224 303.436ZM34.3069 5.98825C34.4052 5.9597 36.7903 5.93927 36.8679 5.96687C39.0069 6.67591 31.8907 6.73157 34.3069 5.98825Z" fill="#127B7D"/>
</svg>
