<svg width="868" height="434" viewBox="0 0 868 434" fill="none" xmlns="http://www.w3.org/2000/svg">
<path d="M119.656 173.61C120.309 173.247 123.273 172.66 124.458 172.217C123.525 174.105 117.261 174.933 119.656 173.61ZM240.06 43.9876C238.578 44.2211 237.167 44.4737 235.726 44.7389C239.724 45.1875 245.251 45.4282 249.038 46.2352C249.656 46.3664 247.941 47.1685 249.407 47.3932C250.871 47.6241 250.703 46.2142 252.913 46.3732C255.333 46.4714 266.417 49.438 270.359 50.4747C278.938 52.5163 287.713 54.9399 297.276 59.1497C308.353 64.0182 317.127 71.1517 323.328 78.0854C304.918 62.2948 323.057 79.6353 326.353 83.8775C326.853 84.7079 330.557 83.5211 339.174 99.3366C343.748 108.921 336.786 102.257 344.957 116.17C342.135 103.796 347.335 115.3 350.422 123.648C351.079 125.187 354.615 136.755 356.056 141.492C356.587 143.144 358.508 145.264 359.146 147.441C359.577 148.915 359.23 150.234 359.855 152.434C362.709 162.546 365.036 172.255 366.994 181.948C362.651 177.097 366.699 186.73 366.637 187.181C366.326 189.684 363.748 179.382 364.156 183.615C365.551 189.317 366.903 194.975 368.23 200.549C367.592 195.853 372.116 206.002 371.553 208.202C372.717 207.48 373.489 213.161 374.185 219.704C375.13 227.67 375.785 236.926 376.686 239.067C377.033 239.932 377.247 233.752 379.218 247.503C379.425 249.001 378.531 248.604 378.745 249.364C378.876 249.818 381.888 252.088 381.018 255.394C380.68 256.598 377.917 249.885 381.084 265.157C382.747 258.523 385.638 286.411 385.407 291.683C385.628 290.585 385.853 289.538 386.073 288.465C385.744 293.671 386.679 294.459 386.756 295.622C387.054 300.27 386.769 306.77 387.169 311.11C387.63 316.19 389.189 316.065 388.918 322.095C389.185 320.65 389.445 319.192 389.702 317.755C389.87 321.888 389.987 326.027 390.05 330.195C387.626 320.679 390.05 332.302 390.086 333.046C390.195 334.283 389.314 332.566 389.472 334.599C389.491 334.793 390.28 334.495 390.428 337.605C390.712 344.178 389.694 343.185 389.725 345.623C389.728 345.713 389.865 345.623 390.034 345.814C390.118 345.907 390.209 346.063 390.296 346.347C390.339 346.48 390.381 346.629 390.417 346.756C390.454 346.894 390.489 347.04 390.503 346.949C390.512 346.745 390.508 346.512 390.484 346.255C389.469 340.964 390.05 345.983 389.9 346.615C389.844 346.825 388.352 346.078 387.941 347.108C387.705 347.32 387.603 345.078 387.897 341.05C387.612 345.239 386.307 345.578 386.279 345.974C386.266 345.994 386.305 347.166 386.307 347.21C386.253 346.342 386.069 345.595 386.083 345.565C386.243 344.847 387.319 345.109 387.421 344.953C387.461 344.872 387.001 344.509 386.98 344.492C386.942 344.436 387.411 344.656 388.587 344.091C387.718 345.083 387.223 345.31 386.808 345.113C386.399 344.936 386.298 344.546 386.357 344.971C386.155 345.109 385.801 344.989 385.603 345.116C385.393 345.219 385.387 345.572 385.402 345.602C385.544 345.972 385.872 346.295 386.166 346.391C386.469 346.497 386.755 346.407 387.03 346.228C387.577 345.866 388.12 345.19 388.781 345.058C389.443 344.894 389.143 346.836 389.864 344.735C390.698 345.815 390.915 346.343 390.656 346.44C390.426 346.559 389.91 346.382 389.924 346.522C389.948 346.933 391.208 347.628 391.295 347.815C391.407 348.089 390.336 347.821 390.912 348.776C391.026 348.945 392.942 349.452 391.768 347.444C393.718 349.758 394.266 348.933 393.934 351.11C397.901 350.081 394.047 353.893 394.746 354.726C396.68 356.923 397.602 354.219 397.788 354.208C398.942 354.186 405.238 359.561 407.268 360.152C405.663 361.482 401.656 356.754 400.503 356.322C396.331 354.94 405 360.512 401.189 360.829C402.659 360.992 404.134 361.125 405.581 361.21C406.312 362.572 405.745 362.896 405.917 363.309C405.875 363.431 405.859 363.508 405.981 363.591C406.108 363.673 406.362 363.769 407.126 363.965C407.605 363.455 407 363.256 406.621 363.144C406.222 363.026 406.081 363.037 406.371 362.623C406.54 362.379 406.798 362.345 407.232 362.396C407.645 362.44 408.186 362.538 408.253 362.392C408.33 362.216 407.902 362.06 407.615 361.911C407.322 361.761 407.17 361.626 407.35 361.39C407.547 361.135 407.867 361.136 408.431 361.318C408.984 361.498 409.794 361.847 410.494 362.184C411.193 362.522 411.723 362.845 411.563 363.001C411.429 363.158 410.484 363.142 408.967 362.789C410.584 363.339 411.244 366.141 413.507 365.839C414.237 365.738 412.832 364.402 412.734 363.487C412.73 362.549 413.221 362.185 419.598 363.54C419.673 364.787 414.509 363.024 414.488 363.064C414.282 363.156 414.719 366.001 414.875 366.165C414.985 366.869 429.514 367.229 433.12 368.567C431.744 367.032 445.379 368.762 447.018 368.227C447.424 368.103 445.877 367.164 446.312 367.07C447.832 366.757 450.855 367.151 453.871 367.523C454.81 367.866 455.56 368.158 456.053 368.136C457.312 368.06 456.982 367.274 457.048 367.274C457.63 367.218 457.307 367.817 457.67 367.746C457.948 367.69 459.093 367.477 460.585 366.938C462.047 366.425 463.774 365.595 463.907 365.468C463.984 365.393 462.515 365.112 463.843 364.284C464.126 364.071 464.262 365.365 468.756 362.251C474.277 358.29 464.081 363.491 465.911 361.114C470.335 360.385 469.474 359.009 470.539 358.501C470.895 358.332 474.395 357.647 477.425 355.389C475.334 357.13 473.284 358.773 471.31 360.277C473.492 359.192 477.52 356.068 479.486 354.944C480.444 354.402 480.39 355.771 482.292 354.33C482.693 354.003 482.703 350.818 478.395 355.38C477.418 354.938 480.196 353.689 481.13 352.664C481.271 352.507 480.972 350.808 483.012 350.473C483.536 350.335 482.518 356.923 490.261 346.712C490.504 346.386 489.064 346.812 489.292 346.482C489.436 346.273 492.083 344.446 492.328 344.142C492.56 343.846 490.932 344.373 491.197 344.005C492.535 342.138 496.353 342.145 492.689 344.881C494.077 344.145 495.442 343.417 496.866 342.628C494.393 342.309 498.371 340.733 500.031 339.261C510.413 330.021 502.516 335.162 503.934 333.169C506.208 329.951 506.089 334.107 509.789 329.695C510.137 329.27 503.966 332.938 514.796 324.467C513.272 325.872 511.853 327.174 510.327 328.567C512.395 329.066 515.755 323.669 516.089 323.342C518.841 320.695 518.468 321.377 520.015 319.798C520.582 319.215 521.428 318.295 522.921 316.613C523.408 316.067 524.768 315.407 525.734 314.241C529.348 309.881 521.161 317.647 519.086 318.808C518.847 318.954 518.68 319.026 518.606 319.004C518.565 318.99 518.673 318.851 518.902 318.612C520.577 316.895 529.689 308.675 530.162 308.39C532.311 307.362 525.228 313.38 527.138 312.805C527.798 312.725 543.606 296.885 547.088 293.867C551.137 290.462 554.41 290.349 552.635 288.585C555.484 289.225 555.186 287.161 555.679 286.698C561.652 281.088 561.672 281.092 566.45 275.974C567.509 274.84 568.974 274.402 569.273 273.925C569.442 273.648 568.453 273.534 569.375 272.264C570.657 270.518 580.477 261.71 581.453 261.312C582.447 260.909 577.71 265.383 579.039 265.034C582.391 261.723 585.44 258.363 588.817 255.013C590.226 253.617 589.87 254.675 590.476 254.068C590.733 253.813 595.184 248.637 594.857 248.719C594.074 248.943 579.548 264.183 582.8 259.637C583.435 258.755 586.898 256.827 585.477 256.327C598.885 243.097 612.266 229.736 625.707 216.347C618.824 224.815 609.662 233.009 601.804 241.211C600.733 242.329 596.954 246.023 597.904 246.022C604.766 239.221 612.887 230.352 619.688 223.965C619.906 223.761 619.582 224.948 620.427 224.211C622.005 222.832 626.037 217.31 627.015 216.657C627.193 216.555 625.071 219.857 626.253 219.348C629.282 218.037 627.756 215.589 629.594 213.749C631.016 212.329 641.406 203.554 643.151 200.568C644.999 197.399 635.811 207.349 635.973 206.133C641.831 199.075 648.906 192.975 654.933 186.729C655.039 186.618 653.696 187.18 655 185.748C657.279 183.246 658.479 183.162 659.723 182.084C661.059 180.922 665.406 176.379 666.196 175.993C666.298 175.943 665.973 177.375 665.854 177.526C664.171 179.68 662.747 179.68 662.563 179.847C661.878 180.484 661.509 181.41 660.898 181.996C659.889 182.962 659.084 183.262 657.762 184.557C656.848 185.45 658.221 185.048 657.334 185.903C657.002 186.221 652.431 188.589 653.304 190.028C653.521 190.438 676.451 167.996 683.118 161.23C683.882 160.446 684.423 159.869 684.686 159.553C684.113 160.06 683.538 160.569 682.962 161.08C680.979 162.835 678.971 164.623 676.976 166.402C678.965 164.666 680.933 162.612 682.68 160.808C685.602 157.791 687.918 155.449 689.019 155.966C707.405 138.045 725.954 120.344 744.617 102.779C748.012 99.7495 746.986 102.213 752.196 96.8236C750.527 97.9398 748.914 98.9975 747.244 100.11C750.206 97.6265 762.901 86.2267 764.751 84.1758C764.979 83.9211 764.695 82.877 767.708 79.9197C770.421 77.2572 771.317 77.3822 772.897 76.0697C774.207 74.9811 775.437 73.5619 775.838 73.2343C776.14 72.9903 776.555 73.1875 777.276 72.6046C779.541 70.7692 776.983 71.5463 780.064 70.5157C779.592 71.0379 779.104 71.5756 778.636 72.0931C781.348 69.7899 785.237 66.9287 781.718 70.7191C781.113 71.3709 781.375 70.5516 780.895 71.0109C762.052 89.0686 777.74 75.2541 783.865 68.4999C785.999 67.3105 795.129 57.9847 795.522 57.7502C796.072 57.4512 794.825 59.3339 797.196 57.5935C797.511 57.3606 801.976 52.8472 804.643 50.2889C806.458 48.5498 807.437 47.7491 805.914 49.7248C805.773 49.9069 805.468 50.2397 805.046 50.6769C803.147 52.6548 798.855 56.7292 797.666 57.9152C799.932 56.6228 802.802 53.5319 805.13 50.7581C807.261 48.2246 808.911 45.9909 809.343 45.5804C812.978 42.146 803.417 53.149 811.381 45.2267C817.433 39.1189 811.238 44.3597 813.269 41.7505C814.437 40.2987 821.699 33.8241 820.645 33.2368C822.773 30.7258 821.933 32.5444 822.24 32.2741C822.544 32.0134 826.599 26.9585 828.124 25.5234C828.312 25.3498 828.245 26.3315 828.453 26.163C828.854 25.8504 832.764 21.0021 832.859 20.7825C832.928 20.645 831.599 21.4547 831.884 20.9137C832.237 20.2888 836.036 15.7393 836.112 15.3801C836.239 14.898 831.773 20.6964 832.083 19.3873C834.336 16.8826 837.4 12.3146 838.38 10.2485C838.154 10.7683 836.177 13.3858 835.44 14.2447C835.112 13.3533 839.385 7.74973 838.457 10.0498C839.094 8.6208 838.315 9.34906 838.568 8.46333C838.636 8.23532 839.933 6.46443 840.072 6.03491C840.08 5.97918 838.475 7.62096 838.609 7.15996C838.847 6.3582 842.91 0.930262 843.322 0.487419C844.437 -0.668666 841.353 4.0239 841.372 4.57405C841.372 4.67163 844.719 1.21224 844.817 1.17421C845.496 1.32123 842.012 5.34168 842.841 5.17433C843.706 4.19469 844.572 3.20433 845.445 2.20238C842.938 6.71807 837.31 13.7498 836.397 15.9487C840.654 10.1988 845.188 3.85712 846.419 4.70622C846.928 5.07137 845.348 7.89832 845.552 7.88584C846.295 7.83959 848.406 3.8261 848.532 3.70113C848.641 3.60863 848.706 3.57655 848.733 3.59521C848.733 3.59522 848.733 3.59523 848.733 3.59523C848.998 3.79911 845.468 9.14005 845.411 9.46834C845.321 10.0606 847.893 8.40593 848.092 8.54712C848.076 8.66078 845.646 12.4867 846.892 11.4984C848.154 10.5043 850.478 7.24652 850.597 7.15423C851.251 6.68683 847.398 12.5129 847.401 12.7547C847.401 12.8952 849.971 10.1277 850.145 10.1139C850.314 10.1159 848.907 12.6132 848.612 13.7702C848.39 14.6369 850.01 12.8046 849.803 13.1799C849.662 13.4594 845.791 18.7726 845.635 19.051C845.418 19.4857 846.646 18.489 846.593 18.7241C846.523 19.0595 845.136 20.6805 845.419 20.5427C845.648 20.4681 851.594 14.5729 851.842 14.7988C852.295 15.2336 846.019 21.5609 852.752 16.3044C852.798 16.2689 853.811 14.535 853.853 14.4996C854.922 13.7394 851.804 19.388 856.198 12.8881C848.435 25.2779 855.914 14.9107 855.509 17.2658C855.361 18.1826 852.189 22.9142 852.208 22.9718C852.945 22.8164 853.688 21.1109 854.245 20.7523C854.563 20.5544 852.002 25.0217 852.954 24.2922C853.46 23.9201 856.553 19.4503 856.702 19.2818C858.193 17.7126 856.978 20.0701 857.436 19.8184C857.743 19.6541 859.617 16.963 859.684 16.9111C859.814 16.8277 857.799 20.8497 857.438 21.7417C857.171 22.4213 858.909 20.3957 858.686 20.843C857.361 23.5501 852.715 28.0732 857.572 24.0007C857.869 23.7521 859.165 21.8279 859.218 21.7833C860.401 20.8661 857.999 24.3909 857.844 25.2377C857.601 26.6916 860.862 21.4314 858.273 25.8927C860.831 22.9843 862.029 21.1939 864.414 17.4611C857.749 27.8274 856.449 32.4938 864.307 21.025C861.824 24.637 862.837 24.7729 862.101 25.8739C861.659 26.5584 857.154 31.3008 860.555 30.1027C860.982 29.9582 862.974 26.5241 862.697 27.8486C857.125 35.5333 862.872 28.2124 862.917 28.2441C864.026 29.147 849.195 47.3228 846.629 50.2593C843.812 53.9217 841.891 57.6743 841.254 58.4161C839.096 60.9052 840.506 58.4996 839.883 58.9293C839.291 59.3554 833.826 66.9918 833.491 67.2601C832.122 68.4476 832.903 66.6676 832.754 66.7864C831.925 67.4462 829.856 69.7383 827.535 72.3125C824.813 75.3362 821.857 78.6353 820.504 79.9517C820.886 80.1483 825.609 75.1562 823.136 78.7483C820.234 82.9536 818.778 81.8645 818.624 81.9124C802.868 98.5151 787.12 114.612 771.492 130.903C772.414 131.436 782.099 120.256 782.431 120.115C784.352 119.252 767.078 137.205 764.719 139.154C766.482 137.639 768.244 136.125 770.01 134.606C768.103 138.335 760.958 143.551 757.398 148.075C756.245 149.544 759.031 147.295 759 147.374C757.914 149.207 755.331 151.4 756.611 149.123C753.567 153.223 753.579 152.227 750.875 155.01C750.735 155.154 752.234 154.293 750.274 156.67C749.342 157.796 744.08 163.389 743.687 164.458C743.522 164.908 747.601 163.411 746.729 161.885C753.025 156.374 748.016 159.402 750.272 157.063C750.63 156.699 750.468 158.216 755.8 151.935C755.919 154.232 748.547 160.248 747.608 161.547C745.631 164.271 755.626 154.874 756.442 152.127C756.565 153.891 757.219 151.555 759.379 149.351C761.72 146.959 760.979 148.301 762.232 146.98C765.671 143.361 763.578 144.255 766.992 141.841C762.451 142.959 771.597 136.524 774.252 134.675C770.764 138.523 767.228 142.432 763.766 146.284C764.065 146.16 764.364 146.038 764.663 145.915C763.712 146.894 762.73 147.905 761.793 148.872C761.852 148.623 761.911 148.374 761.97 148.125C757.711 153.853 755.875 154.445 755.466 154.86C750.303 160.187 744.455 166.449 739.347 171.939C738.591 172.753 739.693 172.827 733.664 178.342C731.726 180.117 732.909 177.84 730.98 180.075C729.799 184.073 728.782 183.006 728.029 183.817C725.885 186.142 724.917 187.878 724.72 188.101C722.927 190.123 720.594 192.641 718.327 195.126C717.295 196.259 716.289 197.374 715.387 198.399C715.339 198.463 717.253 197.22 715.262 199.156C714.548 199.857 706.891 204.569 702.348 210.852C703.802 209.488 705.269 208.113 706.719 206.756C704.969 208.32 694.486 221.012 697.664 218.483C699.592 216.936 702.426 211.319 703.995 211.917C699.997 215.623 680.488 238.785 678.66 240.332C678.404 240.541 679.345 238.672 678.998 238.965C678.726 239.194 674.238 244.492 673.476 245.052C673.024 245.382 674.814 242.852 674.509 242.91C674.264 242.983 668.363 249.347 668.528 250.177C669.74 248.389 673.864 244.049 672.204 246.791C671.989 247.142 670.291 248.424 670.032 248.854C667.63 252.839 676.465 242.459 677.858 240.888C672.84 247.884 663.386 257.166 657.258 265.033C654.196 267.672 660.541 259.963 657.203 263.064C650.27 269.495 656.129 265.486 655.988 265.755C654.876 267.908 647.336 271.817 649.07 273.419C646.56 275.746 647.062 274.718 644.107 278.562C644.647 278.196 645.187 277.829 645.727 277.462C643.225 282.43 633.138 288.613 633.497 287.783C634.494 285.57 639.219 281.896 639.534 281.494C640 280.899 639.59 277.719 646.579 273.033C647.612 269.427 637.21 282.02 641.305 275.707C638.132 279.594 623.592 294.274 622.128 296.995C621.963 297.323 624.271 297.222 620.262 300.459C618.359 301.99 622.225 297.62 621.212 298.189C618.181 299.962 587.435 335.097 581.136 341.629C580.731 342.06 580.494 341.523 580.099 341.947C578.895 343.246 575.018 348.491 572.659 350.56C577.9 346.586 569.156 355.775 566.678 358.071C563.068 361.456 562.542 360.585 560.885 361.929C560.641 362.126 560.396 362.33 560.15 362.54C553.993 367.799 546.746 377.645 540.805 380.25C542.553 381.647 531.948 386.979 527.933 390.427C524.816 393.152 521.108 398.243 525.984 395.253C520.468 399.885 514.631 405.217 508.805 409.671C507.821 410.42 508.803 408.874 507.145 410.154C506.99 410.276 507.183 410.958 505.729 412.071C493.223 421.181 498.622 415.73 495.951 416.981C494.376 417.655 493.24 418.166 492.383 418.599C500.823 413.778 508.413 407.664 510.434 406.118C508.067 406.293 495.055 417.468 489.33 419.644C489.15 419.722 489.393 418.681 489.214 418.768C489.21 418.769 489.206 418.771 489.203 418.773C487.66 419.864 474.211 425.466 477.243 425.262C478.131 425.257 484.78 422.904 491.137 419.303C489.468 420.4 491.191 420.511 490.898 420.711C487.476 423.242 476.418 426.827 472.004 427.629C471.04 427.852 471.243 428.403 471.085 428.445C467.138 429.223 468.48 427.233 464.728 429.659C461.008 429.124 464.362 428.678 468.34 427.853C472.346 427.05 476.787 425.671 475.917 425.242C475.416 424.918 466.132 427.868 456.148 428.382C447.743 429.056 438.283 429.816 438.318 430.726C438.21 430.547 437.77 430.332 436.871 430.087C434.907 429.58 425.889 429.661 424.246 429.876C423.975 429.929 423.994 431.581 423.658 431.584C422.842 431.654 411.453 429.707 406.653 429.971C409.096 430.52 411.497 431 413.862 431.43C399.197 429.956 401.068 430.324 406.171 431.634C406.422 431.671 406.659 431.765 406.899 431.802C410.761 432.668 415.512 433.366 415.569 433.498C415.685 433.752 409.624 433.559 403.703 432.626C397.831 431.751 392.071 430.002 394.993 429.879C395.921 430.016 408.005 432.626 402.166 430.59C401.222 430.319 393.017 428.982 392.544 428.659C391.159 427.887 395.193 428.453 398.99 428.624C402.814 428.825 406.474 428.722 405.561 428.023C401.399 428.557 396.183 427.054 391.016 425.937C388.64 425.417 387.784 426.012 387.476 425.938C382.897 424.681 385.714 424.658 384.196 424.16C383.64 424.017 378.004 422.884 376.06 421.283C375.615 420.864 375.566 420.418 376.223 419.974C357.266 411.463 364.664 416.086 375.793 421.802C379.165 423.479 382.566 424.796 385.709 425.814C383.131 425.381 379.498 424.212 375.538 422.296C371.831 420.561 368.184 418.428 365.969 417.278C364.586 416.558 364.914 417.786 362.551 416.562C357.543 414.669 336.504 396.988 331.715 388.958C335.194 392.717 334.978 390.952 332.488 387.952C330.016 384.834 330.99 388.267 330.406 387.733C330.098 387.431 327.137 383.452 324.388 378.235C321.585 373.114 319.372 366.518 318.763 364.562C321.738 373.177 323.833 375.359 323.774 374.77C323.832 374.045 321.931 370.227 319.907 362.849C320.766 364.912 321.715 366.857 322.729 368.693C321.023 364.927 319.316 358.188 319.145 351.376C319.113 346.562 319.301 344.507 318.979 343.137C318.883 342.757 318.13 344.168 318.076 343.95C317.608 341.819 317.927 334.695 317.596 334.35C317.336 334.105 316.877 337.151 316.438 336.06C316.347 335.852 317.247 332.827 316.689 329.986C316.481 328.914 315.745 329.623 315.672 329.354C315.062 327.158 316.552 328.354 315.894 324.288C315.396 321.273 313.813 319.195 313.7 314.988C313.724 328.794 313.052 317.215 311.717 311.631C311.502 310.749 310.166 311.642 310.052 306.158C314.435 317.432 310.994 302.671 310.46 299.61C310.441 299.44 311.405 299.254 311.164 297.741C311.141 297.613 310.518 297.892 310.224 296.492C307.378 283.395 309.634 291.699 309.829 289.085C309.909 287.924 307.726 281.69 307.338 279.975C307.253 279.575 307.98 279.64 307.63 278.086C307.021 275.41 305.743 273.038 305.296 271.303C305.243 271.09 306.343 270.894 305.211 267.522C304.896 266.595 304.264 265.613 304.26 267.02C304.284 271.738 307.892 279.935 307.853 285.221C307.855 290.023 304.821 275.392 304.605 274.655C304.541 274.376 305.699 277.138 305.177 274.205C304.73 271.697 301.835 267.571 301.365 263.81C301.327 263.508 302.224 260.251 302.348 260.362C302.448 260.457 303.872 264.922 304.176 264.168C304.212 264.08 303.515 261.18 303.771 260.747C304.081 260.204 307.9 258.067 307.853 257.418C307.723 255.761 307.035 257.01 306.848 255.958C306.469 253.754 305.746 245.812 304.238 245.908C304.482 247.193 304.72 248.467 304.952 249.73C303.012 242.798 303.154 245.895 302.631 244.973C302.053 243.96 303.4 243.976 302.891 241.596C302.848 241.397 302.393 239.831 301.802 237.966C300.818 234.827 299.544 231.02 299.245 231.207C301.652 236.74 299.51 235.005 299.554 235.276C299.701 236.153 300.606 237.056 301.095 238.145C301.181 238.331 301.253 238.523 301.305 238.721C303.608 247.772 299.774 239.033 299.993 241.246C300.073 242.007 301.208 243.27 301.252 243.586C301.394 244.611 300.423 244.868 300.682 245.527C301.282 247.063 302.177 244.886 302.281 244.992C303.53 246.222 303.857 251.926 301.48 248.884C301.465 251.036 303.354 250.876 303.038 252.679C302.412 256.251 301.559 251.296 300.977 250.048C299.072 245.959 299.188 244.319 297.633 239.018C297.476 238.481 297.303 237.909 297.113 237.298C296.326 234.768 294.61 231.994 294.237 230.824C293.997 230.091 295.224 222.334 290.272 223.362C290 220.539 292.09 215.53 291.187 212.8C290.376 210.368 288.845 211.594 288.714 211.38C288.514 211.064 287.822 208.029 287.299 207.102C286.68 206.003 286.179 206.772 285.383 204.972C283.406 200.527 285.236 200.225 285.217 199.711C285.009 193.896 283.138 196.967 282.588 195.818C282.089 194.665 278.476 179.051 276.783 176.255C277.559 177.419 278.32 178.558 279.089 179.749C279.49 177.116 276.874 175.278 278.877 174.628C275.473 175.136 276.107 169.887 275.551 168.591C275.332 168.08 274.79 168.292 274.531 167.637C273.531 165.066 271.839 159.366 271.034 158.24C267.609 153.194 271.293 168.053 271.551 169.545C270.759 166.849 264.993 154.757 265.752 160.98C265.868 161.927 267.951 163.011 268.203 163.497C269.918 166.867 267.562 164.558 267.544 164.876C267.525 165.406 269.656 167.311 269.734 167.998C269.762 168.229 268.094 167.244 269.32 170.738C267.578 169.255 264.923 159.727 264.16 158.847C263.891 158.555 262.556 161.677 261.766 154.022C261.581 154.195 261.396 154.368 261.211 154.539C259.394 150.996 257.541 148.033 256.131 146.333C256.738 146.2 258.512 146.75 257.307 145.483C256.659 144.863 256.005 146.069 255.923 146.021C255.747 145.941 254.862 144.908 254.563 144.803C254.218 144.575 255.098 146.126 258.554 147.835C255.525 146.686 249.684 145.473 247.809 145.302C246.351 145.095 241.835 145.675 241.498 145.692C239.548 145.568 232.058 144.705 230.443 144.943C229.477 145.058 230.373 146.133 229.513 146.102C228.707 146.075 229.558 144.994 229.319 144.956C227.392 144.401 211.84 147.268 207.783 147.153C210.181 146.932 221.537 143.465 221.293 142.832C221.24 142.727 218.38 142.17 217.811 142.634C216.749 141.804 213.66 145.009 211.815 144.725C211.601 144.697 212.252 142.982 208.931 143.198C207.774 143.275 204.986 144.995 201.742 144.216C199.242 145.072 190.273 146.482 182.757 148.513C176.411 150.181 171.148 151.768 170.56 152.703C170.523 152.81 174.537 152.27 172.109 153.724C168.902 155.656 171.19 151.635 167.046 152.552C166.43 152.68 155.238 156.322 154.908 156.638C151.972 159.418 162.004 157.192 161.916 157.442C161.716 158.051 153.613 160.814 153.28 160.788C152.917 160.758 158.937 156.426 151.185 159.714C152.189 159.714 153.18 159.717 154.16 159.723C150.562 161.396 149.737 159.897 148.809 160.07C145.916 160.604 143.546 164.003 138.144 162.356C136.725 161.914 138.457 160.405 138.276 160.33C136.53 159.68 135.532 163.157 132.741 161.653C132.537 161.541 137.195 158.681 128.407 161.395C129.072 161.417 129.764 161.43 130.409 161.457C129.269 162.31 120.499 165.366 119.268 165.642C115.683 166.427 118.288 163.95 114.852 165.241C117.688 166.589 107.135 170.286 107.25 168.297C106.4 171.028 96.938 172.237 92.7367 173.598C90.0507 174.46 85.0664 177.262 84.1626 177.449C83.1052 177.658 82.9633 175.994 80.9888 176.296C80.4737 176.364 75.3426 179.411 70.2438 179.473C69.1886 179.508 66.5362 177.531 67.9128 176.292C70.3689 174.137 76.6465 174.295 76.0474 172.781C75.4078 171.152 68.3203 174.745 66.3111 175.249C61.6855 176.378 60.8127 175.966 60.6761 175.293C60.5852 174.609 61.4495 173.628 61.2802 173.392C60.918 173.015 60.1015 172.994 59.3914 173.058C57.8256 173.262 55.9664 174.016 55.8225 173.99C54.8758 173.782 57.541 171.516 57.3075 170.715C56.9931 169.652 52.0356 169.544 52.8615 168.808C53.6598 168.094 55.9591 167.837 57.452 167.721C57.749 167.717 58.0831 167.69 58.3314 167.665C58.5506 167.65 58.7082 167.627 58.7454 167.599C61.1612 165.831 58.2361 165.095 56.2661 164.457C55.6456 164.289 55.0725 164.141 54.691 163.99C54.1734 163.78 55.4867 162.6 55.1305 162.618C49.6662 162.934 55.3489 166.33 52.0603 167.29C49.1398 168.174 52.1353 165.114 52.0072 165.076C51.8253 165.032 48.4097 166.371 47.6593 166.067C47.2916 165.907 53.199 160.705 54.1704 158.69C54.263 158.42 54.2876 158.196 54.1841 158.048C54.1113 158.085 54.0419 158.121 53.9759 158.155C51.217 159.527 48.5014 160.964 45.8463 162.461C44.8803 160.801 49.5765 160.33 49.938 159.988C50.6708 159.269 47.8826 159.369 47.7626 158.775C47.6681 158.398 50.0836 155.956 47.2471 156.503C46.2649 156.699 44.8883 158.689 41.1216 158.896C51.827 152.385 43.564 154.784 42.9228 154.312C42.3146 153.838 47.3197 150.007 40.6314 153.152C38.8839 149.889 40.315 152.008 42.0113 150.587C44.1194 148.871 38.0559 149.968 47.275 147.301C46.1512 145.85 39.0208 148.89 38.6101 148.959C38.2343 148.985 39.4842 147.521 38.807 147.499C30.7667 147.377 35.9809 146.754 33.158 145.672C32.9041 145.553 26.1774 147.856 30.9131 145.277C39.6473 140.658 44.3929 141.649 44.1198 136.155C36.3275 136.575 29.4407 143.42 27.5202 144.451C24.4797 146.022 27.1957 143.506 26.6889 143.42C26.5114 143.391 23.8876 144.784 23.8159 144.731C20.0703 142.009 35.766 138.902 40.0003 136.687C38.5746 136.606 37.1426 136.54 35.7039 136.488C37.3351 135.788 38.9746 135.109 40.6219 134.451C32.3147 136.444 40.1318 134.113 41.0174 130.375C41.2166 129.527 36.3442 132.675 41.6955 128.534C37.0508 129.765 38.2213 128.613 34.5276 131.06C34.2508 130.195 38.3292 127.493 42.0713 125.395C43.704 124.476 45.2471 123.669 46.2302 123.128C44.3231 123.548 42.8818 123.958 41.7046 124.386C34.9713 126.927 40.1245 128.246 29.8901 130.126C28.5006 132.457 33.5935 129.969 33.2723 130.403C32.1296 131.9 27.8895 132.014 25.1056 137.022C24.6685 137.841 28.2436 138.006 23.994 139.949C23.5274 140.156 20.1967 140.2 20.1822 140.094C20.0164 138.897 22.8903 137.951 22.7936 137.477C22.6988 137.018 19.8189 138.741 19.7554 138.642C19.0127 137.417 22.0172 136.909 21.4398 136.7C20.2357 136.208 7.77854 138.998 22.592 132.678C11.3781 139.985 21.7116 134.713 26.1399 132.094C27.2716 131.419 27.2271 130.51 28.8327 129.5C30.8993 128.198 33.672 127.518 34.7715 126.922C35.9715 126.287 28.0718 127.168 38.6404 123.774C32.606 123.831 24.192 129.676 18.5529 130.923C6.97335 133.487 24.2352 124.274 26.0794 123.429C26.5489 123.148 24.4177 122.817 24.7209 122.611C25.2139 122.21 35.6899 118.606 36.4022 117.421C37.0927 116.162 32.6124 118.868 31.9349 118.094C31.647 117.762 36.0863 115.451 38.0239 114.257C39.0604 113.612 39.3863 113.242 37.7894 113.612C37.4946 113.68 37.1336 113.775 36.6986 113.9C31.7826 115.257 24.2239 121.247 21.6145 119.304C26.8181 116.838 32.0762 114.594 37.4008 112.542C39.11 111.887 40.67 111.311 42.1964 110.752C40.5011 110.821 38.7713 110.906 36.8687 111.078C34.4428 111.27 32.0073 111.499 29.5622 111.768C31.8174 110.802 34.0418 110.027 36.2318 109.326C41.7798 107.568 46.2629 106.487 50.9365 103.889C33.0021 105.886 55.5869 99.547 55.6371 99.1544C55.6992 98.8712 48.1935 98.2313 46.9442 98.0859C52.5299 95.1965 70.1382 89.5749 58.7038 89.32C60.8042 89.5122 64.8179 86.3804 64.7383 86.2559C63.6789 84.9781 53.9804 88.7985 55.1984 87.0253C56.6238 84.956 59.9587 86.2345 62.7723 85.2549C77.4025 80.2051 71.1046 73.8247 86.4148 71.042C86.0371 70.855 85.6604 70.6677 85.2846 70.48C101.748 66.6099 118.05 63.0093 134.436 59.5523C138.798 56.7187 149.258 53.0312 157.767 50.724C161.064 49.8354 164.012 49.175 166.488 48.7385C168.436 48.354 178.435 47.7773 179.235 47.8964C180.673 48.0535 173.185 49.4729 176.712 49.632C177.442 49.544 194.181 47.7194 192.832 46.7122C190.931 46.7636 185.13 48.1727 184.135 48.0319C176.633 46.0706 229.917 43.4018 233.156 44.1662C231.948 43.708 230.721 43.2586 229.475 42.8187C233.015 43.1261 236.505 43.5119 240.06 43.9876ZM128.846 166.748C127.71 168.492 123.597 168.75 121.497 169.813C118.504 171.31 114.731 177.941 115.54 172.266C119.952 170.41 124.418 168.563 128.846 166.748ZM194.472 149.432C191.75 149.395 193.214 146.202 195.551 146.831C195.83 146.904 198.099 149.516 194.472 149.432ZM163.8 156.736C163.939 156.657 166.594 155.95 166.703 155.964C169.378 156.341 161.286 158.495 163.8 156.736ZM261.176 150.214C260.004 148.323 258.7 150.698 260.232 151.558C260.33 151.614 261.254 150.344 261.176 150.214ZM260.463 148.806C261.419 146.258 256.255 146.126 257.829 147.74C257.978 147.869 260.396 148.87 260.463 148.806ZM185.002 150.795C185.098 149.869 187.857 149.531 189.07 149.428C189.207 150.198 186.111 150.373 185.002 150.795ZM248.409 144.344C248.728 143.668 241.057 142.802 240.342 143.689C241.721 143.356 248.293 144.854 248.409 144.344ZM256.21 143.887C256.266 143.867 256.416 144.052 256.615 144.354C256.802 144.65 257.036 145.051 256.866 145.272C256.32 145.326 255.947 144.966 255.873 144.635C255.799 144.305 255.961 143.977 256.21 143.887ZM270.57 174.084C270.759 174.24 273.172 170.604 273.076 177.446C273.063 178.453 271.123 175.446 271.113 175.814C271.109 176.553 271.18 177.12 271.304 177.558C270.077 174.749 268.932 171.901 269.034 171.567C269.512 169.957 270.486 173.994 270.57 174.084ZM281.702 201.631C282.415 202.121 283.315 206.379 283.361 207.378C283.366 207.552 281.773 207.191 282.407 209.044C282.919 210.538 283.707 207.907 284.309 210.931C284.92 213.996 282.783 210.232 282.784 210.515C282.79 210.895 284.721 215.359 283.856 215.428C283.213 215.468 282.237 210.401 281.762 209.216C281.154 207.702 280.664 209.841 280.149 207.197C279.819 205.518 281.88 205.972 281.873 205.602C281.863 205.273 279.209 199.897 281.699 201.641C281.7 201.637 281.701 201.634 281.702 201.631ZM271.645 178.322C271.511 178.12 271.393 177.872 271.304 177.558C271.416 177.814 271.532 178.069 271.645 178.322ZM137.447 163.072C139.219 163.222 134.715 165.512 132.691 165.227C132.452 164.559 137.19 163.041 137.447 163.072ZM274.002 180.586C274.951 185.148 273.292 181.998 271.645 178.322C272.384 179.43 273.682 179.074 274.002 180.586ZM217.811 142.634C217.983 142.771 218.101 142.999 218.139 143.39C217.69 143.004 217.634 142.778 217.811 142.634ZM226.579 142.677C229.534 141.359 223.506 141.675 223.552 142.554C223.595 142.868 226.45 142.722 226.579 142.677ZM262.494 153.012C262.482 152.752 267.349 154.911 262.469 150.84C263.448 153.641 261.696 151.009 261.447 151.192C260.716 151.566 263.733 155.86 263.9 157.236C265.71 157.534 262.534 153.85 262.497 153.018C262.496 153.016 262.495 153.014 262.494 153.012ZM295.793 255.589C294.749 254.869 294.251 251.887 293.783 249.951C294.839 250.658 295.341 253.623 295.793 255.589ZM713.57 201.274C704.187 212.414 701.339 212.335 710.892 203.02C711.083 202.835 714.003 200.47 713.57 201.274ZM629.828 295.366C628.123 295.696 631.072 292.1 633.377 290.138C633.901 289.692 636.355 288.513 634.601 290.828C633.727 289.89 630.41 292.912 629.828 295.366ZM275.751 182.805C277.151 183.794 277.678 188.02 278.17 190.212C276.959 189.113 276.018 184.723 275.751 182.805ZM680.799 236.318C679.722 237.426 679.662 238.795 679.891 238.643C680.921 237.967 682.32 235.33 680.799 236.318ZM271.786 170.318C272.322 169.925 274.618 174.783 273.255 175.59C273.007 174.471 271.454 170.536 271.786 170.318ZM295.265 251.791C295.336 250.864 297.005 255.146 297.039 256.506C296.407 256.55 295.223 252.385 295.265 251.791ZM664.577 255.236C663.607 256.227 661.304 258.82 661.314 259.351C661.328 260.013 664.564 256.081 664.577 255.236ZM839.333 64.9514C839.526 64.9183 836.502 69.6566 834.677 71.3433C831.243 74.5294 839.154 65.0675 839.333 64.9514ZM690.158 225.072C693.635 222.364 689.858 225.447 690.603 225.883C692.564 223.713 697.443 218.29 693.503 221.475C692.733 222.098 691.107 224.084 690.158 225.072ZM687.281 227.888C687.173 228.424 685.731 231.367 687.482 229.293C688.287 228.335 688.926 226.163 687.281 227.888ZM816.487 90.2392C813.327 92.7027 826.065 79.674 826.496 79.3176C826.726 79.1507 826.888 79.053 826.991 79.0075C827.306 78.3891 829.654 75.7946 830.263 75.8355C829.537 76.5714 827.622 78.709 827.367 78.9048C827.254 78.9933 827.167 79.0563 827.101 79.0948C826.573 80.3088 817.071 89.8114 816.487 90.2392ZM795.34 111.45C797.775 107.565 799.472 108.085 799.232 108.408C796.287 112.42 797.682 109.274 797.535 109.348C797.24 109.524 795.221 112.415 795.35 111.44C795.347 111.443 795.344 111.447 795.34 111.45ZM812.059 94.535C812.156 94.4036 814.839 91.6521 814.951 91.5675C817.458 89.6772 809.966 97.3754 812.059 94.535ZM290.007 223.755C290.441 226.427 288.695 224.133 288.595 222.316C288.591 222.16 289.629 221.41 290.007 223.755ZM685.997 229.62C685.488 229.991 674.556 241.614 675.978 241.622C676.776 240.516 689.174 227.289 685.997 229.62ZM606.438 319.388C608.351 317.274 607.08 320.344 605.749 321.206C605.257 321.522 605.95 319.928 606.438 319.388ZM270.781 163.367C269.071 161.377 272.029 160.848 271.845 163.191C271.838 163.283 270.848 163.446 270.781 163.367ZM622.061 302.829C616.014 310.637 615.052 306.522 624.362 297.792C624.209 298.195 624.056 298.598 623.903 299C634.017 288.341 624.755 298.408 622.501 301.237C621.649 302.308 622.828 301.843 622.07 302.824C622.067 302.826 622.064 302.827 622.061 302.829ZM596.267 330.508C587.985 335.806 601.514 323.487 604.71 319.421C602.081 323.869 597.558 328.632 604.315 322.74C595.687 332.585 598.618 327.837 598.206 328.175C597.728 328.561 596.625 330.278 596.267 330.508ZM613.043 311.896C613.348 311.448 616.482 308.69 617.396 307.538C616.633 309.664 610.985 314.939 613.043 311.896ZM774.068 134.318C773.933 133.706 774.256 132.814 776.593 130.649C776.099 131.542 774.846 133.18 774.068 134.318ZM124.401 162.104C122.267 162.686 118.089 163.572 119.659 164.287C119.832 164.335 124.545 162.733 124.401 162.104ZM654.973 264.129C654.607 264.43 646.503 273.584 649.799 270.881C650.798 270.06 658.055 261.643 654.973 264.129ZM696.749 216.917C696.072 217.664 693.404 220.823 693.446 220.986C693.615 221.522 696.791 217.557 696.749 216.917ZM113.651 164.315C113.34 164.291 107.106 166.505 107.955 166.798C109.556 167.343 114.683 164.397 113.651 164.315ZM294.714 232.762C294.9 233.311 294.134 234.277 294.176 234.47C294.231 234.698 295.069 237.379 295.593 239.533C296.07 241.501 296.233 242.95 295.131 241.312C295.061 241.208 294.888 240.642 294.647 239.772C293.529 235.729 291.155 225.792 290.839 224.245C291.973 223.181 292.398 229.677 292.951 231.15C293.05 231.41 294.208 231.301 294.708 232.758C294.71 232.759 294.712 232.761 294.714 232.762ZM785.265 121.817C785.223 121.156 793.474 112.114 793.764 112.646C790.946 115.685 788.069 118.785 785.265 121.817ZM780.926 126.231C778.878 127.87 783.016 123.387 784.364 122.201C784.591 122.433 781.237 125.979 780.926 126.231ZM679.906 232.677C679.2 233.684 682.295 231.444 681.857 232.181C681.574 232.652 679.54 234.479 679.154 235.309C679.051 235.55 681.468 233.998 681.974 233.373C682.697 232.488 681.512 232.901 682.338 231.962C685.082 228.846 687.829 226.406 690.402 223.497C690.633 223.234 688.515 224.969 690.504 222.744C690.81 222.402 693.119 220.763 695.429 218.034C699.261 210.819 704.511 207.835 710.714 199.971C710.339 200.114 704.955 205.322 704.657 205.628C698.821 211.591 688.795 222.733 682.962 229.299C681.463 230.983 682.5 230.453 681.866 231.19C681.365 231.772 681.393 230.56 679.906 232.677ZM125.276 161.002C123.914 159.929 120.68 161.885 118.452 162.512C119.626 163.498 123.009 161.374 125.276 161.002ZM743.019 165.436C742.241 166.307 739.554 168.863 739.514 169.222C739.434 169.72 743.204 165.946 743.019 165.436ZM307.479 286.986C307.529 287.066 307.977 289.748 307.957 289.848C307.497 292.35 306.169 284.416 307.479 286.986ZM315.203 350.966C315.225 351.174 315.249 351.389 315.275 351.616C315.738 356.223 316.921 360.307 316.458 361.911C315.953 359.702 314.851 353.935 314.964 351.635C314.984 351.121 315.06 350.883 315.203 350.966ZM416.796 433.319C416.395 432.227 423.921 433.324 425.306 433.422C424.789 433.921 417.152 434.165 416.796 433.319ZM772.142 133.057C774.943 130.194 773.567 130.056 775.674 128.574C776.027 128.328 778.522 128.987 774.918 131.53C774.263 131.992 776.023 129.376 772.142 133.057ZM625.764 296.253C625.999 295.089 628.238 292.829 629.705 291.241C629.705 291.905 626.742 295.086 625.764 296.253ZM101.985 166.856C99.7782 166.054 92.1953 169.686 94.4226 169.955C94.7158 169.983 100.801 167.178 101.985 166.856ZM282.343 190.905C284.229 193.919 282.531 187.053 280.985 185.238C281.332 186.152 282.221 190.703 282.343 190.905ZM387.665 427.884C387.937 427.972 393.255 429.467 393.432 429.513C395.44 430.404 392.845 430.012 390.225 429.268C387.604 428.53 385.001 427.429 387.665 427.884ZM315.011 329.163C315.875 330.371 316.007 338.637 315.402 340.502C314.28 338.782 313.988 327.723 315.011 329.163ZM761.074 145.109C763.022 143.027 764.959 141.191 766.899 139.432C766.78 140.094 761.488 145.08 761.074 145.109ZM406.171 431.634C406.422 431.671 406.659 431.765 406.899 431.802C406.65 431.747 406.408 431.689 406.171 431.634ZM717.558 191.181C715.829 192.824 716.693 192.974 716.81 192.88C718.199 191.72 719.509 189.328 717.558 191.181ZM122.148 159.771C121.022 158.779 117.546 160.906 115.324 161.289C116.214 162.071 120.457 160.437 122.148 159.771ZM588.167 336.907C585.478 338.538 593.18 328.763 595.348 327.196C595.859 327.43 588.563 336.668 588.167 336.907ZM280.921 180.469C281.689 179.99 279.245 175.765 279.155 176.846C279.096 177.505 280.441 180.735 280.921 180.469ZM599.797 322.856C600.445 321.867 602.685 320.298 602.317 321.252C601.843 322.48 599.639 323.111 599.797 322.856ZM667.979 245.4C667.585 245.715 663.556 251.149 665.816 249.455C667.383 248.278 666.991 247.498 667.289 247.156C667.627 246.776 675.492 239.364 667.979 245.4ZM537.877 386.261C539.691 384.256 542.171 382.351 544.216 380.406C543.638 381.514 539.09 385.897 537.877 386.261ZM286.483 198.479C286.673 197.766 282.347 182.24 283.884 191.299C283.979 191.802 285.965 200.481 286.483 198.479ZM772.142 133.057C771.784 133.423 771.377 133.815 770.881 134.265C771.354 133.798 771.768 133.412 772.142 133.057ZM741.043 165.732C741.414 164.804 738.168 168.117 737.396 169.228C737.426 169.851 740.991 165.86 741.043 165.732ZM543.919 379.771C544.852 378.52 547.184 376.719 548.552 375.369C548.66 375.883 544.681 379.679 543.919 379.771ZM430.816 431.285C434.199 431.606 438.29 431.408 438.353 430.818C438.421 430.909 438.581 431.004 438.847 431.097C439.118 431.193 442.655 430.843 444.174 430.989C453.623 432.251 408.009 431.718 434.563 430.207C433.327 430.573 432.073 430.933 430.816 431.285ZM315.279 317.885C315.873 316.162 314.276 311.823 314.119 313.013C314.028 313.872 314.687 319.561 315.279 317.885ZM343.042 397.977C342.615 397.465 337.539 393.048 337.127 393.113C339.49 396.417 344.986 400.643 343.042 397.977ZM314.495 305.449C314.458 304.388 312.978 303.327 312.939 303.443C312.629 304.491 314.04 307.252 314.495 305.449ZM764.967 137.515C763.689 138.522 760.557 142.613 760.149 143.797C759.936 143.874 759.444 144.199 758.631 144.823C758.633 144.821 758.635 144.818 758.637 144.816C757.513 145.631 728.896 175.552 748.707 156.089C749.326 155.482 748.18 156 750.657 153.509C750.821 153.345 751.174 153.535 751.689 153.019C752.876 151.826 759.128 145.599 760.141 144.094C760.202 144.133 760.329 144.097 760.543 143.963C762.437 142.766 765.95 136.734 764.967 137.515ZM352.637 405.944C351.79 405.048 348.59 402.737 347.931 402.847C349.284 404.369 354.603 408.075 352.637 405.944ZM288.712 197.377C288.678 195.438 286.479 191.109 286.403 192.614C286.363 193.541 288.757 199.599 288.712 197.377ZM323.753 372.055C327.798 381.191 328.726 381.538 328.359 380.845C328.05 380.032 326.931 377.395 327.991 378.438C326.52 376.481 325.09 374.353 323.753 372.055ZM801.459 101.43C800.166 102.619 800.944 100.5 802.67 99.4221C803.211 99.0863 802.182 100.763 801.459 101.43ZM855.953 40.2539C854.423 41.0823 859.437 35.1046 858.01 37.8487C857.939 37.9786 856.043 40.1868 855.953 40.2539ZM817.805 83.4992C817.363 84.7406 816.831 85.3967 814.401 87.754C817.76 84.0071 814.216 87.0459 817.805 83.4992ZM438.318 430.726C438.339 430.76 438.356 430.786 438.353 430.818C438.329 430.787 438.319 430.757 438.318 430.726ZM312.67 295.776C313.272 294.398 312.556 290.724 311.929 291.949C311.875 292.077 311.982 295.356 312.67 295.776ZM760.149 143.797C760.34 143.726 760.316 143.835 760.141 144.094C760.084 144.058 760.094 143.956 760.149 143.797ZM316.283 315.14C315.668 315.05 316.124 320.587 316.214 320.818C317.625 323.873 316.632 317.426 316.283 315.14ZM278.63 162.134C278.472 161.91 277.421 164.087 278.426 164.88C279.206 165.494 279.238 163.005 278.63 162.134ZM825.644 74.8524C826.319 74.1285 827.12 73.2643 827.82 72.5863C828.515 71.9108 829.111 71.4119 829.419 71.3695C829.107 71.6785 828.588 72.2143 828.024 72.7828C826.979 73.836 825.768 75.0085 825.644 74.8524ZM853.679 42.3432C852.599 44.4897 849.288 48.639 847.061 51.1929C846.579 50.8575 852.465 44.1931 853.679 42.3432ZM768.667 134.036C768.541 134.125 765.134 137.374 765.915 137.236C767.026 137.065 769.77 133.251 768.667 134.036ZM280.469 170.155C281.643 171.817 281.957 167.055 279.962 165.607C278.949 164.863 280.275 169.851 280.469 170.155ZM311.672 284.307C310.724 281.808 311.156 288.304 312.127 289.095C311.97 287.877 312.011 285.201 311.672 284.307ZM336.894 388.602C330.647 376.974 331.69 384.893 333.443 386.684C333.694 386.957 337.057 388.899 336.894 388.602ZM80.2084 167.781C79.1924 168.569 83.9112 168.567 84.1284 167.443C84.2932 166.729 80.8282 167.286 80.2084 167.781ZM492.383 418.599C491.964 418.839 491.549 419.074 491.137 419.303C491.432 419.106 491.836 418.875 492.383 418.599ZM309.79 260.199C307.799 266.672 310.203 265.488 310.305 265.997C310.512 267.081 310.176 269.802 310.752 271.765C309.888 269.563 308.981 267.227 308.087 265.039C308.323 266.924 310.46 283.07 311.006 283.299C311.864 283.625 310.633 278.69 310.661 278.514C310.714 278.288 312.678 277.096 312.663 276.616C312.679 275.853 309.806 262.471 309.79 260.199ZM322.103 361.965C322.585 364.641 322.092 365.603 322.676 366.714C322.881 367.088 323.624 366.911 324.311 368.148C323.487 366.183 322.741 364.122 322.103 361.965ZM304.288 250.625C304.878 248.785 306.313 256.108 306.249 256.369C305.881 257.737 303.829 252.162 304.288 250.625ZM316.617 312.295C316.649 312.057 316.15 306.395 315.612 306.521C315.432 307.999 316.344 315.555 316.617 312.295ZM324.995 369.707C326.308 373.332 329.009 379.461 329.629 378.192C329.626 378.188 329.624 378.183 329.621 378.179C327.963 375.6 326.392 372.789 324.995 369.707ZM285.202 175.687C286.112 171.61 284.098 174.022 284.414 177.284C285.613 177.964 285.054 176.35 285.202 175.687ZM283.074 164.258C283.144 163.141 279.239 154.012 278.712 155.856C278.538 156.448 281.489 161.396 281.505 161.721C281.53 162.132 279.74 160.82 281.004 163.606C281.342 163.299 283.065 164.613 283.074 164.258ZM285.574 172.419C285.996 168.519 282.911 168.646 283.747 171.194C284.068 172.19 285.512 172.979 285.574 172.419ZM289.725 186.89C289.616 185.521 288.998 181.981 287.35 179.923C288.217 183.064 289.067 186.242 289.906 189.455C290.542 189.678 289.823 188.097 289.722 186.881C289.723 186.884 289.724 186.887 289.725 186.89ZM865.076 20.4735C863.011 22.851 866.921 16.786 867.151 16.6027C867.905 16.034 866.006 19.4014 865.076 20.4735ZM48.1581 145.302C47.2475 145.22 46.2695 144.183 44.8068 145.49C46.4104 145.669 48.0044 145.867 49.5886 146.082C49.9811 146.167 50.5073 146.205 50.9272 146.283C51.3466 144.443 50.2171 144.796 49.2289 145.092C48.8272 145.213 48.4385 145.328 48.1581 145.302ZM38.5668 140.355C38.7973 140.207 36.1313 137.589 40.2424 138.4C42.9428 138.918 31.8006 145.169 29.1292 144.881C31.1282 143.129 36.5866 141.619 38.5668 140.355ZM11.0423 137.002C10.7566 136.824 15.2615 133.959 15.9047 133.872C19.2214 133.315 12.5124 137.823 11.0423 137.002ZM26.3923 130.147C23.8731 130.534 28.6749 127.936 30.3257 127.685C30.7139 128.202 26.7741 130.071 26.3923 130.147ZM830.729 33.7264C828.453 34.9295 828.53 37.8649 830.671 34.8076C830.767 34.6693 830.833 33.6754 830.729 33.7264ZM14.0067 131.481C16.5583 130.926 11.799 133.845 10.1515 134.333C9.69636 133.835 13.6148 131.556 14.0067 131.481ZM827.941 33.5621C825.326 35.5081 827.768 36.1343 828.098 35.8994C829.476 34.8983 832.463 30.0904 833.029 29.0657C827.843 35.6593 829.15 32.6397 827.941 33.5621ZM819.028 45.3459C817.17 47.6818 822.713 42.454 823.214 40.9469C822.252 42.0481 819.543 44.7014 819.028 45.3459ZM805.871 57.8422C804.669 58.9364 801.121 62.1811 800.821 62.9978C802.01 61.7305 805.668 58.5866 805.871 57.8422ZM802.5 59.6493C800.346 61.0804 800.953 62.5432 802.72 60.171C802.788 60.0794 802.586 59.6037 802.5 59.6493ZM791.997 69.2359C790.395 69.9695 790.043 72.3301 792.008 70.4661C792.586 69.9137 792.169 69.1622 791.997 69.2359ZM823.471 34.9381C821.723 36.5057 820.446 39.3466 823.866 35.7546C822.801 37.1516 821.726 38.5452 820.662 39.9125C825.474 35.4986 824.128 34.921 825.412 33.5843C827.205 31.6928 827.898 32.5664 827.821 33.1829C828.734 31.1567 834.612 24.2876 837.687 20.1218C834.655 23.5515 829.509 28.9005 826.352 32.1621C825.444 33.1085 824.851 34.2255 824.074 35.035C822.85 36.3027 823.571 34.8523 823.478 34.9314C823.476 34.9337 823.474 34.9359 823.471 34.9381ZM778.527 82.2719C774.526 85.1812 777.771 84.1108 779.598 81.9734C779.669 81.8763 778.627 82.1982 778.527 82.2719ZM2.3744 125.877C9.95001 123.479 5.7065 127.463 18.8172 118.155C13.6385 122.746 19.1019 119.625 18.2713 120.906C17.6081 121.912 13.8815 123.087 16.4849 123.301C13.1816 123.148 1.82183 129.678 1.21558 129.892C1.22038 129.889 1.22518 129.886 1.22998 129.883C0.849835 129.949 -0.0449028 126.71 2.3744 125.877ZM803.201 55.2774C800.818 55.2196 802.343 57.5595 799.038 58.8095C797.888 62.128 803.163 55.8593 806.889 52.4495C808.171 51.2749 809.233 50.4751 809.897 50.4174C808.825 51.4855 808.013 52.3041 807.399 52.9401C805.036 55.3783 806.06 54.6749 807.691 53.2213C810.358 50.8379 814.595 46.4443 808.813 50.2726C816.405 43.845 810.845 47.7383 811.673 46.4228C812.544 45.0388 816.68 41.257 816.005 41.0534C816.003 41.0555 816.001 41.0577 815.999 41.0599C813.694 43.5518 811.37 46.0132 809.013 48.4729C811.726 47.2952 808.788 50.2095 806.234 51.8199C805.673 52.1702 805.128 52.4594 804.672 52.6241C804.182 53.5098 803.686 54.3997 803.201 55.2774ZM817.629 42.3379C817.406 42.5474 812.396 48.0482 812.926 47.8794C813.755 47.3091 820.845 39.506 817.629 42.3379ZM838.495 17.8067C836.895 19.8757 834.166 22.8403 833.635 24.2471C835.303 22.2445 838.019 19.224 838.495 17.8067ZM741.527 116.316C739.371 119.073 747.13 111.723 744.517 113.485C744.385 113.577 741.641 116.174 741.527 116.316ZM797.845 60.9354C794.964 63.0165 797.348 63.0503 798.887 60.9161C798.976 60.7932 797.978 60.8387 797.845 60.9354ZM7.68949 122.459C7.46248 121.38 17.8284 117.154 19.6137 116.451C18.9477 117.637 7.93629 123.515 7.68949 122.459ZM840.139 13.314C835.93 16.6531 832.78 22.9931 832.24 23.5773C831.725 24.1411 832.015 22.8415 831.89 22.9656C831.632 23.2677 826.357 29.4973 826.111 29.8014C825.947 30.0388 827.596 29.4733 826.673 30.9349C828.588 28.1846 838.248 16.8489 838.572 16.1145C838.873 15.5929 835.419 18.6574 840.133 13.3212C840.135 13.3188 840.137 13.3164 840.139 13.314ZM830.86 24.9356C832.455 23.6046 828.795 28.0096 827.767 28.964C825.52 31.0949 830.673 25.13 830.86 24.9356ZM821.471 35.0897C820.982 35.5186 816.846 39.8438 816.795 40.482C819.149 38.783 822.626 34.1139 821.471 35.0897ZM773.629 82.7845C772.495 83.9526 769.113 86.7185 769.188 87.1871C770.323 86.0201 773.71 83.2436 773.629 82.7845ZM39.6174 101.026C36.6016 101.223 42.8692 98.8947 44.742 98.6927C45.0514 99.2026 39.8332 101.017 39.6174 101.026ZM794.885 58.8494C794.164 59.4233 780.545 72.9131 778.698 74.9099C780.834 73.2888 794.538 60.1208 795.026 59.4237C795.178 59.2178 794.984 58.7781 794.885 58.8494ZM823.119 29.6299C823.841 28.0478 825.06 27.6044 825.199 27.458C826.651 25.9445 829.355 22.59 829.125 23.6222C826.621 26.3078 821.644 32.8213 823.119 29.6299ZM770.812 81.9057C766.233 86.5662 775.749 78.3185 774.133 79.0377C774.027 79.0898 771.302 81.4086 770.812 81.9057ZM796.298 57.2511C796.64 56.6135 800.18 53.1443 803.856 49.5321C807.705 45.7588 811.688 41.7959 812.745 40.6942C811.465 43.1631 809.486 44.3365 806.967 46.9363C806.278 47.6489 806.704 47.6923 806.629 47.7683C805.453 48.9733 806.065 47.8117 805.323 48.5473C805.23 48.6399 804.789 49.1075 804.132 49.7978C801.536 52.5421 795.495 58.7369 796.298 57.2511ZM823.486 28.68C823.994 27.7434 831.325 18.9843 831.622 18.6555C834.299 16.3905 824.26 28.1201 823.486 28.68ZM794.529 57.9594C795.317 55.8867 802.528 49.7028 798.246 54.5591C797.842 55.0155 795.67 56.5628 794.529 57.9594ZM770.66 80.7508C770.394 80.9655 765.305 85.5274 765.45 85.8276C766.242 85.2454 773.551 78.4413 770.66 80.7508ZM772.471 77.5665C772.363 77.6793 773.929 77.0238 771.577 79.1529C771.385 79.3255 770.524 79.2052 767.794 82.1382C767.24 82.7346 766.634 83.935 766.72 83.8919C770.507 81.7701 778.233 71.609 772.471 77.5665ZM823.242 28.1984C822.628 28.4906 823.047 26.8608 824.222 26.1236C824.73 25.8024 824.394 26.8933 823.242 28.1984ZM754.745 95.5011C757.246 92.3895 748.143 100.908 747.755 101.472C748.298 101.415 754.498 95.8062 754.745 95.5011ZM43.0743 90.4641C43.0713 90.4651 43.0682 90.466 43.0652 90.4669C46.4871 89.7045 44.7264 91.2557 44.8845 91.2397C52.5351 90.4194 49.8828 88.9357 50.961 88.3412C53.1363 87.1184 53.6052 89.7547 57.2803 87.5347C51.1696 91.0157 56.9361 88.6208 57.4345 89.4622C59.3254 92.9338 48.0919 90.3138 44.9374 92.1345C44.5108 92.3816 48.3309 92.5195 47.2541 93.2145C43.809 95.4444 29.5457 93.6056 43.0743 90.4641ZM824.857 25.2988C825.521 23.9359 832.94 15.7172 831.355 18.1963C831.159 18.619 823.972 27.3743 824.857 25.2988ZM439.509 371.669C442.064 371.059 436.152 370.097 435.087 370.563C434.538 370.81 438.376 371.947 439.509 371.669ZM406.654 364.058C406.139 363.891 405.569 364.421 405.16 364.976C404.773 365.537 404.42 366.071 404.953 366.12C405.061 366.132 406.622 364.495 406.654 364.058ZM559.027 287.996C555.948 289.822 557.279 290.805 559.051 289.005C559.679 288.367 559.124 287.938 559.027 287.996ZM464.649 367.878C464.399 367.945 462.247 369.01 462.52 369.336C463.374 369.296 466.162 367.638 464.649 367.878ZM559.637 287.059C558.388 288.723 561.777 287.003 562.69 284.456C561.871 285.412 559.764 286.89 559.637 287.059ZM787.531 61.11C786.609 62.6631 783.005 65.8995 780.999 67.9216C780.351 67.6654 786.162 62.5833 787.531 61.11ZM413.646 367.388C411.352 367.646 415.937 369.193 415.681 368.15C415.613 368.092 413.715 367.378 413.646 367.388ZM637.569 207.077C636.297 209.057 641.886 204.203 639.873 205.1C639.78 205.149 637.639 206.968 637.569 207.077ZM660.291 184.217C658.94 185.368 653.697 190.776 656.074 188.989C656.432 188.72 660.504 184.589 660.291 184.217ZM50.8422 87.2866C49.4282 86.146 55.023 84.8796 55.889 84.9034C56.2257 84.9153 52.6231 88.7808 50.8422 87.2866ZM543.005 303.556C541.791 304.894 538.37 307.87 538.112 308.776C539.588 307.24 544.11 303.813 543.005 303.556ZM424.632 369.004C422.408 367.661 418.792 367.26 419.53 368.862C423.664 369.29 419.058 367.511 424.632 369.004ZM567.035 278.169C565.97 279.137 566.077 280.739 566.232 280.664C567.712 279.939 568.381 277.476 567.035 278.169ZM489.921 350.233C489.497 349.858 486.288 352.678 486.965 352.61C487.2 352.59 490.258 350.554 489.921 350.233ZM743.067 102.934C741.256 104.146 745.73 99.4098 747.463 98.3551C748.573 98.1454 743.302 102.768 743.067 102.934ZM595.33 249.752C594.936 249.102 590.179 254.58 592.623 252.95C593.233 252.544 595.456 249.974 595.33 249.752ZM643.405 199.066C640.569 203.142 655.429 188.775 650.894 191.962C650.569 192.188 643.646 198.719 643.405 199.066ZM667.479 175.345C666.811 175.893 665.488 174.045 668.609 172.141C669.017 171.89 667.916 173.83 668.282 173.655C668.493 173.549 674.142 168.339 674.36 168.051C674.587 167.742 673.755 167.568 673.971 167.241C674.213 166.875 678.017 163.969 679.789 162.227C680.723 161.307 681.388 160.59 681.868 160.026C683.109 158.569 683.13 158.126 683.325 157.932C684.119 157.146 685.736 156.136 687.339 154.561C695.434 146.587 707.539 134.196 714.853 128.804C708.762 134.013 703.631 139.69 698.065 145.346C698.861 142.896 690.364 154.167 695.242 147.462C694.069 148.804 688.357 154.569 682.407 160.545C675.628 167.347 668.645 174.378 667.486 175.338C667.484 175.34 667.481 175.342 667.479 175.345ZM401.105 359.684C402.811 359.59 396.685 355.638 395.569 356.23C396.156 356.972 400.861 359.715 401.105 359.684ZM430.555 364.985C431.402 364.858 432.193 362.939 436.644 364.165C436.648 364.165 436.652 364.166 436.656 364.166C437.967 364.518 436.465 364.941 436.703 365.125C436.777 365.206 440.938 366.347 437.479 366.382C432.258 366.399 436.995 364.88 434.245 364.723C433.889 364.717 428.77 365.461 429.065 365.711C429.089 365.742 430.625 365.625 430.872 365.739C431.815 366.176 431.331 366.772 431.464 366.81C431.868 366.948 440.203 366.257 441.491 367.179C441.81 367.561 428.121 367.618 427.753 367.321C427.437 367.195 427.664 365.462 427.347 365.262C427.16 365.179 422.079 365.305 421.513 365.043C421.335 364.973 421.201 364.905 421.104 364.85C421.747 365.498 417.512 364.84 417.754 364.235C417.839 364.015 420.687 364.591 420.809 364.64C420.854 364.664 420.892 364.694 420.928 364.716C420.233 364.044 430.877 365.141 428.645 363.922C431.85 363.636 428.116 365.326 430.555 364.985ZM446.792 364.524C446.434 364.701 446.077 364.877 445.721 365.054C448.233 364.904 450.939 364.953 453.778 365.043C455.212 365.256 455.998 365.559 457.447 365.25C458.074 365.102 456.992 364.255 457.936 364.319C458.7 364.365 460.108 364.914 459.71 365.295C459.574 365.419 457.698 365.317 457.163 365.459C455.507 365.925 456.155 366.726 456.048 366.779C455.924 366.825 454.843 366.219 454.14 366.216C454.034 366.218 453.929 366.22 453.822 366.224C449.429 366.367 447.026 366.861 440.838 365.995C444.632 365.456 442.517 364.061 446.792 364.524ZM615.155 226.208C614.98 225.696 618.364 222.835 619.428 221.64C619.605 222.148 616.222 225.011 615.155 226.208ZM268.025 50.2383C265.939 50.9668 279.514 54.8186 276.182 52.8581C275.447 52.3783 269.703 50.5992 268.025 50.2383ZM334.423 94.738C335.965 96.4512 331.709 88.3184 330.829 88.9007C330.634 89.0811 334.33 94.5847 334.423 94.738ZM499.339 337.058C499.492 336.897 502.351 334.756 502.48 334.704C504.917 333.926 495.6 341.014 499.339 337.058ZM360.552 158.531C358.555 153.85 361.936 168.685 361.776 163.921C361.777 163.702 360.652 158.747 360.552 158.531ZM365.639 178.746C365.338 177.605 364.535 172.429 364.159 172.436C363.574 172.505 364.537 178.412 365.639 178.746ZM565.396 275.293C564.323 275.023 569.476 270.876 570.994 269.173C572.06 269.441 566.929 273.592 565.396 275.293ZM535.62 303.446C554.631 284.095 551.827 289.751 534.801 304.883C534.325 304.461 534.438 304.633 535.62 303.446ZM560.74 279.111C560.465 280.251 558.154 282.293 556.595 283.769C556.566 283.196 559.735 280.27 560.74 279.111ZM252.21 45.3483C254.65 44.4139 264.933 47.7599 262.96 47.908C262.51 47.838 251.285 45.8051 252.21 45.3483ZM500.449 334.98C499.317 334.636 505.706 329.759 506.332 329.497C508.816 328.543 500.832 334.39 500.449 334.98ZM592.469 246.736C592.997 245.199 596.181 242.466 598.085 240.532C597.655 241.821 594.084 245.107 592.469 246.736ZM578.437 260.21C578.533 260.075 581.214 257.451 581.358 257.35C584.023 255.635 576.447 263.063 578.437 260.21ZM34.5298 80.7059C34.6608 80.6217 37.6849 79.7826 37.7708 79.8076C40.8056 80.1181 31.7534 82.6315 34.5298 80.7059Z" fill="#414E13"/>
</svg>
