<svg width="283" height="486" viewBox="0 0 283 486" fill="none" xmlns="http://www.w3.org/2000/svg">
<path d="M63.6636 20.3107C63.2359 20.7213 61.208 21.9051 60.3975 22.5242C60.8137 21.1123 65.1847 18.8438 63.6636 20.3107ZM64.799 117.499C65.026 118.426 65.2275 119.479 65.3361 120.579C64.2637 117.514 62.5224 115.136 61.9268 114.869C61.8187 114.809 61.5543 115.476 61.3489 115.305C61.1807 115.176 61.8041 114.538 61.7393 114.351C61.7037 114.244 61.5809 114.345 62.0244 114.816C62.4263 115.261 63.3246 115.955 63.8837 116.242C65.7836 117.235 68.4888 118.329 71.5584 119.493C70.9005 119.159 72.2268 119.594 75.6465 120.063C70.1907 120.13 75.0996 121.409 77.5438 121.26C78.0748 121.232 77.6488 119.839 84.3815 120.307C84.8211 120.341 85.3084 120.387 85.8462 120.446C89.7915 120.785 86.0171 123.227 92.9197 121.871C87.5764 120.348 92.7188 120.444 96.954 120.008C97.6626 119.974 103.684 119.537 106.388 118.952C107.309 118.769 108.556 117.658 109.771 117.39C110.609 117.206 111.345 117.54 112.599 117.238C114.892 116.686 117.179 116.084 119.466 115.442C123.311 114.366 127.217 113.223 131.329 112.039C128.063 115.397 134.703 111.982 135.088 111.962C136.888 112.031 129.607 114.508 132.616 113.958C136.636 112.626 140.763 111.202 145.26 109.72C141.461 110.624 149.617 106.375 151.814 106.548C151.357 105.739 156.581 104.176 167.318 103.329C181.51 102.297 191.7 107.377 194.311 107.937C194.909 108.089 193.417 107.227 193.932 107.202C194.35 107.208 197.421 107.857 204.524 112.033C206.023 112.947 205.142 113.131 205.952 113.544C206.412 113.773 210.252 113.887 212.331 116.653C212.887 117.69 206.809 114.147 219.409 123.617C218.405 122.037 219.437 122.46 221.423 123.986C228.542 128.965 237.879 144.15 238.681 146.994C238.436 146.011 238.165 145.003 237.862 143.97C239.786 148.731 240.577 149.01 241.047 149.955C242.341 152.683 243.459 155.887 244.371 158.091C244.988 159.46 245.545 160.736 246.066 161.872C248.282 166.933 249.465 166.564 250.937 172.818C250.761 171.292 250.546 169.761 250.286 168.215C251.706 172.473 252.796 176.76 253.592 181.034C249.842 171.55 254.054 183.152 254.095 183.964C254.362 185.218 253.429 183.516 253.844 185.602C253.881 185.817 254.479 185.409 254.966 188.654C255.842 195.46 254.864 194.421 255.035 197.267C255.03 197.532 255.631 196.577 255.793 201.531C255.586 217.383 255.52 201.403 255.295 200.847C255.085 200.081 253.267 205.354 253.32 192.285C253.416 196.697 252.336 197.163 252.345 197.652C252.41 198.078 252.502 205.603 252.444 206.04C252.572 209.797 253.463 206.544 253.544 207.281C253.708 207.9 251.8 217.057 253.228 219.875C250.262 224.314 252.395 216.648 252.634 209.279C252.393 208.17 251.098 216.271 250.921 216.761C248.712 227.819 251.409 222.123 251.832 224.891C252.026 226.382 249.238 231.47 252.155 226.957C251.625 228.833 251.083 230.37 250.639 231.491C247.605 238.527 249.789 231.82 249.333 232.623C248.598 234.154 246.448 239.166 246.036 239.638C245.486 240.404 246.731 237.358 244.685 240.428C244.356 240.925 241.882 246.31 246.313 240.115C240.734 248.566 241.609 247.722 238.629 249.138C236.748 255.266 234.656 250.966 233.091 252.314C228.942 255.613 231.49 256.124 231.353 256.415C230.272 258.541 219.312 265.552 217.085 267.085C217.204 265.254 225.151 261.78 226.683 260.116C231.495 255.224 218.616 265.064 221.404 260.581C220.118 262.139 218.822 263.644 217.532 265.1C213.995 265.792 217.714 262.99 210.374 267.821C209.667 269.507 215.65 264.53 214.765 266.036C214.227 266.977 209.869 269.612 209.92 269.868C209.983 270.214 213.787 267.59 213.407 268.369C212.457 270.307 197.759 276.903 208.319 270.643C205.282 272.315 202.786 271.226 200.536 273.096C199.151 274.228 208.577 272.496 197.574 277.736C195.187 278.876 192.88 279.691 190.719 280.291C190.28 279.933 192.822 279.318 197.315 277.199C198.895 276.439 200.982 275.642 201.049 275.558C201.212 275.354 199.154 273.871 198.924 273.86C198.724 273.857 197.72 274.362 196.3 275.095C179.842 282.019 171.128 279.821 168.062 279.436C169.19 280.847 155.867 279.111 154.719 279.364C154.35 279.448 155.645 280.335 155.253 280.392C154.19 280.536 152.389 280.262 150.49 279.883C146.756 279.302 143.2 278.297 141.13 277.925C137.063 277.17 137.52 277.913 137.28 277.875C135.587 277.499 137.035 277.314 136.002 277.107C134.256 276.809 124.664 274.419 124.314 274.409C124.174 274.405 125.468 275.534 123.453 275.187C123.138 275.136 123.44 274.252 117.824 273.265C111.179 272.122 122.117 275.521 119.161 275.792C115.226 273.383 115.105 274.776 114.008 274.397C113.634 274.268 111.063 272.439 108.121 271.872C110.263 272.146 112.468 272.467 114.746 272.825C112.575 272.08 108.433 271.391 106.811 270.822C106.01 270.54 106.883 269.737 105.098 269.401C104.731 269.347 102.751 271.302 107.626 271.255C107.823 272.15 105.708 271.141 104.652 271.175C104.491 271.181 103.619 272.425 102.517 271.337C102.288 271.111 106.166 267.592 97.4118 269.095C97.3745 269.102 97.337 269.11 97.2994 269.118C97.1877 269.141 97.2607 269.261 97.3678 269.399C97.5267 269.599 97.7563 269.839 97.5938 269.878C97.5577 269.886 97.4518 269.874 97.3027 269.85C96.6897 269.746 95.3825 269.454 95.2071 269.493C94.9792 269.543 95.8492 270.212 95.5736 270.288C94.1746 270.681 92.6527 268.3 95.4182 268.783C94.5038 268.397 93.6154 268.029 92.7369 267.678C93.5457 269.419 91.2777 268.012 90.151 268.023C86.5671 268.062 86.5926 268.547 86.6326 268.898C86.7436 269.273 87.3997 269.663 86.9697 269.956C86.3161 270.431 86.2879 269.954 86.114 269.472C86.0381 269.231 85.9328 268.991 85.7943 268.871C85.6682 268.749 85.4303 268.763 85.5159 268.967C85.5177 269.005 85.5527 269.291 85.6184 269.507C85.6477 269.616 85.596 269.719 85.6336 269.753C85.6674 269.766 85.706 269.771 86.0654 269.678C86.2504 269.628 86.5248 269.555 87.1119 269.361C87.8147 269.08 88.3068 269.108 91.594 267.379C92.6123 266.795 93.6165 266.097 94.4972 265.355C93.6586 265.993 92.6563 266.652 91.5233 267.249C88.2887 268.909 87.6415 268.902 86.8946 269.154C86.2425 269.328 85.9554 269.369 85.7747 269.391C85.7795 268.996 85.8633 268.787 86.3455 268.585C86.6058 268.475 86.9453 268.376 87.594 268.168C88.2729 267.929 89.067 267.742 91.2061 266.665C94.1625 265.304 95.9838 264.012 96.1805 263.858C97.2964 262.808 97.585 262.374 97.8116 262.071C98.0182 261.777 98.0852 261.631 98.1838 261.473C98.2778 261.32 98.4056 261.143 98.5787 260.976C98.7478 260.821 98.9514 260.658 99.0454 260.951C99.0859 261.043 98.5969 261.174 98.5956 261.759C98.5946 262.368 98.675 262.56 98.8321 262.388C98.9859 262.23 99.2053 261.775 99.3822 261.471C99.5613 261.155 99.6769 261.041 99.666 261.227C99.6661 261.396 99.5325 261.819 99.648 261.938C99.7001 262.008 99.993 261.632 100.114 261.467C100.245 261.289 100.181 261.417 99.9808 261.95C99.5797 262.966 98.7916 265.484 98.6813 265.609C98.6423 265.654 98.6075 265.689 98.5766 265.716C98.4901 265.697 98.4254 265.679 98.3756 265.659C98.3241 265.301 98.5763 264.27 98.7052 263.558C98.8361 262.834 98.8513 262.369 98.4306 262.554C98.3172 262.615 98.0047 263.499 97.4912 265.409C97.3118 265.536 97.2484 270.668 97.2438 272.035C97.0371 274.307 95.1126 275.796 97.5231 275.419C95.2543 276.47 96.9875 276.816 97.028 277.108C97.5822 280.736 97.6456 280.871 98.7457 283.246C98.9894 283.731 98.4848 284.389 98.6665 284.492C98.7719 284.543 99.4172 284.084 99.8111 284.356C99.9696 284.46 100.152 284.832 100.223 285.078C99.6703 284.281 99.2317 284.082 99.2173 284.323C99.1778 284.547 99.426 285.045 99.3882 285.211C99.3454 285.461 99.0154 285.233 98.7875 285.124C98.5509 285.007 98.4166 285.028 98.188 285.304C98.4613 285.721 99.9825 286.826 101.939 288.261C102.776 288.877 102.056 288.984 102.433 289.252C102.525 289.351 106.206 291.163 106.198 290.923C106.125 290.634 103.209 288.806 101.477 287.429C99.6821 286.022 99.1134 285.252 100.011 285.461C100.327 285.522 100.917 287.408 101.557 286.144C106.584 290.188 116.072 295.511 125.291 300.568C127.581 301.85 130.303 303.187 133.166 304.476C130.213 303.721 127.351 302.511 124.954 301.216C120.499 298.836 116.184 296.248 112.211 294.098C111.23 293.576 108.251 291.702 108.279 292.526C112.78 295.341 119.188 298.472 124.766 301.578C125.566 302.035 126.396 302.507 127.203 302.977C127.359 303.069 126.489 303.353 127.056 303.735C128.077 304.452 132.471 305.264 133.082 305.786C133.173 305.895 130.534 305.678 131.027 306.463C132.32 308.49 133.952 305.905 135.532 306.578C136.684 307.125 144.922 311.695 147.505 311.537C150.164 311.415 141.142 308.753 142.095 308.206C148.255 309.579 154.203 312.373 160.082 313.953C160.185 313.98 159.466 313.121 160.791 313.409C163.097 313.903 163.452 314.918 164.524 315.357C164.684 315.422 164.903 315.497 165.163 315.579C166.764 316.092 169.875 316.81 170.292 317.193C170.354 317.252 169.302 317.905 169.173 317.898C167.287 317.808 166.92 316.523 166.767 316.469C166.19 316.277 165.503 316.514 164.951 316.375C164.928 316.369 164.906 316.363 164.884 316.356C163.952 316.061 163.537 315.528 162.299 315.148C161.447 314.883 162.067 315.866 161.247 315.599C160.939 315.501 158.16 312.847 157.344 314.496C157.251 314.674 160.422 315.859 164.731 317.198C172.65 319.773 184.4 322.1 186.116 321.988C183.918 321.432 181.719 320.83 179.517 320.186C183.995 321.608 189.605 320.903 189.703 323.073C197.396 324.142 204.31 324.612 212.289 324.448C214.355 324.428 216.505 324.32 220.033 324.339C223.432 324.678 229.43 323.464 240.444 329.493C252.912 337.722 256.563 344.478 261.291 351.014C263.564 354.806 261.199 353.555 265.123 359.278C264.601 357.524 264.037 355.755 263.412 353.957C265.382 357.267 272.051 370.932 273.218 373.022C273.386 373.297 274.726 373.132 276.413 376.555C277.045 377.85 277.292 378.773 277.404 379.513C277.926 381.399 278.008 382.64 278.494 384.476C279.206 387.16 279.988 389.76 280.067 390.435C280.126 390.959 279.612 391.284 279.712 392.467C279.941 396.017 281.156 393.085 279.721 396.515C279.566 395.779 279.398 395.005 279.211 394.195C279.521 398.376 278.953 402.521 278.111 397.755C277.946 396.871 278.579 397.586 278.504 396.904C277.756 389.116 275.089 382.371 274.242 380.889C273.951 380.385 273.913 380.472 274.062 380.967C274.671 382.561 276.166 386.857 276.927 390.879C277.74 394.94 278.103 398.415 278.537 400.613C278.127 402.132 278.483 406.873 278.805 409.529C279.052 411.752 279.16 413.453 279.115 413.608C278.914 414.256 278.142 411.944 277.727 415.056C277.69 415.361 277.946 420.177 277.561 424.245C277.203 428.31 276.466 431.425 276.448 427.84C276.566 426.34 277.22 417.245 276.96 415.195C275.728 420.015 276.701 432.525 276.044 434.037C274.576 439.565 276.786 423.048 273.942 435.493C271.077 444.873 274.804 436.359 274.168 440.153C273.929 442.535 268.319 451.725 269.868 452.037C268.422 455.152 268.589 452.952 268.335 453.299C268.092 453.708 265.558 459.019 264.463 460.244C264.363 460.443 263.981 460.99 263.871 461.183C263.835 461.222 263.799 461.26 263.764 461.295C263.679 461.38 263.539 461.105 263.397 460.867C263.504 460.679 263.876 460.146 263.973 459.953C263.843 459.766 263.716 459.601 263.641 459.665C263.628 459.677 263.61 459.697 263.589 459.724C263.494 459.914 263.13 460.435 263.025 460.62C262.82 460.829 261.873 462.367 260.461 464.255C259.118 466.047 258.072 467.266 258.012 467.393C257.921 467.578 259.623 466.775 259.292 467.434C259.139 467.735 258.358 468.658 257.544 469.55C256.229 470.993 254.809 472.424 254.776 472.65C254.747 472.98 256.529 471.133 257.925 469.903C258.683 469.238 259.292 468.803 259.19 469.362C258.901 469.648 258.606 469.949 258.31 470.26C255.957 472.73 253.66 475.759 252.9 477.389C253.085 476.929 255.02 474.928 255.775 474.247C256.306 475.485 252.104 479.707 252.841 477.573C252.31 478.854 253.125 478.427 252.967 479.29C252.923 479.513 251.664 480.815 251.571 481.21C251.57 481.272 253.215 480.281 253.13 480.721C252.965 481.532 249.059 485.298 248.67 485.518C247.553 486.158 250.374 482.76 250.27 482.126C250.247 482.037 246.876 483.965 246.775 483.938C245.932 483.413 249.375 480.955 248.422 480.676C247.56 481.278 246.702 481.877 245.845 482.473C248.011 479.064 253.602 474.092 254.338 471.873C250.169 476.582 245.852 480.804 244.251 479.218C243.578 478.546 244.986 476.347 244.744 476.247C243.863 475.904 242.036 479.063 241.914 479.12C241.801 479.159 241.729 479.157 241.694 479.122C241.694 479.122 241.694 479.122 241.694 479.122C241.334 478.766 244.632 474.949 244.649 474.603C244.658 474.012 241.874 474.405 241.611 474.139C241.613 474.032 243.866 471.204 242.548 471.601C241.212 472.008 238.989 474.212 238.862 474.241C238.16 474.387 241.781 470.252 241.734 469.966C241.71 469.824 239.114 471.402 238.907 471.314C238.708 471.218 239.968 469.31 240.124 468.219C240.241 467.407 238.623 468.499 238.806 468.207C238.936 468.008 242.614 464.314 242.734 464.061C242.912 463.699 241.635 464.162 241.655 463.933C241.683 463.606 243.019 462.546 242.711 462.55C242.473 462.575 236.46 465.774 236.11 465.355C235.512 464.656 241.849 461.278 234.776 463.248C234.726 463.265 233.816 464.543 233.768 464.559C232.619 464.765 235.403 460.522 231.237 464.95C238.399 456.124 231.252 462.98 231.338 460.701C231.375 459.824 234.273 456.554 234.22 456.475C233.387 456.246 232.826 457.646 232.231 457.72C231.906 457.757 234.068 454.431 233.084 454.689C232.585 454.821 229.738 457.825 229.579 457.908C228.073 458.724 229.118 456.925 228.616 456.934C228.282 456.938 226.5 458.699 226.425 458.714C226.288 458.728 228.02 455.653 228.278 454.92C228.475 454.359 226.771 455.505 226.957 455.16C228.082 453.089 232.616 450.911 227.706 452.492C227.408 452.586 226.219 453.866 226.163 453.88C224.924 454.168 227.148 451.85 227.15 451.059C227.161 449.695 224.316 453.32 226.52 450.144C224.07 451.734 222.952 452.889 220.678 455.411C226.963 448.43 227.454 444.416 220.243 451.759C222.601 449.449 221.35 448.73 222.021 448.021C222.454 447.572 226.691 445.237 222.989 444.574C222.534 444.486 220.882 446.856 220.946 445.663C225.829 440.996 220.705 445.194 220.61 445.135C219.994 444.554 222.618 441.75 224.958 439.356C225.576 438.722 226.1 438.176 226.314 437.974C226.43 437.864 226.475 437.843 226.604 437.701C226.729 437.565 226.969 437.253 227.293 436.806L226.676 437.786C228.05 435.682 228.93 434.329 229.211 433.709C230.372 431.182 229.754 429.011 229.917 428.636C230.444 427.398 230.683 428.707 231.049 428.533C231.517 428.263 231.252 424.515 231.287 424.414C231.735 423.843 232.433 424.686 232.489 424.634C233.311 424.002 233.173 418.835 233.186 417.058C232.655 417.172 232.589 420.26 231.699 418.333C230.619 416.133 233.024 415.782 233.141 415.715C233.105 415.206 233.063 414.719 233.008 414.192C232.298 405.867 231.525 398.14 231.514 399.476C228.251 392.051 224.166 384.307 220.053 378.318C219.063 379.004 224.772 386.457 224.706 386.881C224.571 387.714 222.52 384.429 220.357 381.185C218.177 377.856 216.068 375.087 215.853 374.519C216.294 375.458 216.795 376.547 217.304 377.722C214.986 376.901 213.143 372.35 213.672 373.753C213.81 373.969 213.607 374.08 213.377 374.143C213.148 374.206 212.994 374.285 212.986 374.304C212.903 374.52 213.042 374.709 213.309 374.825C214.587 375.552 215.538 375.819 215.839 375.777C216.137 375.713 215.886 375.447 214.553 374.478C216.878 375.897 218.08 376.187 218.774 376.395C219.467 376.573 219.749 376.566 219.96 376.533C220.162 376.495 220.271 376.415 220.299 376.342C220.322 376.268 220.26 376.197 219.927 376.178C219.893 376.176 220.014 376.33 220.011 376.514C219.988 376.7 219.991 376.909 219.231 377.043C218.848 377.118 216.023 377.242 213.573 377.49C212.633 377.596 211.772 377.728 211.515 377.898C211.276 378.048 212.636 379.054 213.614 379.206C214.23 379.29 214.741 379.109 214.863 378.375C218.345 378.766 218.429 378.536 218.502 378.182C218.501 377.831 218.164 377.366 219.088 377.373C219.215 377.377 219.157 377.664 219.527 377.881C219.695 377.989 219.997 378.083 220.156 378.12C220.225 378.137 220.253 378.144 220.037 378.105C219.81 378.057 219.356 378 218.125 377.637C218.481 378.263 219.445 378.733 219.869 378.917C220.325 379.11 220.221 379.089 219.684 379.044C218.608 378.946 216.219 378.71 215.59 378.852C214.156 379.153 216.647 379.463 218.679 379.542C219.664 379.58 220.377 379.607 220.067 379.475C219.829 379.36 218.336 378.903 217.52 378.243C218.395 379.701 217.441 379.414 212.369 376.395C212.227 376.259 212.098 376.145 211.98 376.077C211.616 375.868 211.602 376.016 211.491 376.095C211.403 376.19 211.307 376.266 211.325 376.283C211.365 376.321 211.522 376.373 211.661 376.385C211.803 376.4 211.937 376.382 212.046 376.383C212.272 376.397 212.374 376.45 212.469 377.326C213.193 375.77 213.637 376.076 214.072 377.221C214.499 378.349 214.866 380.365 215.014 381.312C213.324 379.13 211.519 377.291 210.888 376.957C210.801 377.102 210.716 377.251 210.634 377.403C210.498 377.237 210.451 377.177 210.603 377.267C210.679 377.125 210.763 376.988 210.854 376.857C210.77 377.098 211.05 377.466 211.526 377.803C216.033 380.425 217.789 380.225 218.61 380.307C219.432 380.294 219.581 380.117 219.705 380.129C221.348 380.103 217.268 380.08 213.638 380.197C210.659 380.265 207.056 380.304 203.89 380.233C202.848 380.184 203.504 381.352 195.991 380.129C193.62 379.713 195.91 379.067 193.221 378.991C189.67 380.899 189.889 379.146 188.89 379.05C186.045 378.767 184.247 379.082 183.984 379.058C180.486 378.725 175.403 377.869 171.66 377.273C171.588 377.268 173.41 378.275 171.022 377.647C170.135 377.428 163.117 373.191 156.459 372.503C158.112 373.104 159.756 373.686 161.411 374.253C160.112 373.799 153.421 372.474 150.092 371.995C148.453 371.774 147.609 371.801 148.649 372.35C148.975 372.522 149.404 372.651 149.89 372.754C152.325 373.283 156.12 373.171 156.248 374.715C155.145 374.315 152.805 373.69 149.853 372.891C140.878 370.56 126.383 366.184 125.014 365.31C124.769 365.163 126.587 365.183 126.245 364.986C125.985 364.851 120.302 362.969 119.625 362.462C119.227 362.176 121.841 362.763 121.709 362.492C121.586 362.315 114.632 359.406 113.942 359.878C115.8 360.325 120.583 362.399 117.807 362C117.45 361.947 115.906 360.852 115.471 360.782C111.42 360.169 122.64 364.267 124.324 364.795C117.046 363.22 106.746 358.108 97.6457 354.037C97.6054 354.008 97.567 353.98 97.5304 353.953C96.6938 353.276 97.0888 353.281 97.787 353.459C99.2863 353.921 101.872 354.925 99.5372 353.411C99.0574 353.098 98.6298 352.819 98.2481 352.572C93.5831 349.403 97.1029 353.099 96.8739 353.06C94.954 352.753 90.7927 346.873 89.5997 349.036C87.2964 347.374 88.2662 347.555 84.5521 345.883C84.9389 346.293 85.3319 346.705 85.7112 347.108C81.1325 346.319 74.0697 337.851 74.8877 337.972C77.1069 338.519 81.0028 342.136 81.3975 342.318C81.9729 342.59 84.8001 341.365 89.6402 346.529C92.883 346.394 80.7275 340.34 86.7074 342.328C83.1456 340.817 67.7203 329.874 64.3171 327.36C63.926 327.104 64.3695 329.908 60.297 324.972C58.3863 322.58 63.6811 327.563 62.9293 326.306C62.3371 325.099 57.9476 321.998 52.4347 312.844C42.6335 296.21 40.6829 272.278 41.4437 264.812C41.4801 264.175 41.9854 264.441 42.0233 263.817C42.0662 261.969 42.2076 254.58 43.6664 250.6C42.3046 254.156 42.3317 252.895 42.9761 249.982C43.437 247.667 44.842 243.273 45.6605 241.362C47.9416 236.058 48.8707 236.569 50.4178 234.036C52.8815 230.405 56.327 224.065 65.2062 218.862C68.8736 216.923 70.2459 216.643 71.8238 216.116C73.3025 215.67 74.4951 215.386 75.609 215.15C77.8312 214.688 79.6434 214.455 81.3352 214.325C84.6779 214.079 87.3504 214.298 89.3202 214.957C89.1547 212.825 99.9222 216.406 104.225 217.179C104.444 217.211 104.67 217.239 104.902 217.263C108.314 217.616 112.627 217.148 108.393 215.65C114.366 216.713 120.469 217.655 125.619 218.754C126.469 218.936 125.171 219.24 126.617 219.531C126.747 219.553 127.071 219.027 128.304 219.264C138.309 221.212 133.151 221.224 134.893 222.033C135.841 222.481 136.532 222.758 137.057 222.923C131.634 221.679 124.704 220.211 122.826 219.815C124.22 221.42 135.874 222.75 138.704 223.803C138.807 223.842 138.268 224.443 138.374 224.475C138.377 224.475 138.379 224.476 138.381 224.476C139.607 224.861 146.518 226.156 145.27 224.996C144.956 224.699 141.905 224.031 137.861 223.105C138.981 223.216 138.364 222.242 138.563 222.256C141.019 222.468 146.135 224.447 147.772 224.846C148.163 224.946 148.228 224.437 148.293 224.448C149.783 224.842 148.939 226.178 150.674 224.939C151.8 226.03 150.644 225.939 149.086 225.648C147.54 225.363 145.563 224.845 145.742 225.487C145.845 225.975 150.953 227.193 154.41 227.229C160.074 227.473 165.237 227.28 165.22 226.557C165.283 226.714 165.551 226.919 166.115 227.162C167.446 227.735 172.634 227.679 173.155 227.351C173.274 227.295 173.184 225.905 173.326 225.888C173.457 225.871 174.528 226.024 175.152 226.109C175.794 226.249 175.671 226.079 173.129 227.053C173.559 226.792 173.927 226.527 174.203 226.267C173.785 226.405 173.366 226.542 172.948 226.678C174.411 225.838 175.034 225.604 175.238 225.408C174.975 225.466 174.074 225.673 172.76 226.288C177.418 223.905 176.041 224.168 173.697 224.926C173.566 224.985 173.418 224.999 173.293 225.053C172.977 225.156 172.649 225.265 172.319 225.375C173.953 224.465 174.622 224.241 174.876 224.065C175.131 223.905 175.067 223.841 175.07 223.792C175.046 223.72 175.092 223.636 174.833 223.634C174.554 223.664 173.963 223.646 171.929 224.567C175.555 222.762 180.011 220.625 178.907 222.138C178.707 222.472 172.559 224.907 175.891 224.271C176.499 224.161 180.061 222.018 180.275 222.005C181.941 221.927 174.191 226.909 175.564 227.26C177.223 225.427 179.999 224.552 182.065 223.157C183.004 222.523 182.895 221.781 183.008 221.703C184.682 220.551 184.053 221.745 184.629 221.396C184.98 221.2 187.42 217.901 187.928 220.099C196.602 212.257 190.409 216.977 183.478 221.039C185.344 219.117 189.443 216.98 190.782 215.755C191.273 215.318 190.56 214.958 191.316 214.214C191.942 213.598 193.763 212.236 194.909 211.219C195.488 210.717 195.884 210.334 196.033 210.262C196.19 210.18 196.114 210.442 196.025 210.895C196.13 210.8 196.301 210.438 196.405 210.185C196.397 210.678 196.613 210.827 196.83 210.875C197.048 210.912 197.283 210.786 197.366 210.384C197.529 209.545 196.338 209.986 196.272 209.795C196.233 209.712 196.596 208.707 196.906 207.264C197.221 205.857 197.432 204.175 197.389 203.694C197.391 207.947 198.285 207.187 198.641 203.436C198.838 203.99 199.023 204.557 199.198 205.12C199.151 202.941 200.219 198.021 199.679 196.703C199.604 196.501 199.02 197.307 198.978 197.191C198.652 196.061 198.692 192.14 198.401 192.015C198.195 191.906 197.957 193.603 197.58 193.06C197.505 192.956 198.087 191.237 197.483 189.826C197.262 189.308 196.751 189.795 196.68 189.67C196.077 188.657 197.294 188.992 196.475 187.061C195.86 185.694 194.572 185.072 193.994 183.289C193.961 183.209 193.929 183.129 193.897 183.047C193.928 183.13 193.958 183.211 193.989 183.291C195.123 188.281 194.266 185.896 193.114 183.729C192.538 182.635 191.984 181.602 191.502 180.801C191.133 180.207 190.314 181.034 189.022 177.273C194.768 184.225 188.766 174.227 188.075 173.22C188.035 173.138 188.656 172.721 188.243 172.01C188.208 171.956 187.826 172.282 187.415 171.694C185.507 169.076 185.356 169.046 185.494 168.916C185.649 168.855 186.224 169.158 186.108 168.612C185.991 168.099 184.139 167.009 183.64 166.719C183.591 166.681 183.548 166.646 183.51 166.614C183.331 166.46 183.756 166.134 183.051 165.558C181.801 164.545 180.395 164.168 179.617 163.659C179.534 163.611 179.979 162.883 178.428 162.169C177.994 161.975 177.427 161.966 177.831 162.5C178.786 163.759 181.403 165.002 183.537 166.835C183.955 167.176 184.298 167.592 184.459 168.082C184.76 169.033 183.766 168.157 182.914 167.54C181.645 166.502 180.442 165.574 180.307 165.473C180.183 165.377 181.666 166.028 180.466 164.981C179.42 164.071 176.747 163.936 175.696 163.011C175.61 162.928 175.218 161.368 175.292 161.333C175.314 161.266 177.031 161.911 176.988 161.498C176.968 161.433 175.929 160.87 175.933 160.591C175.936 160.237 176.837 157.236 176.627 157.057C176.132 156.628 176.221 157.437 175.891 157.244C175.543 157.04 174.861 156.521 174.401 156.299C173.924 156.069 173.699 156.095 173.633 156.625C173.74 156.702 173.909 156.793 174.135 156.912C173.49 156.828 173.565 157.016 173.515 157.157C173.493 157.309 173.495 157.474 173.474 157.573C173.46 157.789 173.473 156.849 173.517 156.759C173.522 156.753 173.545 156.762 173.623 156.775C172.916 156.869 169.509 157.847 169.65 158.138C171.246 157.417 171.654 157.49 171.815 157.673C171.965 157.861 171.798 158.199 171.865 158.195C172.368 158.168 172.818 157.419 173.287 157.364C173.455 157.345 173.588 157.335 173.689 157.334C173.527 157.397 173.515 157.485 173.501 157.604C173.492 157.722 173.502 157.865 173.54 158.009C173.604 158.299 173.866 158.573 173.733 158.712C173.62 158.811 173.473 158.255 173.471 158.283C173.425 158.374 173.388 159.103 173.365 159.042C173.357 158.904 173.462 157.876 173.456 157.821C173.451 157.154 174.08 158.096 173.44 159.114C173.527 159.545 173.931 158.236 174.101 158.857C174.281 159.482 174.117 159.641 173.903 159.664C173.685 159.687 173.484 159.612 173.411 159.689C173.188 159.906 173.218 159.993 173.311 160.003C173.415 160.012 173.593 159.963 173.992 159.907C173.786 159.926 173.428 159.982 172.856 160.127C171.853 160.373 170.287 161.446 169.603 161.668C169.284 161.75 164.007 160.881 164.857 164.417C162.911 164.641 159.067 163.363 156.981 164.146C155.109 164.85 156.102 165.875 155.939 165.979C155.686 166.142 153.329 166.791 152.571 167.221C151.695 167.723 152.32 168.038 150.871 168.704C147.252 170.36 146.936 169.081 146.525 169.121C141.651 169.584 144.197 170.743 143.213 171.197C142.762 171.402 139.248 172.313 135.355 173.275C131.118 174.34 126.492 175.335 124.945 175.911C126.164 175.377 127.372 174.832 128.571 174.276C126.138 174.024 124.014 175.836 123.665 174.417C123.701 176.834 118.637 176.239 117.22 176.532C116.66 176.656 116.773 177.044 116.065 177.183C113.313 177.755 106.92 178.276 105.39 178.615C98.7719 180.243 116.09 179.716 117.383 179.369C114.821 179.971 99.4283 182.222 106.665 182.559C107.795 182.612 109.608 181.321 110.21 181.196C114.302 180.354 111.189 181.743 111.523 181.788C112.102 181.859 114.677 180.546 115.399 180.533C115.641 180.524 114.253 181.641 118.161 180.985C116.426 182.231 105.136 183.072 103.632 183.312C103.096 183.391 106.645 185.022 96.6359 183.936C96.7592 184.095 96.8826 184.253 97.0065 184.412C91.6328 184.757 86.1327 184.839 80.5069 184.566C80.3819 184.561 80.2567 184.555 80.1315 184.55C80.2155 184.489 80.3578 184.421 80.52 184.349C81.4817 184.046 82.9522 183.673 80.5667 183.574C80.4113 183.568 80.2337 183.564 80.0316 183.562C78.2633 183.551 79.5184 184.472 79.3569 184.487C78.2155 183.915 68.2856 186.293 47.1623 178.801C40.7792 176.209 33.884 172.734 31.0075 171.048C28.6206 169.9 20.3931 164.858 19.627 164.007C18.0043 162.651 14.4777 159.555 10.8356 154.561C7.15026 149.687 3.98585 142.453 2.89668 137.752C2.74746 137.159 2.61462 136.642 2.51863 136.309C2.08844 134.796 1.75589 136.443 1.45205 135.007C1.16962 133.617 2.15993 134.902 2.09486 134.484C1.77987 133.081 -0.963783 119.878 0.857208 109.292C1.49003 104.429 2.46194 99.7924 3.18086 97.8335C2.67025 99.516 1.93104 105.066 1.76434 109.425C1.36241 114.374 1.77078 118.823 1.97838 118.602C1.99314 118.465 2.78769 113.027 2.71525 111.971C2.9382 111.483 3.01337 110.641 3.04975 109.613C3.02116 107.804 2.61541 105.056 3.17572 103.456C3.27261 103.205 4.03391 104.407 5.04412 100.372C5.39484 98.9936 5.44936 95.0847 7.37794 91.5344C7.92846 88.7643 10.726 80.1558 15.09 71.9292C19.2886 63.67 25.3235 56.2351 25.7236 54.9776C25.7051 54.8673 22.2954 58.5887 24.0547 55.6391C26.5134 51.7427 25.3701 56.118 29.0039 52.2867C29.2911 51.986 32.1725 48.8048 35.2527 46.0724C37.3493 44.1661 39.3743 42.4383 39.4709 42.285C41.1104 39.7788 35.9035 43.3567 34.074 44.7148C33.5697 45.0944 33.2638 45.3255 33.273 45.2865C33.2945 45.1965 33.5274 44.9218 33.9115 44.5277C35.3588 42.9146 39.8976 39.0866 40.1421 39.0033C40.4345 38.8723 36.1358 44.1533 42.0522 38.7857C41.2313 39.1946 40.4074 39.6134 39.5728 40.0498C42.3248 37.4425 43.1946 38.1055 43.9338 37.6177C46.1981 36.1587 47.5685 33.2272 51.8717 32.5142C53.007 32.3301 51.9489 33.7834 52.0939 33.7741C53.5038 33.6092 53.7187 31.1993 55.9988 31.2623C56.1666 31.2695 53.2021 34.3767 59.2185 30.1148C58.7269 30.3019 58.2397 30.4859 57.7541 30.6689C58.4413 29.8225 64.3411 25.4303 65.1698 24.9235C67.5366 23.4788 66.2388 25.4773 68.159 24.0752C68.2377 24.0176 68.3224 23.9537 68.4138 23.8829C66.1601 23.9067 73.1637 18.6872 73.4115 19.8747C73.5868 18.03 80.2869 14.5284 83.1647 12.483C84.9786 11.1949 88.2965 8.03367 88.9108 7.67535C89.6598 7.23943 90.0086 8.16493 91.393 7.42146C91.7893 7.20852 95.1249 3.91965 99.0002 2.3167C99.7461 2.00858 102.046 2.33406 101.093 3.52921C99.4731 5.56646 94.8644 7.30825 95.4758 8.04527C96.1338 8.83187 100.952 4.57196 102.422 3.66447C109.211 -0.524453 106.14 3.06116 106.501 3.20598C107.393 3.54536 110.894 0.957006 111.085 0.906419C111.879 0.721328 109.768 3.04809 110.014 3.47272C110.349 4.01502 114.406 2.47043 113.762 3.20581C112.836 4.26057 109.164 5.75854 108.997 5.93667C106.784 8.31529 111.184 6.92163 112.57 6.80183C112.993 6.76769 112.045 7.9118 112.325 7.78784C116.627 5.86766 111.891 5.54991 114.484 3.90692C116.807 2.4326 114.526 5.29623 114.647 5.27358C114.782 5.24771 117.469 3.34757 118.071 3.32954C118.382 3.31514 112.623 9.8504 113.406 10.3187C115.491 8.56662 117.57 6.81674 119.646 5.06746C120.474 5.82092 116.831 7.48581 116.584 7.80606C116.064 8.46757 118.214 7.58351 118.345 7.91705C118.424 8.13253 116.756 10.3276 118.88 9.1764C119.616 8.7771 120.563 7.13156 123.447 5.99187C115.603 12.9801 121.807 9.20192 122.291 9.32951C122.775 9.45653 119.259 13.1638 124.073 9.43912C125.546 11.0064 124.364 10.0627 123.198 11.3815C121.758 13.0059 126.121 10.6869 119.571 14.815C120.516 15.3638 125.48 11.6443 125.795 11.5113C126.067 11.402 125.249 12.6107 125.743 12.455C131.579 10.5728 127.84 12.2193 129.918 12.2253C129.929 12.2254 129.959 12.2142 130.003 12.1939C130.674 11.8784 134.613 9.49488 131.54 11.9612C131.173 12.2565 130.819 12.5331 130.455 12.8101C125.166 16.8446 122.214 17.6732 122.914 20.6799C126.364 19.2116 129.414 16.3413 131.491 14.2221C132.64 13.0531 133.507 12.1014 133.981 11.7384C136.065 10.1454 134.252 12.247 134.606 12.2013C134.743 12.1697 136.515 10.8012 136.582 10.8126C138.085 11.3174 135.336 13.1613 132.148 15.117C129.687 16.6251 126.933 18.2232 125.735 19.3167C126.743 19.008 127.739 18.7081 128.741 18.4029C127.663 19.2095 126.593 20.0097 125.521 20.8099C131.077 17.6079 125.863 20.8867 125.678 23.3381C125.636 23.8889 128.597 20.8327 125.421 24.6003C128.426 22.7379 127.749 23.7063 130.018 21.3932C130.4 22.0434 125.078 26.982 123.021 28.9572C131.61 23.7294 125.38 24.8772 133.226 20.9372C133.984 19.2308 130.732 21.8378 130.927 21.5045C131.395 20.6695 132.989 19.9295 134.44 18.2417C135.019 17.5768 135.553 16.7877 136 15.792C136.262 15.2062 133.784 15.818 136.624 13.7872C136.943 13.561 139.214 12.9218 139.238 12.979C139.382 13.6849 137.463 14.7954 137.556 15.0649C137.629 15.3316 139.53 13.7379 139.576 13.7921C140.116 14.4106 138.115 15.2579 138.512 15.2835C139.367 15.3462 147.552 11.492 137.944 17.9378C145.123 11.4969 138.39 16.4955 135.601 18.9792C135.46 19.1041 135.349 19.2266 135.253 19.3496C134.895 19.8296 134.766 20.3494 133.989 21.0882C132.717 22.2929 130.912 23.323 130.252 23.9165C129.528 24.5685 134.657 22.2489 128.02 26.6743C130.601 25.7176 133.649 23.1638 136.483 21.0255C137.994 19.8855 139.444 18.8634 140.727 18.2655C146.725 15.4657 140.914 20.3628 137.846 22.8832C137.118 23.4839 136.517 23.9719 136.319 24.156C136.042 24.4122 137.444 24.2021 137.266 24.3825C136.967 24.6804 130.544 29.0029 130.247 29.8949C129.955 30.7842 132.522 28.2011 133.05 28.5191C133.415 28.7285 126.254 34.8001 130.502 32.0219C133.427 30.1087 137.708 25.0655 139.558 25.7591C135.487 28.915 131.442 32.0415 127.374 35.1784C130.015 34.0309 132.648 32.8874 135.289 31.7361C130.761 35.2948 126.319 37.655 122.427 41.6025C134.237 35.4957 119.927 45.4165 119.911 45.7267C119.946 45.8833 125.097 44.1615 125.943 43.9148C122.613 47.1238 111.496 55.5661 119.292 52.4085C117.827 52.9087 115.579 55.9293 115.667 55.9698C116.565 56.4243 122.558 51.3599 121.999 52.7618C121.353 54.3883 118.927 54.5794 117.144 55.9968C107.969 63.2859 113.34 65.1727 103.272 71.4795C103.563 71.476 103.859 71.4686 104.142 71.4702C103.654 71.8044 103.144 72.1529 102.663 72.4813C92.6068 79.4075 81.9545 86.2082 75.3071 91.6407C75.2475 91.7505 75.183 91.864 75.1139 91.9812C74.5388 94.0826 72.2779 98.3788 70.7394 101.659C70.4082 102.2 68.3544 105.471 68.1478 105.785C67.7215 106.224 68.6527 103.317 67.7456 104.452C67.4927 104.538 65.1877 111.508 66.149 111.26C66.4239 110.439 66.7133 107.847 67.02 107.52C68.213 106.222 66.3163 111.892 65.316 118.733C65.2123 119.444 65.2152 119.115 65.236 119.376C65.2569 119.58 65.5484 120.657 65.7231 120.846C65.8671 120.356 66.0477 119.986 66.2551 119.715C66.2577 120.027 66.3082 120.512 66.4318 121.23C65.998 119.815 65.4031 118.519 64.799 117.499ZM58.0542 27.0587C58.6262 25.6743 61.5486 24.3401 62.9256 23.0864C63.7521 22.3321 64.5405 20.9644 65.2096 19.9375C66.0406 18.6283 66.6723 17.8963 66.833 19.9272C66.4818 20.2137 66.1382 20.4946 65.8027 20.7695C63.2289 22.8676 60.6661 24.9466 58.0542 27.0587ZM8.59324 80.7606C10.3123 77.5714 10.8476 80.8018 9.20374 83.2395C9.03137 83.5033 6.36955 85.0933 8.59324 80.7606ZM31.4207 47.1075C31.2926 47.2332 28.708 49.7467 28.6178 49.8298C25.8163 51.649 33.6926 44.0424 31.4207 47.1075ZM91.2178 183.29C87.6681 183.392 90.2558 184.957 92.4623 184.263C92.5987 184.22 91.4488 183.284 91.2178 183.29ZM88.692 183.264C85.9769 181.882 80.2106 184.469 84.7304 184.355C85.1807 184.352 88.83 183.343 88.692 183.264ZM14.6587 69.0838C14.9127 69.7126 12.9266 73.03 12.1533 74.4522C11.7066 74.2084 13.9098 70.5494 14.6587 69.0838ZM31.9989 170.832C32.1717 170.676 29.3063 169.007 25.914 166.687C22.552 164.459 18.5952 161.111 17.9041 160.793C19.1418 161.855 22.8539 165.116 25.9992 167.257C29.1767 169.475 31.8349 170.948 31.9989 170.832ZM65.5303 182.142C65.2849 182.071 60.3765 181.408 60.3858 181.754C62.918 182.751 66.9938 182.655 65.5303 182.142ZM121.835 180.242C122.011 180.098 118.823 178.367 125.605 178.532C126.606 178.551 123.339 179.888 123.69 179.895C124.436 179.91 125.014 179.865 125.468 179.781C122.486 180.635 119.305 181.311 118.97 181.224C117.401 180.822 121.759 180.308 121.835 180.242ZM148.126 171.511C148.566 170.972 152.049 170.096 152.859 170.003C153.001 169.99 152.731 171.144 154.229 170.587C155.419 170.141 153.299 169.725 155.697 169.134C158.095 168.542 155.187 170.252 155.402 170.239C155.713 170.213 159.176 168.612 159.233 169.23C159.307 169.677 155.345 170.629 154.38 171.035C153.156 171.553 154.914 171.78 152.753 172.297C151.383 172.625 151.731 171.135 151.429 171.161C151.189 171.185 146.667 173.382 148.135 171.512C148.132 171.512 148.129 171.511 148.126 171.511ZM126.273 179.545C126.056 179.639 125.794 179.721 125.468 179.781C125.739 179.704 126.008 179.624 126.273 179.545ZM52.2871 31.8604C50.9302 32.3299 53.954 29.5345 55.4772 29.1082C55.7544 29.4357 52.5049 31.7802 52.2871 31.8604ZM128.818 177.865C133.314 177.106 130.198 178.375 126.273 179.545C127.485 179.021 127.305 178.106 128.818 177.865ZM2.71525 111.971C2.58466 112.258 2.41331 112.431 2.16087 112.429C2.51751 111.672 2.67525 111.621 2.71525 111.971ZM2.63564 129.179C4.27157 134.635 2.49767 123.243 2.16779 123.167C1.90326 123.242 2.51725 129.02 2.63564 129.179ZM95.733 183.231C95.3806 183.163 100.74 180.643 92.8725 182.679C97.1398 182.814 92.6574 183.217 92.722 183.41C92.9285 184.024 100.059 183.13 101.615 183.209C102.757 182.087 96.9315 183.455 95.7421 183.23C95.739 183.23 95.736 183.23 95.733 183.231ZM172.535 164.3C172.22 164.833 172.192 164.64 172.474 164.654C172.427 164.031 172.315 164.189 172.535 164.3ZM168.622 377.399C155.808 375.36 154.842 372.486 166.082 375.943C166.289 376.011 169.443 377.303 168.622 377.399ZM66.9763 335.462C66.4245 333.736 70.4531 336.425 72.6343 338.325C73.1194 338.759 74.5867 340.983 72.1325 339.68C72.9124 338.631 69.5848 335.872 66.9763 335.462ZM131.149 176.586C131.89 175.903 133.949 175.451 135.847 175.065C136.737 174.888 137.572 174.737 138.221 174.59C137.82 174.944 136.989 175.282 135.988 175.581C134.338 176.074 132.303 176.442 131.149 176.586ZM128.945 365.445C127.724 364.949 126.574 365.547 126.765 365.696C127.619 366.371 130.2 366.431 128.945 365.445ZM118.229 179.245C117.981 178.868 123.216 177.437 123.797 178.385C122.654 178.56 118.415 179.497 118.229 179.245ZM172.465 163.939C172.502 163.835 172.494 163.675 172.58 163.596C172.657 163.514 172.856 163.534 172.922 163.675C172.833 163.887 172.626 163.954 172.53 163.987C172.425 164.017 172.441 164.007 172.465 163.939ZM108.508 358.044C107.39 357.482 104.477 356.14 103.99 356.327C103.387 356.586 107.761 358.379 108.508 358.044ZM226.926 425.122C226.771 425.083 226.041 423.251 226.454 422.657C227.325 421.434 227.154 425.079 226.926 425.122ZM140.909 368.716C144.191 370.615 140.512 368.63 140.397 369.577C142.767 370.331 148.709 372.039 144.871 369.996C144.125 369.6 141.998 369.105 140.909 368.716ZM137.747 367.432C137.281 367.61 134.451 367.737 136.671 368.355C137.701 368.64 139.647 368.113 137.747 367.432ZM226.957 410.851C227.213 409.323 227.482 411.507 227.806 414.721C228.038 416.79 227.835 418.996 227.743 419.08C227.664 419.18 227.589 419.248 227.526 419.284C227.79 419.553 227.754 420.78 227.069 420.831C227.163 420.503 227.161 419.521 227.235 419.397C227.269 419.347 227.3 419.309 227.331 419.283C226.976 419.005 227.113 416.802 227.059 414.798C226.936 412.667 226.921 411.081 226.957 410.851ZM225.475 397.847C227.834 400.001 226.101 401.323 225.943 401.12C223.879 398.611 226.12 399.835 226.151 399.723C226.176 399.475 224.57 397.719 225.479 397.856C225.477 397.853 225.476 397.85 225.475 397.847ZM226.921 405.958C226.956 406.034 227.113 408.965 227.094 409.14C226.845 410.458 226.586 408.846 226.51 407.419C226.433 405.984 226.53 404.785 226.921 405.958ZM165.147 164.597C166.981 164.262 165.479 165.515 164.183 165.626C164.068 165.634 163.503 164.907 165.147 164.597ZM135.952 367.093C135.485 366.865 122.818 362.015 123.19 363.318C124.336 363.683 138.798 369.009 135.952 367.093ZM42.7446 300.134C43.7605 303.141 41.5739 300.205 41.4836 298.474C41.4475 297.84 42.4893 299.373 42.7446 300.134ZM110.788 179.418C108.176 180.374 108.48 178.297 110.885 178.671C110.98 178.685 110.89 179.38 110.788 179.418ZM57.7604 326.62C52.7539 322.101 51.428 318.565 52.8785 319.55C54.2815 320.377 58.4188 324.719 63.7088 329.761C63.2599 329.592 62.802 329.411 62.3385 329.219C74.8292 339.527 63.2805 330.726 59.6616 327.424C58.3179 326.256 59.004 327.716 57.7666 326.632C57.7646 326.628 57.7625 326.624 57.7604 326.62ZM39.0646 284.515C40.1126 274.362 41.0345 293.221 43.53 298.5C40.935 293.622 39.5523 286.713 40.8732 296.265C37.3292 282.693 39.8809 288.184 39.7383 287.62C39.7024 286.968 39.0203 284.955 39.0646 284.515ZM47.2215 310.859C47.4372 311.199 48.1591 312.98 49.0797 314.793C49.9845 316.527 50.9712 318.088 51.5963 318.897C50.8244 318.24 49.6928 316.802 48.643 315.047C46.675 311.812 45.5419 308.152 47.2215 310.859ZM215.447 381.092C216.095 380.873 216.757 380.943 217.576 382.657C216.979 382.342 216.093 381.523 215.447 381.092ZM62.0207 28.5116C63.445 27.5613 66.3581 25.7975 65.1056 25.8347C64.9728 25.8573 61.8036 28.1879 62.0207 28.5116ZM98.1284 351.523C97.8704 351.312 89.1845 346.665 91.8514 348.899C92.5176 349.458 97.6779 352.133 98.4853 352.116C98.6096 352.125 98.6432 352.08 98.5626 351.968C98.5056 351.872 98.3659 351.727 98.1284 351.523ZM149.581 370.59C148.747 370.364 145.355 369.548 145.241 369.674C144.865 370.135 149.078 370.998 149.581 370.59ZM69.4073 24.0917C69.626 24.0223 73.7661 20.9057 73.1193 20.9738C71.8889 21.1128 68.6527 24.3416 69.4073 24.0917ZM170.707 161.424C171.006 161.325 171.55 161.934 171.646 161.92C171.723 161.906 172.392 161.718 172.989 161.6C173.601 161.476 174.052 161.44 174.185 161.54C174.022 161.649 173.982 161.802 174.241 162.012C174.231 162.038 174.218 162.065 174.203 162.094C174.224 162.172 173.306 162.208 171.073 162.677C168.946 163.113 166.103 163.853 165.456 164.001C164.702 163.19 169.087 162.875 169.85 162.591C169.998 162.533 169.902 161.701 170.706 161.429C170.706 161.428 170.707 161.426 170.707 161.424ZM221.307 389.356C222.024 389.245 226.059 396.246 225.293 396.514C224.02 394.075 222.68 391.662 221.307 389.356ZM219.458 385.898C219.013 384.276 221.077 387.473 221.462 388.606C221.101 388.805 219.525 386.119 219.458 385.898ZM131.675 362.785C130.648 362.609 133.372 364.465 132.644 364.413C132.177 364.379 130.095 363.331 129.306 363.364C129.077 363.384 131.044 364.948 131.705 365.123C132.641 365.377 131.958 364.443 132.962 364.765C136.293 365.828 139.107 367.196 142.248 368.107C142.531 368.188 140.472 367.085 142.884 367.8C143.257 367.908 145.302 369.25 148.245 369.947C149.074 369.903 149.875 369.912 150.636 369.96C156.405 370.327 160.664 373.03 168.374 373.842C168.073 373.594 161.819 371.712 161.474 371.592C158.626 370.802 154.874 369.803 150.973 368.697C145.39 367.12 139.469 365.339 135.303 364.008C133.501 363.431 134.234 364.154 133.451 363.92C132.833 363.732 133.83 363.152 131.675 362.785ZM61.5536 29.4274C62.7211 29.6574 64.736 27.5607 66.2428 26.544C65.2695 26.2819 63.1272 28.5475 61.5536 29.4274ZM210.487 378.136C209.444 378.193 206.107 377.932 205.821 378.182C205.468 378.53 210.287 378.74 210.487 378.136ZM184.438 168.848C184.476 168.847 185.043 169.607 185.047 169.666C185.049 170.236 184.613 169.886 184.336 169.515C184.058 169.142 183.914 168.708 184.438 168.848ZM196.573 200.49C196.697 201.532 196.932 202.605 196.218 202.916C196.364 202.272 196.091 200.374 196.573 200.49ZM175.051 224.017C175.141 224.465 175.009 224.575 174.399 224.578C173.82 224.579 172.854 224.438 172.535 224.401C172.651 224.196 173.536 223.952 174.143 223.819C174.783 223.685 175.001 223.689 175.051 224.017ZM217.659 379.236C218.896 381.129 219.791 379.994 220.093 381.617C220.141 381.899 218.125 384.074 217.636 381.348C217.544 380.869 219.112 381.938 217.659 379.236ZM65.5129 331.24C66.7817 331.476 69.3648 333.603 71.0883 334.815C70.4571 334.953 66.8928 332.296 65.5129 331.24ZM77.4301 19.1865C79.0966 19.0424 84.124 14.6244 82.4571 15.1316C82.2214 15.212 78.2104 18.6653 77.4301 19.1865ZM138.977 171.605C141.218 170.368 137.391 171.237 135.062 172.209C134.589 172.404 134.175 172.603 133.879 172.792C134.113 172.718 134.577 172.607 135.136 172.479C136.641 172.139 138.847 171.677 138.977 171.605ZM181.993 220.563C181.919 220.642 179.71 221.767 179.586 221.789C177.476 222.133 183.689 218.96 181.993 220.563ZM196.173 189.687C196.928 190.114 197.371 194.466 196.882 195.509C196.062 194.636 195.364 189.113 196.173 189.687ZM213.105 374.317C213.435 374.564 214.012 375.398 214.537 376.403C214.286 376.466 213.745 375.815 213.418 375.317C213.07 374.793 213.001 374.458 213.105 374.317ZM173.697 224.926C173.566 224.985 173.418 224.999 173.293 225.053C173.43 225.009 173.565 224.968 173.697 224.926ZM178.148 374.497C176.125 373.999 176.416 374.905 176.539 374.953C178.026 375.472 180.472 375.055 178.148 374.497ZM64.0053 29.2467C64.9654 29.5128 67.1356 27.2387 68.6786 26.3648C67.9186 26.1583 65.1283 28.3522 64.0053 29.2467ZM39.5584 273.687C40.1529 270.531 42.0166 283.219 42.1727 285.833C41.5397 286.188 39.2804 274.258 39.5584 273.687ZM129.422 172.972C129.079 172.447 124.812 174.183 125.814 174.243C126.458 174.292 129.639 173.312 129.422 172.972ZM43.1312 292.158C43.5795 293.275 43.7636 296.168 43.1467 295.301C42.3433 294.174 43.0029 291.861 43.1312 292.158ZM117.899 357.292C117.542 357.073 111.873 355.452 113.887 356.933C115.295 357.966 115.861 357.244 116.23 357.388C116.643 357.582 124.931 361.853 117.899 357.292ZM95.3839 212.986C92.8693 213.041 89.7744 212.648 86.869 212.706C88.1144 212.26 94.4036 212.373 95.3839 212.986ZM145.5 168.289C145.02 168.235 131.496 171.967 139.37 170.493C139.848 170.418 147.203 168.552 145.5 168.289ZM217.659 379.236C217.503 379.001 217.343 378.724 217.176 378.391C217.37 378.7 217.522 378.986 217.659 379.236ZM209.042 376.653C209.855 376.212 205.726 376.109 204.485 376.308C204.102 376.853 208.942 376.731 209.042 376.653ZM86.6596 213.323C85.0256 213.591 81.8896 213.459 79.4553 213.775C79.9334 213.241 86.0287 212.858 86.6596 213.323ZM169.77 226.28C167.892 226.003 165.261 225.979 165.201 226.477C165.161 226.397 165.062 226.308 164.895 226.216C164.732 226.127 162.398 226.227 161.371 225.987C158.269 225.265 164.453 225.573 168.493 225.848C170.542 225.992 171.995 226.129 172.201 226.349C172.365 226.556 171.553 226.923 167.552 227.136C168.322 226.858 169.06 226.573 169.77 226.28ZM195.401 184.073C195.494 183.688 195.29 183.192 195.004 182.784C194.278 181.579 193.479 180.71 193.614 181.311C193.672 181.56 193.983 182.29 194.38 183.096C194.749 183.851 195.244 184.693 195.401 184.073ZM197.908 211.375C197.966 211.387 197.941 211.266 197.795 211.258C197.654 211.237 197.407 211.341 197.255 211.294C197.182 211.016 197.287 210.902 197.383 211.014C197.484 211.117 197.638 211.328 197.908 211.375ZM192.019 175.63C191.772 174.947 190.503 174.653 190.503 174.745C190.494 175.484 192.081 176.953 192.019 175.63ZM217.158 374.2C217.022 373.817 216.424 373.29 215.851 373.017C215.263 372.723 214.742 372.711 214.448 372.883C214.502 372.764 214.517 372.557 214.55 372.33C214.55 372.33 214.55 372.331 214.55 372.331C214.586 372.287 214.347 372.079 214.806 372.324C217.034 373.655 219.286 374.144 219.995 374.221C220.776 374.31 220.42 374.223 219.676 374.229C218.123 374.221 215.298 374.355 213.499 374.448C211.1 374.58 210.336 374.748 213.511 374.941C214.803 375.019 216.879 375.062 218.823 375.165C219.074 375.18 219.026 375.046 219.163 374.916C219.228 374.851 219.347 374.788 219.536 374.747C219.723 374.707 220.003 374.69 220.226 374.722C220.275 374.731 220.319 375.208 220.365 375.234C220.371 375.241 220.421 375.307 219.65 375.216C218.947 375.117 216.907 374.783 214.263 373.23C213.646 372.862 214.035 373.069 214.251 373.041C214.194 373.109 214.154 373.185 214.138 373.275C214.049 373.654 214.737 373.842 215.571 374.092C216.39 374.322 217.269 374.504 217.158 374.2ZM196.641 213.033C197.03 212.896 197.48 212.126 197.175 211.825C196.99 211.892 196.709 212.218 196.501 212.548C196.294 212.877 196.219 213.168 196.641 213.033ZM144.591 166.766C142.987 166.901 139.288 168.664 140.558 168.647C141.349 168.644 146.455 166.614 144.591 166.766ZM198.83 206.012C197.604 211.024 198.702 207.257 199.197 208.138C199.092 207.444 198.97 206.731 198.83 206.012ZM230.14 400.041C230.232 399.841 231.453 399.647 230.915 400.338C230.739 400.534 230.089 400.138 230.14 400.041ZM224.996 437.511C225.728 437.682 225.151 438.376 224.377 438.818C223.933 439.057 223.578 439.047 223.812 438.384C223.815 438.377 223.831 438.36 223.857 438.337C224.127 438.093 224.981 437.478 224.996 437.511ZM232.392 414.913C232.112 414.718 231.916 414.544 231.778 414.317C231.498 413.597 231.403 412.602 231.362 410.729C231.89 414.604 232.17 411.703 232.37 414.257C232.383 414.432 232.391 414.649 232.392 414.913ZM165.22 226.557C165.208 226.527 165.197 226.504 165.201 226.477C165.215 226.505 165.22 226.531 165.22 226.557ZM188.934 170.524C189.089 169.584 188.053 168.199 187.841 168.984C187.821 169.04 188.393 170.511 188.934 170.524ZM214.448 372.883C214.402 372.992 214.337 373.03 214.251 373.041C214.304 372.978 214.366 372.928 214.448 372.883ZM195.783 182.476C195.363 182.619 196.316 185.163 196.387 185.264C197.725 186.46 196.344 183.444 195.783 182.476ZM111.481 173.915C111.214 174.004 113.144 174.93 114.14 174.291C114.906 173.799 112.466 173.59 111.481 173.915ZM232.79 420.345C232.745 421.161 232.612 422.254 232.02 422.356C232.187 421.892 232.383 420.318 232.79 420.345ZM226.003 437.514C225.87 437.283 225.806 437.118 226.329 436.164L225.68 437.194C226.51 435.485 227.502 433.866 228.161 432.833C228.715 433.1 227.436 435.193 226.064 437.422L226.701 436.411C226.047 437.371 226.008 437.396 226.003 437.514ZM218.516 376.456C218.484 376.328 217.196 374.269 216.948 374.915C216.547 375.759 218.682 377.207 218.516 376.456ZM119.615 173.177C121.363 172.425 116.939 172.022 115.154 173.283C114.235 173.948 119.324 173.321 119.615 173.177ZM186.544 166.016C185.638 165.54 186.81 167.699 187.532 167.682C187.257 167.241 186.876 166.184 186.544 166.016ZM199.481 211.691C200.742 210.611 200.501 209.804 199.929 209.876C199.361 209.893 198.5 210.326 198.568 210.612C198.59 210.705 199.423 211.749 199.481 211.691ZM93.0811 12.2385C93.7105 11.4766 90.2985 12.8499 90.2696 13.5974C90.2548 14.0631 92.678 12.7259 93.0811 12.2385ZM137.057 222.923C137.329 222.984 137.598 223.045 137.861 223.105C137.657 223.084 137.396 223.029 137.057 222.923ZM178.22 156.82C179.389 160.322 180.134 158.62 180.359 158.752C180.829 159.082 181.573 160.405 182.574 161.024C181.33 160.442 180.128 159.961 178.999 159.597C179.444 159.961 182.867 162.937 185.046 165.129C185.536 165.64 185.903 166.019 186.015 165.961C186.399 165.763 185.781 165.096 185.38 164.751C185.096 164.5 184.884 164.323 184.874 164.295C184.828 164.158 185.505 162.619 185.322 162.386C184.987 161.797 178.796 157.339 178.22 156.82ZM200.494 203.449C200.266 204.166 199.612 204.327 199.74 204.665C199.783 204.782 200.39 204.842 200.512 205.249C200.518 204.654 200.512 204.05 200.494 203.449ZM174.116 157.558C174.057 157.162 174.328 157.1 174.762 157.228C175.184 157.347 175.763 157.684 175.786 157.74C175.894 158.061 175.406 158.115 174.967 158.068C174.517 158.015 174.16 157.882 174.116 157.558ZM195.216 180.12C195.122 179.827 193.375 175.782 193.046 176.064C193.196 177.031 195.906 182.748 195.216 180.12ZM200.508 205.729C200.342 206.816 199.432 208.577 200.367 208.508C200.367 208.507 200.368 208.505 200.368 208.504C200.442 207.619 200.49 206.686 200.508 205.729ZM125.426 169.977C121.779 169.293 123.749 170.761 126.816 170.533C127.56 169.685 126.025 170.086 125.426 169.977ZM114.467 171.033C113.511 171.003 103.722 172.554 105.292 173.106C105.876 173.345 111.466 171.911 111.719 171.904C112.125 171.921 110.45 173.045 113.436 172.412C113.218 172.155 114.807 171.067 114.467 171.033ZM122.468 169.672C118.935 169.277 118.569 171.415 121.087 170.922C122.071 170.726 122.974 169.728 122.468 169.672ZM135.772 166.536C135.293 166.588 134.512 166.71 133.609 166.919C132.256 167.236 130.666 167.721 129.485 168.432C130.909 168.103 132.328 167.759 133.741 167.401C135.158 167.042 136.557 166.678 137.953 166.306C138.158 165.846 136.796 166.425 135.764 166.538C135.767 166.537 135.769 166.536 135.772 166.536ZM219.412 451.886C221.506 450.611 217.785 454.65 217.514 454.718C216.691 454.873 218.48 452.453 219.412 451.886ZM119.11 16.2729C119.78 16.0699 120.584 16.4245 121.531 15.2389C120.011 15.6544 118.493 16.0675 116.97 16.4837C116.807 18.1964 118.376 16.4931 119.11 16.2729ZM126.424 16.7507C126.276 16.8976 128.357 17.8274 125.409 18.3469C123.911 18.6094 127.769 14.9719 130.6 13.0075C131.539 12.3554 132.352 11.8952 132.823 11.8169C132.398 12.2938 131.708 12.8504 130.914 13.436C129.302 14.6259 127.295 15.9004 126.424 16.7507ZM145.496 13.3383C145.677 13.4044 142.759 15.8646 142.343 16.0307C140.146 16.9269 144.473 13.0578 145.496 13.3383ZM135.567 20.2035C135.665 20.1606 135.745 20.1296 135.81 20.109C136.095 20.014 136.107 20.1062 135.952 20.3025C135.561 20.8195 133.865 22.1509 133.146 22.488C132.831 22.2621 135.321 20.3154 135.567 20.2035ZM257.101 451.639C259.296 450.541 257.69 447.479 256.627 450.528C256.577 450.67 257 451.681 257.101 451.639ZM143.693 17.1699C142.038 17.9157 145.05 15.3811 146.141 14.8363C146.449 15.069 143.943 17.0565 143.693 17.1699ZM260.605 451.978C262.858 449.955 259.513 449.255 259.23 449.505C258.209 450.437 257.058 454.226 256.727 455.646C256.669 455.762 256.447 456.08 256.383 456.193C256.323 456.39 256.273 456.557 256.238 456.677C256.325 456.525 256.404 456.387 256.48 456.257C256.544 456.144 256.768 455.822 256.827 455.706C259.659 450.171 259.602 452.811 260.605 451.978ZM264.775 438.432C265.413 435.575 262.322 442.337 262.481 443.883C263.047 442.607 264.621 439.269 264.775 438.432ZM269.04 421.053C269.261 419.488 269.44 414.888 268.854 414.172C269.082 415.818 268.576 420.363 269.04 421.053ZM270.618 417.523C271.262 415.04 269.215 414.553 269.889 417.32C269.914 417.429 270.58 417.614 270.618 417.523ZM270.507 405.452C271.214 404.14 269.147 402.796 269.253 404.888C269.287 405.5 270.426 405.591 270.507 405.452ZM265.455 450.409C266.832 448.519 266.891 445.203 264.543 449.539C265.138 447.934 265.713 446.26 266.235 444.536C262.777 450.166 264.624 450.414 263.721 451.986C262.437 454.043 261.149 453.028 260.941 452.386C260.906 453.323 260.087 455.2 259.144 457.083C259.073 457.224 258.801 457.614 258.722 457.752C258.212 458.672 257.105 460.415 255.983 461.865C254.872 463.314 253.897 464.434 253.061 465.396C252.694 465.816 252.357 466.198 252.05 466.55C252.405 466.244 252.791 465.909 253.211 465.535C254.139 464.707 255.209 463.735 256.463 462.403C257.721 461.085 259.08 459.332 259.799 458.469C259.884 458.32 260.179 457.897 260.256 457.743C261.307 456.345 262.398 454.835 263.26 453.523C263.912 452.535 264.107 451.271 264.651 450.349C265.529 448.852 265.377 450.51 265.451 450.417C265.452 450.415 265.454 450.412 265.455 450.409ZM267.732 387.405C266.264 381.056 266.105 385.652 267.424 388.773C267.497 388.911 267.768 387.567 267.732 387.405ZM151.491 18.806C146.642 21.4209 149.096 18.2447 141.433 25.9428C144.366 22.3337 141.13 25.1201 141.562 24.2161C141.912 23.495 144.209 22.1891 142.534 22.4864C143.592 22.2163 145.829 20.755 147.907 19.2863C150.068 17.7165 151.541 16.7437 153.528 14.915C153.521 14.9221 153.513 14.9298 153.505 14.9381C153.629 14.8423 153.704 14.9518 153.776 15.1344C153.868 15.2991 153.516 15.9692 153.219 16.5164C152.615 17.6186 152.333 18.3225 151.491 18.806ZM274.184 421.228C276.621 419.58 272.88 418.877 274.766 415.613C271.934 411.314 274.759 427.775 271.481 429.604C274.04 411.799 267.28 441.021 272.802 429.127C269.454 439.34 272.558 432.677 272.691 434.409C272.831 436.321 270.38 442.026 271.279 442.003C271.28 442 271.281 441.997 271.283 441.994C272.523 438.439 273.486 434.67 274.093 430.937C271.541 434.16 273.517 426.87 275.165 424.411C274.862 423.339 274.535 422.26 274.184 421.228ZM268.464 441.143C268.74 440.881 270.712 433.168 270.113 433.572C269.866 434.622 266.426 445.14 268.464 441.143ZM251.484 468.836C252.187 468.112 253.122 467.25 254.032 466.296C255.145 465.135 256.264 463.746 256.564 462.737C255.643 463.866 254.551 464.967 253.636 465.929C252.54 467.081 251.666 468.08 251.484 468.836ZM246.522 347.503C243.853 345.258 250.477 353.481 249.085 350.699C249.052 350.568 246.696 347.624 246.522 347.503ZM273.711 413.28C274.175 409.774 272.01 411.581 272.769 414.072C272.813 414.218 273.689 413.445 273.711 413.28ZM148.174 21.6448C148.357 22.2237 142.135 26.3114 141.075 27.0914C141.369 26.2242 147.95 21.006 148.174 21.6448ZM250.29 473.099C252.671 472.226 254.488 470.161 255.931 468.055C257.204 466.205 258.247 464.145 258.561 463.779C259.231 463.02 258.942 464.82 259.103 464.654C259.195 464.63 261.456 461.641 262.351 460.17C262.452 459.994 262.802 459.493 262.893 459.311C263.717 457.89 264.647 456.246 264.707 456.079C264.793 455.836 263.04 456.345 263.46 454.839C263.218 455.654 262.487 457.102 261.67 458.584C261.585 458.753 261.261 459.217 261.167 459.381C260.641 460.242 259.435 462.065 258.203 463.588C256.985 465.106 255.928 466.251 255.025 467.216C253.136 469.214 251.832 470.483 251.688 470.71C251.415 471.145 255.035 469.343 250.295 473.094C250.293 473.096 250.291 473.098 250.29 473.099ZM260.339 461.882C259.005 463.154 260.583 460.746 261.359 459.509C261.454 459.343 261.782 458.872 261.868 458.702C262.291 457.972 262.794 457.198 263.078 456.859C264.192 455.52 263.139 457.523 262.311 458.965C262.223 459.14 261.885 459.624 261.788 459.795C261.286 460.587 260.428 461.804 260.339 461.882ZM267.881 450.034C268.325 449.569 271.07 443.696 270.669 442.895C268.887 445.608 266.944 451.291 267.881 450.034ZM269.771 381.646C269.151 380.402 267.956 376.772 267.4 376.814C268.067 378.015 269.221 381.648 269.771 381.646ZM130.425 40.2073C132.349 39.3347 128.586 42.2962 127.335 42.9526C127.075 42.7195 130.264 40.2792 130.425 40.2073ZM278.56 412.343C278.576 412.123 278.518 411.109 278.353 409.575C278.14 407.732 277.837 404.709 277.468 401.233C277.126 397.836 276.448 393.628 276.083 392.309C276.201 393.67 276.667 397.935 276.86 401.348C277.081 404.839 277.309 407.878 277.538 409.658C277.695 411.014 277.785 411.889 277.837 412.07C277.913 412.329 278.545 412.471 278.56 412.343ZM268.509 456.316C268.349 458.119 267.072 458.49 266.967 458.649C266.541 459.277 266.006 460.176 265.545 460.887C265.44 461.098 265.035 461.677 264.919 461.882C264.199 462.902 262.847 464.598 262.995 463.648C263.57 462.931 264.106 462.149 264.474 461.585C264.588 461.385 264.983 460.82 265.086 460.614C266.62 458.032 268.793 453.314 268.509 456.316ZM272.402 379.159C270.614 375.702 271.815 379.297 272.768 381.53C273.593 383.45 274.125 384.813 274.098 383.951C274.092 383.873 273.744 382.69 273.222 381.333C272.924 380.455 272.547 379.442 272.402 379.159ZM278.912 414.588C279.246 415.32 279.562 420.87 278.792 426.997C278.11 433.128 276.101 439.449 275.516 441.105C275.425 437.734 276.951 435.476 277.662 431.229C277.843 430.078 277.323 430.32 277.344 430.195C277.622 428.241 277.937 429.781 278.118 428.569C278.646 427.65 278.199 412.358 278.912 414.588ZM268.502 457.38C268.458 457.823 267.481 459.758 266.554 461.487C266.443 461.708 266.017 462.317 265.895 462.532C265.266 463.636 263.241 466.564 262.012 468.005C260.749 469.537 260.001 470.316 259.873 470.413C258.895 471.074 259.305 470.412 260.515 468.901C261.588 467.632 264.527 463.709 265.445 462.232C265.565 462.022 265.98 461.426 266.089 461.21C267.139 459.48 268.304 457.619 268.502 457.38ZM279.806 412.664C281.409 414.712 280.329 425.416 279.779 418.144C279.727 417.475 280.233 414.55 279.806 412.664ZM273.791 379.213C273.72 378.904 271.417 373.356 270.978 373.452C271.248 374.265 274.737 382.342 273.791 379.213ZM276.78 382.73C276.653 382.489 276.913 385.12 275.119 380.508C275.103 380.467 275.086 380.426 275.069 380.384C274.981 380.172 275.644 379.369 273.845 376.243C273.485 375.626 272.46 374.852 272.464 374.949C272.585 376.474 273.702 378.732 274.815 380.64C277.624 386.399 279.451 390.339 276.78 382.73ZM269.034 457.918C269.661 457.594 269.912 459.419 268.816 460.146C268.349 460.447 268.229 459.332 269.034 457.918ZM265.478 361.946C267.893 364.737 262.283 354.843 261.669 354.406C261.585 354.972 265.297 361.676 265.478 361.946ZM129.633 47.3273C129.635 47.3259 129.637 47.3245 129.639 47.323C127.442 48.7307 128.412 47.3199 128.301 47.3782C123.335 49.9581 125.278 50.1391 124.668 50.7713C123.357 52.1311 122.679 50.6846 120.524 53.053C124.152 49.2309 120.573 52.3285 120.126 51.9626C118.317 50.4605 126.334 48.772 128.138 46.866C128.387 46.6024 125.816 47.5745 126.439 46.8655C128.463 44.5643 138.046 41.9303 129.633 47.3273ZM268.444 460.968C268.433 461.236 268.227 461.738 267.936 462.308C267.818 462.544 267.364 463.194 267.233 463.424C266.737 464.426 263.64 468.549 262.098 469.958C260.479 471.558 259.591 472.128 260.27 471.069C260.368 470.911 261.219 469.934 262.614 468.209C264.029 466.504 265.954 463.692 266.52 462.949C266.647 462.727 267.085 462.099 267.2 461.87C267.897 460.859 268.486 460.217 268.444 460.968ZM161.741 276.756C159.312 277.204 164.839 278.188 166.013 277.762C166.535 277.562 162.784 276.567 161.741 276.756ZM211.237 267.058C213.913 265.379 215.52 261.528 212.34 263.907C212.007 264.16 210.763 266.949 211.237 267.058ZM94.0007 278.385C94.5162 276.569 92.9639 276.944 93.2264 278.186C93.3233 278.621 93.9853 278.442 94.0007 278.385ZM125.433 272.424C125.674 272.544 128.95 273.236 128.926 272.849C127.731 272.339 123.754 271.613 125.433 272.424ZM94.3369 278.858C93.841 277.932 93.0703 279.92 94.4864 280.784C94.235 280.23 94.3841 278.949 94.3369 278.858ZM282.81 406.363C282.048 405.268 282 401.638 281.634 398.865C282.502 398.732 282.555 405.225 282.81 406.363ZM199.52 272.221C201.699 270.461 196.243 272.628 197.081 273.092C197.162 273.102 199.434 272.295 199.52 272.221ZM141.681 310.144C139.99 310.081 144.586 312.444 143.554 311.127C143.497 311.071 141.771 310.149 141.681 310.144ZM163.172 317.209C162.017 316.73 156.901 315.31 158.749 316.359C159.035 316.529 162.962 317.642 163.172 317.209ZM124.905 51.3585C126.015 51.6351 122.438 53.9765 121.853 54.2115C121.622 54.3009 123.458 51.0008 124.905 51.3585ZM93.2226 267.955C93.1373 267.185 93.5346 265.659 93.1268 265.401C93.0973 265.945 92.2819 268.121 93.2226 267.955ZM178.606 278.32C180.346 278.669 183.012 278.592 185.352 278.078C187.679 277.578 189.473 276.697 188.157 276.411C183.396 277.572 184.072 277.56 183.929 277.804C183.965 277.951 183.099 278.303 178.606 278.32ZM96.7637 283.524C96.6368 282.977 95.3549 282.906 95.3233 282.99C95.0374 283.826 96.5307 284.22 96.7637 283.524ZM99.3262 267.085C99.2947 267.589 102.29 267.864 101.956 267.476C101.842 267.338 99.3443 266.664 99.3262 267.085ZM261.623 349.345C260.795 347.306 264.88 352.469 265.332 354.308C265.18 355.491 261.801 349.619 261.623 349.345ZM105.397 291.713C105.841 291.12 102.019 289.179 103.087 290.613C103.335 290.968 105.208 291.9 105.397 291.713ZM148.65 310.912C145.066 310.731 158.709 315.717 155.403 313.49C155.154 313.35 148.943 310.948 148.65 310.912ZM171.06 317.906C170.528 317.674 171.379 315.271 173.465 316.754C173.742 316.948 172.171 317.28 172.383 317.486C172.519 317.624 177.452 319.061 177.701 319.034C177.961 319.017 177.832 318.159 178.1 318.119C178.391 318.078 181.343 319.383 182.942 319.659C185.966 320.187 186.377 319.54 186.631 319.581C187.35 319.686 188.487 320.341 189.93 320.528C196.723 321.464 205.688 321.441 212.234 322.168C212.875 322.253 213.508 322.35 214.127 322.464C213.457 322.419 212.834 322.387 212.238 322.365C207.26 322.208 203.4 322.646 198.826 322.507C200.418 321.235 191.27 322.962 196.648 321.795C194.338 322.337 172.871 318.97 171.066 317.907C171.064 317.907 171.062 317.906 171.06 317.906ZM222.627 260.633C221.313 262.748 230.458 255.611 230.63 253.857C229.269 255.032 222.768 260.503 222.627 260.633ZM171.076 282.372C170.117 282.509 168.966 284.243 164.289 283.189C164.285 283.189 164.281 283.189 164.277 283.189C162.942 282.877 164.491 282.532 164.252 282.373C164.149 282.314 160.075 281.262 163.503 281.297C168.875 281.309 163.927 282.589 166.847 282.711C167.135 282.751 173.162 281.889 172.887 281.659C172.837 281.639 170.954 281.841 170.663 281.751C169.54 281.426 170.095 280.9 169.937 280.873C169.254 280.853 160.65 281.402 159.654 280.516C159.036 280.302 173.173 280.269 174.453 280.184C174.876 280.256 174.74 281.734 175.202 281.864C175.329 281.893 177.142 281.727 179.394 281.424C181.6 281.143 184.439 280.605 185.179 280.528C185.593 280.494 185.918 280.475 186.159 280.463C185.304 280.382 187.227 279.98 189.988 279.224C192.67 278.551 196.639 276.958 196.519 277.267C196.415 277.442 193.543 278.73 191.266 279.392C188.931 280.106 187.081 280.431 186.94 280.447C186.822 280.457 186.718 280.457 186.623 280.462C187.362 280.63 181.76 281.823 178.288 282.147C174.658 282.557 172.044 282.721 173.562 283.127C169.46 283.617 174.082 281.922 171.076 282.372ZM154.625 282.54C154.961 282.409 155.295 282.276 155.628 282.144C153.902 282.145 152.135 282.025 150.344 281.847C144.298 281.293 138.977 279.959 134.169 278.945C132.4 278.564 134.218 279.931 131.988 279.175C130.214 278.567 128.524 277.259 129.505 277.29C129.725 277.295 133.193 278.683 135.17 279.024C141.026 280.017 139.803 278.896 140.123 278.948C140.491 278.998 144.366 280.218 146.809 280.45C148.099 280.583 149.289 280.659 150.429 280.705C153.232 280.769 155.381 280.743 160.204 281.546C156.622 281.864 158.463 283.149 154.625 282.54ZM125.592 300.175C125.919 299.777 127.924 301.288 128.854 301.628C128.483 302.028 126.356 300.499 125.592 300.175ZM63.1791 116.082C62.7437 116.317 63.3414 116.964 64.187 117.474C65.0176 117.979 65.9981 118.304 65.5102 117.683C65.2587 117.4 63.5518 116.314 63.1791 116.082ZM83.2326 121.476C84.2877 121.306 80.1151 120.454 80.1371 121.105C80.0997 121.312 83.0678 121.496 83.2326 121.476ZM89.5872 269.96C89.4376 269.973 87.8111 269.762 87.7956 269.728C87.2977 269.288 88.2542 269.175 89.2156 269.295C90.1711 269.414 90.969 269.733 89.5872 269.96ZM116.147 117.022C113.991 117.995 118.815 117.048 119.761 116.515C119.989 116.397 120.011 116.311 119.699 116.29C119.61 116.281 119.49 116.278 119.338 116.281C119.195 116.292 116.28 116.969 116.147 117.022ZM129.137 113.171C128.356 113.447 124.846 114.214 124.881 114.467C124.919 114.892 128.942 113.977 129.137 113.171ZM99.854 282.729C100.262 282.472 100.5 282.938 100.666 283.425C100.834 283.923 100.908 284.385 101.032 284.482C100.637 284.744 100.487 284.606 100.332 284.181C100.18 283.769 100.047 283.068 99.854 282.729ZM98.3322 266.733C98.2851 268.473 98.3581 270.59 98.3681 271.758C98.381 272.978 98.2951 273.483 98.1148 273.29C97.7736 273.11 97.0552 269.051 97.9298 266.3C98.53 266.396 98.3409 266.325 98.3322 266.733ZM99.6901 280.445C98.993 280.249 98.8119 278.929 98.6618 278.019C99.1013 278.097 99.4016 279.915 99.6901 280.445ZM62.1866 113.949C62.3379 113.566 62.1918 113.522 62.3463 113.856C62.4696 114.166 62.7291 114.7 62.4765 114.727C62.4204 114.735 61.9328 114.39 61.8581 114.228C61.7505 114.04 62.0793 114.132 62.1866 113.949ZM88.5179 270.743C88.6557 271.205 87.8001 271.326 87.1066 271.345C86.3767 271.363 85.9711 271.265 85.939 271.165C85.7683 270.774 85.8524 270.714 86.5463 270.715C87.2052 270.715 88.3735 270.84 88.5179 270.743ZM107.772 288.15C108.89 287.995 110.994 289.669 112.595 290.578C111.544 290.698 108.922 288.878 107.772 288.15ZM101.185 282.845C101.204 282.844 101.312 282.958 101.482 283.128C101.647 283.295 101.869 283.508 101.88 283.537C102.06 284.134 101.439 283.81 101.122 283.49C100.798 283.164 100.814 282.901 101.185 282.845ZM136.623 50.7947C136.556 50.8729 134.734 52.1438 134.653 52.1692C132.639 52.7813 138.122 48.9593 136.623 50.7947Z" fill="#A0CAF5"/>
</svg>
