<svg width="143" height="146" viewBox="0 0 143 146" fill="none" xmlns="http://www.w3.org/2000/svg">
<path d="M0.516314 59.483C0.601627 59.9921 0.510843 62.0461 0.608673 62.9014C-0.290041 61.9907 0.183903 57.6345 0.516314 59.483ZM65.9386 84.8024C65.7408 84.9302 65.5624 85.0643 65.4018 85.2057C65.5241 85.4177 66.176 85.5517 66.6712 85.9399C66.7512 86.0043 66.3072 86.4516 66.5169 86.559C66.736 86.6684 66.9609 85.9132 67.3337 85.9576C67.6816 86.0015 69.7155 87.2169 70.6692 87.4477C72.7669 87.9841 75.2386 88.3538 77.8357 88.8302C78.6339 88.9609 79.3782 89.086 80.0771 89.2735C77.9505 89.6046 79.9907 90.4727 80.5789 90.2388C80.6901 90.1713 80.8551 88.7889 82.505 89.099C83.4972 89.2473 82.8864 91.454 84.3522 90.1593C82.9187 88.9118 84.1948 88.8402 84.7773 88.6105C84.8297 88.5916 85.0898 88.5701 85.2968 88.5395C85.5099 88.5081 85.641 88.4834 85.6329 88.4507C85.6415 88.4207 85.217 87.7762 85.0786 87.8432C84.9838 87.8916 85.1643 88.2723 84.9421 88.4193C84.7902 88.5226 84.5965 88.6693 84.3584 88.8798C82.3736 90.8133 82.9788 90.674 83.5949 89.3796C84.307 90.2066 84.5657 90.1432 84.6808 89.8173C84.7953 89.4938 84.7679 88.8533 84.8306 88.819C85.1756 88.6644 85.167 89.1756 85.16 89.5781C85.155 89.977 85.1469 90.2967 85.4594 89.9932C85.8555 88.9033 86.3266 87.3775 86.7751 85.6415C86.1301 86.9716 85.728 83.3251 86.517 82.7703C85.2023 82.7212 87.9196 77.9737 89.2191 74.3419C89.5582 73.6561 89.725 73.1776 89.6089 72.9622C89.5599 72.8727 89.2839 73.0618 89.1138 72.9725C88.9359 72.9122 88.9099 72.4129 89.1582 71.622C89.2104 71.4661 89.7318 71.5499 89.6864 71.4657C89.6602 71.3958 87.9966 71.1355 88.9128 71.0174C89.08 70.9858 89.4406 71.0398 89.7011 71.0184C89.8313 71.007 89.9365 70.9623 89.9785 70.8953C90.0218 70.8329 89.9948 70.7431 89.8932 70.8073C89.0519 70.9034 88.8183 71.0264 88.964 71.3629C89.031 71.5069 89.166 71.5832 89.2376 71.4896C89.3147 71.4051 89.3226 71.1711 89.3499 71.022C89.2073 71.2196 89.0505 71.399 88.8799 71.5576C89.0797 71.2938 88.9993 71.1579 88.8935 71.1178C88.784 71.0723 88.639 71.1051 88.6128 71.0427C88.5988 71.0097 88.5848 70.9738 88.5705 70.9351C87.7279 69.5235 86.8886 67.6127 86.0004 66.5842C84.8536 65.2576 84.0726 65.9655 83.1239 64.2002C83.2375 64.6943 83.3653 65.2097 83.476 65.7089C82.6527 64.6271 81.85 63.6059 81.0543 62.6314C84.0588 63.9235 80.6861 62.1039 80.505 61.9682C80.2184 61.7303 80.9979 61.733 80.5301 61.329C80.4797 61.293 80.1402 61.7143 79.4747 61.094C78.0732 59.8058 78.7772 59.5764 78.2277 59.0355C78.1769 58.9935 78.003 59.4899 77.0213 58.7086C74.032 56.4709 77.2612 58.3985 77.449 58.509C77.6665 58.6134 78.0253 56.0648 80.0871 59.1592C79.3926 58.1186 79.9253 57.3952 79.8461 57.2832C79.7705 57.1701 78.2102 55.8685 78.1128 55.8357C77.2078 55.4348 77.4148 56.4436 77.205 56.4036C77.0431 56.3586 75.8933 54.3453 74.4765 55.6113C74.8293 53.7558 75.7617 54.5923 77.2837 55.5745C77.7077 55.4692 76.4672 53.9787 76.4035 53.946C74.666 52.6234 74.8193 54.5098 73.9375 54.9681C73.4897 55.2223 73.495 54.0734 73.2882 55.452C72.0564 54.7926 73.1536 54.6505 73.1328 54.5042C73.1032 54.2953 72.5392 54.3761 72.5307 54.3178C72.5011 54.2189 72.9467 53.9732 72.7633 53.6914C72.7202 53.6413 71.9896 54.0914 72.3012 54.6759C71.7051 54.222 71.5379 54.8714 71.8855 53.6083C70.5397 55.6705 72.1848 52.1682 72.0447 51.9627C71.6817 51.4385 71.1812 53.2971 71.1267 53.3746C70.942 53.6271 70.6607 53.5079 70.0942 53.3047C69.5586 53.1052 68.5439 52.8 68.0118 52.839C68.3365 52.2007 69.0891 52.344 69.5882 52.5968C70.1085 52.8528 70.3931 53.2169 70.5544 53.1244C71.0746 52.8161 70.8841 52.5745 70.5744 52.2029C70.2732 51.8331 69.7456 51.321 70.4413 50.5965C69.9298 50.9614 69.3706 51.3253 68.7095 51.6773C68.2844 51.0264 68.4565 50.6545 68.376 50.4255C68.2469 50.1877 68.0703 50.1319 65.8701 49.9321C65.4093 50.3342 66.2419 50.4511 66.9358 50.5144C67.6408 50.5798 68.2139 50.5984 67.8543 50.915C67.5183 51.3015 65.0437 50.9431 64.8633 51.1436C64.8225 51.425 67.131 51.5131 66.6768 51.8692C66.3933 52.1288 65.3773 52.0582 64.0694 51.7944C63.9724 51.7658 63.9243 51.6267 63.9217 51.452C63.9267 51.2799 63.9432 51.0593 64.199 50.9299C64.04 50.9165 64.1262 49.0573 63.9134 49.6248C63.8623 49.8104 63.9264 50.5503 63.8832 51.1793C63.8616 51.8065 63.6973 52.3315 63.8509 52.0906C63.7635 51.2174 63.7932 51.834 63.8026 51.768C63.817 51.6712 63.846 49.6907 63.8278 49.5927C63.8168 49.4288 63.5966 49.6223 63.6226 49.7251C63.6115 49.838 63.9983 49.7512 64.0189 49.1971C64.1704 49.7181 64.4131 49.7435 65.1887 49.2516C65.5747 49.0003 66.1241 48.5831 66.7955 47.9746C67.4543 47.3877 68.2529 46.5284 68.7124 46.0605C68.7444 46.038 68.7733 46.022 68.799 46.0133C68.873 45.9895 68.9522 46.1439 69.0261 46.3223C68.9856 46.7137 68.9105 47.1549 69.109 46.9938C69.2165 46.904 69.3303 46.7986 69.4503 46.6763C69.9404 46.3119 70.3536 45.3485 70.4453 44.6245C70.554 43.882 70.3743 43.4778 70.3863 43.4036C70.3977 43.3112 70.5144 43.4105 70.6551 43.4543C70.7928 43.5064 70.9391 43.5444 70.9375 43.548C70.8829 43.6226 70.5047 43.4459 70.4879 43.5168C70.4772 43.5653 70.3731 43.8872 70.2557 44.5518C70.1409 45.1844 70.0425 46.0598 70.0776 46.1364C70.0992 46.1851 70.8436 45.7469 70.8979 46.4527C70.9118 46.6123 70.0845 46.2899 70.2506 48.8065C70.4712 51.9433 71.4159 46.7677 72.1857 48.1197C70.8245 49.9141 72.0477 50.0085 71.9194 50.5483C71.874 50.7358 70.7671 52.1569 70.7742 53.9085C70.6491 52.6653 70.5335 51.4373 70.4296 50.2923C70.1836 51.3861 70.3161 53.7362 70.0832 54.7721C69.9691 55.271 69.1344 54.8241 69.1267 55.9385C69.1316 56.1753 71.1616 57.1436 70.323 54.2559C71.0657 54.0576 70.5441 55.3787 70.736 56.0363C70.766 56.1349 71.9854 56.5345 71.2016 57.3574C71.0122 57.5687 67.4611 55.2283 69.9498 61.0199C70.0303 61.2056 70.4907 60.5726 70.5807 60.7544C70.6415 60.8685 70.435 62.3639 70.4964 62.5237C70.5622 62.6924 71.0641 61.9843 71.1575 62.1855C71.6386 63.2095 69.6723 64.5377 69.8534 62.4214C69.6019 63.1114 69.3503 63.8468 69.0994 64.5443C70.5771 63.7989 69.4952 65.6847 69.5262 66.6744C69.54 67.1242 69.5578 67.5271 69.5791 67.885C69.7551 67.8518 70.0492 67.7488 70.3657 67.7516C70.6813 67.7411 71.0135 67.7906 71.2392 67.7229C72.0083 67.4318 69.534 67.8504 70.2435 67.5166C70.3014 67.4828 71.4373 67.5909 70.6851 67.0879C70.6689 67.1709 70.655 67.2759 70.6351 67.3832C69.2423 67.6359 70.6566 67.0854 70.6599 67.0374C70.7256 66.9348 70.6535 66.9716 70.6395 66.9691C70.6295 66.9744 70.6638 66.926 71.0325 66.8401C71.0978 66.8227 70.8252 67.0521 71.0257 67.0427C71.4477 67.0317 71.4353 66.817 71.4547 66.6716C71.47 66.5163 71.563 66.529 71.828 66.421C71.9608 66.3676 71.9464 66.235 72.024 66.3665C72.0871 66.4777 72.3116 66.8672 72.2818 66.9341C72.1313 67.2222 71.9419 67.0885 71.7725 66.9959C71.6012 66.9018 71.45 66.8532 71.1794 67.1106C71.0885 67.1997 71.3613 67.5388 72.19 68.3633C72.9716 69.1513 74.429 70.4075 74.8876 70.9958C75.0137 71.1625 75.1177 71.3412 75.2051 71.5228C69.3336 67.6436 67.7388 69.4141 68.2511 67.379C66.2434 68.9426 65.9663 67.4534 65.5544 67.3857C64.476 67.2522 64.1425 67.3011 63.9125 67.3126C63.6998 67.332 63.6454 67.3503 63.6269 67.3525C63.6193 67.3547 63.6866 67.3204 64.3348 67.1432C64.6278 67.0641 65.0556 67.6531 65.1863 67.524C65.2635 67.446 64.9955 66.7907 65.3924 66.5152C65.489 66.4499 65.6815 66.3991 65.9602 66.3551C64.2314 66.5881 61.111 67.793 59.2753 69.2447C57.3835 70.6805 56.7545 71.7753 56.7243 72.006C56.7074 72.3022 57.1507 71.8749 57.8065 71.3993C58.4478 70.9266 59.2978 70.4598 59.1505 70.9498C56.6361 72.9252 55.9685 74.0914 55.9046 74.2629C55.9044 74.3227 56.303 74.5081 56.3125 74.5084C56.3145 74.5095 56.2569 74.4202 56.235 74.1937C56.2088 73.9776 56.1974 73.6526 56.1124 73.646C55.931 73.6321 55.4583 74.4941 55.6571 73.9678C55.7813 73.5244 57.0468 71.9037 55.9726 72.551C55.783 72.6581 55.6998 73.1098 55.6351 73.3399C55.5618 73.5792 55.4565 73.6444 54.972 73.2635C54.3881 74.4747 55.3779 73.0058 56.1882 70.7681C57.0825 68.4654 58.0637 65.3158 59.5602 61.1716C58.2577 65.387 58.6422 68.1142 59.0176 69.9662C59.003 68.1055 58.7653 65.5302 60.1238 61.361C58.7573 65.6235 57.5001 68.8549 56.7667 71.1846C56.6093 71.7063 56.0352 72.9251 56.6755 72.9749C57.6346 70.9834 58.5914 66.3914 60.5549 61.5059C60.4208 61.9514 60.3123 62.3798 60.2252 62.7885C60.1635 63.0837 60.9761 62.1553 60.7875 63.2606C60.6053 64.2919 60.1774 66.1735 60.0703 67.5081C59.9404 68.8709 59.9878 69.8275 60.1568 70.0705C60.2042 70.1752 60.6395 68.118 61.1913 68.661C62.5751 69.868 60.0648 70.6409 60.4744 71.7754C60.5526 71.9698 60.7882 72.3886 61.1821 72.9566C62.0016 74.3089 63.4004 75.7736 64.2936 76.4563C65.2112 77.1833 65.5529 77.3687 65.5001 77.7142C65.4031 78.1586 65.2345 78.2362 64.5775 77.8615C63.9494 77.5392 62.7871 76.4084 62.6961 76.8211C64.0202 78.7999 64.9951 79.2004 64.9709 79.1048C64.9761 78.9969 64.2184 78.4554 62.789 77.965C62.736 77.9473 62.9818 78.6334 62.307 78.4596C62.0558 78.3943 61.834 78.2985 61.6442 78.1876C63.567 78.7295 64.4821 78.3572 65.7017 78.4515C67.3841 78.8223 73.1006 78.1909 73.8688 77.3896C73.9436 77.3334 72.5435 76.9506 72.3857 76.956C69.9624 77.2083 69.2424 78.1176 68.9954 78.1702C68.151 78.2463 67.3414 77.8329 66.588 77.783C65.3429 77.6819 64.5664 77.9356 62.8772 77.4556C61.8545 77.1337 62.7842 76.8807 62.2479 76.5819C62.2851 76.5825 62.3291 76.5932 62.3814 76.6166C62.4682 76.657 62.8399 77.22 63.1818 77.5594C63.5325 77.9018 63.863 78.0253 64.2183 77.3038C64.254 77.184 63.8131 76.8561 62.3946 76.1916C65.9492 77.3359 70.3299 77.7364 75.4539 75.205C82.4267 71.4922 83.9311 67.331 84.7142 65.8731C85.4309 64.202 85.4353 63.7404 85.4957 63.5248C85.5307 63.3297 85.5128 63.4399 85.5203 63.5626C85.5254 63.6909 85.5454 63.8474 85.5886 63.9217C85.8093 63.4465 86.1073 63.1935 86.0939 64.0436C86.0707 63.1566 86.153 63.5549 86.1577 63.9765C86.146 64.4221 85.9799 64.9428 85.0306 64.9857C84.9537 66.4798 85.001 68.4957 85.1579 70.5842C85.0267 69.1446 84.348 66.5459 82.7812 64.2865C81.247 62.006 79.2698 60.604 78.2058 60.0584C77.0992 59.4859 76.7303 59.4922 76.9245 59.5524C77.0245 59.5884 77.2527 59.6497 77.6716 59.7297C78.1544 59.8236 78.5066 59.867 80.2397 60.1564C76.0853 59.3867 71.36 60.4369 68.8465 61.7245C66.2153 63.0113 65.0891 64.1513 64.4109 64.8111C64.1053 65.1665 64.0427 65.3718 64.0282 65.55C64.3382 65.7828 64.8897 66.2089 64.7787 65.8793C64.4201 65.7184 64.0768 65.5274 63.7626 65.2984C63.8735 65.3829 64.1196 65.376 64.2306 65.4502C64.2845 65.4949 64.29 65.5978 64.2379 65.8203C64.1875 66.0305 64.0862 66.3944 63.9876 66.5801C63.9614 66.6309 63.6713 66.6226 63.3415 66.8331C63.0254 67.1077 62.5913 67.3158 62.5489 69.3019C62.5444 70.8883 62.9491 72.8158 63.7702 74.773C68.4697 86.3448 75.7351 87.7858 78.8932 88.9211C81.5246 89.6129 82.7447 89.6315 83.5757 89.7223C84.3797 89.7855 84.7485 89.8022 84.9104 89.7746C85.1416 89.7264 85.2303 89.2177 85.5944 89.0929C86.1068 88.8973 86.1158 89.1753 86.1875 89.2851C86.2333 89.3957 86.3075 89.3346 86.4429 88.4715C86.285 88.4418 86.1292 88.4079 85.9361 88.3742C86.6076 88.0533 87.6288 86.9116 86.2887 86.9358C86.1238 86.9106 86.3662 87.3555 86.2503 87.3814C85.6066 87.4314 85.0922 87.8158 81.4185 87.2124C79.6358 86.8444 76.5807 86.0288 73.1865 83.3383C69.7321 80.688 67.3646 76.3271 66.6639 73.8277C66.3241 72.5068 66.4242 72.6386 66.8274 73.7743C67.5359 75.9896 69.286 79.3167 71.8492 81.7367C74.3853 84.1906 77.0521 85.4477 78.8689 86.0708C82.5699 87.2426 83.853 86.9561 84.7129 86.9871C86.3014 86.8612 85.9028 86.9869 87.1913 86.8025C87.2684 86.7067 87.3974 86.6014 87.632 86.4534C88.8561 85.785 92.5269 83.8543 95.005 79.8371C97.4384 75.8457 97.4376 72.8162 97.4916 71.7575C97.5054 70.7269 97.4039 70.1331 97.3578 70.0468C97.0913 69.6998 96.7517 71.164 95.9432 69.4145C95.9003 69.326 95.8597 69.0178 95.5596 68.0713C95.3813 67.5623 95.2131 66.9535 94.4612 65.5242C94.044 64.787 93.5628 63.8471 92.109 62.1814C90.6082 60.8403 88.054 56.8341 78.9726 55.9791C69.4287 55.9165 65.6655 60.6828 64.0699 62.2475C62.3641 64.2233 61.8393 65.3695 61.3692 66.2897C60.5313 68.0791 60.3536 68.9619 60.1673 69.7658C59.8583 71.2847 59.8768 72.2133 59.9352 73.0228C60.0018 73.8075 60.1517 74.3555 60.253 74.4214C60.3628 74.4932 60.3943 74.0547 60.5129 73.0987C60.5643 72.7248 60.5431 71.9147 60.7629 70.5783C60.8961 69.8693 61.0154 69.0871 61.6445 67.4907C62.0079 66.6549 62.375 65.667 63.7642 63.7725C64.4967 62.8332 65.4505 61.6115 67.5925 60.0476C69.6268 58.5672 73.6849 56.4533 78.9406 56.6943C85.9575 57.1843 89.0944 60.3204 90.6542 61.6854C92.26 63.2567 92.8634 64.2413 93.362 65.0059C94.2682 66.4875 94.5034 67.1749 94.7324 67.7354C95.1289 68.7947 95.1969 69.1946 95.2622 69.4876C94.966 69.1017 94.7462 68.6638 94.219 67.5611C93.9208 66.977 93.633 66.2749 92.6258 64.7773C92.0826 64.0167 91.4171 63.0377 89.7674 61.5585C88.1646 60.2233 84.9949 57.577 78.918 57.1997C73.9368 56.9651 70.0144 58.9324 68.0129 60.3573C65.9058 61.8606 64.9619 63.0367 64.2214 63.96C62.8286 65.8048 62.4337 66.7902 62.0484 67.6154C61.371 69.1998 61.1873 69.9981 60.9873 70.7677C60.6373 72.2308 60.5002 73.3511 60.5336 74.6479C60.6313 76.7358 60.9325 77.7322 61.0586 78.0106C61.938 79.4714 61.46 77.991 61.3505 76.6378C61.2917 75.9644 61.3254 75.3605 61.5144 75.59C61.703 75.7779 62.0691 76.9402 62.8771 78.2524C65.4028 81.5002 62.2787 79.0744 62.955 80.6208C63.0883 80.879 63.5319 81.2961 64.1885 81.7434L66.9584 83.6044C66.5546 83.1918 65.7034 82.5493 65.3463 83.5227C64.6375 83.4071 65.2957 82.8375 65.2363 82.7534C65.1951 82.6711 63.5458 82.5621 63.0069 82.1068C62.9456 82.0497 63.377 81.3816 63.3203 81.301C63.2404 81.188 62.0803 80.954 61.4666 80.8863L62.9505 81.1653C62.9354 81.1829 63.0407 81.2152 63.0486 81.2303C63.0665 81.255 62.9578 81.421 62.9052 81.6076C62.8514 81.7942 62.8257 81.9992 62.8237 82.0804C62.8274 82.1271 62.875 82.1634 63.1695 82.205C63.4531 82.2459 63.9874 82.2763 64.5148 82.2586C65.6185 82.2216 66.2772 82.0575 66.3433 82.1456C66.4714 82.2572 65.8206 82.469 64.6871 82.6126C63.5195 82.7496 62.821 82.7688 63.076 83.1765C63.9194 83.1994 65.9231 83.137 66.6969 83.0926C67.5559 83.0622 67.7135 83.2531 67.8429 83.532C67.8074 83.4533 67.7826 83.4137 67.6212 83.4489C67.4727 83.4807 67.1355 83.5892 66.9037 83.6741C67.1616 84.1799 67.9178 84.2387 68.0333 84.212C68.1887 84.1782 68.0113 84.0119 67.873 83.6027C68.0286 84.0401 68.1485 84.256 68.2986 84.6677C68.3572 84.7616 68.1695 84.8756 68.1808 85.0823C68.2108 85.1083 68.6072 85.3733 68.6532 85.5971C68.7185 85.7877 68.5883 85.9331 68.2624 86.1258C67.9503 86.31 67.5005 86.5172 67.4111 86.5094C66.9157 86.4523 67.9547 85.4351 67.7691 85.0242C67.7952 84.9228 66.3374 84.7116 66.2403 84.683C65.7721 83.9607 67.2484 83.8318 66.7294 83.2464C66.3916 83.2442 66.0077 83.2745 65.6007 83.3255C66.0258 82.619 66.8345 82.0844 67.0652 81.8713C67.1833 81.7596 67.1399 81.7248 66.925 81.6898C66.7179 81.654 66.3469 81.6032 66.0785 81.4303C67.4788 81.2258 66.9271 81.3547 66.3547 81.4284C65.7366 81.4881 64.9465 81.3611 64.4626 80.4887C64.048 79.7546 64.6322 78.8708 64.4894 78.7089C64.0402 78.073 63.2277 79.4879 63.1501 79.4945C63.087 79.4777 63.0456 79.4497 63.023 79.4118C63.023 79.4117 63.023 79.4117 63.023 79.4117C62.8249 78.9948 64.383 77.7529 64.3178 77.5764C64.2966 77.1775 62.8847 76.2299 62.7059 75.9546C62.7185 75.8626 63.7426 74.9481 63.0892 74.6322C62.4469 74.2895 61.2169 74.9581 61.142 74.9375C60.7483 74.7446 62.6899 73.3279 62.6166 73.1635C62.6218 73.0375 61.231 73.0314 61.094 72.9043C60.9789 72.754 61.6661 71.9349 61.7463 71.2576C61.8167 70.7431 60.9186 70.8115 61.0189 70.6883C61.0526 70.6461 61.6064 70.358 62.1014 70.1334C62.6062 69.901 63.0166 69.749 63.0422 69.7011C63.1297 69.5534 62.5764 69.1942 62.5849 69.0559C62.6205 68.8411 63.2101 68.8573 63.0847 68.6975C63.0504 68.6327 62.3843 68.3153 61.4906 68.1216C60.6187 67.9131 59.6166 67.7862 59.5236 67.5666C59.1876 66.7912 63.2078 67.0595 58.84 65.5114C58.8043 65.5021 58.1443 66.0894 58.1185 66.0835C57.3592 65.8193 59.455 63.6871 56.4643 65.4572C61.8176 61.6028 56.6272 63.9632 56.8632 62.321C56.9316 61.6573 59.5128 60.3246 59.5538 60.273C59.0398 59.7408 58.3257 60.5754 57.9158 60.4016C57.6218 60.2909 60.0239 58.6509 59.3035 58.4359C58.8175 58.2959 56.1186 59.5401 56.0413 59.5627C54.8472 59.6651 55.8752 58.6404 55.5231 58.4709C55.2625 58.3565 53.7363 59.1265 53.6954 59.1148C53.5642 59.0845 55.2711 57.2644 55.6893 56.7765C55.9657 56.3994 54.4343 56.7205 54.6507 56.5132C55.8266 55.2253 60.5238 55.1723 55.9279 54.6387C55.6396 54.6091 54.3725 55.2356 54.3337 55.2323C53.2904 55.06 55.6072 53.9237 55.9858 53.2814C56.5062 52.155 52.7952 54.1915 55.8196 52.3129C53.1074 52.8002 51.9756 53.4314 49.9099 54.7571C52.6533 52.9169 55.2629 51.1686 55.8102 50.3655C56.437 49.5487 53.8659 49.7123 50.1832 51.6985C52.588 50.4931 51.9086 49.5124 52.7409 49.1057C53.0067 48.9803 54.36 48.7296 55.4574 48.3141C56.5386 47.9029 57.3148 47.2884 55.527 46.4048C54.9682 46.1838 52.1104 47.7848 52.7884 46.7628C61.0494 44.0862 52.5522 46.2607 52.7322 46.2044C52.6307 45.7951 53.6797 45.0352 56.3545 44.1758C57.6979 43.7595 59.535 43.3185 61.8717 43.135C64.166 42.9277 66.9953 43.1716 68.4321 43.4392C68.7546 43.5231 69.7495 43.6356 70.0639 43.746C73.1658 44.5639 76.5482 45.8995 77.6609 46.2232C80.4377 46.968 83.5444 47.0354 84.1874 47.3575C86.2689 48.4082 84.2479 48.1079 84.6037 48.5548C84.6977 48.6731 85.2078 48.8888 85.9179 49.1755C86.514 49.5953 88.3844 50.6594 88.8975 51.1774C92.5013 53.4073 97.1299 59.3646 97.2697 60.1362C98.2972 62.8998 96.323 60.5349 96.4229 60.8482C96.7612 61.9231 98.0124 64.3485 98.7252 68.5676C99.1374 71.202 99.2194 73.8117 98.7625 76.8519C98.5028 78.4138 98.1914 80.0253 97.1737 82.4846C96.6168 83.7368 95.9802 85.2226 94.161 87.55C93.1923 88.7306 91.936 90.1881 89.4371 91.8791C87.043 93.5088 82.5716 95.5453 77.2128 95.2825C69.9496 94.8191 66.2729 91.622 64.3608 90.0022C62.4014 88.2044 61.57 86.9708 60.8808 85.9703C59.5862 83.9859 59.1541 82.888 58.7458 81.9253C58.0098 80.0755 57.781 79.0314 57.6046 78.2225C57.5329 78.5227 57.3516 80.6347 60.0613 85.6691C60.807 86.9551 61.9283 88.5669 63.5252 90.1469C65.0681 91.7215 67.1554 93.0593 67.4443 93.2814C67.8699 93.5697 65.9359 92.7038 63.7728 90.8836C61.5727 89.0512 59.8088 86.7461 58.6891 84.8534C56.3401 80.6914 56.3297 79.5312 56.0215 78.1514C55.8255 76.901 55.91 76.1103 56.0555 75.5355C56.36 74.4027 56.9338 74.2167 56.9698 74.1149C56.8981 73.279 56.8614 72.4371 56.8651 71.5553C56.8954 68.478 57.3341 63.9762 60.1467 59.0152C62.8995 54.0071 68.0364 50.2323 71.876 48.7345C75.8468 47.1751 77.8169 46.8218 81.1803 46.4002C82.8676 46.2508 84.6537 46.0714 87.8704 46.4793C89.5248 46.7426 91.5472 47.0234 94.8574 48.5926C97.9311 49.9734 103.627 54.2543 105.745 61.0613C107.892 68.797 106.796 71.6421 106.395 74.7973C105.817 77.7558 105.006 80.1249 104.077 82.35C102.208 86.7548 99.8027 90.5229 96.8349 93.9731C96.1423 94.7729 95.3604 95.6079 94.4057 96.4959C94.6973 96.6667 96.0128 95.6837 97.2628 94.3438C99.8902 91.8076 102.76 86.0837 102.89 85.913C103.712 85.353 101.481 90.4516 97.7313 94.7497C95.6119 97.1944 92.2997 100.455 86.9975 102.682C81.7246 105.012 75.575 104.72 73.8116 104.31C80.2846 105.497 86.9655 103.48 90.7557 101.356C88.519 103.463 81.3413 107.004 72.6514 105.347C72.7282 105.263 71.415 104.936 70.263 104.663C69.0487 104.382 67.714 104.105 66.4267 103.97C64.9416 103.812 67.5914 104.971 67.51 104.974C65.8518 105.178 63.1221 103.989 65.366 103.877C60.9431 103.3 61.725 102.787 58.0643 101.12C57.8516 101 59.3318 102.372 56.1065 100.985C55.3507 100.64 52.9191 99.3379 50.4544 97.4103C47.982 95.5406 45.6922 92.9963 45.0344 92.508C44.3377 92.1227 46.991 98.2117 48.8068 97.2157C53.1796 101.431 54.0423 101.21 54.2223 101.061C54.4061 100.802 53.9867 100.104 55.6779 101.081C55.9351 101.225 55.6457 101.366 56.3882 101.969C57.0962 102.533 59.0211 103.72 62.7823 104.665C61.8321 105.314 59.2135 104.624 56.3152 103.083C53.4323 101.607 50.435 99.0544 49.4771 98.3647C47.4493 96.8833 50.1917 100.012 53.8808 102.256C57.5846 104.574 61.5822 105.726 62.8743 105.376C61.3608 106.376 63.8052 105.92 66.244 106.529C68.8549 107.157 67.6326 107.32 68.9577 107.573C70.6905 107.877 71.0379 107.664 71.4009 107.583C71.5638 107.538 71.7103 107.518 71.8906 107.575C72.0332 107.626 72.3663 107.781 72.2094 107.979C72.2709 107.994 72.3329 108.008 72.3956 108.023C72.3337 107.998 72.2733 107.974 72.2143 107.95C72.3631 107.55 72.3043 107.24 72.3521 107.044C72.3812 106.845 72.4769 106.754 72.4222 106.712C75.4995 107.306 82.356 107.463 87.3833 105.709C92.4793 104.078 95.5539 101.985 97.0799 101.029C93.4762 104.48 83.8798 110.606 72.101 108.625C72.2457 108.672 71.888 108.642 71.4671 108.606C71.0482 108.569 70.4918 108.512 69.9132 108.443C70.0853 108.619 70.2448 108.793 70.4112 108.966C69.5719 108.816 68.5898 108.632 67.5333 108.402C67.7263 108.297 67.927 108.193 68.1165 108.086C62.4044 107.899 60.4188 105.87 59.9905 105.739C53.2097 103.8 39.8424 93.7176 37.2517 81.5561C36.9752 80.2671 36.1676 80.6597 35.6287 75.184C35.6067 74.6065 35.6193 73.863 35.6955 72.8889C35.8187 71.3707 36.6196 72.7488 36.4086 71.0467C34.3665 68.9817 35.9213 68.9144 35.9005 68.2638C35.846 66.353 35.3889 65.0888 35.3843 64.9008C35.3338 62.3749 35.5749 58.4084 36.2569 54.35C36.2647 54.2659 35.298 56.2645 35.9554 53.6645C36.0946 53.2181 36.836 51.55 38.4728 48.259C40.4674 45.3124 41.7388 38.416 54.0105 31.4518C55.6074 30.6541 57.1648 30.0015 58.6849 29.4366C57.096 29.8404 55.4843 30.3775 53.8369 31.0976C49.9423 32.8965 46.9366 35.402 44.8536 37.6341C45.8752 36.638 48.2644 33.6632 53.731 30.8814C63.0806 25.1467 79.5639 28.5008 74.113 26.9376C69.5201 25.2443 59.0876 28.4995 57.4609 27.7879C60.9776 26.7689 70.1169 24.5929 80.3477 28.4364C82.6076 29.2605 86.4812 30.6389 90.2792 32.684C94.0639 34.6486 97.6415 37.5499 98.2488 38.2729C98.5083 38.5503 96.3498 37.418 96.7232 37.8151C96.8603 37.961 98.5294 39.2521 100.275 41.0523C102.027 42.8137 103.737 45.1489 104.033 45.7688C104.415 46.4399 101.519 43.136 101.585 43.5846C101.632 43.7383 104.417 47.2502 106.193 50.8697C107.247 52.914 107.978 54.6832 108.307 54.848C107.865 53.8677 107.177 52.205 106.483 50.7273C105.211 48.0486 104.099 46.0654 105.909 48.3782C106.1 48.6396 106.517 49.5715 106.887 50.5288C107.179 51.3032 107.433 52.0653 107.592 52.3345C108.787 54.4686 108.475 53.0106 107.28 50.3362C105.301 45.5928 100.101 40.0943 98.9824 39.2309C101.749 41.3984 105.144 45.0748 107.633 50.163C110.996 57.4459 113.27 66.1434 109.732 78.0324C109.643 78.3819 109.561 78.766 109.499 79.1606C108.567 80.3261 109.343 77.0064 108.454 78.318C106.549 81.3152 108.885 79.385 108.918 79.5012C109.198 80.3827 105.421 82.9448 107.489 83.6446C106.678 85.1445 106.608 84.4854 106.082 87.0287C106.334 86.7465 106.584 86.4681 106.831 86.1942C107.332 89.1138 101.419 95.2341 101.334 94.6128C101.485 92.7793 103.743 89.6956 103.8 89.4248C103.9 89.0202 102.322 86.966 105.41 83.7111C104.936 82.7241 104.25 84.113 103.626 85.4178C103.001 86.7215 102.477 87.8452 102.633 85.7811C102.286 87.0595 101.036 90.3255 99.0242 94.2753C97.1581 98.1519 93.6213 102.925 92.6438 104.389C92.3375 104.747 95.1564 104.314 89.9941 108.191C88.6646 109.085 89.4964 108.287 90.3796 107.354C91.2621 106.423 92.1329 105.354 91.5662 105.706C90.5734 106.053 85.1085 112.597 73.9155 114.488C71.3306 114.858 68.0842 115.425 63.367 115.448C58.9129 115.334 51.1395 115.17 43.0834 108.485C40.807 106.588 38.8135 104.731 37.8718 103.791C37.6264 103.545 38.044 103.313 37.8016 103.071C37.0685 102.373 33.8519 99.8665 32.72 98.0233C34.778 101.964 29.3926 95.4009 28.3001 93.115C26.5753 89.9274 27.4521 89.6844 26.89 88.2017C24.5954 82.6926 20.6356 72.6103 22.7241 67.6233C22.4619 67.6615 22.2957 67.5049 22.2074 67.193C21.6843 66.1905 23.6733 62.4087 23.7201 60.4794C23.7615 58.7213 22.6368 56.0938 21.8694 58.4936C22.0106 55.4248 21.7603 52.0908 21.8048 48.9209C21.8123 48.3994 22.303 49.1401 22.3003 48.2532C22.2965 48.1744 21.785 48.0334 21.7758 47.2472C21.7761 40.5952 22.6776 43.8534 23.0918 42.6342C23.3388 41.9362 23.489 41.3754 23.5629 40.9784C23.195 45.1951 23.2459 49.3371 23.2105 50.444C24.3569 49.6277 23.4216 42.2563 24.1318 39.6392C24.1535 39.5562 24.7402 39.9298 24.7555 39.8443C24.7557 39.8425 24.756 39.8407 24.7562 39.8389C24.8147 39.0735 25.8152 32.5444 24.8521 33.689C24.5597 34.0417 23.9042 37.1964 23.6197 40.3539C23.5848 39.4684 22.8072 40.0312 22.7959 39.8743C22.6262 38.0316 24.1944 33.051 24.9444 30.913C25.0946 30.4463 24.653 30.3556 24.6739 30.2771C25.3618 28.3476 26.2988 29.6127 25.7813 27.0779C27.2632 25.473 26.5613 27.3108 25.9229 29.2996C25.269 31.3055 24.7308 33.3929 25.3097 33.1914C25.9045 33.2437 27.3674 24.2681 33.3943 16.5844C38.2463 10.7659 41.2934 9.36189 41.0777 8.78013C41.2346 8.84538 41.662 8.7802 42.4613 8.55704C44.2527 7.86003 50.706 5.2939 51.7583 4.91656C51.9361 4.82184 51.5468 3.6541 51.7861 3.58012C52.4453 3.22158 60.5247 2.83016 63.3634 2.28528C61.7853 2.12677 60.1782 2.04359 58.543 2.04515C68.2327 1.42375 66.7184 1.55489 63.5032 1.02444C63.3412 1.02205 63.1831 0.977085 63.0285 0.9744C60.5058 0.70927 57.1324 0.860823 57.0701 0.783949C56.9387 0.60429 61.2024 -0.106148 64.9616 0.0680885C68.7402 0.189877 71.927 0.979034 70.3086 1.31667C69.9103 1.29453 62.3505 0.446161 66.0722 1.41563C66.7273 1.52791 71.4925 1.80325 71.7077 1.98001C73.2555 2.6416 62.9625 2.53977 64.2207 3.60012C66.7096 2.80517 69.8607 3.50533 72.5912 3.79447C72.9345 3.82964 73.216 3.81734 73.4478 3.78023C73.7562 3.62182 73.9154 3.31883 73.9711 3.32092C75.1767 3.38451 74.4023 3.89535 74.8165 3.95627C74.952 3.96772 78.188 3.17684 77.2844 4.93606C82.873 5.33419 84.4362 5.57728 82.6392 4.89364C80.9721 4.26088 76.7781 3.45706 74.4508 3.09846C75.9278 2.66853 80.0997 3.76939 82.4144 4.22038C83.2177 4.36819 82.9037 3.62489 84.3056 3.87938C87.3843 3.93226 100.815 11.1919 102.985 13.5384C101.103 12.5096 101.239 13.4329 102.598 14.3237C103.944 15.2269 103.38 13.693 103.694 13.7956C104.12 13.8725 109.591 18.804 110.389 19.4729C106.165 16.2571 106.698 17.5854 109.947 20.5436C109.341 20.2626 108.742 19.9968 108.14 19.7365C110.334 21.2189 113.28 25.5787 114.401 26.3295C114.586 26.4496 114.464 25.4923 114.568 25.5595C115.619 26.2617 117.932 29.6586 118.166 29.644C118.4 29.6574 117.611 28.0586 118.217 28.3743C118.361 28.4582 118.846 30.1597 120.054 31.2704C120.486 31.6632 120.672 31.0434 120.792 31.1337C121.789 31.8995 120.623 31.9336 122.188 33.5789C123.288 34.7386 124.79 35.1595 125.917 37.0777C122.209 30.6063 125.75 35.7334 127.881 37.9537C128.214 38.303 128.73 37.3755 130.073 39.8738C130.105 39.9294 130.139 39.9863 130.172 40.0444C130.122 39.999 130.072 39.9545 130.023 39.9109C126.965 37.6281 127.814 38.914 129.151 40.5635C130.311 42.0131 131.707 43.9118 132.203 44.7452C132.268 44.8667 131.745 45.2412 132.358 46.3041C132.41 46.3968 132.721 46.033 133.324 47.0406C136.132 51.9558 136.287 53.2333 136.148 53.1047C135.972 53.0277 135.261 51.8963 135.475 53.0088C135.726 53.8991 138.044 59.2334 138.28 60.7803C138.349 61.1264 137.882 61.0589 138.139 62.3858C138.581 64.7225 139.245 66.7438 139.365 68.2435C139.364 68.4081 138.699 68.4946 138.957 71.2051C139.022 71.9584 139.26 72.819 139.485 71.7409C140.32 68.1874 138.321 60.7704 137.449 56.1846C137.076 54.0763 138.036 56.1679 138.822 58.9893C139.631 61.8078 140.039 65.2173 140.064 65.534C140.096 65.775 139.457 63.3354 139.666 65.8594C139.846 67.9871 141.21 71.8006 140.743 74.6687C140.719 74.911 139.48 77.0501 139.421 76.9301C139.407 76.8482 139.405 73.403 139.057 73.8843C139.028 73.9467 138.892 76.1188 138.631 76.3633C138.324 76.6964 135.521 77.283 135.404 77.6867C135.109 78.7313 135.811 78.1133 135.68 78.7965C135.51 79.7133 134.828 81.8993 134.497 83.4156C134.334 84.1701 134.32 84.7657 134.662 84.8862C134.797 84.4333 134.931 83.982 135.064 83.5292C135.121 83.321 135.177 83.1129 135.232 82.9048C135.193 83.133 135.157 83.3449 135.125 83.5415C134.667 86.4092 135.293 85.1738 135.363 85.6779C135.438 86.2556 134.658 85.9321 134.327 87.1102C134.275 87.3481 133.281 92.4749 133.62 92.4864C133.762 89.5053 134.502 90.8021 134.555 90.6725C134.736 90.1857 134.316 89.4321 134.474 88.7744C135.559 84.1941 135.447 89.0205 135.91 87.9859C136.069 87.6255 135.746 86.7805 135.804 86.6271C135.992 86.13 136.624 86.2556 136.644 85.9028C136.69 85.0815 135.605 85.8267 135.571 85.7533C135.333 85.2695 135.659 84.1826 136.096 83.736C136.373 83.3849 136.682 83.3179 136.905 83.8982C136.952 83.988 136.997 84.0964 137.039 84.2254C137.096 84.1275 137.135 84.0358 137.16 83.9493C137.423 82.9546 136.547 82.5829 137.142 81.6881C138.439 79.6891 137.669 82.8979 137.644 83.7595C137.642 83.8568 137.64 83.9519 137.637 84.045C137.672 86.3585 137.108 87.0259 136.499 90.4345C136.269 91.7053 136.471 93.3597 136.35 93.9754C136.289 94.358 133.366 97.4416 136.388 98.4313C135.685 99.8137 132.974 101.52 132.539 103.102C132.147 104.53 133.356 104.466 133.354 104.61C133.353 104.835 132.634 106.562 132.538 107.239C132.431 108.03 132.986 107.809 132.673 109.051C131.839 112.171 130.737 111.674 130.545 111.936C127.985 115.217 130.192 114.374 129.886 115.271C129.688 115.833 125.91 122.373 120.644 127.228C119.077 128.709 117.837 129.722 117.242 130.314C118.152 129.324 119.04 128.282 119.932 127.142C117.609 128.33 116.385 130.659 115.585 129.65C116.433 131.673 111.811 133.051 110.741 133.636C110.307 133.901 110.51 134.195 109.952 134.509C107.784 135.807 102.748 137.51 101.629 138.014C96.6409 140.576 110.461 137.049 111.684 135.96C109.536 137.549 97.486 142.17 103.435 141.183C104.379 141.024 105.603 139.556 106.074 139.32C109.295 137.694 107.022 139.57 107.306 139.536C107.814 139.472 109.671 137.727 110.291 137.507C110.503 137.418 109.572 138.807 112.814 137.076C111.548 138.882 102.207 142.041 101.11 142.345C100.725 142.454 103.746 143.488 95.6555 143.84C95.7742 143.964 95.8934 144.087 96.0131 144.21C91.7178 145.182 87.4763 145.7 83.2945 145.854C83.7529 145.511 86.044 144.761 83.124 144.993C81.4572 145.1 82.6985 145.828 82.5485 145.852C81.749 146.003 73.8092 145.978 66.4446 144.343C61.6935 143.365 56.352 141.969 54.4295 141.438C53.1083 141.116 48.9005 140.385 48.5488 140.25C46.7437 139.798 39.4749 136.253 37.6544 135.186C36.6015 134.659 37.2789 135.758 36.3562 135.197C35.4952 134.663 36.7047 134.672 36.4581 134.499C35.3804 133.632 27.7525 129.921 21.4981 121.452C19.0126 118.059 17.8441 115.857 17.3586 114.593C17.8424 115.61 19.5387 118.075 22.0966 121.018C25.4146 125.037 28.5997 127.184 28.5855 126.937C28.5646 126.899 25.8659 123.548 25.1127 122.913C24.8734 122.312 24.0012 121.465 22.9658 120.389C21.8451 119.384 20.4889 118.227 20.1301 117.298C20.0866 117.148 21.1166 117.179 19.8485 114.739C19.4034 113.882 17.6042 112.108 17.302 109.798C15.1538 106.999 10.4191 91.9765 9.35525 91.1738C9.29439 91.161 9.70196 93.377 8.84382 92.0772C7.70972 90.3297 9.94287 91.4952 9.364 89.2172C9.24866 88.9084 7.24741 82.6479 7.12087 82.4373C5.64423 80.7306 6.7708 86.4767 6.66275 86.4137C6.31264 86.3221 4.86873 81.6547 4.90555 81.4278C4.92914 81.2344 7.16731 84.7727 5.52528 80.2468C5.50237 80.8199 5.483 81.3922 5.46699 81.9634C4.62026 79.841 5.46436 79.4083 5.39255 78.8632C5.1874 77.1676 3.4352 75.5798 4.6234 72.4863C4.94193 71.6728 5.64333 72.8121 5.69465 72.7063C6.1399 71.7324 4.35077 70.8534 5.35595 69.3257C5.44201 69.2057 6.55939 72.2606 5.8477 66.749C5.7767 67.1446 5.70809 67.5403 5.64178 67.9362C5.24366 67.2345 4.57191 61.4384 4.64628 60.5625C4.73919 58.1674 5.62928 60.2445 5.48246 57.8238C4.30023 59.475 4.28396 51.76 5.32747 52.2234C4.09442 51.092 5.84361 44.0886 7.00131 40.4125C7.54133 38.1806 8.94505 33.0783 9.43894 32.3078C9.95405 31.3973 10.5494 32.0531 11.5805 30.4637C11.8226 30.0657 14.1109 24.5369 18.5129 21.1927C19.3515 20.5221 21.8527 20.0844 20.7918 21.6352C18.9307 24.2113 14.7609 28.2856 15.5592 28.7068C16.218 29.0718 20.3916 22.6199 22.2167 21.3388C23.5365 20.2177 24.5818 19.5137 25.3453 19.0621C28.4978 17.3626 26.2926 19.8751 26.5929 19.9552C27.4747 20.0988 30.9641 17.7395 31.1432 17.7575C31.8866 17.6233 29.7229 19.6332 29.9362 20.0357C30.2308 20.4684 33.9619 19.3723 33.3215 19.9902C32.4422 20.7637 29.0599 22.0648 28.8803 22.2925C28.6344 22.5563 28.4754 22.7728 28.3868 22.9452C28.1177 23.4265 28.3695 23.5638 28.8518 23.5389C29.7332 23.5222 31.3738 23.0734 32.0787 23.0567C32.4466 23.0426 31.5939 24.0138 31.8427 23.9143C35.583 22.4925 31.5386 21.8916 33.8889 20.6728C35.9862 19.6706 33.8151 21.8722 33.9285 21.8773C34.051 21.841 36.4424 20.5693 36.9481 20.6773C37.1269 20.6178 32.0259 25.607 32.7834 26.1462C34.4898 24.7238 36.2398 23.5107 38.0398 22.4327C38.6113 23.2051 35.6445 23.9794 35.4168 24.2646C34.976 24.7567 36.7404 24.2887 36.8206 24.604C36.8687 24.7922 35.5108 26.3911 37.1971 25.7414C37.7653 25.5372 38.5852 24.2808 40.859 24.0253C34.4965 28.1759 39.4693 26.2881 39.7639 26.5048C40.0865 26.7236 37.4585 28.976 41.0481 26.9968C42.0142 28.6272 41.2212 27.5602 40.352 28.3756C39.3261 29.417 42.3847 28.3181 37.7994 30.4893C38.5109 31.0092 41.9217 29.0717 42.1622 29.095C42.3485 29.076 41.7575 29.841 42.0992 29.8396C46.0475 29.9136 43.497 30.2181 44.8494 30.814C44.9698 30.8416 48.0858 30.1333 45.8799 31.1134C41.9726 32.9655 39.7837 33.1065 40.6594 35.6902C43.726 34.9832 46.4117 32.0981 47.372 31.7593C48.7386 31.2607 47.4799 32.2507 47.7029 32.3391C47.7744 32.3606 48.9317 31.9485 48.9611 31.9909C50.353 33.6107 43.8592 33.7415 42.3205 35.2446C42.9275 35.2456 43.5275 35.2677 44.121 35.3081C43.5092 35.6331 42.9116 35.9786 42.333 36.3443C45.4848 35.2617 42.4706 36.4865 42.7641 38.2953C42.8297 38.6912 44.1145 37.1217 42.8226 39.1737C44.2974 38.5052 44.0126 39.0752 45.0832 37.9563C45.2963 38.4665 43.4922 40.1971 42.7656 41.3029C42.6542 41.4696 42.5605 41.6199 42.4876 41.7452C42.6466 41.6594 42.7915 41.5799 42.9238 41.5048C45.7601 40.0306 43.0488 39.1787 46.8488 38.5874C47.1684 37.5329 45.5281 38.4845 45.6107 38.3058C45.9063 37.6111 47.3348 37.759 48.2945 35.6078C48.4662 35.2536 47.0495 34.8283 48.7306 34.2974C48.9232 34.2346 50.1925 34.626 50.1859 34.688C50.2007 35.276 49.1276 35.3777 49.1601 35.625C49.1911 35.8485 50.2699 35.3762 50.2927 35.4415C50.5216 36.1224 49.4444 35.9808 49.6487 36.1568C50.1539 36.5089 54.2368 36.9421 49.2738 37.9571C53.1083 35.9338 49.5208 36.9412 48.0544 37.8999C47.6854 38.1347 47.75 38.5722 47.269 38.9509C46.6532 39.4383 45.7832 39.6613 45.4852 39.9204C45.1993 40.1965 47.6016 39.952 44.6901 41.3326C46.4882 41.3154 48.7875 39.0784 50.6374 39.2818C54.1045 39.7615 49.046 41.568 48.6915 42.0376C48.5776 42.1297 49.2502 42.4674 49.1767 42.5394C49.0275 42.613 46.4159 43.6903 46.5409 44.2484C46.5883 44.7844 47.3179 43.7351 47.654 44.1333C47.7578 44.2666 47.2135 44.8506 46.9423 45.307C46.6697 45.7629 46.5811 46.0856 47.1956 45.7926C47.978 45.3932 49.4363 43.1739 50.3639 44.3977C48.9868 45.0839 47.7128 45.955 46.9755 46.6776C46.9238 46.7338 46.8751 46.79 46.8287 46.8464C46.9511 46.8779 47.0716 46.9134 47.1906 46.9522C47.8494 47.0093 48.5829 47.063 49.3395 47.1519C48.8198 47.5319 48.3438 47.7796 48.0034 47.9899C47.7451 48.1125 47.5331 48.3009 47.7172 48.8402C48.2668 48.8466 48.5176 49.0595 48.6866 49.1961C48.85 49.3438 48.9169 49.4584 48.9423 49.5517C49.0044 49.7111 48.7867 49.9982 48.8709 50.0789C48.9258 50.1126 49.3354 50.1865 49.7135 50.3592C50.0966 50.5235 50.4338 50.7903 50.5323 50.8779C50.7818 51.0112 50.9116 51.1631 51.132 51.5645C51.3524 51.9838 51.8247 52.2013 52.7522 52.268C52.3513 52.1719 53.1776 52.8458 53.2554 52.8589C53.641 52.9402 53.7673 52.7689 53.844 52.7416C53.9246 52.7017 53.9482 52.7752 54.277 52.9111C55.0512 53.2067 54.0144 52.7627 54.0371 52.9806C54.1074 53.5477 55.1554 54.2855 56.1106 54.7402C57.0674 55.2724 57.8643 55.5843 57.5298 57.0775C57.6761 57.0157 57.8227 56.9559 57.9695 56.898C57.6957 60.1624 58.2773 65.337 59.5352 70.526C61.2736 72.2057 63.84 77.2856 64.8117 79.8111C64.9949 80.3446 65.472 82.9925 65.4609 83.2111C65.4133 83.6355 64.4924 81.8637 64.4966 82.8571C64.4998 83.1491 66.1462 86.9756 66.6073 86.2855C66.4867 85.9122 65.5252 84.8322 65.5564 84.5149C65.6331 83.945 66.0778 84.4923 66.6378 85.3823C67.1717 86.2509 68.0611 87.7194 68.0595 87.7194C66.8018 86.0372 65.8133 85.3979 65.5346 85.1866C65.2214 84.9708 65.3692 85.0348 65.4256 84.9368C65.5072 84.7213 65.6186 84.5211 65.7632 84.3417C65.6293 84.393 65.705 84.5715 65.9386 84.8024ZM2.99974 66.4273C2.18169 65.4977 2.48277 62.8979 2.21189 61.3243C1.79664 59.2385 -0.889212 55.2517 1.82693 56.9564C2.04085 60.3185 2.45875 63.4315 2.99974 66.4273ZM13.0349 105.481C12.6161 103.621 14.5924 104.335 14.6439 105.949C14.6479 106.123 13.618 107.972 13.0349 105.481ZM7.05589 87.4711C7.09558 87.5409 7.51646 89.0478 7.51156 89.1047C7.34252 90.6325 6.07466 86.0678 7.05589 87.4711ZM91.4207 143.846C88.7772 144.259 90.8607 145.404 92.479 144.576C92.5767 144.525 91.594 143.82 91.4207 143.846ZM89.529 144.052C87.3818 143.08 83.4323 145.78 86.7092 145.335C87.0291 145.301 89.6332 144.113 89.529 144.052ZM11.0478 99.2673C11.5646 99.2897 12.0432 101.079 12.2546 101.863C11.8364 101.993 11.3865 99.9863 11.0478 99.2673ZM54.9465 140.961C55.1943 140.696 48.4136 138.594 47.6379 138.757C48.9417 139.078 54.835 141.317 54.9465 140.961ZM71.8264 144.099C71.6201 144.019 68.8679 143.684 68.8869 144.01C70.1587 144.682 72.7111 144.513 71.8264 144.099ZM115.874 135.175C116.004 134.929 112.529 134.957 118.767 132.149C119.706 131.7 117.128 134.307 117.455 134.137C118.149 133.829 118.676 133.523 119.067 133.243C116.566 135.371 113.921 136.975 113.596 137.015C112.083 137.209 115.818 135.299 115.874 135.175ZM133.045 112.324C132.962 111.721 134.282 109.073 134.627 108.534C134.691 108.44 135.355 109.222 135.754 107.995C136.056 107.03 134.677 108.112 135.484 106.339C136.269 104.574 136.023 107.22 136.115 107.09C136.274 106.87 136.844 103.948 137.311 104.209C137.682 104.385 136.384 107.32 136.146 108.138C135.861 109.18 136.957 108.193 136.156 109.836C135.635 110.887 134.805 109.844 134.658 110.049C134.585 110.18 133.443 114.346 133.051 112.32C133.049 112.321 133.047 112.323 133.045 112.324ZM119.747 132.653C119.575 132.838 119.353 133.037 119.067 133.243C119.296 133.05 119.524 132.85 119.747 132.653ZM4.28403 72.0151C4.09525 73.071 3.1518 70.1877 3.47108 68.9566C3.83515 68.9026 4.30303 71.854 4.28403 72.0151ZM121.556 129.899C121.913 129.612 122.217 129.366 122.473 129.161C124.149 127.762 123.963 128.216 122.84 129.549C122.124 130.398 120.971 131.574 119.747 132.653C120.701 131.61 120.204 130.964 121.556 129.899ZM25.1127 122.913C25.213 123.164 25.2181 123.375 25.0645 123.536C24.804 122.864 24.869 122.733 25.1127 122.913ZM34.2401 131.514C37.7182 133.03 31.4042 128.799 31.0934 129.004C31.0014 129.211 34.1238 131.512 34.2401 131.514ZM94.8543 143.33C94.5885 143.302 98.3296 140.531 92.5973 143.151C95.8706 142.825 92.4923 143.647 92.5729 143.805C92.7869 144.343 98.1909 142.755 99.4718 142.561C100.183 141.439 95.8043 143.414 94.8613 143.328C94.859 143.329 94.8566 143.329 94.8543 143.33ZM142.206 81.6799C142.549 82.2752 142.281 83.7042 141.991 84.9175C141.934 85.1466 141.877 85.3682 141.83 85.571C141.701 85.3976 141.653 85.1453 141.654 84.85C141.704 83.935 142.028 82.6679 142.206 81.6799ZM36.4441 50.7888C37.382 46.8033 39.3223 41.9699 43.0901 37.5511C46.7859 33.0889 51.8551 30.4887 53.3135 30.0297C53.7183 29.9334 53.7571 30.0133 53.4266 30.2603C50.9704 31.0053 40.7468 39.8937 38.4944 47.1255C38.4113 47.305 37.7674 48.6144 37.293 49.5966C36.8127 50.5733 36.4221 51.3183 36.4441 50.7888ZM99.981 101.505C98.4851 102.119 100.672 98.3063 101.958 96.4133C102.27 95.9797 103.967 94.6132 103.191 96.7235C102.192 96.1559 100.259 99.0999 99.981 101.505ZM123.353 127.319C124.082 125.73 127.234 122.581 128.419 120.899C128.212 122.231 125.188 125.805 123.353 127.319ZM93.7259 36.0751C94.9872 37.0189 96.436 37.1141 96.2389 36.8705C95.3252 35.7377 92.493 34.685 93.7259 36.0751ZM112.378 135.598C112.055 135.405 116.192 132.389 117.055 132.845C116.065 133.53 112.607 135.782 112.378 135.598ZM141.466 84.2321C141.17 84.7752 141.389 81.7156 141.708 80.7535C142.109 80.9061 141.673 83.901 141.466 84.2321ZM110.551 63.2187C110.814 65.1361 110.575 70.7752 110.696 71.582C110.843 72.0379 111.226 69.9707 111.215 67.865C111.229 65.742 110.861 63.6413 110.551 63.2187ZM94.9592 50.8088C94.9337 50.3383 101.654 56.5605 102.954 61.9794C104.155 66.929 102.941 62.5696 100.695 58.5364C98.495 54.4437 95.0554 50.9672 94.9592 50.8088ZM83.1173 31.0239C80.9878 29.3253 83.3743 31.0956 83.608 30.2983C82.4017 29.7793 80.4652 29.0253 80.084 29.1377C79.7446 29.0696 79.6872 29.1216 80.0104 29.3334C80.0725 29.4564 80.2433 29.6417 80.5861 29.9187C80.9667 30.2307 82.3339 30.6454 83.1173 31.0239ZM85.4645 32.3255C85.8522 32.1949 88.3802 32.4488 86.4923 31.63C85.6224 31.2609 83.9827 31.5812 85.4645 32.3255ZM54.8855 58.1741C58.432 52.3867 51.4696 64.3422 52.2472 71.5324C52.2561 74.998 52.5649 77.9061 53.7459 81.7785C54.4274 83.7668 55.1103 85.9949 57.7209 89.6786C59.0739 91.4968 61.074 93.869 64.6374 96.1595C68.1022 98.4879 73.4712 100.009 76.9983 100.072C79.157 100.167 80.56 99.9909 81.1976 99.9234C91.0378 98.2685 92.9281 95.2072 94.5006 94.3336C105.251 83.4799 103.013 76.9977 104.327 75.9296C104.169 77.1456 103.905 79.311 102.985 82.151C102.52 83.5731 101.861 85.221 100.895 86.9705C99.9763 88.6833 98.5181 90.6121 97.9031 91.2907C96.8792 92.4736 95.7116 93.5679 94.8015 94.3046C93.1616 95.1683 90.3913 100.251 76.9762 100.567C69.1055 100.256 63.3341 96.3266 60.6492 93.8293C57.8221 91.2075 56.6048 89.2489 55.6386 87.6778C53.8336 84.5643 53.2609 82.6626 52.7236 80.8758C51.7646 77.4031 51.5032 74.6441 51.5469 71.5289C51.3609 66.4803 54.2281 58.9308 54.8855 58.1741ZM111.038 72.4961C110.641 66.0397 111.035 61.5766 111.487 62.9986C112.273 66.3016 112.245 67.529 112.265 68.3328C112.254 69.0704 112.145 69.1782 112.02 69.0268C111.776 68.7385 111.372 67.2762 111.341 67.4165C111.314 67.7884 111.488 69.5829 111.461 70.8609C111.447 72.1439 111.313 73.0554 111.041 72.4763C111.04 72.4829 111.039 72.4895 111.038 72.4961ZM68.4467 45.093C68.2595 45.2033 65.8776 46.3068 63.4241 48.1892C60.9545 50.0131 58.7753 52.5979 58.6229 52.7847C55.8277 56.2105 57.7479 52.6148 61.4954 49.2013C65.3061 45.7096 69.8452 44.0466 69.9709 44.1737C69.9762 44.1775 69.9784 44.1826 69.9773 44.1892C69.9513 44.2657 69.5183 44.496 68.4467 45.093ZM136.654 98.3257C137.218 96.9672 137.499 98.5266 136.991 99.4073C136.944 99.4812 136.149 99.5235 136.654 98.3257ZM86.9742 32.8234C87.1528 32.996 89.9467 34.41 93.2623 36.6668C96.5492 38.8001 100.104 42.2888 100.026 41.4941C99.395 40.7952 94.902 36.6277 91.5497 34.7474C88.1622 32.7173 85.8579 31.8732 86.9742 32.8234ZM67.5164 118.621C69.5937 118.456 67.4581 119.626 66.1722 119.32C65.7137 119.209 66.9946 118.663 67.5164 118.621ZM106.142 137.683C104.222 139.039 104.015 137.206 106.049 137.026C106.13 137.018 106.218 137.628 106.142 137.683ZM91.165 110.617C85.7859 115.381 81.9897 115.729 83.2995 114.64C84.3112 113.567 89.8789 110.192 94.8195 104.873C94.6413 105.302 94.4443 105.743 94.2295 106.189C103.608 94.0698 96.171 105.188 92.2382 108.794C90.9304 110.079 92.4376 109.421 91.1776 110.611C91.1734 110.613 91.1692 110.615 91.165 110.617ZM51.33 116.762C47.7106 114.886 46.6442 113.691 47.5097 114C48.3335 114.242 50.9861 115.47 53.7792 116.226C59.5718 117.842 64.6287 117.811 66.537 117.581C62.819 118.752 55.6329 118.107 64.4062 119.344C58.5282 119.514 55.0134 118.339 54.7673 118.106C54.3547 117.809 56.0676 117.939 55.719 117.825C54.9741 117.629 51.9828 117.124 51.33 116.762ZM73.9012 117.775C73.9748 117.747 74.1788 117.731 74.4493 117.718C76.6859 117.513 80.7709 116.501 82.3833 115.68C81.0321 116.714 77.2408 118.002 74.5417 118.278C73.5577 118.324 72.9008 118.153 73.9012 117.775ZM96.9479 100.58C96.9274 99.8719 97.7011 98.7569 99.7816 96.526C99.9398 96.3578 100.111 96.1797 100.297 95.9903C100.219 96.1893 100.104 96.4258 99.9649 96.6848C99.3022 97.7838 98.0874 99.3334 96.9479 100.58ZM5.86729 64.236C5.77844 62.9079 5.85909 60.1376 5.29094 61.0131C5.22994 61.1269 5.51202 64.2743 5.86729 64.236ZM107.339 78.8087C107.281 78.8718 106.897 80.0001 106.627 81.0926C106.36 82.1744 106.224 83.1285 106.816 82.2918C107.211 81.6374 108.387 77.5867 107.339 78.8087ZM72.9276 28.4836C74.0694 28.6164 77.5052 29.3088 79.716 30.1167C80.0248 30.1928 80.2825 30.2426 80.3115 30.2025C80.4174 30.0638 80.1791 29.8922 79.8504 29.7591C77.4188 28.755 73.4548 28.2207 72.9276 28.4836ZM6.13769 57.2327C6.16338 57.0724 6.19669 52.5834 5.91578 53.0444C5.29553 54.0179 5.91706 57.8975 6.13769 57.2327ZM136.622 93.0052C136.669 92.7211 137.373 92.4977 137.403 92.4019C137.487 92.1566 138.358 87.0994 138.73 89.1845C138.838 89.4854 136.766 96.8132 136.342 97.8595C135.406 98.0097 137.077 94.9614 137.168 94.176C137.185 94.0361 136.504 93.7676 136.625 93.0084C136.624 93.0073 136.623 93.0063 136.622 93.0052ZM106.478 86.99C106.332 86.6678 107.414 84.0791 108.331 81.2029C109.281 78.3982 110.013 74.901 110.322 74.9938C109.476 79.9953 108.108 83.5482 106.478 86.99ZM103.622 91.6939C102.039 93.3658 104.878 88.8907 105.714 87.5072C106.087 87.6942 103.891 91.4839 103.622 91.6939ZM90.4442 37.5095C91.4451 37.9545 89.0115 35.5576 89.724 35.804C90.1648 35.9251 92.1309 37.4902 92.9986 37.8103C93.2465 37.8654 91.3967 35.7307 90.7617 35.4208C89.8574 34.9436 90.4043 35.9472 89.4622 35.4157C86.3818 33.7173 84.1914 32.358 82.0656 31.518C81.875 31.4444 83.1959 32.422 81.5801 31.7757C81.3978 31.7034 80.5751 30.9792 79.582 30.4732C78.4474 30.0076 77.1812 29.5918 75.8249 29.2857C67.8708 28.6944 61.8978 29.1133 54.4339 32.3158C43.141 38.2474 40.9864 45.9807 39.6997 50.446C39.8761 50.2377 40.5714 48.1698 42.1808 45.2329C43.5907 42.3983 47.1415 38.3686 47.6988 37.9642C49.3673 36.3332 51.6746 34.4808 54.7659 32.9931C61.8479 29.654 70.6237 28.9026 78.9807 32.0727C81.223 32.9476 84.4366 34.2112 87.1626 35.6216C88.733 36.4429 88.1673 35.6854 88.8722 36.0511C89.4469 36.3692 88.3716 36.5976 90.4442 37.5095ZM6.35208 64.9064C7.04347 64.2018 6.38164 62.0354 6.36087 60.5388C5.69159 61.1012 6.37768 63.5184 6.35208 64.9064ZM43.7789 91.1391C42.53 89.6652 40.2347 84.3459 39.982 84.0067C39.2487 83.5356 42.8885 91.2431 43.7789 91.1391ZM137.418 54.6C137.38 54.5074 136.568 52.2364 136.543 52.1511C136.342 49.8883 138.779 56.7801 137.418 54.6ZM113.692 21.4827C112.721 20.6736 111.665 20.0241 111.761 19.2764C112.288 19.8753 114.097 21.2703 113.692 21.4827ZM56.2503 1.09704C56.7542 1.77759 51.2595 2.30965 50.1687 2.64479C50.4474 2.10085 55.9028 0.480289 56.2503 1.09704ZM94.7339 99.1371C97.7955 96.4858 97.4127 95.7875 97.9605 94.9482C98.1088 94.6474 98.3559 94.3567 98.9151 93.9495C99.1664 93.7618 101.513 94.3377 99.4314 96.2227C99.1803 96.46 98.8811 96.7141 98.5117 96.9961C98.1156 97.2965 98.4582 96.642 98.3052 96.4976C98.0795 96.3724 97.8108 96.6287 94.7339 99.1371ZM96.221 103.119C96.4686 101.923 98.2492 99.487 99.1084 97.9508C99.3249 98.4504 97.2366 101.765 96.221 103.119ZM7.20538 49.0463C7.99498 47.9191 8.74696 41.4674 7.95075 42.9145C7.76772 43.1744 7.26678 48.2621 7.20538 49.0463ZM127.305 118.304C128.305 115.564 125.111 120.449 124.047 122.544C124.716 121.736 127.293 118.468 127.305 118.304ZM74.0366 1.99483C74.0209 1.99795 73.9287 1.9813 73.8044 1.95465C72.9418 1.77079 71.2884 1.4749 71.1908 1.44347C69.7692 0.863497 72.3658 1.11071 73.8856 1.53888C74.2937 1.68965 74.55 1.88781 74.0366 1.99483ZM121.206 30.9473C120.415 30.7472 117.591 26.9806 117.206 25.8878C118.462 26.1209 122.292 31.2413 121.206 30.9473ZM69.7069 105.328C71.1087 105.548 72.6284 105.842 72.5455 105.977C74.1799 106.292 75.8933 106.462 77.5869 106.47C77.1473 106.589 75.0885 106.701 72.4968 106.268C72.6859 106.309 69.7324 105.573 69.7069 105.328ZM63.5032 1.02444C63.3412 1.02205 63.1831 0.977085 63.0285 0.9744C63.19 0.989447 63.3484 1.00779 63.5032 1.02444ZM38.8752 60.1911C39.1822 58.5206 38.4157 58.7624 38.3765 58.8799C37.9938 60.1986 38.5604 62.0417 38.8752 60.1911ZM7.32688 63.1809C7.96224 62.6532 7.28036 60.2491 7.41871 58.8102C6.87841 59.2343 7.15676 62.1046 7.32688 63.1809ZM40.2185 108.277C39.8173 107.39 41.1934 108.095 42.6248 109.013C47.6928 113.152 53.1091 114.491 54.5657 115.106C54.8271 115.363 48.3479 114.762 42.0728 109.648C41.0994 109.006 40.2605 108.368 40.2185 108.277ZM120.217 125.568C120.09 125.521 119.821 125.703 119.482 126C118.431 126.947 116.708 128.884 117.416 128.557C117.82 128.38 119.133 127.194 119.802 126.339C120.141 125.921 120.323 125.61 120.217 125.568ZM61.5127 116.448C62.6632 116.361 64.923 116.857 64.1252 117.186C63.0995 117.62 61.2208 116.485 61.5127 116.448ZM103.674 52.524C104.067 53.0055 107.011 60.4997 106.545 57.1577C106.199 54.7821 105.283 54.7215 105.091 54.216C105.029 54.0619 104.695 53.0388 104.19 51.8526C102.552 48.2922 99.9872 43.9189 103.557 52.1631C103.596 52.2805 103.635 52.4008 103.674 52.524ZM20.7966 64.7852C20.9202 65.5344 20.8526 66.3422 20.7901 67.1723C20.7517 67.981 20.7354 68.7669 20.7666 69.531C20.6292 69.185 20.5108 68.2615 20.4872 67.1679C20.4354 66.21 20.5202 65.092 20.7966 64.7852ZM129.408 112.078C129.228 112.216 127.834 114.879 126.569 116.958C125.295 119.033 124.559 120.377 126.935 117.299C127.356 116.879 130.632 111.158 129.408 112.078ZM94.7339 99.1371C94.1353 99.631 93.3839 100.199 92.3518 100.846C93.3586 100.178 94.1175 99.6182 94.7339 99.1371ZM43.5477 88.3322C44.4875 89.3612 41.3462 83.1945 40.821 81.3987C40.5098 81.1741 40.9044 82.8938 41.6453 84.6731C42.3733 86.4803 43.4756 88.2711 43.5477 88.3322ZM21.3143 69.6789C21.5723 70.9185 21.5287 73.2312 21.7983 74.7897C21.3535 74.5928 20.914 70.2246 21.3143 69.6789ZM46.6669 5.5993C44.0688 6.34417 40.8286 8.30565 41.0131 8.73768C40.922 8.71175 40.7539 8.72653 40.4993 8.79642C40.2583 8.82532 37.4608 10.9194 35.9913 12.0511C31.5358 15.4726 39.6402 7.64032 44.8338 5.99106C47.5214 4.86111 49.72 4.3689 50.0806 4.45882C50.4297 4.62369 48.9981 5.00631 44.189 7.57678C45.0108 6.87678 45.8268 6.22404 46.6669 5.5993ZM124.288 36.3149C124.387 37.2955 126.402 38.7896 126.185 38.166C126.026 37.7143 124.184 35.3113 124.288 36.3149ZM96.7177 11.4198C96.9893 11.66 99.8528 12.965 100.053 12.7782C98.746 11.5503 95.53 10.2422 96.7177 11.4198ZM127.81 41.9191C128.176 42.5447 129.435 42.8299 129.416 42.7386C129.295 42.1998 128.496 41.4594 128.056 41.3832C127.912 41.3795 127.802 41.4421 127.767 41.5993C127.761 41.6804 127.774 41.7858 127.81 41.9191ZM77.4961 103.45C76.4526 103.413 74.832 103.36 73.0312 103.085C73.0167 103.174 70.7415 103.315 70.1752 103.65C70.0655 103.519 69.7232 103.317 69.0632 103.017C69.0653 103.017 69.0674 103.018 69.0696 103.018C68.8146 102.75 60.7261 101.739 53.2348 96.2491C49.6578 93.672 47.2775 90.5519 47.1974 90.6703C47.0657 90.505 49.2632 94.7968 56.2131 99.1454C57.038 99.6122 56.1944 98.7057 59.4784 100.351C59.6914 100.451 59.6357 100.89 60.2917 101.183C61.9937 102.122 69.0164 104.143 70.0012 103.844C69.9977 103.922 70.0605 104.008 70.2026 104.101C70.9261 104.585 72.9064 104.392 72.8945 103.899C76.5658 104.14 78.8961 103.432 77.4961 103.45ZM90.9113 8.62201C91.4715 9.01918 93.4239 9.77098 93.7687 9.53745C92.9288 8.88862 89.6254 7.6773 90.9113 8.62201ZM127.885 111.734C127.095 112.74 125.83 116.123 126.621 115.338C127.199 114.805 128.882 110.516 127.885 111.734ZM107.451 18.8251C102.581 14.3096 106.212 17.8541 105.087 17.6411C105.893 18.0325 106.68 18.4272 107.451 18.8251ZM85.6699 44.9683C89.3281 45.399 84.4926 45.9438 82.1898 45.6211C81.3904 45.4999 83.7011 44.7836 85.6699 44.9683ZM70.3167 42.6611C70.4449 42.8849 70.386 43.004 70.2251 43.0496C69.8994 42.9352 68.8689 42.8187 68.5349 42.7317C68.0166 42.7924 60.9725 42.227 64.6787 41.7439C64.7765 41.7326 65.9345 41.8188 66.8919 41.9775C67.8719 42.1333 68.538 42.3099 68.5924 42.3359C68.9329 42.4245 69.9833 42.5433 70.3153 42.6599C70.3158 42.6603 70.3163 42.6607 70.3167 42.6611ZM56.2622 71.5877C56.2583 71.5759 56.2543 71.5641 56.2504 71.5523C55.8838 69.5416 54.7696 68.6836 58.0391 60.5863C55.7307 66.6682 56.6012 66.5007 56.5511 66.7918C56.7269 66.9067 56.4616 67.5316 56.2632 71.5523C56.2629 71.5641 56.2625 71.5759 56.2622 71.5877ZM41.0777 8.78013C41.0471 8.76792 41.0226 8.76002 41.0131 8.73768C41.0444 8.74664 41.0644 8.76102 41.0777 8.78013ZM131.987 48.106C132.031 49.2694 133.348 51.975 133.464 50.9319C133.488 50.8193 132.564 48.2755 131.987 48.106ZM70.1752 103.65C70.274 103.766 70.2071 103.82 70.0012 103.844C70.0043 103.77 70.0673 103.711 70.1752 103.65ZM124.426 37.9541C124.794 37.7517 123.104 35.3755 122.974 35.3002C121.349 34.4253 123.689 37.0397 124.426 37.9541ZM105.377 132.869C105.182 133.004 106.953 133.367 107.586 132.582C108.065 131.986 106.065 132.396 105.377 132.869ZM98.1446 80.9409C99.8753 75.852 99.4894 71.6212 99.9113 70.4322C99.988 71.6926 100.004 74.0709 99.6093 76.3055C99.2748 78.4889 98.3268 81.0166 98.1446 80.9409ZM71.8093 43.7311C73.2193 43.4671 76.2919 44.3443 78.3131 45.1965C78.054 45.8729 73.0159 43.7863 71.8093 43.7311ZM89.0707 100.574C88.9437 100.622 86.8536 101.754 84.2807 102.549C81.7533 103.378 78.9654 103.659 79.8641 103.833C81.1708 104.121 84.8303 103.323 86.9639 102.19C89.1499 101.094 90.2102 100.06 89.0707 100.574ZM111.727 130.119C112.923 128.94 109.173 130.03 108.124 131.486C107.555 132.307 111.517 130.383 111.727 130.119ZM135.041 57.1617C135.994 59.2072 134.841 53.7414 133.969 53.2672C134.324 54.2202 134.723 56.44 135.041 57.1617ZM100.279 15.2923C103.753 19.6626 103.055 15.6777 102.123 15.3065C101.984 15.2464 100.186 15.181 100.279 15.2923ZM14.6792 33.9C14.9158 32.8604 12.5815 36.0445 12.9293 36.702C13.1078 37.092 14.492 34.5451 14.6792 33.9ZM23.5629 40.9784C23.581 40.7702 23.5989 40.5682 23.6197 40.3539C23.6262 40.517 23.6112 40.7182 23.5629 40.9784ZM134.806 75.5301C137.281 71.6475 135.462 71.8701 135.498 71.5504C135.533 70.7723 136.103 68.8666 135.873 67.2717C136.263 69.0715 136.548 70.8485 136.752 72.5814C136.852 71.9107 137.172 68.5549 136.903 65.0262C136.681 61.5143 135.808 58.0378 135.595 57.9632C135.033 57.7076 136.202 61.8059 136.132 61.9352C136.104 62.1263 134.823 63.0177 134.828 63.388C135.139 64.1256 135.52 74.2817 134.806 75.5301ZM108.918 21.8149C108.438 21.1539 108.64 20.5846 108.274 20.4412C108.148 20.3926 107.783 20.7848 107.367 20.6079C107.887 21.0033 108.399 21.4016 108.918 21.8149ZM135.862 82.5696C135.044 83.4961 136.079 78.8814 136.139 78.6779C136.702 77.9032 136.57 81.856 135.862 82.5696ZM124.954 39.4055C125.005 39.5255 126.602 41.9609 126.882 41.7354C126.636 40.9307 124.321 37.8042 124.954 39.4055ZM106.927 20.2781C106.062 19.4424 104.541 17.5424 104.252 18.3492C104.254 18.3503 104.255 18.3515 104.257 18.3526C105.179 18.9908 106.056 19.6236 106.927 20.2781ZM115.47 125.307C112.168 126.278 114.315 126.754 116.877 125.093C117.182 124.045 116.016 125.136 115.47 125.307ZM106.951 129.776C106.171 130.097 99.1446 133.129 100.444 133.304C100.926 133.448 104.863 131.211 105.053 131.122C105.374 131.046 104.357 132.367 106.521 131.172C106.283 131.009 107.229 129.723 106.951 129.776ZM112.895 126.272C109.898 127.2 110.313 129.003 112.201 127.78C112.937 127.285 113.335 126.124 112.895 126.272ZM122.176 116.871C121.452 117.659 119.523 119.862 118.337 121.951C120.501 119.735 122.151 117.522 123.521 115.411C123.383 114.988 122.838 116.175 122.172 116.877C122.174 116.875 122.175 116.873 122.176 116.871ZM49.5062 51.5629C51.3715 51.1301 47.751 53.3365 47.6208 53.3044C46.9731 53.2002 48.6313 51.7652 49.5062 51.5629ZM37.5678 31.5997C38.0435 31.5261 38.6293 31.9341 39.2294 31.1552C38.1789 31.2121 37.105 31.3295 36.0091 31.5265C36.0794 32.8922 37.046 31.6694 37.5678 31.5997ZM42.5965 33.4132C42.5088 33.496 43.8752 34.7259 42.0359 34.4154C40.6843 34.193 45.3907 30.9218 46.6752 31.4227C45.7558 32.1134 43.3776 32.7207 42.5965 33.4132ZM53.0715 37.6591C53.1421 37.7754 51.6797 38.302 51.4774 38.2689C50.3916 38.0153 52.6908 36.9361 53.0715 37.6591ZM48.069 38.8156C48.9017 38.838 47.4329 39.6795 46.9143 39.7313C46.7205 39.455 47.9345 38.8076 48.069 38.8156ZM67.1587 73.5115C67.5547 74.8944 69.1223 72.7486 67.7164 72.7984C67.6476 72.8002 67.1417 73.4445 67.1587 73.5115ZM52.0185 39.6947C51.2552 39.5416 52.7137 38.9366 53.1867 39.0609C53.288 39.364 52.1352 39.7065 52.0185 39.6947ZM66.782 76.3694C67.4132 77.5033 68.0979 74.7086 68.0099 74.5503C67.6626 73.9172 65.4438 74.3982 64.9782 74.5735C67.9076 74.9915 66.4371 75.8425 66.782 76.3694ZM69.2674 75.16C69.3 74.9456 69.5627 74.8596 69.7126 74.9098L71.1971 75.9072C70.8056 75.6401 70.2613 75.4649 69.9351 75.7013C70.193 75.7971 70.6275 76.0958 70.9651 76.3286L69.4102 75.2839C69.3188 75.2423 69.2636 75.2045 69.2674 75.16ZM69.3557 67.8963C69.6933 67.4615 70.1395 66.8439 71.2872 65.9257C72.3769 65.0979 74.726 63.4685 78.6321 63.5842C83.1648 63.8806 85.2535 66.0444 86.2087 66.9503C87.2072 67.9998 87.5321 68.6026 87.8112 69.0658C88.3095 69.962 88.3951 70.2984 88.4823 70.5717C88.6166 71.0683 88.5453 71.1884 88.3745 71.2816C88.3826 71.1529 88.3426 71.0356 88.1211 70.4817C87.9865 70.1788 87.8671 69.7957 87.2761 68.8272C86.9539 68.336 86.544 67.6713 85.4697 66.6703C84.4436 65.7403 82.205 64.0369 78.6205 63.8432C73.8806 63.7726 71.8561 65.769 70.9116 66.4389C69.9388 67.2578 69.6022 67.6836 69.3557 67.8963ZM89.3708 69.5107C89.7407 70.0277 89.793 70.251 89.7687 70.4335C89.7385 70.6074 89.606 70.7059 89.4618 70.7555C89.3167 70.8026 89.1602 70.8038 89.0544 70.7191C88.941 70.6201 88.9139 70.4983 88.8459 69.9277C88.8374 69.8451 89.3043 69.4377 89.3708 69.5107ZM88.1328 77.4098C87.2224 79.4103 84.8122 78.838 86.7327 77.3119C87.2831 76.7846 88.2009 77.2003 88.1328 77.4098ZM66.7715 79.6584C67.1939 80.1596 68.4177 79.3463 67.2615 78.7032C67.772 78.7073 68.2672 78.7219 68.7504 78.749C67.4818 77.3856 66.8693 79.0457 66.437 78.7948C65.7828 78.4488 66.2696 77.1258 66.5761 76.7591C65.8977 77.2055 64.2031 76.8436 62.466 76.5687L63.5878 76.7797C63.3778 76.7976 64.0959 76.9008 64.4916 76.9002C64.1112 77.0454 63.3568 77.0995 63.5201 77.2452L62.3599 77.027C63.7224 77.6776 65.065 78.4593 65.8793 78.9247C66.2063 79.1097 66.6686 78.8686 66.9329 79.0208C67.3469 79.2657 66.7451 79.6255 66.7693 79.6575C66.77 79.6578 66.7708 79.6581 66.7715 79.6584ZM81.0638 79.2851C78.5266 78.8483 74.7451 75.0728 74.1539 73.1339C73.3668 71.1925 73.5867 71.2399 74.2409 72.5414C74.8636 73.8108 76.7961 76.3245 78.7219 77.437C80.6372 78.6232 81.9566 78.861 82.6867 79.1143C82.7493 79.1389 82.4934 79.2439 82.1172 79.2984C81.7439 79.357 81.1952 79.3262 81.0638 79.2851ZM54.6979 44.5218C53.2472 44.0928 53.941 42.7739 51.2029 45.2558C52.1941 43.7867 51.0156 44.5281 51.1345 44.0404C51.2416 43.6438 52.1805 43.6239 51.4761 43.156C52.4016 43.5469 54.9654 42.8311 55.0057 42.9994C55.0048 42.9995 55.0039 42.9996 55.0029 42.9997C55.0633 43.0644 55.1184 44.6914 54.6979 44.5218ZM65.8375 65.0229C66.362 63.957 67.2279 62.6621 69.1711 61.2216C71.0321 59.8264 74.6075 58.183 78.8648 58.3881C85.2928 58.8307 88.1312 61.8123 89.4972 63.2158C90.9036 64.8072 91.3476 65.885 91.713 66.7259C92.3654 68.3804 92.4841 69.1413 93.3156 69.7151C92.8334 70.4343 92.495 70.3617 92.2434 69.9511C92.099 69.7101 92.0069 69.4044 91.641 68.5289C91.4294 68.0644 91.2211 67.4944 90.4037 66.2499C89.9605 65.6159 89.4144 64.7967 88.0304 63.5451C86.6848 62.4185 84.0118 60.1514 78.8006 59.8208C74.0997 59.6103 70.6442 61.6075 69.004 62.8778C67.2674 64.233 66.5314 65.2465 65.9572 66.0273C64.9008 67.557 64.6176 68.3635 64.3513 69.0243C63.8873 70.2964 63.8165 70.9214 63.7601 71.5175C63.6796 72.642 63.9033 73.4834 64.3148 74.0459C64.4611 74.2465 64.6259 74.3742 64.8049 74.4356C64.7698 74.2867 64.7387 74.1351 64.712 73.9827C64.471 72.4886 64.6478 71.7592 64.783 71.1823C64.9378 70.6253 65.0545 70.5299 65.066 70.8371C65.0809 71.514 65.1075 72.6853 65.3241 73.8852C65.4951 74.862 65.6475 75.4016 65.4533 75.6241C65.2751 75.7639 64.7025 75.9803 63.6523 74.1671C64.3008 76.0478 64.7651 76.375 64.918 76.7176C65.0852 77.009 65.029 77.0951 64.8775 77.1318C64.5798 77.2205 63.8515 76.8854 63.8444 77.315C63.8425 78.4062 65.6017 79.5685 65.0566 80.069C65.0556 80.0681 65.0546 80.0672 65.0536 80.0664C64.0528 79.0305 63.2736 78.1548 62.5424 75.5853C63.1958 76.1419 63.5051 76.0555 63.5825 75.8032C63.6623 75.533 63.5057 75.0218 63.2758 74.2113C62.9205 72.9833 62.5347 71.7437 62.1543 70.5055C62.4231 70.0308 62.7194 69.5147 63.1668 68.7681C63.6732 67.983 64.0544 67.1181 65.8375 65.0229ZM66.809 78.1572C66.7513 78.1345 66.3807 77.7412 66.1443 77.265C65.8995 76.8018 65.7254 76.1335 65.9191 76.1372C66.0538 76.233 66.3359 76.7074 66.5837 77.0654C66.8275 77.434 67.1022 77.7981 67.1884 78.0323L69.2603 79.4244C69.1537 79.4426 69.1056 79.5054 69.1481 79.6282L67.0422 78.2133C66.9821 78.2087 66.9041 78.1909 66.809 78.1572ZM65.2961 77.8407C65.0732 77.887 64.6183 78.0017 64.1267 78.0266C63.6343 78.0544 63.287 77.9951 63.4235 77.9101L62.2084 77.6816C62.4076 77.6658 62.5829 77.6104 62.7254 77.497C62.5871 77.4629 62.4379 77.4187 62.2805 77.3703L63.4695 77.5939C63.3156 77.544 63.8723 77.5604 64.3288 77.5578C64.7996 77.5614 65.1128 77.6007 65.2961 77.8407ZM78.6628 68.5775C78.718 68.5933 78.7696 68.6089 78.8178 68.6242C78.1873 68.6647 78.3063 68.798 78.7631 68.9501C77.8197 68.8487 75.8155 68.8925 74.6714 69.1563C73.5356 69.3908 72.9824 69.5069 73.9049 68.9591C73.9649 68.9276 74.9434 68.5945 76.1561 68.4928C77.3616 68.373 78.578 68.5492 78.6628 68.5775ZM92.6884 70.9349C93.399 72.2997 91.3565 71.6079 91.7904 70.7722C91.8141 70.7105 92.6537 70.8707 92.6884 70.9349ZM53.652 44.9831C53.7407 45.4441 51.5363 45.752 51.1572 45.9522C51.1675 45.3911 53.6085 44.3575 53.652 44.9831ZM66.2796 79.5271C66.5605 80.137 66.1589 80.4577 65.124 80.481C64.0761 80.5163 62.9308 80.0392 63.1464 79.8176L61.7737 79.5594C62.0983 79.4662 62.3214 79.3919 62.382 79.4186C62.6179 79.5242 62.0435 80.1962 62.0955 80.2308C62.2639 80.296 64.6569 80.9016 64.7244 80.8917C64.8166 80.877 64.7568 79.6891 65.3298 79.5107C64.7709 79.6613 63.392 79.2897 61.9158 78.9455L63.237 79.194C63.1573 79.1818 63.5492 79.2301 63.9643 79.228C64.3891 79.2296 64.808 79.191 65.0942 79.1494C65.6767 79.0609 65.8165 79.0043 65.8647 79.0268C65.9347 79.0598 65.8256 79.413 65.8109 79.6407C65.8081 79.7537 65.8729 79.8293 66.0122 79.813C66.1415 79.801 66.3579 79.6783 66.2797 79.5271C66.2797 79.5271 66.2796 79.5271 66.2796 79.5271ZM62.9345 79.8072C62.4151 79.1892 64.22 79.6048 64.5316 79.8957C65.2856 80.5272 63.0473 79.8734 62.9345 79.8072ZM66.4289 81.411C66.5627 81.5672 67.6254 82.1881 67.9403 81.786C67.7859 80.9154 66.1925 81.0425 66.4289 81.411ZM69.9156 70.9078C69.7674 69.9594 69.6604 68.939 69.6589 68.4845C69.6541 67.9988 69.7033 67.8606 69.9279 67.8718C69.8796 67.9823 69.9072 68.2685 69.936 68.9201C69.9485 69.5171 70.0974 70.7103 69.9156 70.9078ZM50.218 50.7518C50.4176 51.0814 50.6543 51.0758 50.5404 50.9254C50.3137 50.7279 50.2003 50.7257 50.218 50.7518ZM97.0219 70.847C97.0465 70.93 97.0831 71.2248 97.0833 71.7554C97.0275 72.527 97.1994 74.2463 95.6602 77.7225C94.2309 81.2774 89.7688 84.9538 87.3173 85.7002C86.6149 85.9639 86.4105 85.9843 86.218 86.0176C86.0402 86.0421 85.9337 86.0405 85.815 86.0393C85.5952 86.0345 85.2779 86.024 85.0783 85.9963C85.267 85.9124 85.5675 85.8193 85.7553 85.7358C85.8581 85.6928 85.9456 85.6541 86.1 85.5945C86.2686 85.5264 86.4468 85.4752 87.1059 85.1939C89.4935 84.4045 93.821 80.6694 95.0918 77.27C96.4842 73.9463 96.2937 72.4266 96.3792 71.7519C96.3952 71.3578 96.3977 71.1342 96.4158 71.0684C96.4577 70.922 96.9948 70.7772 97.0219 70.847ZM64.1886 83.8893C63.6057 84.3903 63.5926 83.55 63.5406 83.5227C63.0836 83.2631 61.82 83.0842 62.2473 82.5347C63.3057 83.0551 65.3793 82.9091 64.1886 83.8893ZM66.7505 69.882C66.7304 68.8834 66.8223 68.6622 66.8786 68.5491C66.9412 68.4583 66.9973 68.5586 67.0515 68.8233C67.193 69.3484 67.1498 70.6313 68.0117 73.3875C69.8483 78.9887 73.6738 81.9374 75.0559 82.9419C75.8372 83.5057 76.2955 83.7853 76.4202 83.9032C76.5432 84.0138 76.3831 83.9924 75.7556 83.6792C75.6255 83.5888 74.7214 83.1695 73.0183 81.7059C71.3912 80.3292 68.8246 77.3282 67.5955 73.5234C66.849 71.3913 66.7777 70.2239 66.7505 69.882ZM97.039 69.4783C97.081 69.2939 97.0958 68.925 96.8341 67.9175C96.6767 67.3786 96.5197 66.7366 95.799 65.2685C95.3919 64.5007 94.9415 63.5462 93.4833 61.7614C91.8778 60.3707 89.7487 55.8296 79.0317 54.66C74.0841 54.4109 69.8387 56.1658 67.4734 57.6701C65.0226 59.2151 63.7349 60.6175 62.819 61.6705C61.0334 63.826 60.4998 65.0575 60.0079 66.0744C59.1392 68.0388 58.9538 69.0551 58.7653 70.0188C58.4584 71.8625 58.4768 73.2089 58.7512 74.9316C59.8622 80.1341 61.6259 81.0309 62.0754 81.7225C61.8302 79.8522 60.4595 79.7374 59.4326 76.1302C59.2029 75.0935 59.6847 75.2715 59.6588 75.1632C59.6347 75.0266 59.6129 74.905 59.5923 74.7977C59.3753 73.5102 59.0961 74.6542 58.9929 73.6154C58.9852 73.4206 58.9198 72.4401 59.1422 70.9397C59.2737 70.1483 59.4032 69.2886 60.0126 67.6075C60.3644 66.7257 60.7147 65.6979 62.0494 63.6896C62.769 62.6764 63.6717 61.3694 65.8851 59.5548C67.9673 57.8751 72.4939 55.0159 79.0036 55.2876C85.0885 55.634 88.6352 58.2065 90.4765 59.6695C92.3727 61.2518 93.2043 62.39 93.8381 63.2438C95.0369 64.9505 95.3744 65.7998 95.6959 66.4915C96.2589 67.8063 96.3849 68.3461 96.5339 68.7909C96.7861 69.607 96.9077 69.8352 97.039 69.4783ZM63.826 84.2521C63.5921 84.4687 61.8573 84.1112 60.7711 83.8906L62.5071 84.2171C62.5719 84.235 63.1052 84.2788 63.1477 84.2553C63.5276 84.1502 63.561 84.046 63.3298 83.9541C63.1202 83.865 62.6167 83.7535 62.5815 83.7054L60.8877 83.3869C62.111 83.5022 63.7636 84.1268 63.826 84.2521ZM98.0752 70.5186C98.3858 70.0116 98.5255 69.2325 98.0658 67.5411C97.7813 66.6422 97.4927 65.5439 96.0176 63.1933C95.2238 62.0117 94.1433 60.4003 91.6042 58.3121C89.2194 56.2755 84.2196 53.7256 79.078 53.6261C71.9405 53.604 69.5754 55.6969 69.3505 55.6759C69.3061 56.0541 70.8347 53.9892 79.0626 53.97C84.5099 54.1131 89.9837 57.2661 92.2428 59.6233C94.6925 62.0275 95.5553 63.761 96.1964 65.0348C96.6532 65.9461 97.3403 67.4037 97.6477 68.2797C97.9848 69.2089 98.1445 69.9076 98.0752 70.5186ZM65.7307 70.7374C65.7104 70.649 65.6162 70.0345 65.5769 69.4476C65.5336 68.8493 65.5367 68.2717 65.5653 67.8721C65.6276 67.0565 65.7451 66.8015 65.9238 66.8191C65.987 66.9392 65.8808 67.3753 65.8626 68.9415C65.8547 69.6917 65.9509 70.7964 66.0293 71.4373C66.0621 71.7401 66.0725 71.9096 66.0163 71.7911C65.9619 71.6728 65.8494 71.3112 65.7307 70.7374ZM73.6632 85.4167C73.2449 85.1493 75.1515 86.1528 75.1443 85.9317C75.162 85.8314 74.7914 85.6053 73.3427 84.5099C72.0869 83.3841 68.3747 81.1126 65.8611 74.09C65.8261 73.9861 65.7916 73.8813 65.7577 73.7757C65.6779 73.5144 65.3182 73.0845 64.9376 72.0139C64.5584 70.9804 64.2836 69.3624 64.5124 68.1632C64.6006 67.6504 65.1915 67.2559 65.2177 67.3034C65.7543 68.0669 64.9156 68.6555 66.1393 73.9991C67.4612 78.4016 70.5915 82.1218 72.914 83.9277C75.294 85.8242 77.0051 86.561 78.2235 87.0969C80.6155 88.0687 81.4452 88.2095 81.9323 88.416C82.3641 88.5834 82.3702 88.679 81.6937 88.6252C81.3222 88.5861 80.7892 88.5229 79.7172 88.2387C78.6108 87.8829 77.0337 87.6171 73.6632 85.4167ZM63.5732 84.847C63.593 85.2085 62.9759 86.0495 62.8263 85.4749C62.756 85.2256 63.1928 84.7313 63.5732 84.847ZM65.6043 66.2707C65.1572 65.8472 64.8245 66.159 64.9169 66.2701C65.2086 66.5209 65.6575 66.3126 65.6043 66.2707ZM53.8611 53.6797C53.8609 53.68 53.8607 53.6803 53.8604 53.6805C53.9874 53.3046 53.4414 53.1806 53.4448 53.1521C53.3458 52.6725 53.4249 52.7098 53.628 52.7837C53.8226 52.8659 54.0917 53.0363 54.1664 53.0415C54.4853 53.0684 53.2584 52.419 53.7725 52.676C52.9966 52.3328 53.3357 52.4467 52.8709 52.2788C51.9389 51.8986 52.2122 51.8706 52.58 52.1066C52.9598 52.3251 53.3416 52.9005 53.0787 52.889C53.0212 52.87 52.6448 52.3013 52.4494 52.2584C52.1635 52.154 52.4733 52.7629 52.7539 53.3721C53.0315 53.9698 53.519 54.459 53.8611 53.6797ZM62.5612 85.4857C62.2752 85.7516 61.2851 85.4242 60.5029 85.0495L62.3361 85.3942C62.4275 85.3401 63.0663 85.3158 63.3548 85.2274C63.6675 85.1423 63.6566 85.038 63.2298 84.9107C63.1773 84.8922 62.5091 84.7949 62.4297 84.7501L60.6496 84.4154C61.7013 84.5646 63.1437 84.9862 62.5612 85.4857ZM63.9993 46.7955C64.4212 46.8239 64.3715 47.1962 64.1938 47.4958C64.0166 47.795 63.8035 47.9549 63.6637 47.8005C63.5178 47.6527 63.6118 46.7849 63.9993 46.7955ZM66.4715 49.8351C67.9971 50.0096 69.5508 48.1379 67.964 48.1746C67.8022 48.1809 66.3656 49.515 66.4715 49.8351ZM64.5383 70.1033C65.1687 69.8003 65.6862 70.0899 65.6429 70.3424C65.6253 70.6018 65.1415 70.8437 64.691 70.765C64.3881 70.7131 64.5039 70.1239 64.5383 70.1033ZM68.1765 45.7082C68.2363 45.5881 68.2858 44.5369 67.9598 44.5425C67.7101 44.846 67.7652 46.314 68.1765 45.7082ZM64.2458 69.8672C64.5144 70.024 64.3511 70.3263 64.1227 70.4683C63.8924 70.6108 63.7279 70.6132 63.7005 70.1135C63.7177 70.1546 63.7842 70.0785 63.915 70.0023C64.0394 69.9254 64.2197 69.8513 64.2458 69.8672ZM99.4742 79.525C98.3999 81.8787 92.5277 88.2742 88.8114 89.2768C88.0231 89.594 87.7106 89.6716 87.4473 89.7274C87.4712 89.8715 87.5706 89.9508 87.7815 89.9594C88 89.9627 88.289 89.9205 88.973 89.6637C90.5827 89.0518 93.1852 87.5987 95.3653 85.3722C97.5732 83.1733 98.9089 80.6768 99.4742 79.525ZM63.9296 48.5331C64.1671 48.011 63.7068 47.5613 63.7599 48.2668C63.7651 48.304 63.9207 48.5545 63.9296 48.5331ZM64.1024 75.7935C63.9283 75.2616 64.5111 75.534 64.9106 75.7735C65.3139 76.0198 65.5457 76.2702 65.0697 76.3798C65.0481 76.382 64.8365 76.291 64.6002 76.1498C64.3663 76.0126 64.1115 75.8224 64.1024 75.7935ZM64.9918 76.4105C64.5128 76.3633 63.5353 76.158 62.5476 75.7846C63.5867 76.1773 64.4008 76.3716 63.9171 75.8637C63.8569 75.803 63.3403 75.5844 62.6956 75.3909C63.8451 75.8766 64.9772 76.204 64.9918 76.4105ZM54.6426 53.3007C54.9596 53.5249 55.1352 53.5167 55.2034 53.458C55.2728 53.3975 55.2209 53.3164 55.1619 53.2827C55.1072 53.267 53.8116 52.7303 54.6426 53.3007ZM70.4774 71.6682C70.0671 71.4016 69.5102 70.5251 69.1106 70.6761C69.4321 70.9341 69.9959 72.3373 70.4774 71.6682ZM63.4085 48.5622C63.5689 49.3854 63.6233 49.2975 63.509 48.2054C63.3468 48.2978 63.6083 49.185 63.4085 48.5622ZM64.3016 68.8792C64.0338 68.8434 63.9911 69.9029 64.0123 69.9514C64.268 70.4066 64.6318 69.2553 64.3016 68.8792ZM67.9309 59.8238C68.3814 59.7928 68.2166 57.8222 67.9216 58.0791C67.8218 58.1627 67.5653 59.8424 67.9309 59.8238ZM64.1728 63.5606C64.7915 62.6536 63.0757 63.7777 62.6294 64.3381C62.612 64.3517 62.6484 64.4054 62.7714 64.5091C63.0593 64.734 63.1293 64.7832 63.1296 64.7715C63.4179 64.4097 64.1056 63.6414 64.1728 63.5606ZM56.9697 74.0913C56.6684 73.9462 56.485 74.1879 56.4947 74.3528C56.5047 74.519 56.6826 74.6813 56.9803 74.7057C57.1212 74.7409 57.1638 74.2118 56.9697 74.0913ZM65.1574 78.4951C65.121 78.0057 65.8531 78.0422 65.5763 77.7562C65.3572 77.5078 64.3674 77.2116 64.7401 77.9085C64.7626 77.9554 65.1706 78.2555 65.2628 78.4085C65.386 78.5775 65.1608 78.5399 65.1574 78.4951ZM75.0044 76.4707C74.4474 76.7581 74.8638 77.9552 76.579 77.5007C78.2022 76.8462 80.293 75.5458 81.939 73.7267C82.3264 73.289 81.4563 73.8883 80.3963 74.4849C79.3352 75.0952 78.1008 75.6387 78.5362 75.2827C78.8799 75.1921 83.4428 71.3801 84.6604 68.9654C86.1579 66.4765 86.2769 65.4881 86.3781 65.3914C86.5091 65.2107 87.0957 65.7007 87.2483 65.52C87.3397 65.4102 87.4381 64.6963 87.3855 64.2865C87.3433 63.8532 87.2003 63.6949 87.199 63.6879C87.193 63.6814 87.3179 63.8754 87.4602 63.9604C87.6007 64.0565 87.7483 64.1001 87.7474 64.124C87.7408 64.2618 87.2949 64.5297 87.283 65.0071C87.2495 66.1721 87.4383 68.2136 87.6164 70.3559C87.6987 66.9558 83.4896 60.5009 80.9279 59.7926C84.3385 61.6327 86.9927 67.8977 86.7155 70.4395C86.6049 69.8836 86.5047 69.3371 86.431 68.7941C87.7025 69.378 85.3063 65.4304 86.8496 67.7232C86.6665 67.2849 86.4749 64.6128 86.5295 63.7339C86.4897 63.3678 86.7007 63.5124 85.7319 65.9122C85.221 67.0873 84.2626 68.9557 82.4236 71.0233C80.6337 73.0888 77.902 75.0404 75.858 76.0295C75.4612 76.2384 75.1788 76.3771 75.0136 76.4667C75.0105 76.468 75.0075 76.4694 75.0044 76.4707ZM70.4699 51.2824C70.174 51.6049 70.5778 51.8541 70.9512 51.9027C71.3329 51.9516 71.7341 51.8144 71.9452 51.4193C71.8814 51.3302 71.5883 51.2805 71.2489 51.2612C70.9133 51.2414 70.5067 51.2466 70.4699 51.2824ZM64.6024 51.7038C64.768 51.772 65.281 53.2507 66.0956 52.0011C66.0967 52.0005 66.0978 52 66.0989 51.9994C66.3511 51.6132 65.7734 51.5075 65.7806 51.3558C65.7561 51.3233 66.544 49.995 65.5397 50.4414C64.3312 50.8522 65.8962 51.524 65.3247 51.8128C65.2886 51.8304 64.9429 51.7581 64.6954 51.6067C64.4405 51.4594 64.2642 51.2515 64.2517 51.1627C64.2438 51.1441 64.4558 51.2565 64.4674 51.1732C64.4903 50.8697 64.2724 50.4499 64.281 50.4232C64.2979 50.3841 64.5812 50.4909 65.1026 50.3477C65.5948 50.2311 66.4537 49.6989 66.5041 49.218C66.513 49.1409 66.1417 49.3277 65.7286 49.4972C65.3113 49.6718 64.8834 49.8081 64.5831 49.8672C63.9687 49.9875 63.815 49.896 63.8104 49.9636C63.8133 50.039 64.1567 51.293 64.1621 51.4237C64.1632 51.4566 64.0292 51.3811 63.9444 51.2963C63.8554 51.2128 63.8113 51.1251 63.8119 51.1853C63.8119 51.2202 63.8132 51.2576 63.8144 51.2883C63.7641 50.8893 63.7547 50.9194 63.78 51.3723C63.7803 51.5512 63.8168 51.4451 63.8212 51.4129C63.8209 51.3996 63.8198 51.3815 63.8193 51.3689C63.8385 51.6125 63.9051 51.7275 64.0985 51.8375C64.2778 51.9524 64.6079 52.0363 64.568 52.4287C65.0894 52.6859 64.1885 51.429 64.6024 51.7038ZM70.9219 47.8425C70.9017 47.8464 70.8816 47.8503 70.8615 47.8541C70.5105 48.0816 70.1686 48.2799 69.8477 48.4422C70.0892 48.2095 70.3477 47.9415 70.6111 47.6452C71.5597 46.6973 72.1682 45.4362 72.3444 44.7168C72.5368 43.9736 72.3892 43.7767 72.327 44.0777C72.2882 44.2562 73.1533 44.2061 72.8739 44.4294C72.6471 44.6226 71.8089 44.9557 71.6727 44.7151C71.6555 44.6869 71.8037 44.4977 71.9523 44.3316C72.1007 44.1641 72.2449 44.0414 72.2339 43.9774C72.2001 43.7999 71.9584 43.8642 71.7647 43.8052C71.5673 43.763 71.3967 43.692 71.3849 43.6971C71.3719 43.7027 71.4735 43.7871 71.5299 43.9782C71.5886 44.1647 71.5854 44.4797 71.4623 44.7044C71.063 45.4283 70.4577 46.0568 69.7505 46.9269C68.5613 48.3533 67.5612 49.2903 66.77 50.1091C67.6328 49.7833 68.1724 49.7908 68.6034 49.7865C69.0774 49.7029 69.3931 49.8272 70.897 47.8837C70.9053 47.8702 70.9136 47.8565 70.9219 47.8425ZM58.4941 62.8726C58.2573 62.7118 58.5703 61.8612 58.9352 60.9616C58.5457 62.2336 58.365 63.3641 58.2358 63.9841C58.4928 63.8915 58.674 62.6715 59.1793 61.0436C58.9033 61.7471 58.5877 62.4731 58.4941 62.8726ZM70.1133 87.4765C69.4604 88.0769 72.6376 89.1012 71.941 88.2806C71.7676 88.0985 70.4791 87.5884 70.1133 87.4765ZM81.9169 90.1524C82.129 89.9478 81.2584 89.4156 81.2391 89.9829C81.2382 90.1697 81.8931 90.1826 81.9169 90.1524ZM71.2482 67.138C71.2576 67.1876 71.2269 67.5293 71.186 67.9085C71.141 67.8753 71.0784 67.8303 71.057 67.8284C70.7192 67.7989 70.6124 67.8658 70.637 67.9004C70.6864 66.8359 70.9766 65.7067 71.2482 67.138ZM84.4319 89.6028C85.1072 89.278 84.6476 89.9547 84.3773 90.3286C84.0974 90.7092 83.9185 90.8019 83.8083 90.4294C83.805 90.4095 83.8802 90.268 84.0302 90.0659C84.1734 89.8697 84.3995 89.6182 84.4319 89.6028ZM83.726 90.0158C83.7031 90.0955 83.5669 90.2531 83.4833 90.3503C83.3979 90.4514 83.3667 90.497 83.4643 90.5543C83.6208 90.6476 83.7894 90.6637 83.8853 90.5438C83.9794 90.4285 83.9914 90.186 83.726 90.0158ZM64.1659 66.0789C63.9798 65.3993 64.8803 65.6226 65.8236 65.5283C65.3498 65.6192 64.9238 65.7118 64.5928 65.7718C64.4989 66.0836 65.0613 66.0528 65.893 65.9483C65.2718 66.121 64.3998 65.9838 64.1659 66.0789ZM72.8904 67.8277C74.148 68.8844 75.4738 70.099 75.9329 70.6853C74.6106 69.6245 73.9611 69.3145 73.939 69.3749C73.9138 69.4542 74.515 69.9174 75.6654 70.9931C74.89 70.5862 73.2144 69.2628 72.4016 67.8913C72.8014 67.5345 72.6589 67.6335 72.8904 67.8277ZM63.5551 65.6184C63.57 65.8857 63.5853 65.9774 63.727 65.9995C63.8625 66.0217 64.1521 65.9788 64.5209 65.9904C64.472 65.7982 64.0737 65.709 63.8549 65.6814C63.6194 65.6518 63.5571 65.667 63.5551 65.6184ZM67.3842 85.4155C67.8966 84.8997 69.6111 86.3111 69.199 86.4706C69.0298 86.4964 67.0598 85.7072 67.3842 85.4155ZM71.9513 67.8926C72.7714 67.9683 72.4093 67.3697 72.2112 67.3417C71.4769 67.2694 72.1455 67.8869 71.9513 67.8926ZM53.5124 72.5728C52.9934 72.1768 53.5908 71.5582 53.8531 70.8206C54.248 71.3548 53.629 72.3476 53.5124 72.5728ZM55.3903 69.656C55.3429 69.6823 54.8892 70.1266 54.5645 70.5058C54.2252 70.8956 53.995 71.2186 53.9851 71.2534C53.8788 71.8964 54.3183 71.475 54.944 70.7575C55.5541 70.0492 56.4268 69.0728 55.3903 69.656ZM57.7002 58.5001C57.7431 58.4963 58.2554 57.908 58.2471 57.8718C58.2516 56.9888 56.795 58.66 57.7002 58.5001Z" fill="#DC5D0E"/>
</svg>
