<svg width="128" height="118" viewBox="0 0 128 118" fill="none" xmlns="http://www.w3.org/2000/svg">
<path d="M56.172 44.2705C55.7847 44.5645 54.5597 45.6767 54.0895 45.906C54.9013 46.3257 57.5879 43.3237 56.172 44.2705ZM88.855 6.18362C88.4217 6.21075 87.9879 6.2394 87.5516 6.26894C88.5969 6.71673 90.1469 7.11504 91.0974 7.61524C91.2597 7.69992 90.6603 7.98745 91.057 8.14967C91.4519 8.31196 91.5913 7.67839 92.1962 7.82318C92.8525 7.97024 95.7042 9.52872 96.805 9.98153C98.8159 10.7896 100.806 11.5321 103.391 12.8033C108.933 15.6033 112.965 19.8819 115.23 23.3362C109.067 16.4266 114.914 24.1257 115.892 25.6793C116.033 25.9255 117.698 25.7932 119.945 31.3213C121.106 34.534 118.478 32.5169 121.045 36.854C120.82 32.8658 122.159 36.5492 123.022 39.0015C123.157 39.3678 123.824 41.7554 124.29 43.2505C124.453 43.763 124.598 44.2267 124.72 44.6041C124.956 45.3305 125.884 46.3362 126.146 47.3584C126.328 48.072 126.115 48.6615 126.348 49.7257C127.41 54.6368 127.786 59.7046 127.339 64.7757C125.909 61.7367 126.512 67.0289 126.357 67.2538C125.828 68.3808 126.154 63.0398 125.714 65.1255C125.547 68.0742 125.15 70.9965 124.515 73.9015C125.277 71.5482 125.071 77.4106 124.153 78.2927C125.119 78.421 122.477 84.2558 118.099 89.8832C116.624 91.6891 115.444 92.9238 115.145 93.519C114.931 93.8669 117.385 92.2887 112.717 97.0209C112.212 97.5013 112.082 97.0142 111.86 97.3027C111.737 97.4661 111.774 99.3831 110.266 99.7688C109.721 99.8535 111.383 97.2767 106.637 101.914C109.554 101.428 100.077 108.045 98.2484 108.545C98.6817 108.489 99.1125 108.432 99.5503 108.367C98.929 108.583 98.5146 108.776 98.2082 108.96C97.0426 109.671 96.7404 110.07 96.2775 110.312C93.469 111.784 89.8263 112.68 87.7078 113.364C85.2326 114.151 85.4107 114.998 82.6199 115.266C83.2992 115.32 83.9798 115.363 84.6992 115.385C82.7451 115.81 80.916 116.102 79.177 116.32C83.0522 114.527 78.2839 116.425 77.9992 116.458C77.5082 116.565 78.1577 116.008 77.3396 116.173C77.2592 116.191 77.4226 116.622 76.1772 116.814C73.6023 117.186 73.9865 116.573 72.9433 116.666C72.8527 116.674 73.1965 117.057 71.4462 117.262C66.0162 117.827 71.4339 116.974 71.6655 116.889C71.9599 116.783 69.8717 115.318 74.7306 115.502C73.0671 115.468 72.8793 114.734 72.6937 114.733C72.5207 114.739 69.8537 115 69.7192 115.023C68.448 115.328 69.5968 115.78 69.351 115.881C69.126 115.972 66.032 115.408 65.3642 116.916C63.9233 115.537 66.1362 115.664 68.6319 115.358C68.9734 115.065 66.264 114.867 66.1364 114.864C62.7531 114.912 64.6404 116.028 63.9049 116.768C63.5169 117.153 62.1639 116.372 63.4164 117.397C60.4041 117.501 62.2366 116.909 62.0389 116.821C61.7488 116.691 60.7135 116.977 60.5879 116.936C60.4009 116.876 61.0567 116.528 60.3189 116.394C60.1973 116.375 58.9994 116.971 60.5309 117.282C58.4824 117.169 58.6552 117.689 57.9933 116.627C56.5836 118.587 57.0281 115.432 56.4993 115.309C55.1034 114.984 55.4767 116.553 55.3998 116.627C55.2017 116.809 54.5161 116.829 53.7109 116.795C50.7764 116.732 47.3224 116.003 46.1422 115.878C47.0307 115.024 52.1653 116.761 53.7173 116.544C53.7316 116.54 53.7451 116.537 53.7576 116.532C54.5517 116.261 54.2645 116.106 53.7329 115.928C51.9681 115.662 49.2233 115.049 51.0647 114.396C49.8038 114.667 48.5332 114.879 47.2655 115.039C45.3121 113.679 48.2806 114.09 42.7696 112.939C41.6405 113.461 46.6539 113.86 45.5572 114.195C44.8675 114.444 41.6715 113.6 41.5712 113.74C41.4225 113.957 44.3768 114.534 43.8366 114.737C42.3711 115.366 33.0183 110.811 40.5088 113.305C38.3906 112.553 38.0077 110.725 36.2154 110.405C35.0664 110.129 39.918 115.059 31.4595 110.17C31.6125 109.466 34.9202 111.828 35.0898 111.808C35.2562 111.802 35.306 110.024 35.2373 109.898C34.7787 109.583 26.5506 105.456 25.8379 103.618C25.7392 104.82 20.9103 99.7056 20.2903 99.3741C20.0935 99.294 20.2276 100.217 20.0341 100.115C18.7973 99.46 17.0872 96.218 16.0756 94.9982C14.9217 93.6326 14.6987 94.1105 14.6329 94.0365C14.1455 93.4138 14.8077 93.6816 14.4993 93.3137C13.9984 92.7826 11.0071 88.7346 10.8226 88.5239C10.7604 88.4732 10.7835 89.4874 10.0497 88.6304C9.92152 88.4527 10.5338 88.2803 8.41831 85.5098C5.87051 82.0285 9.2845 88.4626 7.75999 87.3307C7.1313 84.4949 6.34078 85.0192 6.01209 84.3165C5.95767 84.1941 5.84997 83.6064 5.6475 82.8146C4.08105 79.3958 3.76016 77.1327 3.28172 75.3606C3.81454 76.9903 4.17021 78.7028 6.23277 82.497C6.54493 82.9712 6.87637 83.4608 7.19093 83.9052C7.0071 83.503 6.71514 82.9603 6.41441 82.3984C3.64931 76.8361 3.72983 75.0138 3.47317 73.6833C3.41034 72.8989 4.17621 73.3209 3.91353 71.8177C3.88405 71.6548 3.41055 71.3379 3.10534 71.5145C2.81866 71.7311 2.59836 72.2385 3.47907 74.6129C2.96145 75.1071 2.87051 72.7098 2.60107 71.9409C2.5547 71.8064 1.47559 71.4244 1.97006 70.3253C2.13964 70.1757 5.15969 71.9156 2.56725 66.3223C2.48676 66.1478 2.1634 66.7952 2.07548 66.6257C2.01251 66.5033 2.07473 65.091 2.01771 64.9506C1.95339 64.7977 1.58961 65.4846 1.50079 65.3039C1.04173 64.352 2.57567 63.0927 2.54793 65.0085C2.7085 64.3344 2.87788 63.7159 3.05095 63.0835C1.87884 63.7904 2.67616 62.109 2.62309 61.2998C2.30371 56.0655 1.5814 59.5796 1.16462 58.6828C0.510172 57.2529 2.55962 58.3294 1.94682 56.2465C1.89477 56.06 0.994963 58.537 1.53403 53.6831C1.5578 54.3879 1.58413 55.1096 1.61386 55.8312C2.772 55.4172 1.56068 53.2519 1.54929 53.0835C1.42591 51.205 1.81291 52.4697 1.2865 49.6922C1.23962 49.4469 1.54046 48.9225 1.41444 48.3893C0.893854 46.2021 0.971769 51.2538 0.508274 51.3909C0.267136 51.4466 0.488926 45.9945 0.613293 45.8376C1.12434 45.07 0.739389 48.2892 1.36189 47.6941C1.56728 47.458 1.4491 39.8254 1.77616 38.3493C1.85848 37.9579 2.00553 37.6179 2.16295 37.3252C2.75268 35.3886 3.55271 34.3479 2.19584 34.1642C4.05593 33.2751 3.09351 32.0105 3.24157 31.3804C5.74803 23.8469 5.68887 20.3942 16.5328 12.7695C18.9516 11.3889 20.5745 11.4379 21.0027 11.1717C21.1354 11.0955 21.0216 10.9728 21.0398 10.7869C21.0411 10.6072 21.2616 10.3326 21.6801 10.1024C21.824 10.0207 22.0608 9.92547 22.0699 9.91709C25.1981 8.80523 29.6457 8.50644 30.0459 8.71703C30.5495 8.93495 27.5946 9.3068 28.2051 9.71665C30.3851 9.33403 32.2048 8.93657 34.1013 8.75045C34.8938 8.67666 34.5339 9.08175 34.8656 9.04902C35.0076 9.02848 37.6032 8.44159 37.479 8.32728C37.3117 7.94901 28.7873 9.33731 30.9341 8.41206C31.4006 8.21083 33.0382 8.80976 32.6609 7.85182C40.2891 7.05873 47.0044 7.06609 54.0249 7.44939C49.9954 8.09321 45.5623 7.49114 41.3184 7.83167C40.7351 7.87274 38.7559 7.928 39.0324 8.41643C42.6696 8.24437 47.0547 7.82628 50.4615 8.1674C50.5698 8.17844 50.1719 8.63328 50.5771 8.70591C51.3315 8.83573 53.827 8.14294 54.2431 8.34979C54.3121 8.39441 52.8857 8.96209 53.3075 9.35322C54.379 10.3565 54.7153 8.19848 55.6748 8.2589C56.4153 8.28459 61.3224 9.62982 62.6513 9.11619C64.0567 8.52396 58.96 8.39796 59.3782 7.86843C62.8443 7.51346 66.3161 8.49886 69.7486 8.97189C69.8101 8.97995 69.3529 8.4487 70.1326 8.50948C71.4865 8.6202 71.7494 9.3255 72.3844 9.54792C73.0653 9.77559 75.6691 10.242 75.9758 10.5663C76.0122 10.6061 75.3402 11.1024 75.2578 11.1025C74.0706 11.1022 73.8682 10.2235 73.7633 10.1896C73.3897 10.0803 72.9515 10.3156 72.6153 10.2315C72.0631 10.0936 71.8081 9.74775 71.0726 9.5925C70.5675 9.48613 70.9603 10.1237 70.4821 10.0163C70.3144 9.97095 68.5879 8.40263 68.2303 9.67946C68.1758 9.92463 73.2291 10.8534 78.3296 12.4154C84.579 14.0157 89.5644 19.1102 91.3584 22.2767C93.3615 25.5972 93.9002 27.758 94.3577 29.3791C95.1452 32.5572 95.1925 33.9038 95.3425 34.4758C95.2141 32.2379 95.2889 29.6772 93.3271 24.7553C95.3122 29.7978 95.5319 32.4968 95.811 34.4708C96.0067 36.3975 95.878 37.4711 95.1135 37.6552C95.1208 43.8774 94.4936 47.8151 94.1943 51.4879C93.8691 57.0449 91.2243 63.4971 87.7574 67.5948C84.3194 71.7909 80.8029 74.0997 78.0925 75.7383C76.3077 76.6567 76.5188 75.5521 74.6348 76.6901C74.3852 76.8335 74.1115 76.9942 73.8074 77.1739C74.1296 77.1081 74.4531 77.0373 74.7802 76.9599C75.3535 76.9124 75.9701 76.8375 76.6271 76.7296C76.272 76.8744 75.6728 77.1393 75.0266 77.4175C71.3192 79.2839 65.7446 80.6465 64.8574 80.9859C64.7078 81.0453 64.6365 82.0184 62.7376 82.498C61.0956 82.8984 60.7653 82.258 59.9592 82.268C59.291 82.2733 58.6615 82.5516 58.4906 82.541C58.3569 82.532 58.2382 82.133 57.9314 82.1084C57.0024 82.0291 57.8789 83.0668 56.857 81.8781C57.0369 81.7978 57.2306 81.7158 57.434 81.6324C56.9795 81.6224 56.5141 81.5437 56.2363 81.4172C54.0953 81.5098 53.3867 81.3446 56.1348 80.8117C56.1998 80.7714 56.2827 80.7301 56.3897 80.6872C56.6101 80.5992 56.4757 81.0254 56.65 80.9965C58.3144 80.7183 59.806 80.4217 60.4435 80.2354C61.1147 80.0455 61.0717 79.9723 60.6005 79.9945C59.6492 80.0484 57.1859 80.3567 56.1229 80.7411C55.049 80.9516 54.015 81.0742 53.0652 81.1366C51.4793 80.9701 46.7286 80.5688 42.715 78.3585C38.6261 76.3065 35.4455 72.5137 34.387 70.6392C34.0348 70.06 33.8554 69.7015 33.8259 69.6188C33.6725 69.1519 34.1199 69.6534 34.3807 69.7236C34.6693 69.8072 34.5792 69.3912 33.9266 67.4059C33.6218 66.8871 31.847 61.531 32.3148 57.6507C32.5988 53.6717 34.1582 50.2886 33.391 54.0766C32.7515 55.6789 32.6869 64.263 34.385 67.0607C32.9875 61.5125 32.4468 53.3863 35.212 48.4297C35.6955 47.2991 38.1301 44.9665 38.9911 44.0886C39.2095 43.8569 39.3687 43.7042 39.4579 43.6443C40.6585 42.8709 39.9444 43.65 39.2887 44.4652C38.4542 45.3161 36.0947 47.5768 35.626 48.6726C35.1166 49.7759 34.8333 50.7577 34.84 51.0203C34.8767 51.2748 35.0292 50.8718 36.1632 48.9877C36.6125 47.9371 38.8747 45.7696 39.6748 44.9538C40.0252 44.712 40.4748 44.3962 41.0209 44.0292C45.0683 41.5106 40.9072 43.2046 42.2333 41.9375C42.6087 41.5825 43.9558 41.0086 44.8894 40.5777C45.8446 40.1305 46.4362 39.7493 46.1249 39.237C46.9315 38.6689 46.7148 39.497 46.8449 39.4801C46.9027 39.472 47.2962 39.1751 47.6104 38.9396C47.9368 38.6981 48.1504 38.5355 48.2929 38.5937C48.3314 38.6064 48.5948 39.1743 48.6443 39.2031C48.718 39.2269 48.9133 39.0516 48.8432 39.0441L45.2834 43.0027C44.7721 43.811 44.7016 43.9883 44.6625 44.0126C44.6356 44.028 44.5445 43.8763 44.4686 43.675C44.3907 43.4779 44.3118 43.2642 44.1648 43.4066C44.0822 43.4832 43.9361 43.7435 43.8825 43.8417C43.8241 43.9492 43.8562 43.8676 43.9627 43.5865C44.1637 43.0346 44.6821 41.8244 44.667 41.6889C44.6401 41.4537 44.0128 42.805 43.7217 43.3932C43.5663 43.6973 43.4862 43.7749 43.4336 43.7062C43.3806 43.6389 43.3219 43.5131 43.1517 43.5236C42.8829 44.452 44.9633 38.4687 46.0097 36.5976C45.759 37.0858 44.0498 39.9 43.6532 40.7472C43.3335 40.3736 43.9384 38.6515 44.8042 37.3265C45.6563 36.005 46.5362 35.2339 46.0798 36.3971C46.706 34.9603 45.9089 35.6602 46.1793 34.7551C46.2441 34.5021 47.6623 32.913 47.8416 32.5501C47.8554 32.4661 46.1097 33.8376 46.2748 33.4026C46.4201 32.9831 47.6645 31.5644 48.878 30.5298C50.0983 29.4664 51.2607 28.7158 51.4498 28.6352C52.5535 28.1288 49.3038 30.8594 49.234 31.5222C49.2636 31.5038 52.5903 29.8604 52.6246 29.9755C52.8988 30.211 52.218 30.7294 51.5372 31.3059C50.8472 31.8828 50.1653 32.524 50.5516 32.604C51.4179 32.0339 52.2458 31.5689 53.0475 31.1675C51.8557 32.3852 49.761 34.1552 47.9902 36.4829C46.19 38.7984 45.1277 41.2745 45.1356 42.1455C46.1261 39.5285 48.392 36.3637 50.1449 34.9641C51.9192 33.4776 53.2275 33.1023 53.7002 33.7479C54.1043 34.2762 52.7249 35.9327 52.9025 36.0359C53.56 36.2264 55.3331 34.0176 55.4344 34.0288C55.5228 34.0143 55.5742 34.0243 55.5944 34.0541C55.5944 34.0541 55.5944 34.0541 55.5944 34.0542C55.806 34.2683 52.8556 36.933 52.8176 37.3258C52.7789 37.7593 54.9478 37.4147 55.0931 37.6691C55.0729 37.6981 53.272 39.8738 54.2835 39.5347C55.2877 39.1355 56.9546 37.8241 57.0363 37.8483C57.5174 37.7647 54.8167 40.3955 54.8857 40.7109C54.9081 40.7715 56.743 39.7308 56.8739 39.8532C57.0079 39.9229 56.1262 41.1578 56.093 41.9251C56.065 42.4707 57.1001 41.769 56.9912 41.9683C56.8637 42.0124 54.7897 44.6806 54.8469 44.909C54.8051 45.1603 55.5584 44.7164 55.5911 44.8712C55.6285 45.0784 55.0104 45.8909 55.216 45.8471C55.2849 45.8371 56.0994 45.1187 57.0055 44.6221C57.9095 44.1085 58.8255 43.8596 58.9532 44.0038C59.343 44.4577 56.1219 46.0426 60.0367 45.4052C60.0561 45.402 60.4056 44.793 60.4375 44.7922C61.0404 44.8983 60.0873 46.7522 61.8006 45.0572C60.3681 46.8387 60.709 47.1586 61.0739 47.0843C61.483 47.0223 62.1902 46.7698 62.391 47.3585C62.5082 47.8054 61.9494 48.8424 62.0275 48.8897C62.544 49.082 62.387 48.5673 62.6788 48.6307C62.8018 48.6882 62.8095 49.7317 63.2459 49.7483C63.4419 49.7543 63.8503 49.1078 63.9299 49.1019C64.4154 49.1069 64.4136 49.6595 64.6508 49.776C64.7901 49.865 65.1211 49.5698 65.1627 49.5805C65.1919 49.597 65.186 49.8468 65.2308 50.0953C65.2717 50.3462 65.3729 50.5826 65.4448 50.6835C65.5564 50.8357 65.89 50.8927 65.9264 50.9736C66.1669 51.4156 65.1082 50.8354 66.6009 51.6797C66.684 51.7437 66.6713 51.6922 66.6931 51.6997C67.0634 52.0148 67.0709 52.0745 67.4297 52.2583C68.0337 52.5957 67.5406 52.6208 68.0863 52.6916C68.3292 53.1428 68.1327 53.2681 68.2435 53.0179C68.0769 53.4121 68.9551 53.2631 69.3779 53.4451C69.6081 53.5302 69.7913 53.6766 69.8242 53.9225C69.869 54.1575 69.6893 54.5331 69.55 54.6353C69.7187 54.44 70.5205 55.0342 70.6533 54.9013C70.7957 54.782 70.4545 53.3806 72.1583 54.9062C72.3805 55.1124 71.5701 55.6557 72.195 55.7594C73.1982 53.867 72.5911 55.8841 72.5784 55.9796C72.8703 56.2132 73.3816 55.8208 73.7042 55.3274C73.8528 55.1144 73.9328 54.9109 73.7669 55.3085C73.5722 55.6938 73.2583 56.8427 71.7627 59.2956C70.9804 60.267 68.9216 63.0191 67.8463 63.6509C64.94 65.7288 62.9027 66.5107 62.3673 66.9031C60.8613 67.9085 60.5003 69.2571 60.319 69.3611C59.7273 69.6826 59.9613 68.9553 59.7376 68.8563C59.6245 68.8078 59.2839 69.2306 59.2161 69.5344C59.1243 69.8529 59.3279 70.0103 59.3208 69.979C59.247 69.7562 58.8119 69.3011 58.8041 69.2676C58.7754 69.2169 58.7637 69.1787 58.7816 69.135L62.7458 64.5813C64.7637 60.8082 64.7027 57.6553 63.6322 55.1756C63.8529 55.1508 64.3797 56.32 64.6303 56.9659C64.8873 57.6104 65.1383 58.0119 65.2148 56.6513C65.2176 54.2288 63.607 53.0759 62.9997 53.0337C62.7323 53.0075 62.5618 53.0666 62.5244 53.0513C59.8837 49.0794 55.6806 47.0439 50.5973 47.7891C55.7306 47.0267 57.5118 46.4949 58.1582 46.0989C58.8198 45.7406 59.3233 45.4511 59.676 45.2294C59.3852 44.7958 58.8502 45.1072 57.9307 45.6765C57.8339 45.7944 57.6558 45.9953 57.6221 45.9475C57.4596 45.7131 57.6368 45.455 57.7293 45.3026C58.5019 44.8064 59.156 44.4023 59.442 44.2419C59.7452 44.0705 59.7245 44.1628 59.7733 44.2633C59.6904 44.0637 59.5251 43.9394 59.2676 43.8661C59.0856 43.3321 59.1853 43.338 59.0941 43.6332C59.0103 43.9222 58.7636 44.5298 58.1918 44.9959C57.8136 45.3072 57.9313 44.3255 57.9027 44.3332C57.2544 44.4977 57.0729 45.5486 57.9084 45.2069C56.7768 46.1961 57.3941 46.3622 57.1389 47.3821C57.1297 47.4423 56.8048 46.8594 56.4334 47.681C56.3651 47.8382 56.266 48.2836 56.1991 48.6946C56.2089 47.7922 56.1928 46.8272 55.9812 46.6139C55.8305 46.4573 54.0231 47.6083 55.4786 47.8924C55.3816 48.1812 55.3115 48.4238 55.2636 48.6258C55.1386 47.1851 56.0912 48.5155 56.1863 47.714C56.2663 47.5769 55.1193 47.7405 56.4971 45.3262C55.1233 45.1468 54.9074 47.8881 55.0675 48.6114C55.1042 48.4063 55.1204 48.2489 55.0984 48.158C55.0044 47.7701 54.8167 48.0222 54.6498 48.5807C54.3686 47.729 55.0604 45.1278 56.0609 45.0035C54.8395 44.9009 56.0625 44.5525 56.5192 43.7697C57.0188 42.9477 56.5089 43.0889 56.7958 42.7134C57.1743 42.2517 57.3898 42.3433 57.5417 42.3425C57.6867 42.3548 57.7629 42.3044 57.6766 41.8893C58.2769 42.8814 58.5042 42.7745 58.3943 42.5005C58.3005 42.2145 57.7993 41.7862 57.511 41.6131C57.8412 41.2817 57.4967 41.2457 56.6016 42.0598C56.5572 41.9295 56.5134 41.7998 56.47 41.6707C56.2786 41.9018 56.0568 42.1885 55.8231 42.533C55.9548 42.5477 56.0851 42.5655 56.2135 42.5866C55.2948 43.1663 54.8716 44.0285 54.7639 44.5449C54.6461 45.0837 54.7713 45.3726 54.7361 45.4747C54.3806 46.5136 54.1733 47.6502 54.1256 48.5422C54.2723 46.8348 54.4073 45.2357 54.5143 43.8853C54.5356 43.5822 53.7966 43.6328 54.5217 41.5252C54.7461 40.8843 55.2907 41.5247 55.2432 40.799C53.7107 39.8645 54.9593 39.9789 54.9698 39.7429C54.9877 39.1058 54.5909 38.8639 54.5873 38.8218C54.5654 38.3156 54.3915 37.7901 54.8029 39.7968C54.804 39.8141 54.6233 39.6096 54.5042 39.557C54.3921 39.5198 54.2855 39.5127 54.5593 40.2087C54.6681 40.4235 54.9845 40.9364 56.2692 42.7761C57.3283 44.2954 61.1649 49.2945 67.6699 50.8286C67.333 50.5798 66.8929 50.4315 66.4145 50.5206C66.7725 50.7474 67.1179 50.9785 67.4269 51.2074C67.1588 50.8857 63.6124 50.6981 64.3483 51.4154C64.8073 51.8389 66.2975 50.8005 66.1216 52.0801C65.4116 51.3789 58.212 51.0002 57.5554 50.741C57.4772 50.6921 58.0097 50.3171 57.902 50.2553C57.8226 50.2038 56.0649 50.1802 55.8353 50.012C55.7005 49.9088 56.4984 49.7008 56.4443 49.548C56.4021 49.4318 54.1678 49.1413 54.018 49.6639C54.58 49.4718 56.1088 49.7352 55.2808 50.1321C55.1755 50.181 54.6537 49.8203 54.5237 49.8845C53.3325 50.4687 56.8177 50.4765 57.3312 50.5381C55.1664 51.0324 51.7773 50.1363 49.1916 50.6074C48.1447 50.184 50.735 49.9318 49.5486 49.5812C47.0721 48.8686 48.9051 50.1884 48.828 50.2441C48.2338 50.6839 46.0832 48.407 46.1505 50.1951C45.2533 49.9657 45.5323 49.7238 44.303 50.0273C44.472 50.1411 44.6414 50.2552 44.8113 50.3697C43.5071 51.4616 40.5008 49.1212 40.683 48.9102C41.1872 48.3192 42.7684 49.0215 42.8893 48.9953C43.0687 48.9561 43.4883 47.0902 45.7152 48.6061C46.5361 47.3407 42.2879 47.9759 44.176 47.0358C42.8338 47.2043 37.519 46.9251 37.0706 47.5964C37.0135 47.6784 37.5268 48.8115 36.4048 48.386C35.8777 48.1847 37.0344 47.9598 36.7694 47.7286C36.6284 47.6079 36.2208 47.572 35.7286 47.5985C35.2762 47.6115 34.6021 47.7461 34.652 47.7156C33.4542 48.0535 34.663 47.8738 36.6036 46.625C38.5938 45.383 40.3649 43.1042 40.9821 41.7839C41.6657 40.4112 41.761 39.7698 41.8395 39.5041C41.9029 39.2361 41.8972 39.3062 41.9076 39.4748C41.8524 41.3659 41.8276 42.8998 41.8068 43.6118C41.8002 43.783 41.4279 43.703 41.4236 43.8711C41.4092 44.3966 41.888 46.3043 41.6815 47.2177C42.4499 45.331 42.3602 49.0478 42.2609 49.9703C42.1032 51.3777 41.4465 51.2798 41.2908 51.8828C40.6864 54.2435 42.2337 57.7851 40.8025 59.4984C42.2513 59.3786 40.1493 62.4502 40.2295 63.6521C40.2803 64.6428 41.3585 65.6558 41.8392 64.5225C41.8649 65.2121 41.993 65.8423 42.104 66.0795C42.1558 66.1906 42.2087 66.206 42.1713 65.9267C42.1025 65.6181 42.0902 65.1394 41.2564 63.4879C41.2751 63.5145 41.294 63.5419 41.3132 63.57C41.403 63.7009 40.9163 63.7133 41.0899 63.9426C41.1094 63.9629 41.4923 63.7852 41.6583 63.9815C43.1847 65.7452 41.8751 65.3081 41.8945 65.8309C41.9233 66.1367 41.9872 66.3562 42.0523 66.4905C41.2825 65.5197 40.53 64.4927 40.2324 64.0436C40.7234 64.9992 40.8151 65.3488 40.9014 65.569C40.6638 65.4573 40.4995 65.2026 39.9174 64.2146C40.0328 64.96 41.7978 66.396 42.0836 67.1047C42.0953 67.1363 41.6135 67.3469 41.6298 67.3755C41.6302 67.3761 41.6306 67.3766 41.631 67.3772C41.7845 67.6869 43.3391 69.3491 43.5264 68.5938C43.5784 68.3976 42.9244 67.5982 42.196 66.6723C42.4754 66.8645 42.8032 66.3345 42.8559 66.3659C43.4619 66.7381 44.062 68.4102 44.408 68.9218C44.485 69.0383 44.7593 68.7916 44.7746 68.8082C45.0674 69.277 44.1296 69.8034 45.3157 69.5056C44.9975 71.1313 43.9428 68.2268 43.4313 68.9126C42.9466 69.5591 47.7471 73.9702 48.3913 72.9816C48.3346 73.0785 48.3058 73.2349 48.331 73.4601C48.389 73.9784 49.7015 74.8535 50.0095 74.8225C50.066 74.8166 50.6311 73.9877 50.6773 74.009C50.7869 74.0769 51.7564 75.637 52.4672 75.3148C52.2943 75.0653 52.1161 74.8036 51.9346 74.5304C52.7011 74.9802 52.987 75.0106 53.0972 74.9428C53.2024 74.8674 53.1164 74.6624 52.966 74.4147C52.9452 74.4007 52.9414 74.3557 52.9221 74.3408C52.6846 73.9673 52.3129 73.4887 52.3469 73.4155C52.4146 73.2813 53.0853 73.5569 53.5107 73.8046C53.9434 74.0616 54.1664 74.3425 53.8405 74.7154C53.7721 74.8391 52.997 74.0075 53.1843 74.8354C53.2362 74.9955 53.8763 75.062 53.8591 75.1279C53.8598 75.3873 53.5414 75.5755 53.1111 75.7219C52.6896 75.8744 52.1644 75.9781 52.109 76.3384C52.8097 75.9588 53.1179 76.4714 53.5267 76.4368C53.7094 76.4204 53.8951 75.9505 53.9146 75.9472C54.1867 75.8955 53.9018 76.3582 53.9843 76.3695C54.0688 76.3879 54.6392 75.3683 54.2557 76.8663C54.6125 76.6465 54.6669 76.4238 54.7066 76.2699C54.738 76.1128 54.7342 76.0087 54.7205 75.9422C54.6986 75.8068 54.545 75.8322 54.0748 75.7346C54.5383 75.2921 54.7203 75.5868 54.7478 75.4558C54.7587 75.409 54.796 74.8938 54.7806 74.7899C54.7796 74.7844 54.7784 74.7795 54.7769 74.775C56.3887 74.6565 62.1846 75.3383 63.5753 75.4473C62.6587 75.6315 62.9256 76.1938 63.6369 76.1529C64.342 76.11 63.7454 75.3627 63.8824 75.2813C64.0502 75.2067 67.2417 75.4995 67.7104 75.3672C65.4082 75.7202 65.9465 76.2686 67.9188 76.2501C67.6468 76.4241 67.3682 76.5969 67.0844 76.7685C68.2618 76.5111 70.6168 77.2055 71.1718 76.8834C71.2602 76.8337 70.8816 76.3968 70.9318 76.3687C71.4531 76.1282 73.139 76.3932 73.1677 76.2175C73.2099 76.0769 72.4908 75.7814 72.7101 75.5533C72.753 75.5062 73.4934 76.0444 74.0232 75.7843C74.2176 75.6888 74.0097 75.2744 74.0556 75.2393C74.4116 74.9483 74.3561 75.7334 75.0103 75.4584C75.4644 75.2553 75.5734 74.4601 75.9972 74.5668C75.6335 74.4494 75.3424 74.3731 75.2269 74.3025C75.1044 74.2332 75.1375 74.1751 75.2422 74.1169C75.4648 73.9997 75.8752 73.8851 75.9049 73.7142C75.8959 73.6703 75.6578 72.8855 75.728 73.2921C75.9316 73.5168 75.9724 73.729 76.0234 73.8625C76.0688 73.9993 76.109 74.0688 76.1429 74.0965C76.2188 74.1493 76.1869 74.0634 76.0155 74.0987C76.264 73.9051 76.4695 73.7419 76.5982 73.6612C76.6354 73.6424 76.9418 74.0812 77.2569 73.8814C77.2824 73.8636 77.047 73.5881 77.3139 73.3743C79.7659 71.3342 78.3349 72.8338 79.0394 72.7709C79.3476 72.7409 80.2126 71.4279 80.481 71.1794C80.5474 71.1225 80.7582 71.4362 81.0065 71.2082C81.4473 70.8008 81.5565 70.164 81.7946 69.8985C81.8209 69.8693 82.2406 70.2963 82.5828 69.6936C82.6776 69.5247 82.6652 69.2382 82.3679 69.2959C81.4186 69.4732 80.6992 71.3941 79.401 71.6779C78.2834 71.9157 80.7904 69.8614 80.834 69.7664C80.8763 69.7268 80.6319 70.3354 81.1165 69.9832C81.5389 69.6732 81.4582 68.3397 82.0199 68.0621C82.0647 68.0411 83.0249 68.2728 83.0478 68.321C83.0743 68.3528 82.6812 69.051 82.9352 69.144C82.9694 69.1518 83.3078 68.7801 83.4859 68.8586C83.7021 68.9584 85.5219 70.2656 85.6424 70.2107C85.9357 70.0796 85.4258 69.8945 85.5693 69.7785C85.8118 69.5865 86.6196 69.1971 86.6188 68.8672C86.5568 68.8673 86.475 68.8075 86.3263 68.7158C86.3152 68.7072 86.3097 68.6898 86.3114 68.662C86.2262 68.7323 86.1346 68.8086 86.0375 68.889C86.1171 68.7566 86.162 68.6569 86.1864 68.5785C86.0852 68.6201 86.0431 68.5117 85.9562 68.473C85.8763 68.4237 85.7925 68.3815 85.7454 68.3413C85.6314 68.2243 86.1995 68.6055 86.3607 68.4402C86.3762 68.426 86.4824 68.1575 86.5671 67.7909C86.6497 67.4336 86.6887 67.0218 86.5486 66.9896C86.6612 67.9483 85.9991 67.3201 85.9717 67.3553C85.8711 67.4529 86.2327 67.7997 86.1531 67.9454C85.6608 68.754 85.4173 67.5994 85.149 67.7037C85.0614 67.7348 85.364 68.0199 85.3382 68.0234C85.2523 68.0405 84.8003 67.7699 84.833 67.7983C84.9214 67.8432 85.553 68.2378 85.5921 68.2481C85.7267 68.3433 85.7445 68.3774 85.7379 68.2792C85.5335 68.3869 85.0804 68.2829 84.794 67.7771C84.4291 67.7901 85.2021 68.4006 84.753 68.3423C83.8626 68.2193 84.4347 67.8095 84.3965 67.6307C84.3828 67.5211 84.3764 67.4365 84.3762 67.3701C84.1922 67.4723 84.2245 67.4567 84.2784 67.4073C84.3376 67.349 84.4439 67.2276 84.5272 66.9058C84.6013 66.6279 84.2913 66.0958 84.3152 65.9475C84.3262 65.8983 86.2225 65.3937 83.7082 64.681C84.04 64.4305 85.8521 64.1933 85.8477 63.7406C85.8397 63.3501 84.9068 63.3349 84.8777 63.2942C84.8313 63.2362 84.9615 62.8182 84.8462 62.6578C84.7108 62.4722 84.3535 62.5205 84.2338 62.2501C83.9274 61.593 84.855 61.6522 84.9212 61.5841C85.6468 60.7886 84.297 61.1307 84.1919 60.9609C84.135 60.8258 84.4485 58.5326 83.965 58.1029C84.1899 58.26 84.411 58.4169 84.6305 58.5881C85.1489 58.1232 84.1268 57.9246 85.1543 57.6992C83.4828 57.9878 84.4147 57.0145 84.2966 56.7792C84.2536 56.6954 83.9779 56.7838 83.9334 56.6779C83.8952 56.5887 83.8609 56.4702 83.8264 56.3355C83.5348 55.3295 83.2324 54.0346 83.0057 53.7218C82.067 52.4291 82.1982 55.0718 82.3863 56.8012C82.3533 57.0608 82.331 57.248 82.329 57.2961C82.3101 57.2164 82.2489 57.0613 82.1531 56.8766C81.5105 55.2753 80.3968 53.1303 80.31 54.8848C80.2934 55.2341 81.2042 55.5713 81.292 55.745C81.8883 56.9436 80.9178 56.1635 80.8881 56.2814C80.8574 56.4254 81.2925 56.7745 81.5553 57.07C81.6377 57.1089 81.6926 57.1474 81.6792 57.1819C81.6626 57.217 81.0217 57.2168 81.1513 57.7024C80.9592 57.6808 80.8327 57.5374 80.7351 57.3352C80.2565 56.0817 79.9118 54.3751 79.7254 54.1376C79.6353 54.0416 78.7018 55.2085 79.0387 52.4283C78.9365 52.4947 78.8343 52.5611 78.7321 52.6275C78.2382 51.3879 77.7706 50.3875 77.5126 49.9752C77.778 49.8953 78.4188 49.9675 78.1398 49.6508C77.9974 49.5145 77.513 49.9086 77.4888 49.8994C77.4436 49.9025 77.2163 49.5722 77.5074 50.0299C77.738 50.3803 79.119 52.2902 81.9174 53.7394C81.2523 53.357 79.37 52.5474 78.8042 52.3586C78.281 52.1681 76.5504 52.043 76.4312 52.0131C75.6976 51.7864 73.1771 50.6006 72.6011 50.5C72.2493 50.4351 72.4177 51.0221 72.1228 50.9041C71.855 50.7961 72.2864 50.4159 72.2111 50.3707C71.5923 49.9544 66.1486 49.093 65.0351 48.3917C65.7485 48.683 69.8168 48.7599 69.8492 48.4241C69.8486 48.3735 69.002 47.7468 68.7649 47.8723C68.5585 47.3728 67.1225 48.332 66.6019 47.9392C66.5414 47.895 66.9871 47.2535 65.9546 46.8629C65.595 46.7283 64.517 47.0526 63.702 46.2244C62.188 46.1136 55.4489 44.1408 55.1158 44.9986C55.0977 45.037 55.9276 45.3842 55.3218 45.6501C54.5383 46.0115 55.3303 44.6329 54.4571 44.4448C54.3875 44.4305 53.7683 44.421 53.1928 44.4505C52.6233 44.4784 52.1514 44.5448 52.1216 44.5897C51.5831 45.399 53.1839 45.7189 53.2015 45.8257C53.0862 46.0489 51.7765 46.1932 51.7832 46.148C51.7242 46.0915 52.6476 44.9944 51.5383 45.4371C51.6605 45.5587 51.7879 45.6814 51.9225 45.8054C51.42 46.0703 51.3667 45.3406 51.2513 45.302C50.913 45.1829 50.8115 46.3321 50.5672 44.9707C50.4924 44.6106 50.414 44.2097 50.4097 44.1543C50.2671 43.6776 50.5929 44.9657 50.4887 43.9683C50.4803 43.9326 50.365 43.7923 50.3243 43.6401C50.3023 43.5644 50.2858 43.49 50.3073 43.4248C50.3353 43.3562 50.3805 43.311 50.6627 43.2035C50.6137 43.324 50.5808 43.4364 50.55 43.547C50.6358 43.6265 50.9654 43.6185 51.5851 43.364C52.2052 43.1218 53.0916 42.5258 53.3015 42.3197C54.4898 41.1256 52.9198 41.6434 54.2435 40.4513C54.1533 41.2018 55.1739 40.6243 56.0374 39.4517C56.9083 38.3022 57.3287 36.7861 56.877 36.8279C57.673 36.6259 58.3115 34.4348 58.203 33.1683C58.0625 33.925 57.8908 34.6706 57.8479 35.1967C57.7772 36.0579 58.1136 37.8227 58.0473 38.0982C57.9657 38.4274 57.2851 38.2851 57.0994 38.8772C57.0459 39.0505 57.4529 40.8577 56.6722 42.3917C56.5217 42.682 55.3287 43.2816 55.0629 42.6954C54.6065 41.7033 55.6369 39.9144 54.9485 39.9005C54.2095 39.8918 54.5261 42.3916 54.4035 43.0534C53.832 46.1052 53.1232 44.3066 52.882 44.3713C52.2968 44.5613 52.253 46.242 52.1997 46.3136C51.9595 46.5963 51.5455 45.3888 51.1954 45.3524C50.7376 45.3169 49.8554 46.9211 49.714 46.5449C49.5121 45.9956 50.2562 44.5294 50.2279 44.426C49.8336 43.1689 48.7079 44.8303 48.1722 45.2816C48.0071 45.4189 47.7657 44.8387 47.7144 44.956C46.9375 46.7437 49.1856 45.3867 48.9974 46.5875C48.8319 47.6501 48.1817 46.2555 48.1425 46.2926C48.098 46.3457 48.0192 47.6204 47.7679 47.8179C47.638 47.9203 46.4008 44.5199 45.7929 44.6411C45.8854 45.7178 45.9827 46.7922 46.0849 47.8649C45.2917 47.9217 45.9212 46.4021 45.8459 46.2421C45.6932 45.9161 45.2635 46.7943 45.0152 46.7473C44.8567 46.7238 44.3248 45.6561 44.0596 46.5949C43.9683 46.9233 44.4993 47.6248 43.9017 48.799C43.3003 44.6268 42.7712 47.4908 42.4871 47.6048C42.2037 47.711 41.6045 45.7114 41.6492 48.1256C40.1087 48.1832 41.1638 48.0687 40.9145 47.3625C40.6093 46.5142 40.0371 48.447 40.5253 45.3713C39.7973 45.5148 39.7687 48.0173 39.7101 48.1368C39.6548 48.2479 39.3162 47.6918 39.1906 47.8834C37.7363 50.1796 38.4148 48.596 37.5087 49.2511C37.4267 49.3011 37.0494 51.5243 36.9566 49.8287C36.7943 46.7389 37.8701 45.4864 35.7063 44.8912C34.6727 47.1477 36.0146 49.9668 36.0266 50.6561C36.0404 51.7255 35.6168 50.6012 35.4895 50.7368C35.448 50.7817 35.4682 51.7009 35.433 51.7149C33.7525 52.336 35.486 47.6231 35.2563 46.1258C34.9942 46.5088 34.7321 46.9138 34.4711 47.302C34.4773 46.7618 34.4849 46.2161 34.4936 45.6697C33.9082 48.2491 34.299 45.7577 32.9767 45.0617C32.6793 44.9046 33.1377 46.6299 32.3662 44.6502C32.1206 46.08 31.8611 45.6144 32.1992 46.9343C31.6581 46.8822 31.1483 43.9259 30.9232 42.7484C30.1581 46.8362 32.2216 44.5507 31.065 48.0717C31.7153 48.7495 31.6324 47.0544 31.7396 47.1915C32.1214 47.7017 31.4574 48.8439 32.8186 50.2743C33.0423 50.5063 33.7641 49.5603 33.7019 50.9814C33.6938 51.1387 33.0782 52.0318 33.0352 52.0201C32.5662 51.895 32.758 50.9988 32.5627 50.957C32.3771 50.9191 32.4715 51.9284 32.4205 51.9241C31.8303 51.953 32.2092 51.0807 32.0226 51.208C31.6162 51.4674 30.2897 55.0859 30.7409 50.3519C31.3392 54.2998 31.3756 50.8607 31.1584 49.3305C31.1034 48.9491 30.7543 48.824 30.6466 48.2758C30.5076 47.5514 30.7019 46.7291 30.6496 46.351C30.592 45.9525 29.6839 48.1866 30.0427 44.9252C29.1533 46.5565 29.9536 49.5367 29.3461 51.1659C28.1172 54.4837 27.9582 48.8087 27.8714 48.2285C27.8447 48.0721 27.3557 48.5805 27.3293 48.476C27.2857 48.301 27.6041 45.1089 27.2257 44.7818C26.8439 44.452 27.2025 45.9576 26.7905 46.0377C26.5085 46.0993 26.1637 42.2146 25.8967 44.2952C25.7107 45.7453 26.7434 48.4373 25.5424 48.8594C25.4967 46.7213 25.4702 44.5908 25.4603 42.4585C24.9587 43.599 24.4616 44.7538 23.9699 45.908C23.9057 43.4974 24.5038 41.4662 23.9676 39.1545C22.2584 44.5551 22.8898 37.3244 22.7283 37.2345C22.6229 37.2029 21.3335 39.2911 21.1023 39.6376C20.7306 37.6982 20.8624 31.8512 19.2041 35.1814C19.5678 34.5806 18.8504 33.0299 18.7888 33.0415C18.1308 33.1981 18.3548 36.5033 17.8066 35.937C17.1685 35.2713 18.1329 34.4515 18.1188 33.4985C18.0962 32.0022 17.7695 31.0691 17.3462 30.3418C16.9962 27.9428 16.578 26.4143 16.8207 23.7743C17.1164 21.2765 17.9721 17.2881 22.3754 12.3288C22.0423 12.5317 21.7102 12.7441 21.3796 12.9659C28.3406 4.72767 35.917 2.74702 40.9242 1.61785C46.1486 0.585909 50.2093 0.593031 53.9497 0.746365C56.9796 -0.292101 64.1659 -0.158947 67.3122 0.549294C67.971 0.670704 71.0051 1.79146 71.2039 1.93761C71.5999 2.19886 69.2143 1.80049 70.2226 2.3433C70.4571 2.43358 75.5252 3.77358 75.2787 3.14686C74.7279 2.94572 72.8715 2.82793 72.6021 2.63506C70.8461 1.10676 86.1275 5.79067 86.9097 5.8492C86.6274 5.56363 86.3413 5.27818 86.0657 4.99724C86.993 5.3816 87.9449 5.78416 88.855 6.18362ZM51.6833 45.2526C52.1871 45.6778 53.1441 44.7483 54.1507 44.2013C55.4668 43.7373 59.7781 41.9657 56.9797 41.8554C54.7726 44.2064 52.632 45.0426 51.6833 45.2526ZM60.9298 47.3007C60.2047 46.8518 61.0339 45.7397 61.5955 46.3746C61.6583 46.4473 61.9125 47.9133 60.9298 47.3007ZM53.5663 45.7763C53.5875 45.7597 54.1071 45.8196 54.1283 45.8414C54.5625 46.3632 53.0159 46.1825 53.5663 45.7763ZM79.1706 51.0864C78.8626 50.4497 77.9953 51.32 78.592 51.5822C78.6301 51.599 79.1903 51.1293 79.1706 51.0864ZM79.016 50.6133C79.7391 49.6974 77.569 49.8781 77.9994 50.3367C78.0358 50.3626 78.9742 50.6374 79.016 50.6133ZM58.2796 46.3518C58.4181 45.9797 59.1729 46.2855 59.5 46.4355C59.4306 46.7814 58.6056 46.3546 58.2796 46.3518ZM79.1263 51.9591C79.2821 51.68 76.6045 50.6814 76.2481 50.9933C76.7764 50.9901 79.0014 52.1933 79.1263 51.9591ZM78.853 50.2093C78.8952 50.2176 79.0547 50.4122 79.2336 50.6616C79.4063 50.907 79.5998 51.2013 79.4941 51.2865C78.6977 51.0458 78.4639 50.12 78.853 50.2093ZM81.3108 58.1499C81.379 58.1581 82.9673 57.3997 82.0606 58.5087C81.9247 58.6613 81.396 58.3254 81.3451 58.3843C81.2484 58.4988 81.2081 58.5767 81.21 58.6341C80.9959 58.2986 80.8265 57.9351 80.9152 57.8682C81.3381 57.5567 81.2844 58.149 81.3108 58.1499ZM82.9317 61.6311C83.2094 61.7275 83.022 62.2555 82.8928 62.3589C82.869 62.3763 82.1498 62.2165 82.1793 62.446C82.2022 62.6323 82.983 62.4468 82.8161 62.7973C82.644 63.1482 82.1846 62.583 82.1404 62.6155C82.0891 62.6474 82.3356 63.2474 81.9061 63.1534C81.5928 63.0855 81.8962 62.5586 81.8405 62.4078C81.7724 62.2193 81.215 62.3722 81.3587 62.0981C81.4469 61.9236 82.3821 62.1029 82.4333 62.067C82.4797 62.0298 81.9696 61.317 82.9287 61.6321C82.9297 61.6318 82.9307 61.6315 82.9317 61.6311ZM81.2716 58.7256C81.2346 58.7042 81.2113 58.6751 81.21 58.6341C81.2296 58.6651 81.2511 58.6954 81.2716 58.7256ZM50.619 45.1737C50.6399 45.3186 50.6728 45.4827 50.7446 45.5503C50.8094 45.6201 50.9584 45.5778 51.0093 45.3604C50.964 45.2131 50.8053 45.1759 50.7223 45.1578C50.6372 45.1408 50.6162 45.1509 50.619 45.1737ZM82.0953 58.9327C81.9511 59.5433 81.5706 59.1624 81.2716 58.7256C81.4768 58.844 82.139 58.7239 82.0953 58.9327ZM68.7649 47.8723C68.799 47.955 68.8032 48.0704 68.7594 48.2461C68.6736 48.0172 68.6889 47.9112 68.7649 47.8723ZM71.6036 49.0283C72.7677 48.8058 70.7133 48.2059 70.6199 48.5942C70.5795 48.7365 71.5595 49.0366 71.6036 49.0283ZM79.4742 52.0498C79.4961 51.956 81.5096 52.6058 79.6866 51.2719C79.8424 52.2514 79.3137 51.3497 79.1839 51.4221C78.7972 51.5678 79.7621 53.0484 79.7369 53.5499C80.5524 53.6111 79.3964 52.3431 79.4749 52.0518C79.4746 52.0511 79.4744 52.0505 79.4742 52.0498ZM81.4389 65.9593C81.1531 65.6133 81.4076 65.5072 81.4752 65.4508C81.8206 65.7257 81.5847 65.8167 81.4389 65.9593ZM55.1674 42.2223C55.964 45.2852 62.2506 51.5433 67.2455 52.3577C66.3821 51.8992 66.4856 51.2414 67.4678 51.5568C64.5376 50.8703 60.315 48.3937 58.0718 45.6166C57.8908 45.4302 56.7393 44.0979 56.11 43.2055C55.4681 42.3364 55.0746 41.7767 55.1674 42.2223ZM38.9839 50.7883C38.5655 50.057 39.5925 49.7924 40.358 50.0361C40.5374 50.0892 41.2125 50.8135 40.5451 51.0387C40.4656 50.0951 39.352 49.8563 38.9839 50.7883ZM82.6411 59.1841C83.1844 59.2863 82.8809 59.8823 82.8186 60.1606C82.3825 60.0198 82.5205 59.4621 82.6411 59.1841ZM58.7166 50.0099C58.3378 49.9163 58.0201 50.5715 58.0823 50.6332C58.3565 50.915 59.1151 50.4344 58.7166 50.0099ZM82.3447 57.4161C82.64 57.3014 83.1257 57.9906 82.3807 58.2049C82.4045 58.0399 82.1656 57.4897 82.3447 57.4161ZM81.8186 65.8422C81.9934 65.8714 82.0022 66.34 81.7686 66.3761C81.5307 66.1476 81.7248 65.8015 81.8186 65.8422ZM52.3514 49.8979C51.9922 49.8305 51.0906 49.8026 50.9878 50.0771C50.8635 50.4176 52.178 50.3155 52.3514 49.8979ZM60.9765 72.3481C61.0142 72.3937 61.0498 72.6455 61.1802 72.8035C61.3011 72.9679 61.5594 73.0017 61.6925 72.8188L66.7955 66.9569C66.8726 66.8141 66.9405 66.678 66.9996 66.5493C67.4404 65.5633 67.4462 65.282 67.3293 65.3657C67.1992 65.4565 66.9071 65.9404 66.3781 66.712L61.3924 72.4391C61.1712 72.4694 60.9832 72.4823 60.9419 72.437C60.8931 72.3966 60.9606 72.3255 60.9765 72.3481ZM62.2858 50.0695C63.198 50.8552 62.1733 50.0728 62.1201 50.7529C62.8022 50.8678 64.4043 51.1765 63.4023 50.3306C63.2044 50.1666 62.5978 50.1576 62.2858 50.0695ZM61.3647 49.7161C61.2245 49.9194 60.391 50.5177 61.0445 50.547C61.3436 50.5597 61.9228 49.8582 61.3647 49.7161ZM60.2778 45.4751C57.9536 44.8157 63.0345 46.5691 65.875 51.2645C68.2253 55.2447 68.0694 57.2626 68.2304 57.4723C68.308 57.6615 68.3712 57.7839 68.4218 57.8523C68.325 58.3568 68.2148 60.6062 68.6019 60.9933C68.7032 60.2307 68.7449 58.3101 68.6458 58.0702C68.6161 57.9723 68.5887 57.8997 68.5627 57.8503C68.6392 57.3652 68.8759 55.1034 66.386 50.95C64.117 47.3043 60.6441 45.606 60.2778 45.4751ZM55.1224 43.4706C54.6161 44.4916 54.088 43.0467 54.173 42.9831C54.9064 42.2083 54.572 43.4088 54.6112 43.4548C54.7042 43.5262 55.1189 42.9062 55.1203 43.4711C55.121 43.471 55.1217 43.4708 55.1224 43.4706ZM53.9868 43.8204C54.2427 43.7321 58.1984 44.622 58.3 44.771C59.8833 45.1829 58.1504 44.194 56.1385 43.7752C54.131 43.3396 52.037 43.5204 53.9868 43.8204ZM83.5188 64.6708C83.2845 64.9505 82.84 64.4889 83.0842 64.3372C83.1072 64.3246 83.7233 64.4196 83.5188 64.6708ZM60.8306 49.801C60.7277 49.6563 56.756 48.9049 56.9256 49.7775C57.3147 49.6724 61.7043 50.5604 60.8306 49.801ZM40.8866 46.5678C38.4436 48.8953 41.8642 46.9318 42.5287 45.3825C42.7891 44.8429 41.4833 45.9754 40.8866 46.5678ZM82.5262 55.6129C81.8466 54.9315 83.2856 54.6426 83.0438 55.5119C83.0344 55.5463 82.5529 55.64 82.5262 55.6129ZM36.7039 50.4935C35.909 50.8915 35.712 50.4345 35.6844 49.9635C35.6823 49.4932 36.0921 48.954 37.527 49.1527C37.459 49.2766 37.3933 49.4002 37.3303 49.5238C40.6008 49.4257 37.484 49.6569 36.8748 49.9237C36.6292 50.0226 36.9139 50.3957 36.7061 50.4961C36.7054 50.4952 36.7046 50.4944 36.7039 50.4935ZM44.4702 39.6697C44.0461 39.4682 43.7746 39.5394 43.6326 39.5046C43.4867 39.493 43.4666 39.4508 43.4566 39.6473C43.4396 39.8399 43.4471 40.3363 43.1138 41.3799C42.8096 42.3934 41.9398 44.0202 41.0538 45.0028C42.9745 43.1542 43.607 41.593 43.9093 41.2348C44.0609 41.0287 44.1521 41.0011 44.1828 41.2535C44.1793 41.5445 44.2477 42.0304 43.565 43.7143C44.8077 41.4026 44.7315 40.8775 44.8218 40.4747C44.8563 40.1175 44.7861 40.0425 44.7119 39.9924C44.559 39.9056 44.331 40.0793 44.3103 40.0293C44.2727 39.8858 44.5453 39.6932 44.4702 39.6697ZM35.2763 50.3009C35.3059 50.2831 35.3702 50.2635 35.4897 50.232C35.3664 50.3184 35.5693 50.521 35.7098 50.4359C35.6611 50.7892 35.5001 50.8388 35.633 50.6627C35.2299 50.7407 35.1718 50.6811 35.1257 50.6114C35.1052 50.5332 35.0093 50.4723 35.2763 50.3009ZM57.6866 41.9125C57.9033 42.3371 58.0685 42.6556 57.5275 42.7631C57.5598 42.4693 57.6978 42.1472 57.6866 41.9125ZM51.247 42.6945C51.6416 42.4978 52.8507 41.4147 52.7494 42.0993C52.7333 42.1388 52.3374 42.4232 51.9778 42.5894C51.6135 42.7621 51.3058 42.8216 51.247 42.6945ZM48.9406 48.8427C48.8108 48.7739 45.6057 48.8326 46.7292 49.3233C47.0671 49.4594 49.9717 49.3455 48.9406 48.8427ZM64.7171 50.0604C64.5032 50.0124 63.5607 49.9405 63.5217 50.0502C63.3995 50.422 64.5573 50.406 64.7171 50.0604ZM54.1424 39.7582C54.1686 39.6928 54.7541 39.0264 55.2439 38.322C55.7415 37.6254 56.134 36.9348 56.1572 37.1623C56.2019 37.5914 55.7007 38.4754 55.1411 39.0723C54.5835 39.6817 54.0423 39.9958 54.1424 39.7582ZM84.2071 66.1634C84.1985 66.236 83.6855 66.1269 83.6727 66.1434C83.6615 66.1635 83.5914 66.4625 83.4832 66.6112C83.3731 66.766 83.2329 66.7805 82.9896 66.5253C82.9442 66.4901 83.107 66.2496 83.3245 65.8406C83.5387 65.4483 83.7675 64.9537 83.8305 64.8456C84.5432 64.9496 83.66 65.5427 83.6671 65.7169C83.6694 65.7512 84.2215 65.9749 84.2045 66.1619C84.2054 66.1624 84.2062 66.1629 84.2071 66.1634ZM56.4379 43.1845C56.517 43.3953 56.4555 43.6264 56.1945 43.7737C55.9479 43.9182 55.515 43.9609 55.461 43.692C55.9972 43.4914 56.3077 43.3105 56.4379 43.1845ZM56.5929 43.1977C56.7603 43.4703 56.758 43.5927 56.6077 43.5027C56.5097 43.2153 56.5853 43.1502 56.5929 43.1977ZM59.4625 47.6287C59.1432 47.708 60.0272 48.458 59.8008 48.5643C59.6593 48.6291 58.9962 48.3167 58.7566 48.503C58.6906 48.5623 59.3306 49.2432 59.532 49.2374C59.8196 49.2307 59.5934 48.7176 59.9046 48.7465C60.9353 48.8441 61.7858 49.3019 62.693 49.4275C62.776 49.438 62.1878 49.0036 62.8883 49.1119C62.999 49.1289 63.5694 49.7314 64.3744 49.7995C65.8892 48.8745 66.8066 49.6521 67.8776 50.0799C63.2153 49.0583 58.807 44.556 57.8815 42.1059C58.0362 42.2158 58.5777 43.3038 60.3672 45.132C62.07 46.9877 65.7203 49.0339 68.0395 49.4965C67.9182 49.4218 67.8276 49.3706 67.8087 49.3618C66.3464 48.6653 62.8323 48.0108 60.607 47.7819C60.0442 47.7181 60.2813 48.0825 60.0372 48.0687C59.8432 48.0579 60.1395 47.4615 59.4625 47.6287ZM50.8804 42.4913C50.7499 41.8706 51.6987 41.8361 52.419 41.2328C52.4796 41.9201 51.1467 42.2431 50.8804 42.4913ZM55.8536 46.2236C55.8609 45.8366 56.1391 44.7206 55.9592 44.6201C55.7263 44.4722 55.4401 46.0972 55.8536 46.2236ZM78.8699 71.606C78.8619 71.6347 78.3542 71.9713 78.3212 71.9699C77.5931 71.8901 79.1038 70.8905 78.8699 71.606ZM69.2928 74.6429C68.7843 74.7542 68.2529 74.9755 68.0469 74.4805C68.3991 74.5429 69.3328 74.2896 69.2928 74.6429ZM52.139 73.4722C51.8487 74.0764 51.2315 73.1546 51.099 72.9764C51.3448 72.7998 52.3616 73.058 52.139 73.4722ZM58.8339 43.6393C58.4062 43.859 58.9761 44.6804 58.3579 44.5137C58.2303 44.4962 57.0672 42.7685 58.0523 43.0976C58.2077 43.1664 58.1388 43.7916 58.8339 43.6393ZM37.9761 49.1053C38.134 48.6394 38.8744 48.6674 39.4026 48.6402C39.3139 48.9758 38.3033 49.0226 37.9761 49.1053ZM56.3 34.3907C56.1231 34.0778 56.1472 33.4817 56.195 33.0294C56.17 33.8523 56.3841 34.6648 56.6568 34.2935C56.6878 34.2462 56.6502 33.667 56.6171 33.0586C56.5197 33.5498 56.3366 34.1832 56.3 34.3907ZM84.7493 60.2772C85.2587 60.7481 85.3595 59.7 84.8424 59.4248C84.8939 59.5712 84.7192 60.2492 84.7493 60.2772ZM54.2149 74.9156C54.2036 74.9347 53.9413 74.7896 53.9316 74.7583C53.9006 74.4728 54.0924 74.4495 54.2098 74.5156C54.3273 74.5821 54.3905 74.7476 54.2149 74.9156ZM74.0304 74.8816C73.9197 75.3251 72.1338 75.2745 71.632 74.9158C72.048 74.3028 74.2533 74.346 74.0304 74.8816ZM58.3385 43.8467C58.6904 43.4614 58.8099 43.2053 58.7728 43.01C58.6613 42.8849 58.5945 42.9423 58.4827 43.1618C58.378 43.3716 58.258 43.745 58.3385 43.8467ZM52.966 74.4147C52.9452 74.4007 52.9414 74.3557 52.9221 74.3408C52.9376 74.3652 52.9516 74.391 52.966 74.4147ZM57.246 38.1231C57.3793 38.121 56.7737 38.2444 56.7516 38.2208C56.5389 38.1142 57.1044 38.2228 57.246 38.1231ZM50.9652 41.4167C50.9123 41.1265 51.1353 40.9658 51.4851 40.749C51.8346 40.5356 52.3397 40.2225 52.6275 39.8557C52.6841 40.1062 52.3379 40.5318 51.9452 40.8429C51.5528 41.1583 51.1664 41.3369 50.9652 41.4167ZM43.2529 41.218C42.8691 41.7361 42.5314 40.6488 42.4142 39.5022C42.303 39.3018 42.2803 39.3736 42.4169 39.5103C42.6177 39.5419 42.9147 39.3069 43.0939 39.539C43.2198 40.3743 43.2946 41.1546 43.2529 41.218ZM85.4182 58.6457C85.8478 58.542 85.1932 57.8836 85.0199 58.085C84.9126 58.2063 85.1553 58.7056 85.4182 58.6457ZM42.273 40.9759C42.1309 41.1742 42.021 41.6449 41.9382 42.0922C41.8575 42.5383 41.8413 42.9139 42.1203 42.6768C42.8615 42.0114 42.3625 40.8401 42.273 40.9759ZM54.9528 46.9216C54.8231 46.845 53.0212 47.2306 53.7441 47.7001C54.2426 48.0263 54.3457 47.4008 54.4661 47.4036C54.6041 47.4048 57.3979 48.3239 54.9528 46.9216ZM42.4452 61.0648C42.2569 60.4052 42.4346 59.569 42.4145 58.8322C42.6847 59.1381 42.7913 60.7799 42.4452 61.0648ZM85.7144 61.4834C85.9339 61.4021 85.9114 58.9459 85.4448 60.3565C85.4319 60.4449 85.1815 61.7313 85.7144 61.4834ZM58.8339 43.6393C58.8821 43.6144 58.9414 43.6009 59.0112 43.6061C58.9561 43.6224 58.8917 43.6289 58.8339 43.6393ZM56.9708 45.8039C57.2642 46.1123 57.4652 44.6858 57.3276 44.2772C56.9523 44.1123 56.931 45.7496 56.9708 45.8039ZM41.9713 58.7818C41.7847 58.3612 41.9741 57.5818 41.9535 57.0386C42.2469 57.1377 42.2671 58.6005 41.9713 58.7818ZM49.6067 73.5581C49.2714 73.0784 48.6688 72.6703 48.4234 72.9342C48.4506 72.8833 48.4675 72.8189 48.4703 72.7418C48.4735 72.6678 47.8732 72.3637 47.7446 72.0753C47.3625 71.2169 48.6516 72.2997 49.4903 73.1004C50.315 73.883 50.7919 74.6716 48.6911 73.6771C49.0011 73.6446 49.3066 73.605 49.6067 73.5581ZM75.9118 75.2903C76.2631 75.6427 76.4344 74.9857 76.2718 74.8628C76.2095 74.7674 75.6158 74.9228 75.9118 75.2903ZM60.796 76.7176C60.9485 76.799 62.3106 76.5019 62.342 76.2695C61.5767 76.024 60.1158 76.345 60.796 76.7176ZM76.903 75.455C76.9535 75.5026 76.5738 74.9039 76.5564 74.8784C76.4651 74.6322 76.7024 75.1153 76.903 75.455ZM60.3409 44.9151C60.4131 44.9877 60.3596 44.9278 60.1726 44.8842C59.9914 44.834 59.6794 44.8129 59.4486 44.7247C59.4983 44.8062 59.5383 44.9395 59.5499 45.1559C59.5503 45.1555 59.5506 45.1551 59.5509 45.1547C59.5618 45.2273 59.291 45.6067 58.9433 46.3971C58.5879 47.1759 58.3514 48.277 58.3077 48.8496C58.4396 46.6777 58.3839 45.5266 57.7625 48.8095C57.74 48.6249 57.7255 48.3947 57.7352 48.1052C57.7518 47.8955 58.0768 48.2644 58.2175 47.4255C58.2286 47.3691 57.9062 47.2441 57.9482 47.0588C57.9923 46.8516 58.1833 46.1448 58.4865 45.5749C58.788 44.9936 59.1071 44.6385 59.2913 44.6328C59.2441 44.5902 59.2091 44.5378 59.1906 44.4741C59.1126 44.1819 59.4944 44.1422 59.7719 44.3342C60.0598 44.5147 60.2821 44.8629 60.3409 44.9151ZM58.0236 76.7337C58.3084 76.8671 59.2074 76.7635 59.3041 76.4623C58.8686 76.3073 57.3668 76.4235 58.0236 76.7337ZM86.9572 61.4365C87.2182 61.1348 86.7344 60.3747 86.4924 60.6139C86.3523 60.7486 86.6661 61.7697 86.9572 61.4365ZM66.5817 76.5842C63.5946 76.2942 65.8734 76.6305 65.4254 77.0844C65.8181 76.9197 66.2015 76.7531 66.5817 76.5842ZM53.2311 46.285C53.7079 46.3106 53.3267 47.2609 52.6808 46.8815C52.4794 46.7605 52.9657 46.272 53.2311 46.285ZM73.3045 58.457C72.4482 59.2481 73.4597 57.1784 73.8323 56.4177C74.0534 55.9955 74.2195 55.7934 74.3545 55.7399C74.4843 55.6979 74.6094 55.732 74.6108 56.0894C74.6055 56.1239 74.4403 56.4297 74.1353 57.0031C73.8461 57.5521 73.358 58.394 73.3045 58.457ZM62.0785 51.6033C61.8024 50.5221 61.436 49.7456 58.9596 48.3708C60.7064 49.5308 60.5827 49.8142 60.5824 49.9256C60.5494 50.0914 60.6259 50.0632 62.0785 51.6033ZM48.3913 72.9816C48.4023 72.9629 48.4101 72.9488 48.4234 72.9342C48.414 72.9518 48.4034 72.967 48.3913 72.9816ZM78.1581 74.464C78.6822 74.6519 79.398 74.1045 78.9183 73.8918C78.8746 73.8735 78.0843 74.1162 78.1581 74.464ZM59.4486 44.7247C59.4043 44.6531 59.357 44.6284 59.2913 44.6328C59.3357 44.6729 59.3867 44.7 59.4486 44.7247ZM76.4305 75.8984C76.3538 75.577 75.6655 75.6601 75.6205 75.7078C75.3125 76.394 76.2462 75.9979 76.4305 75.8984ZM86.3413 54.8786C86.2932 54.8187 85.8928 55.3124 85.9305 55.6551C85.9277 55.7096 85.9586 55.7519 86.0421 55.7717C86.2049 55.8102 86.3628 55.6621 86.438 55.491C86.4718 55.2639 86.4462 55.0079 86.3413 54.8786ZM64.648 59.2008C64.6649 60.1164 64.3739 61.5535 64.6503 62.0152C64.8861 61.1335 64.9803 59.1716 64.648 59.2008ZM67.0673 64.6833C66.1637 65.9484 63.8086 67.3368 62.6847 67.8329C62.5262 67.5565 63.2207 67.1215 64.2304 66.5298C65.2233 65.9556 66.5693 65.1381 67.0673 64.6833ZM60.008 44.8669C60.0209 44.8738 60.1338 44.8603 60.1734 44.8271C60.2162 44.7918 60.1879 44.7384 60.052 44.5756C59.854 44.3356 59.831 44.3474 59.8353 44.4692C59.8431 44.5885 59.8948 44.8048 60.008 44.8669ZM86.4223 56.7331C86.7929 57.005 87.4598 55.9755 86.6784 55.8051C86.2879 55.7284 86.3679 56.6934 86.4223 56.7331ZM80.742 73.3139C81.0745 72.7465 79.6118 73.3235 79.6895 73.8074C79.9468 73.6645 80.621 73.5191 80.742 73.3139ZM63.0349 77.8829C65.5132 79.1519 64.1461 76.8232 63.7196 77.0318C63.6603 77.0618 62.9752 77.8531 63.0349 77.8829ZM53.6128 38.1172C53.7692 38.4995 54.4908 37.1471 54.0786 36.9463C53.82 36.8194 53.5126 37.8723 53.6128 38.1172ZM42.0523 66.4905C42.1001 66.5512 42.1482 66.6118 42.196 66.6723C42.1454 66.6375 42.0959 66.5797 42.0523 66.4905ZM85.7464 71.0852C83.6467 70.6898 84.7182 71.5557 84.6379 71.6319C84.461 71.7817 83.7374 71.8025 83.4592 72.1633C83.7036 71.665 83.9191 71.1751 84.1003 70.7007C83.8275 70.8721 80.7328 72.6879 80.7902 72.9614C80.965 73.359 81.7971 72.5212 81.8404 72.527C81.9101 72.5371 82.7947 73.3087 82.9089 73.2694C83.1455 73.2047 85.3174 71.1948 85.7464 71.0852ZM68.0193 77.5808C67.6492 77.4595 67.5256 77.0041 67.359 77.1205C67.302 77.1603 67.3094 77.5987 67.1116 77.7192C67.4187 77.6745 67.7218 77.6284 68.0193 77.5808ZM85.6132 68.6998C86.1994 68.8169 85.3626 69.5766 85.2647 69.5834C84.8666 69.4989 85.1779 68.5694 85.6132 68.6998ZM76.8256 76.1651C76.8421 76.1755 76.9865 76.1704 77.0716 76.1404C77.1618 76.1085 77.1906 76.0561 77.1212 75.9249C77.0501 75.8344 76.9302 75.8129 76.8097 75.8678C76.6929 75.9212 76.6147 76.0375 76.8256 76.1651ZM66.8637 77.7574C66.3013 77.7262 65.2059 77.3053 65.3406 77.9624C65.3415 77.9624 65.3423 77.9624 65.3432 77.9623C65.8591 77.8975 66.3651 77.8294 66.8637 77.7574ZM88.0439 57.609C88.9396 56.7287 87.7129 57.3331 87.4802 57.9522C87.9754 58.046 87.8968 57.7483 88.0439 57.609ZM88.2685 55.2567C88.2942 55.2044 88.2786 55.0771 88.2303 54.9114C87.9225 53.8911 87.0987 52.1057 86.8063 52.6204C86.6717 52.8376 87.7449 54.5116 87.737 54.6159C87.7259 54.7584 87.0127 54.3891 87.3355 55.2008C87.3452 55.2223 87.3567 55.2452 87.37 55.2693C87.5575 55.1691 88.2282 55.3392 88.2685 55.2567ZM88.5896 56.9166C89.2122 56.0453 87.7362 56.2506 87.8558 56.7511C87.8988 56.9435 88.4975 57.0364 88.5896 56.9166ZM88.867 59.7058C88.9918 59.4566 89.1313 58.7684 88.5789 58.388C88.6223 58.989 88.6361 59.5832 88.622 60.1731C88.9027 60.2278 88.7604 59.9283 88.8669 59.7042C88.8669 59.7047 88.867 59.7053 88.867 59.7058ZM69.7573 54.9308C69.6775 54.7229 69.5265 54.6636 69.4627 54.6127C69.3939 54.5648 69.4547 54.5021 69.4922 54.5395C69.6081 54.6668 69.6629 54.8297 69.7079 54.9204C69.7493 55.0137 69.7945 55.0221 69.7573 54.9308ZM39.8918 44.8518C39.7153 45.1172 39.1609 45.2681 39.4277 45.8658C39.8524 45.2909 40.2785 44.716 40.7059 44.1424C39.7973 43.6433 40.0857 44.5752 39.8918 44.8518ZM36.4282 47.0015C36.4086 46.9157 34.9679 47.3349 35.9547 46.2731C36.6182 45.5575 37.1239 49.5707 36.4833 50.2687C36.2054 49.46 36.5876 47.7341 36.4282 47.0015ZM30.1149 53.9496C29.9997 53.9916 29.8489 52.4357 29.9329 52.2574C30.3684 51.3235 30.7232 53.6875 30.1149 53.9496ZM30.4691 49.01C30.1745 49.7253 30.0353 48.1188 30.2093 47.644C30.4756 47.6005 30.5117 48.8949 30.4691 49.01ZM51.5003 45.6448C50.4998 45.0932 50.944 47.2214 51.6444 46.3622C51.678 46.3213 51.5475 45.6729 51.5003 45.6448ZM28.6925 52.4042C28.9793 51.6841 29.1354 53.3034 28.9736 53.7833C28.7073 53.8337 28.6495 52.5219 28.6925 52.4042ZM50.0063 43.8326C48.9352 43.6183 50.2802 45.5504 50.4336 45.5764C51.0726 45.6668 51.7771 44.2004 51.7627 43.9223C51.1886 44.4935 50.7316 44.5489 50.5342 44.383C50.3175 44.2243 50.2526 43.8852 50.0063 43.8326ZM46.2621 47.4633C45.338 48.2955 48.2588 47.1414 48.3401 46.3887C47.9128 46.6457 46.5448 47.2035 46.2621 47.4633ZM38.5655 60.082C38.3932 61.2733 39.393 65.4725 40.3503 66.1158C39.1952 64.4203 38.8797 60.5505 38.5655 60.082ZM37.9752 63.309C38.0359 64.5146 38.6024 65.2126 38.8645 65.2047C39.1425 65.2033 39.1027 64.5705 38.533 63.3657C38.4895 63.2735 37.9805 63.2195 37.9752 63.309ZM47.3573 74.1941C48.9135 75.3492 51.1413 74.3056 48.4771 73.6425C47.718 73.4065 47.2069 74.0649 47.3573 74.1941ZM47.8471 42.1297C47.0994 42.2405 46.6671 43.6091 48.1566 42.9536C47.7523 43.3403 47.2904 43.7547 46.7813 44.2038C49.1226 43.6038 48.1698 42.5294 48.6904 42.3165C49.3286 42.0674 49.8169 43.1152 49.8828 43.4945C49.9911 42.8761 50.8927 42.1676 51.0518 41.904L48.361 44.8963C47.7118 45.9669 47.9304 45.6141 48.1064 44.9947C47.8055 45.5514 47.4188 45.8867 47.9645 44.6524L50.7673 41.5355C50.4507 41.4703 49.6702 41.6425 48.9525 41.8864C48.6502 41.9892 48.492 42.4322 48.1822 42.5551C47.6764 42.7544 47.8907 42.1258 47.8496 42.1285C47.8487 42.1289 47.8479 42.1293 47.8471 42.1297ZM58.7489 74.3311C60.6358 74.6632 59.2401 73.477 58.326 73.887C58.2878 73.9132 58.7016 74.3231 58.7489 74.3311ZM24.3632 54.4921C24.976 52.3336 25.7274 53.896 24.6225 49.4214C25.4262 51.3144 25.2273 49.5311 25.56 49.9081C25.8225 50.2117 25.5787 51.3028 26.1337 50.6701C25.5199 51.4882 25.6487 55.1757 25.5606 55.3477C25.5606 55.3464 25.5606 55.3451 25.5606 55.3438C25.5041 55.4367 24.1718 55.2071 24.3632 54.4921ZM34.8659 60.3426C33.3499 62.1879 35.8561 62.2227 35.7053 66.0794C37.7567 68.0952 35.8783 64.6443 35.5233 61.1884C34.9706 57.7512 36.0324 53.3612 37.3521 52.6352C34.7702 64.8547 37.2628 52.9913 38.7296 50.4932C39.0865 49.6585 40.8838 47.9365 41.5195 47.2884C41.5903 47.1189 41.5325 47.0056 41.2818 46.9876C40.625 47.6573 38.7678 49.4367 38.3989 50.2992C37.9932 50.6034 37.1758 51.4536 36.2774 52.9932C36.7988 51.8198 37.3727 50.8275 37.9138 50.0146C38.3001 49.1113 40.2452 47.2477 40.9331 46.5463C43.7955 44.9352 40.8598 45.8254 41.3126 45.1255C41.9427 44.1893 44.4989 43.1066 44.026 42.6557C44.0247 42.6564 44.0235 42.6571 44.0223 42.6578C42.8673 43.3716 41.5268 44.2485 40.0662 45.4492C39.301 46.2294 37.1374 48.3023 36.7077 49.3071C36.381 49.8761 36.1007 50.4374 35.8607 50.9799C37.4816 49.2997 37.0174 50.5562 36.2461 52.2867C35.4648 54.033 34.6848 56.2604 34.0468 57.4289C34.2473 58.4441 34.5233 59.4068 34.8659 60.3426ZM45.1421 44.4565C45.0724 44.4788 44.3537 44.9346 43.6202 45.5016C42.8919 46.0591 42.1734 46.7357 42.3643 46.7681C42.6422 46.6645 43.8958 45.7886 44.718 45.2132C45.5441 44.6261 46.026 44.1894 45.1421 44.4565ZM47.8081 43.5168C47.4894 44.2234 47.1459 44.9657 47.0573 45.1533C46.9526 45.3802 47.1825 44.8911 47.6686 44.4703L50.5549 41.2605C50.5682 41.2892 50.5839 41.3211 50.6024 41.3564C50.6083 41.3522 50.6143 41.3485 50.6204 41.3453L47.7598 44.5264C47.2834 45.3506 47.3378 45.5516 47.4819 45.1462C47.6246 44.7686 47.8577 44.0088 47.8081 43.5168ZM79.1646 66.4291C79.7517 65.615 78.8975 66.2191 78.1262 66.8149C77.3536 67.4154 76.6507 68.0321 77.4257 67.7763C77.4951 67.7743 79.1014 66.5348 79.1646 66.4291ZM37.6608 68.5225C37.6732 68.5492 37.6857 68.5756 37.6982 68.6018C39.4996 71.9434 39.7246 70.1558 38.3747 68.1856C38.197 67.9025 38.003 67.6094 37.7964 67.321C37.6779 67.1595 37.55 68.3092 37.6608 68.5225ZM24.1747 52.7381C23.7617 52.6529 24.104 49.5469 24.1178 49.0067C24.4864 49.3248 24.6391 52.8258 24.1747 52.7381ZM48.1377 39.6932C46.5631 40.9158 45.5769 43.0275 45.3803 43.9628C45.2721 44.4396 45.3298 44.6118 45.5185 44.4864C45.7026 44.37 46.037 43.9782 46.3347 43.6495L49.5976 40.021C49.6259 40.067 49.6382 40.0976 49.6319 40.0955C49.589 40.0802 49.2336 39.5411 49.2163 39.5324C49.2051 39.5169 49.186 39.5438 48.9786 39.6935C48.788 39.8335 48.4176 40.0721 48.3921 40.1115C48.3557 40.172 49.0764 40.8064 48.8987 41.2331C49.1014 40.8456 49.7751 40.3661 49.8221 40.3116L46.6474 43.842C45.7645 45.4402 46.1919 44.7883 46.4837 43.9948C46.8196 43.1777 47.2394 42.3164 47.2786 42.184C47.3425 41.9628 46.7846 42.5139 46.5763 42.5429C46.4032 42.5743 46.3032 42.1462 48.1335 39.6996C48.1349 39.6974 48.1363 39.6953 48.1377 39.6932ZM49.4334 39.9946C49.5952 40.1129 49.6244 40.2249 49.5298 40.3376C49.4405 40.4475 49.1845 40.5756 49.0375 40.5796C48.7057 40.5898 48.8851 40.3932 49.0782 40.2321C49.2787 40.0666 49.4168 39.9787 49.4334 39.9946ZM46.7847 41.0725C46.6242 41.0556 44.5427 42.0759 44.4909 42.6037C45.922 42.4218 47.3208 41.0196 46.7847 41.0725ZM60.6898 76.9222C61.2844 76.7627 63.1824 76.6753 63.2139 76.2801C62.5308 76.5086 60.7055 76.5483 60.6898 76.9222ZM21.2497 42.0746C20.9044 42.9245 20.8625 40.9184 21.039 40.3426C21.2858 40.3239 21.2783 42.0066 21.2497 42.0746ZM35.1229 71.1103C35.3538 71.5078 37.4196 74.7457 41.3283 77.1621C45.1345 79.6562 51.0471 81.0024 55.9996 80.0056C56.6945 79.8298 57.4752 79.6463 57.733 79.551C57.4565 79.5071 56.6557 79.5666 55.9392 79.6456C45.558 81.9776 35.869 72.1501 35.7943 71.1963C35.5542 70.9246 35.0398 70.9525 35.1229 71.1103ZM46.8655 38.1461C46.9325 37.4902 47.3858 37.9802 47.4239 37.9681C47.5925 37.9193 47.751 37.811 47.8381 37.8079C47.929 37.8028 47.988 37.8827 48.129 38.1039C48.0405 38.0389 47.8255 38.3181 47.4593 38.5341C47.1026 38.7456 46.769 38.8116 46.8655 38.1461ZM61.7146 79.2297C64.3947 78.4785 59.1095 78.9516 59.9318 79.3532C59.9657 79.3851 61.4244 79.3139 61.7146 79.2297ZM33.3601 68.2726C32.0774 66.4361 28.7866 57.0973 34.2346 47.8564C34.7533 46.6435 37.365 44.1413 38.2886 43.1995C40.1063 41.8244 41.3826 41.1327 41.8296 40.8522C41.1465 42.07 40.0451 42.3825 38.499 43.4657C37.5941 44.3884 35.0354 46.8398 34.5272 48.028C34.0773 48.7574 33.6813 49.5181 33.3479 50.31C32.822 51.6146 33.3042 51.3726 33.2458 51.5124C32.5439 53.6474 32.6886 51.9406 32.3007 53.2429C32.1321 53.7134 31.2896 57.8996 31.8435 61.6269C32.1805 65.3411 34.3 69.5193 33.3601 68.2726ZM46.8634 37.7176C46.8727 37.5875 47.1237 37.3475 47.2632 37.1871C47.4139 37.0212 47.4111 36.9632 47.2923 37.0357L43.1223 41.6729C42.2199 43.1974 42.3494 43.1719 42.3282 43.2282C42.419 43.3292 42.5104 43.3501 42.5863 43.3462C42.6885 43.3165 42.7456 43.1206 43.4984 41.9044L47.5622 37.3853C47.6876 37.3413 47.6361 37.3885 47.4297 37.4921C47.2328 37.5914 46.9245 37.7213 46.8634 37.7176ZM34.0694 71.1021C34.0144 71.0536 33.9571 70.9995 33.898 70.9401C30.1054 67.3884 29.8646 56.4889 31.3925 64.16C31.5725 64.864 32.0446 68.2468 33.936 70.9167C33.9803 70.9798 34.0248 71.0416 34.0694 71.1021ZM61.5985 80.1674C61.6945 80.1965 64.7652 79.7032 64.7815 79.3669C64.2119 79.4369 60 80.1771 61.5985 80.1674ZM60.3516 81.4294C60.4187 81.4092 59.6765 80.9578 60.9643 80.7994C61.084 80.7797 61.356 81.4112 63.0796 80.8022C63.4326 80.6761 63.9092 80.1237 63.8618 80.107C61.6037 79.627 57.3058 82.2737 60.3516 81.4294ZM46.6444 37.2371C46.4068 37.0551 46.2735 36.1995 46.623 36.4722C46.7717 36.5909 46.9278 37.0685 46.6444 37.2371ZM72.0446 77.1987C70.94 77.9997 72.7633 77.4155 74.5384 76.5109C75.3047 76.1399 76.1715 75.6323 76.2456 75.5288C76.0858 75.4382 75.1207 75.8339 74.3465 76.1547C73.2094 76.6833 72.1331 77.1329 72.0446 77.1987ZM17.5339 39.8736C17.5339 39.8747 17.5338 39.8757 17.5338 39.8767C17.6975 38.7931 18.0755 39.4871 18.0907 39.4373C18.8082 37.1389 17.8513 37.7062 17.7599 37.338C17.5651 36.5414 18.6861 36.7354 18.2934 35.3865C18.8616 37.6037 18.683 35.6092 19.0889 35.5671C20.7401 35.4206 18.1599 38.4172 18.4547 39.5257C18.4947 39.6813 19.0733 38.5826 19.203 38.9806C19.6209 40.2572 16.9187 44.0669 17.5339 39.8736ZM46.6912 36.3487C46.6523 36.0878 46.8299 35.9611 46.6662 36.2251L42.25 41.1362C41.4811 42.538 41.5194 42.8506 41.5651 42.9349C41.6373 42.9968 41.7329 43.0295 41.8308 43.0456C41.8917 43.0168 41.7819 43.0815 42.7564 41.4478L47.0297 36.6957C47.1603 36.6259 47.1517 36.6436 47.0284 36.6468C46.9083 36.6486 46.74 36.5986 46.6912 36.3487ZM24.448 100.207C23.2328 99.7047 25.0978 101.974 25.749 102.062C26.0528 102.106 24.9654 100.425 24.448 100.207ZM43.5085 112.983C45.4909 113.463 47.9376 112.176 45.465 111.895C45.2101 111.871 43.3616 112.694 43.5085 112.983ZM5.79234 30.6668C4.49499 33.5382 5.72986 33.477 6.14164 31.4166C6.31775 30.6541 5.84088 30.5641 5.79234 30.6668ZM12.303 87.8765C12.3555 88.0291 13.4406 89.3822 13.6174 89.1679C13.3628 88.578 11.965 86.9233 12.303 87.8765ZM5.91631 29.5961C5.64292 31.5157 7.01993 28.7741 7.8162 25.3314C7.04865 26.9554 5.93163 29.4082 5.91631 29.5961ZM40.5175 80.6843C43.031 81.9089 50.8937 84.3665 55.8781 83.2469C56.2073 83.4979 52.9077 84.1656 49.2611 83.6395C45.594 83.2019 41.9446 81.4802 40.5175 80.6843ZM36.3151 109.464C37.9979 109.8 34.9765 107.925 35.0178 108.567C35.0369 108.618 36.2416 109.455 36.3151 109.464ZM59.4305 9.28962C58.5521 9.59595 61.23 10.2793 60.5311 9.58356C60.4963 9.55354 59.4789 9.27135 59.4305 9.28962ZM71.6364 10.9785C70.9447 10.7124 68.0256 10.2958 69.1064 10.8268C69.2716 10.9009 71.5152 11.2907 71.6364 10.9785ZM17.3213 37.25C16.6735 37.5262 16.9214 35.7376 17.0476 35.4826C17.0986 35.3884 18.1628 36.888 17.3213 37.25ZM4.47325 41.7553C4.52433 42.3428 4.30729 43.8745 4.62761 44.1611C4.58815 43.4331 5.14122 41.5896 4.47325 41.7553ZM30.0124 105.84C30.7212 107.158 32.8265 108.324 32.7731 107.248C30.5552 105.964 32.5723 108.121 30.0124 105.84ZM15.4447 15.0949C13.1919 16.5543 12.3415 18.7253 12.5903 18.5187C14.856 16.7395 17.7585 14.0328 15.4447 15.0949ZM4.31174 67.3256C3.93885 67.3658 4.30078 69.4023 4.51369 69.1088C4.57628 68.9981 4.60051 67.2568 4.31174 67.3256ZM79.0762 76.1612C80.2086 75.8596 77.4509 77.9402 76.6068 77.9275C75.9278 77.6739 78.8633 76.2779 79.0762 76.1612ZM37.3862 9.12618C37.4226 8.56654 34.6561 9.17375 35.8103 9.50422C36.1117 9.58294 37.3697 9.30962 37.3862 9.12618ZM63.195 8.47666C61.2698 8.90709 69.0415 10.2668 67.0894 9.22558C66.943 9.13268 63.3578 8.4229 63.195 8.47666ZM76.4494 11.0617C76.1154 10.9097 76.7079 9.15044 78.0688 10.2364C78.2437 10.3767 77.1899 10.6034 77.326 10.7539C77.3599 10.7904 77.9598 11.0068 78.6502 11.2601C81.911 12.153 85.4182 14.2022 87.4912 16.0563C89.5899 17.8871 90.5644 19.2796 90.7339 19.4468C91.3279 20.1322 91.1421 18.9239 91.7552 19.6231C92.1402 20.0372 93.7332 22.5688 94.5401 24.8465C95.4029 27.1493 95.7377 29.0651 95.9899 30.2206C96.433 32.3585 96.6007 33.1493 96.7942 33.6866C96.9736 34.2058 97.1056 34.3258 97.1187 34.4529C97.1916 35.1928 96.9221 36.357 96.9504 37.5288C97.0659 43.4763 96.8019 48.8895 95.6214 51.3121C96.204 49.095 95.9943 46.6276 96.0358 43.6471C97.0214 44.6704 95.4562 38.9266 96.4977 42.3119C96.4013 41.6581 96.5196 39.4497 96.1985 35.3414C95.9622 33.1986 95.8351 30.6281 94.1866 26.1703C93.3176 23.9634 91.9211 21.0692 89.1206 18.0873C86.3847 15.0921 82.073 12.6103 78.5298 11.6939C77.4446 11.3794 76.6758 11.1647 76.4533 11.0627C76.452 11.0623 76.4507 11.062 76.4494 11.0617ZM51.6274 114.985C50.9595 115.222 52.1625 115.476 53.744 115.49C54.5578 115.481 55.5859 115.285 55.7485 114.906C55.4846 114.841 54.5145 114.886 53.7578 114.947C52.6191 114.976 51.6997 114.961 51.6274 114.985ZM25.7401 106.171C25.3081 105.973 24.1493 106.675 22.642 104.631C22.6403 104.629 22.6386 104.628 22.6369 104.626C22.2064 104.03 23.0201 104.321 22.9879 104.156C22.9688 104.09 21.713 102.217 23.149 103.312C25.3827 104.961 22.7616 104.183 23.9184 105.139C24.0495 105.266 26.7595 106.489 26.7179 106.261C26.7121 106.238 25.9268 105.832 25.8502 105.696C25.5566 105.189 25.9991 105.043 25.9494 104.983C25.7498 104.818 21.9164 102.51 21.8648 101.65C21.758 101.42 27.611 105.632 27.9023 105.831C28.0182 105.987 27.3405 106.808 27.4402 107.006C27.4746 107.117 30.3017 108.522 30.6289 108.812C30.7172 108.899 30.7805 108.974 30.8256 109.03C30.5679 108.504 33.0891 110.01 32.8519 110.282C32.7263 110.389 30.9892 109.289 30.9529 109.226C30.9314 109.201 30.9156 109.174 30.899 109.152C30.9616 109.752 25.4868 106.017 26.3334 107.297C24.6163 106.445 27.0576 106.751 25.7401 106.171ZM18.7539 101.071C18.9608 101.115 19.1679 101.159 19.3752 101.202C16.9635 99.2926 15.0103 96.4196 12.8657 93.7954C12.3217 93.125 12.4135 94.3275 11.8505 93.3273C11.3899 92.5104 11.2937 91.3337 11.7024 91.6367C11.7975 91.7096 12.6079 93.4169 13.2375 94.1019C15.0819 96.1047 15.0931 95.1793 15.2043 95.2934C15.3265 95.413 16.1518 96.9606 16.8173 97.6337C18.4912 99.3167 19.4668 99.8237 21.6337 102.405C19.9439 101.401 20.1417 102.729 18.7539 101.071ZM48.7214 6.88391C48.8102 6.51241 50.4407 6.82983 51.0284 6.78133C50.9342 7.14846 49.3107 6.82062 48.7214 6.88391ZM96.1301 9.86259C95.7687 10.0436 96.5075 10.5414 97.2147 10.892C97.9805 11.266 98.715 11.492 98.3101 11.0418C98.1164 10.8325 96.5893 10.0476 96.1301 9.86259ZM118.275 29.7523C118.779 30.3671 117.756 27.4108 117.303 27.6066C117.197 27.6997 118.239 29.701 118.275 29.7523ZM1.20347 60.9633C1.18097 60.8639 1.29359 59.5152 1.3251 59.4711C1.94765 58.5567 1.66536 63.0485 1.20347 60.9633ZM126.42 52.6632C125.709 50.2937 126.46 57.6358 126.69 55.3434C126.715 55.2202 126.469 52.7756 126.42 52.6632ZM127.116 63.0004C127.133 62.4042 127.324 59.7481 127.125 59.7236C126.844 59.6764 126.638 62.681 127.116 63.0004ZM15.7393 12.2109C15.235 12.202 16.7491 11.1706 18.5076 10.4037C20.2834 9.61525 21.8907 9.21435 21.8497 9.25546C22.3958 9.09377 22.8585 8.96247 23.1789 8.84854C23.3919 9.06507 22.8513 9.30221 21.9658 9.60434C22.2376 9.51363 18.0563 10.6951 15.7393 12.2109ZM0.80785 43.3133C0.749004 39.262 1.00884 37.4416 1.20745 37.2736C1.22892 37.2398 1.2489 37.2412 1.26711 37.2768C1.48773 37.4941 1.58646 39.9219 1.11635 43.8731C0.679056 43.8671 0.817032 43.8896 0.80785 43.3133ZM6.72258 19.9736C5.84513 21.8026 3.55776 26.2045 2.9656 28.3887C2.65608 28.058 4.79631 22.5743 6.72258 19.9736ZM92.1265 7.34024C92.9223 7.02961 95.4998 8.73611 94.9126 8.75871C94.7769 8.74792 91.7911 7.53361 92.1265 7.34024ZM0.604469 60.1219C-0.0599632 60.3529 0.18288 57.3414 0.336027 57.1239C0.924074 56.2078 0.444542 59.8461 0.604469 60.1219ZM37.1998 6.04646C37.7329 5.47229 39.3759 5.60056 40.397 5.53969C39.9618 6.01168 38.0961 5.96717 37.1998 6.04646ZM29.1151 6.71545C29.2167 6.67254 30.8518 6.44668 30.9333 6.46217C32.3708 6.73563 27.6535 7.39991 29.1151 6.71545ZM12.4839 41.1798C12.4689 41.1345 12.5442 40.1911 12.5655 40.1582C13.1013 39.3345 12.8727 42.1754 12.4839 41.1798Z" fill="#BC74E6"/>
</svg>
