<svg width="434" height="163" viewBox="0 0 434 163" fill="none" xmlns="http://www.w3.org/2000/svg">
<path d="M66.9819 5.82249C67.1191 5.96774 67.8275 6.21771 68.3741 6.45371C68.5374 6.49358 68.682 6.53552 68.7746 6.5791C68.8562 6.40932 68.8239 6.27037 68.7253 6.16242C68.1545 5.52161 66.4381 5.25031 66.9819 5.82249ZM39.821 106.593C39.7441 105.975 39.6671 105.356 39.5902 104.736C40.3713 105.347 41.1499 106.361 41.9395 107.085C42.2141 107.335 42.4884 107.555 42.7619 107.72C42.9473 107.83 43.2381 106.626 43.619 106.954C44.001 107.282 43.0056 108.31 43.4271 108.963C43.8894 109.697 47.2375 111.602 48.1945 112.519C51.7273 115.992 55.0683 119.965 59.4515 122.568C55.989 118.466 60.761 120.821 61.6602 122.071C61.8634 122.34 60.1743 124.609 64.9114 127.106C66.9685 128.164 67.4669 126.175 68.676 126.295C69.2492 126.35 69.9779 126.871 71.1441 128.386C66.008 128.305 69.6568 130.511 72.5261 132.424C73.0154 132.764 77.3225 134.935 79.1065 136.106C79.7147 136.512 79.9505 138.317 80.7785 138.833C81.3548 139.19 82.1818 138.752 83.0345 139.275C83.206 139.379 83.3772 139.483 83.5481 139.586C87.3732 141.89 91.646 144.167 96.5255 146.108C95.2233 141.445 99.4427 145.707 99.7865 145.639C101.367 145.247 96.1654 142.615 98.5278 142.986C101.389 144.403 104.39 145.77 107.422 147.023C104.71 146.496 109.698 151.184 111.21 150.381C109.834 153.516 125.882 151.82 127.286 153.078C127.583 153.34 125.481 154.044 128.526 154.677C129.122 154.798 129.934 154.917 130.975 155.011C131.661 155.071 131.629 154.067 131.954 154.227C132.141 154.322 132.735 157.608 134.43 156.189C135.029 155.656 132.437 153.136 138.932 155.142C135.693 157.811 147.777 158.321 149.949 157.746C149.458 158.105 148.972 158.464 148.474 158.821C150.758 157.984 150.96 159.076 151.443 159.079C153.381 159.09 156.127 158.33 157.859 158.61C159.889 158.934 159.642 160.852 162.129 160.329C161.507 160.699 160.885 161.069 160.262 161.437C161.929 161.494 163.595 161.538 165.258 161.569C161.748 158.719 166.093 161.52 166.395 161.592C166.872 161.721 166.291 160.632 167.091 160.823C167.174 160.851 166.939 161.818 168.185 162.019C170.791 162.427 170.505 161.17 171.604 161.255C171.704 161.267 171.26 162.126 173.146 162.443C179.153 163.42 173.178 161.778 172.962 161.636C172.676 161.453 175.099 157.937 169.865 158.897C171.625 158.601 171.96 156.988 172.156 156.961C172.33 156.943 175.261 157.348 175.42 157.409C176.824 158.037 175.441 159.073 175.707 159.287C175.929 159.462 179.623 158.194 180.203 161.535C182.168 158.539 179.432 158.732 176.611 158.115C176.251 157.467 179.445 157.007 179.609 157.012C180.429 157.049 180.983 157.174 181.353 157.367C182.819 158.124 181.38 159.936 182 161.241C182.411 162.097 184.232 160.431 182.503 162.638C186.277 162.975 184.067 161.611 184.325 161.425C184.712 161.152 186.001 161.824 186.175 161.741C186.428 161.618 185.626 160.825 186.608 160.569C186.768 160.533 188.253 161.895 186.196 162.501C188.903 162.355 188.629 163.482 189.669 161.197C191.324 165.544 191.152 158.639 191.891 158.4C193.863 157.762 193.164 161.157 193.259 161.323C193.93 162.394 199.47 161.13 200.83 161.554C200.325 159.147 196.465 161.649 195.621 161.182C192.843 159.647 199.649 159.894 197.673 156.864C198.505 157.69 199.348 158.509 200.198 159.323C201.812 157.303 199.577 156.538 203.809 157.09C204.497 158.756 200.812 156.94 201.541 158.244C201.969 159.016 204.444 159.078 204.495 159.484C204.541 159.98 202.304 159.49 202.651 160.237C203.421 161.877 211.619 159.833 205.378 159.292C207.122 159.228 207.97 155.914 209.47 156.833C210.463 157.412 205.039 162.334 213.275 160.874C213.403 159.334 209.977 160.683 209.877 160.568C209.748 160.406 210.307 156.896 210.407 156.718C210.768 156.165 219.125 157.284 220.74 155.332C220.184 157.401 226.918 154.943 227.681 155.417C227.892 155.553 227.253 156.855 227.474 156.953C228.861 157.526 232.203 154.859 233.797 154.539C235.595 154.18 235.474 155.236 235.575 155.218C236.365 155.025 235.653 154.441 236.14 154.36C236.874 154.248 241.834 153.191 242.09 153.278C242.169 153.308 241.505 154.62 242.617 154.627C242.697 154.628 242.693 154.397 242.895 154.123C243.175 153.738 243.872 153.273 245.774 153.235C249.698 153.141 243.348 155.477 245.13 156.571C247.32 154.03 247.523 156.047 248.164 155.746C248.387 155.638 249.854 153.57 251.712 153.259C250.343 153.287 248.976 153.304 247.608 153.312C248.871 152.738 251.46 152.543 252.469 151.963C252.963 151.682 252.317 150.398 253.45 150.177C253.693 150.136 255.178 153.282 251.98 152.453C251.93 153.713 253.215 152.606 253.926 152.791C254.034 152.821 254.745 154.733 255.377 153.288C255.524 152.928 252.412 147.639 258.68 150.493C258.883 150.583 258.383 151.464 258.585 151.571C258.725 151.643 260.088 150.993 260.264 151.055C260.444 151.124 259.896 152.088 260.115 152.195C261.24 152.742 261.968 149.29 259.994 150.04C260.601 149.483 261.201 148.927 261.8 148.37C261.504 150.905 262.98 148.758 263.908 148.588C269.904 147.461 266.238 150.033 267.404 150.541C269.29 151.335 267.265 147.722 269.917 148.232C270.16 148.274 267.579 150.801 273.089 148.203C272.235 148.386 271.379 148.565 270.528 148.739C270.562 146.377 273.592 148.016 273.793 147.983C276.088 147.619 274.41 147.288 277.958 147.406C278.274 147.416 278.796 146.678 279.484 146.75C282.341 147.036 276.187 148.5 276.206 149.432C276.225 149.907 282.727 147.734 282.899 147.444C283.64 146.236 279.863 147.995 280.354 146.627C280.541 146.17 289.942 143.945 291.658 142.841C293.653 141.6 293.868 138.425 294.7 141.609C294.491 138.268 295.561 140.216 295.826 140.095C298.999 138.626 298.992 138.595 301.846 137.842C302.475 137.672 302.734 136.55 302.993 136.624C303.145 136.67 303.185 137.75 303.886 137.816C304.864 137.908 309.706 134.856 309.921 134.164C310.144 133.478 307.696 134.799 307.893 133.732C309.703 132.915 311.522 132.421 313.333 131.568C314.084 131.21 313.506 130.767 313.832 130.618C313.969 130.556 316.764 129.982 316.722 130.247C316.63 130.897 308.367 133.904 310.834 134.092C311.313 134.129 312.355 132.119 312.637 133.924C314.821 132.885 316.995 131.827 319.163 130.749C324.142 128.275 329.04 125.706 333.866 123.049C329.387 123.852 325.151 127.058 320.754 128.869C320.371 129.027 319.431 129.51 318.792 129.59C318.431 129.635 318.168 129.55 318.159 129.206C318.305 129.133 318.452 129.061 318.601 128.989C322.179 127.27 326.647 125.672 329.816 123.579C329.922 123.509 329.258 122.976 329.635 122.665C330.34 122.091 333.286 122.037 333.604 121.527C333.651 121.425 331.872 121.173 332.094 120.363C332.659 118.292 334.175 121.554 335.124 121.037C335.866 120.637 340.227 116.548 341.833 116.912C343.557 117.304 338.427 119.406 339.124 120.098C342.833 119.262 345.854 116.525 349.021 114.923C349.077 114.895 348.869 115.821 349.603 115.528C350.885 115.015 350.818 113.905 351.344 113.43C351.915 112.92 354.203 111.79 354.361 111.285C354.38 111.22 353.545 110.57 353.465 110.582C352.337 110.752 352.487 112.128 352.405 112.194C352.091 112.426 351.573 112.153 351.279 112.349C350.797 112.672 350.697 113.248 350.049 113.652C349.602 113.932 349.709 112.871 349.283 113.15C349.128 113.253 348.142 116.092 347.198 114.252C346.95 113.719 360.772 105.054 362.318 104.597C361.219 105.525 360.119 106.45 359.014 107.371C361.224 105.424 364.764 105.072 364.021 102.866C371.806 97.9756 379.413 92.8107 386.828 87.3182C387.867 86.5496 388.891 85.7809 389.915 85.0033C391.337 83.741 389.892 83.2537 392.538 81.7397C392.101 82.5617 391.664 83.3857 391.225 84.2133C392.369 83.031 397.628 78.3224 398.624 77.8258C398.752 77.7636 399.486 78.5708 400.883 77.5511C402.129 76.6389 401.889 75.8035 402.45 75.1509C402.919 74.6054 403.622 74.2895 403.758 74.1207C403.86 73.9905 403.651 73.543 403.897 73.2317C404.675 72.2549 404.656 74.0053 404.732 71.9485C404.479 72.0829 404.229 72.215 403.976 72.3477C404.959 71.244 406.083 69.4208 404.279 70.4663C403.967 70.6453 404.455 70.8363 404.246 71.0072C395.967 77.5729 402.094 71.5295 405.315 69.785C405.691 68.6187 409.951 65.5589 410.003 65.3298C410.086 65.0184 409.111 65.1673 409.762 64.0334C409.913 63.8053 415.392 59.5272 413.02 60.4846C412.537 60.68 410.089 63.0038 409.454 63.5008C410.161 61.1567 414.608 59.8659 414.943 59.4777C416.343 57.9936 411.384 61.0635 414.715 57.9843C417.263 55.6164 415.303 58.4624 416.517 57.8845C417.197 57.5517 419.581 54.1891 420.184 55.2288C421.248 54.4284 420.307 54.4475 420.403 54.2993C420.503 54.1607 422.647 52.674 423.129 51.9007C423.188 51.8069 422.601 51.541 422.651 51.4295C422.758 51.2227 424.687 49.6236 424.788 49.5946C424.856 49.5785 424.713 50.3995 424.967 50.3331C425.263 50.2537 426.963 48.5098 427.143 48.5349C427.408 48.581 425.142 50.5031 425.838 50.6254C426.762 49.5659 428.609 48.3325 429.518 48.0598C429.284 48.1117 428.311 49.0171 428.003 49.3737C428.642 49.8858 430.685 47.8794 429.611 48.0479C430.258 47.8924 430.059 48.3326 430.497 48.3477C430.611 48.3491 431.25 47.7456 431.452 47.7369C431.483 47.7429 431.011 48.6239 431.235 48.6267C431.643 48.6303 433.494 46.6884 433.604 46.4752C433.916 45.8726 432.224 47.1981 431.898 47.0561C431.849 47.0306 432.792 45.2206 432.781 45.1578C432.504 44.5947 431.283 46.373 431.127 45.7641C431.426 45.3188 431.724 44.875 432.024 44.4324C430.284 45.3297 427.805 48.053 426.726 48.1551C428.984 46.3311 431.173 44.2263 430.339 43.0894C429.987 42.6089 428.852 43.1574 428.797 43.0002C428.612 42.4333 430.252 41.763 430.281 41.6952C430.301 41.6335 430.3 41.5916 430.282 41.5664C430.282 41.5664 430.282 41.5664 430.282 41.5664C430.098 41.3129 428.117 42.7621 427.936 42.7232C427.624 42.6459 427.82 41.0541 427.681 40.866C427.625 40.8535 426.138 41.7846 426.343 41.0622C426.553 40.3339 427.724 39.3437 427.74 39.274C427.82 38.8875 425.624 40.4184 425.473 40.3468C425.395 40.3113 426.236 39.0223 426.192 38.8904C426.143 38.7611 425.124 39.2185 424.539 39.145C424.103 39.0908 424.693 38.3125 424.535 38.3756C424.425 38.4224 422.444 40.0011 422.312 40.0324C422.117 40.0795 422.359 39.4017 422.235 39.378C422.058 39.3419 421.494 39.9581 421.495 39.777C421.491 39.6342 423.23 36.6387 423.016 36.3804C422.643 35.9279 420.759 39.0362 421.885 35.2805C421.893 35.2555 422.601 34.939 422.61 34.9146C422.739 34.297 420.385 35.1933 422.86 33.542C417.94 36.1773 421.782 33.2284 420.539 32.909C420.057 32.7831 418.2 33.8708 418.157 33.8283C418.039 33.311 418.826 33.2345 418.876 32.9087C418.904 32.7306 417.013 33.3845 417.17 32.8665C417.252 32.6009 418.98 31.5193 419.029 31.4452C419.514 30.7432 418.493 31.0166 418.508 30.7369C418.518 30.5507 419.539 29.8671 419.55 29.8278C419.561 29.7564 417.81 30.1797 417.39 30.1918C417.071 30.2006 417.754 29.4571 417.557 29.4988C416.367 29.7477 415.023 31.9042 416.034 29.4333C416.096 29.2829 416.849 28.8569 416.859 28.8283C417.056 28.1958 415.687 29.0031 415.234 28.8593C414.454 28.6103 416.604 27.7057 414.729 28.3376C415.707 27.2731 416.399 26.8827 417.891 26.1088C413.768 28.2587 411.393 27.7326 415.853 25.2031C414.457 26.0437 414.088 25.2257 413.655 25.4538C413.385 25.5948 411.87 27.4982 411.615 25.314C411.584 25.0425 413.027 24.607 412.332 24.4073C409.394 26.1748 412.072 24.1746 412.038 24.12C411.29 23.1855 404.491 27.9489 403.168 28.5008C401.612 29.1436 399.714 28.9654 399.395 29.1247C398.351 29.6607 399.524 29.6522 399.404 29.9329C399.28 30.2245 395.727 30.8922 395.611 31.0051C395.17 31.4863 396.123 31.7283 396.081 31.7849C395.601 32.4864 391.352 34.0666 390.335 34.7351C390.12 34.3495 392.328 33.223 390.542 33.3221C388.463 33.4178 389.458 35.0927 389.464 35.1881C382.064 38.8245 374.679 42.1596 367.22 45.1921C366.713 44.0992 372.024 42.8827 372.058 42.6809C372.214 41.7678 366.014 44.2205 363.871 45.3371C363.557 45.5038 363.332 45.6446 363.228 45.7452C363.427 45.5789 363.624 45.413 363.822 45.2475C364.266 44.8753 364.708 44.5053 365.146 44.1372C364.532 43.9127 363.915 44.0146 363.288 44.2717C361.891 44.8396 360.442 46.2043 358.913 46.2997C358.197 46.3418 359.119 45.4022 359.076 45.3783C358.118 45.1276 357.203 45.9239 358.397 46.2993C356.356 46.2679 356.982 46.8975 355.703 47.4281C355.637 47.4538 355.922 46.7186 354.774 46.8621C354.237 46.9321 351.644 47.8345 351.058 47.4658C350.813 47.3066 351.062 44.7389 352.142 46.5119C354.507 44.6663 353.461 47.0295 354.533 46.6065C354.696 46.5352 353.795 45.6778 356.784 45.1757C355.338 43.5799 352.861 46.0031 352.208 45.9689C350.858 45.8828 354.994 43.412 356.557 44.4991C355.439 43.2473 356.786 44.2011 357.78 43.7798C358.865 43.323 358.162 43.0885 358.767 42.8718C360.416 42.2759 360.241 43.4681 361.142 42.1217C361.193 43.6898 361.831 43.5541 362.533 42.8915C363.235 42.2319 363.992 41.0769 364.335 40.5468C363.439 40.8018 362.556 41.0443 361.657 41.2898C360.755 41.5342 359.838 41.7805 358.932 42.0165C358.956 41.8415 358.98 41.6668 359.004 41.4924C358.558 41.6709 358.111 41.8499 357.662 42.0284C357.807 42.1388 357.953 42.2484 358.098 42.358C355.272 42.2888 355.215 43.4758 355.028 43.5575C352.602 44.5216 349.711 45.4654 347.178 46.2749C346.796 46.3975 346.6 45.3604 344.184 46.976C343.414 47.4919 344.61 47.9884 343.55 48.1893C341.316 46.5116 342.12 48.1484 341.746 48.2692C340.67 48.5991 339.775 48.2727 339.673 48.2966C338.305 48.6121 336.401 49.268 334.903 49.6058C334.872 49.6048 335.337 48.7238 334.474 49.1899C334.175 49.3408 332.436 53.0931 329.401 52.8837C330.001 52.4938 330.595 52.1068 331.195 51.7179C330.513 52.233 324.574 53.009 325.619 51.8321C326.258 51.1301 329.114 52.482 328.568 50.5932C326.931 51.6834 316.26 53.4294 315.63 54.0344C315.543 54.1261 316.47 54.594 316.347 54.7116C316.251 54.8045 313.826 55.219 313.602 55.538C313.469 55.7292 314.665 55.871 314.666 56.1206C314.653 56.3037 311.79 57.2909 311.324 56.5146C312.171 56.6718 314.11 55.9042 312.786 55.4783C312.617 55.4258 312.096 56.1132 311.888 56.0449C309.97 55.4108 314.698 54.5803 315.411 54.3945C312.116 54.0674 308.058 56.299 304.443 56.3217C303.321 57.3091 306.835 56.9503 305.492 57.8587C302.699 59.7527 304.307 57.0762 304.176 57.0121C303.143 56.4662 301.719 60.8496 300.742 57.9382C299.729 58.6124 300.226 58.9096 298.463 58.8535C298.612 58.6066 298.76 58.3599 298.908 58.1137C297.955 57.5759 296.998 58.0588 296.21 58.86C295.032 60.0538 294.228 61.966 294.464 62.1332C295.293 62.7123 296.439 61.7379 296.985 61.287C297.138 61.1606 297.244 61.0747 297.284 61.0744C297.55 61.0779 299.23 63.9222 301.139 60.6635C302.942 62.4047 297.164 62.9605 300.142 63.7795C299.679 63.8185 298.894 64.0435 297.96 64.3417C295.29 65.1974 291.383 66.646 290.423 66.1151C290.266 66.0191 290.217 63.8328 288.78 65.2256C288.096 65.8912 290.109 65.5302 289.868 66.0771C289.138 67.828 272.832 69.772 269.765 70.0647C269.567 70.0926 269.805 70.7743 269.608 70.7982C269.004 70.8749 266.582 70.1615 265.592 70.6345C267.502 69.022 263.192 69.5299 262.132 69.8144C260.529 70.2539 260.896 71.4927 260.237 71.8558C257.679 73.2755 252.814 70.7601 251.222 73.8467C250.804 70.9974 247.783 75.6561 246.036 75.8729C244.669 76.0429 242.404 74.3102 244.024 72.9746C241.717 73.3293 239.192 72.9942 237.012 72.9742C236.651 72.9708 237.268 73.8029 236.649 73.77C236.592 73.7606 236.391 72.9146 235.861 72.8621C231.471 72.4037 233.805 74.083 233.073 74.6743C232.903 74.8111 232.751 74.9204 232.614 75.0061C232.418 75.1275 232.252 75.2018 232.113 75.2397C232.288 75.2404 232.466 75.2416 232.645 75.2432C235.033 75.2703 237.651 75.3556 238.385 75.3164C238.079 76.831 234.772 76.0341 232.727 75.8713C232.152 75.8292 231.677 75.8386 231.381 75.9687C231.334 75.9905 231.638 77.0303 231.589 77.0409C231.587 77.0409 231.586 77.041 231.585 77.0411C231.052 77.1625 227.592 76.9618 228.155 75.6594C228.303 75.3128 229.86 75.2392 231.738 75.2382C231.205 75.034 231.433 73.8348 231.338 73.79C230.19 73.2717 227.718 74.5524 226.807 74.7479C226.599 74.7914 226.533 74.0286 226.498 74.0282C225.684 74.2335 226.25 76.4021 225.159 74.185C223.916 76.9653 228.048 74.4747 227.937 76.2404C227.823 77.6481 218.031 77.2388 217.963 75.0059C217.946 75.2389 217.835 75.5288 217.59 75.8595C217.048 76.5984 214.386 76.37 213.922 75.9565C213.842 75.8762 213.769 73.7476 213.674 73.7266C213.442 73.6765 210.334 75.2919 209.124 73.9768C209.752 73.6983 210.373 73.4181 210.998 73.1358C207.177 72.9961 207.77 72.3575 209.012 71.7725C209.075 71.7692 209.134 71.6901 209.194 71.6838C210.161 71.2482 211.396 70.8314 211.407 70.6632C211.44 70.0464 205.098 69.3815 206.335 71.4365C206.509 71.7234 209.46 70.968 208.016 72.3263C207.762 72.5671 205.848 72.0655 205.75 72.2152C205.073 73.2365 209.299 74.8124 208.826 76.2636C207.761 74.8193 206.461 75.5064 205.277 75.0803C204.74 74.8872 204.611 73.7951 204.545 73.771C203.562 73.4304 204.111 74.6001 203.782 74.5524C203.601 74.5263 201.697 71.9696 202.017 75.3406C195.636 72.3872 200.309 72.7807 204.189 73.2084C202.965 71.9219 200.556 72.3331 199.475 71.9566C199.089 71.8208 199.35 70.72 198.704 70.4378C197.402 69.8785 190.82 70.4724 189.004 70.5428C190.048 71.074 189.648 72.2691 188.819 72.0838C187.989 71.8962 188.817 70.3337 188.668 70.1367C188.635 70.0955 188.45 70.0744 188.169 70.0642C187.045 70.0256 184.385 70.1416 183.877 69.8962C186.785 70.8949 186.021 72.0392 183.473 71.831C183.806 72.2367 184.14 72.6415 184.475 73.0455C183.037 72.3528 179.713 73.8019 178.907 73.1108C178.782 73.0006 179.379 72.0289 179.308 71.967C178.605 71.4161 175.926 72.0892 175.848 71.7125C175.784 71.4002 176.974 70.6941 176.621 70.2002C176.549 70.0963 175.332 71.3451 174.342 70.831C173.976 70.6412 174.33 69.6896 174.241 69.6166C173.504 69.0093 173.761 70.7541 172.335 70.2423C171.287 69.8634 170.722 68.0965 169.184 68.3737C174.281 67.1433 170.107 67.3083 168.219 66.3057C167.917 66.1451 168.455 64.3994 166.441 64.9133C169.973 68.9344 165.012 66.4215 163.969 66.2386C163.91 66.2381 163.692 67.4223 163.172 67.3376C163.129 67.3277 163.325 66.5376 162.861 66.3793C158.472 64.8621 161.185 66.3677 160.187 66.9807C159.756 67.2426 157.812 65.6335 157.259 65.4745C157.128 65.4415 157.022 66.2893 156.521 66.1398C155.637 65.8731 155.031 64.7965 154.476 64.5864C154.413 64.566 154.117 65.8797 153.134 65.1851C152.856 64.9897 152.626 64.4382 153.136 64.1688C154.798 63.2858 157.134 66.0951 159.089 65.2262C160.835 64.44 156.027 63.2445 155.813 63.1709C155.723 63.1453 156.507 64.0177 155.547 63.9238C154.717 63.8394 153.788 61.2165 152.573 61.4167C152.481 61.4316 151.144 63.1147 151.156 63.2369C151.169 63.3292 152.454 64.1098 152.13 64.6132C152.086 64.6698 151.21 64.4262 150.996 64.8081C150.764 65.2273 149.476 69.179 149.052 70.0242C149.004 70.119 148.967 70.1747 148.944 70.1819C148.369 70.3537 148.969 69.3154 148.631 69.3076C147.9 69.2916 145.237 70.0886 145.649 68.3645C146.04 68.3727 146.431 68.3788 146.83 68.3854C144.838 67.6104 145.921 67.1417 145.723 66.7384C145.526 66.3029 145.18 67.8211 144.486 67.756C144.305 67.7446 141.797 66.5577 142.077 65.9528C143.146 67.428 143.221 65.416 143.292 65.4061C143.574 65.3705 143.569 66.505 143.921 66.5976C146.408 67.2182 144.423 64.8011 145.124 64.5666C145.359 64.4884 145.493 65.4937 145.593 65.4756C145.912 65.4158 146.243 64.2599 146.399 64.41C146.769 64.7596 145.808 66.2432 145.817 66.3386C145.919 67.4859 147.855 66.6742 147.35 64.5981C148.104 64.1268 147.597 66.3183 148.305 65.5867C149.691 64.1328 148.157 64.1726 147.873 63.7782C146.845 62.3571 146.222 63.0743 144.636 62.2293C144.066 61.9257 143.745 60.6457 143.512 60.495C143.383 60.4111 140.56 63.4118 142.607 57.7951C141.889 58.1278 139.578 61.4261 139.045 60.9929C138.582 60.6076 139.579 58.7345 139.562 58.6377C139.542 58.488 138.864 58.3598 138.776 57.9865C138.677 57.5484 139.129 56.8695 138.884 56.3861C138.279 55.1815 137.364 57.1341 137.201 57.2111C135.269 58.0526 137.156 55.558 136.999 55.2002C136.909 54.9433 133.647 54.1773 132.304 53.0592C132.113 52.9005 131.975 52.7416 131.908 52.5866C131.977 52.8561 132.046 53.1251 132.115 53.3938C132.198 53.7134 132.279 54.0311 132.358 54.3472C131.958 54.5991 131.715 54.5503 131.535 54.4241C131.132 54.1421 131.06 53.4772 130.22 54.9283C132.03 51.4558 129.377 52.9289 129.018 52.5935C128.879 52.4613 129.231 51.8947 129.046 51.7495C128.327 51.1837 126.297 50.5509 126.054 49.9946C125.03 47.6315 130.896 48.4482 131.313 48.5043C130.56 48.1219 126.999 44.8463 129.842 44.4101C130.275 44.3396 129.859 46.1455 129.984 46.3037C130.836 47.36 130.797 45.4904 130.96 45.4158C131.229 45.2988 131.154 47.0332 131.438 46.9936C131.53 46.981 131.858 45.5195 132.899 46.1125C133.097 44.6341 129.658 43.8227 129.449 43.2969C129.374 43.1085 131.795 41.1728 127.813 42.0046C127.99 41.7937 128.167 41.5827 128.344 41.3716C127.722 40.9015 127.101 40.4266 126.479 39.9448C125.809 39.4258 125.133 38.9064 124.455 38.3887C124.245 39.0045 124.304 40.5617 123.478 39.6926C123.002 39.1919 124.221 38.3158 124.192 38.2478C123.98 37.6059 114.53 32.1126 112.663 30.8342C112.06 30.4022 110.967 28.4719 110.841 28.3771C110.555 28.1575 109.9 27.8558 109.153 27.5294C107.836 26.916 106.274 26.2483 105.936 25.9392C105.595 25.6244 106.71 25.0026 106.314 24.8288C105.944 24.6685 105.587 25.6945 105.458 25.6698C104.392 25.4435 98.942 20.773 96.7364 20.7032C97.8802 20.9676 101.107 25.1735 100.509 25.7091C100.422 25.7765 98.7694 25.7244 98.7997 25.2947C97.8128 25.7548 98.3454 22.9123 97.2633 22.9194C97.141 22.9188 96.4284 24.2596 94.9614 23.7345C94.4574 23.5493 94.0993 22.0159 92.0354 22.3483C90.7756 20.9178 80.5278 17.5079 80.9826 16.1443C81.0206 16.0808 82.6469 16.3398 82.2305 15.4692C81.6741 14.3195 80.7413 16.8053 79.2605 16.3012C79.0339 16.2144 75.5836 14.187 75.5876 14.0279C75.553 12.465 79.1783 13.5553 79.2641 13.4094C79.4677 13.035 76.9934 11.6245 76.8133 11.6519C76.6362 11.6699 77.3759 14.0551 75.3243 12.3194C75.7878 12.2955 76.2529 12.2707 76.7201 12.2457C75.8289 11.3709 74.7378 12.2482 74.386 12.1658C73.2933 11.9045 73.7613 10.1218 70.5295 11.1179C69.6755 11.374 69.7728 12.1492 69.654 12.194C68.5605 12.5497 69.6964 10.7444 67.7516 11.5631C67.6106 11.6191 68.3886 13.0607 65.6902 11.7318C65.9951 11.716 66.3014 11.7002 66.6093 11.6843C66.521 11.3499 64.9522 10.4151 64.0964 10.0014C63.7939 9.81219 63.5594 9.67894 63.45 9.63437C62.0112 9.05148 62.2554 10.3941 61.1069 9.56998C63.0798 9.07845 59.3402 6.75808 58.6029 7.67149C59.2769 6.38197 55.028 5.29169 53.4415 4.43919C52.4411 3.90117 50.8822 2.4264 50.5124 2.31579C50.0582 2.16522 49.4382 2.80231 48.5868 2.55229C48.3608 2.48356 46.7849 0.961884 44.2656 0.546394C43.7791 0.473373 41.9148 0.933327 42.27 1.52426C42.8527 2.53793 45.8567 3.00565 45.1207 3.54081C44.3361 4.12774 42.0464 2.10931 41.2123 1.75431C37.3875 0.0522537 38.6247 1.77974 38.2985 1.90507C37.5391 2.19516 35.7561 0.992355 35.638 0.985756C35.1206 0.934929 35.9695 2.09475 35.653 2.35162C35.2471 2.70396 32.8327 2.07619 33.0733 2.44854C33.3937 2.98131 35.5626 3.62488 35.628 3.70565C36.4584 4.93861 33.7389 4.45601 32.8109 4.44313C32.5255 4.44508 32.8292 5.06752 32.6713 5.01023C30.2814 4.10267 33.6705 3.67518 32.3606 2.88033C31.1819 2.15197 31.9259 3.67719 31.8383 3.66637C31.7516 3.65897 30.4739 2.69868 30.0661 2.70069C29.89 2.69374 31.8101 6.22088 31.0961 6.57641C30.2426 5.62219 29.3683 4.65535 28.504 3.71378C27.7326 4.15425 29.6522 5.02763 29.7302 5.2074C29.8736 5.57856 28.6958 5.1216 28.5084 5.31658C28.3889 5.43641 28.8112 6.70785 27.7562 6.06237C27.3988 5.83392 27.2782 4.9135 25.7503 4.2685C28.7129 8.23319 25.8211 6.13404 25.4779 6.17478C25.1389 6.24512 26.1996 8.44692 24.3077 6.22739C22.8875 7.11309 23.9272 6.58448 24.248 7.37488C24.6449 8.36581 22.6067 6.91985 25.4388 9.4666C24.6229 9.80669 22.7231 7.4854 22.5729 7.40058C22.4396 7.32746 22.5627 8.06978 22.3055 7.96442C19.3273 6.63878 21.0954 7.74851 19.8363 7.65394C19.7196 7.65396 17.8628 5.67357 18.9593 7.40475C20.951 10.5936 22.8537 11.0769 21.2103 13.1199C18.7424 11.4961 18.0932 7.78419 17.6149 7.10493C16.9106 6.01309 17.314 7.38876 17.116 7.32308C17.0507 7.29954 16.4665 6.34898 16.428 6.35116C14.6539 6.62355 19.1315 10.5443 19.9656 12.164C19.455 11.9223 18.9734 11.7037 18.476 11.4477C18.8405 12.016 19.1967 12.5689 19.5529 13.1185C17.354 10.8389 19.3342 13.1371 18.5188 14.7487C18.329 15.1076 17.7073 12.9678 18.188 15.5823C17.0881 14.215 17.1377 14.8719 16.6604 13.2531C16.2017 13.624 17.4762 17.1821 17.9184 18.6132C14.853 14.6616 18.0639 15.8133 14.9786 12.7129C15.1561 11.5868 16.0754 13.4771 16.0895 13.2564C16.1308 12.4941 14.8974 11.6221 15.1845 9.30462C15.2277 8.9333 16.4187 9.52462 15.484 8.05929C15.3767 7.90192 14.3294 7.27305 14.3099 7.31218C14.0049 7.69073 14.6974 8.56281 14.5625 8.71336C14.4317 8.85722 13.9111 7.71013 13.8724 7.73909C13.3822 8.02355 14.1977 8.77477 13.9718 8.73657C13.4618 8.69614 10.4144 5.32112 13.4061 10.3896C11.6763 5.66417 13.6344 9.48649 14.3396 11.2807C14.5103 11.7317 14.28 12.0679 14.497 12.7427C14.7854 13.6281 15.429 14.4204 15.5891 14.854C15.7594 15.3365 13.6823 13.4293 15.8352 16.8227C14.0948 15.571 13.195 11.7659 11.8124 10.2429C9.10699 7.0499 11.8827 13.7427 12.0979 14.4563C12.152 14.6522 11.474 14.3588 11.5024 14.4923C11.5384 14.7237 13.4404 18.2012 13.2615 18.8313C13.0639 19.4557 12.6559 17.5016 12.2274 17.6513C11.9469 17.753 13.5116 22.5347 12.2388 20.2602C11.3967 18.6858 11.0066 14.8903 9.77576 15.0902C10.7251 17.6749 11.6926 20.1984 12.6929 22.7144C11.6558 21.7107 10.6628 20.6748 9.70903 19.5915C10.6871 22.547 12.2104 24.5523 12.6978 27.6874C8.60191 22.4328 12.3592 30.6905 12.2255 30.9258C12.1243 31.0695 9.88451 29.4642 9.52997 29.2021C9.92276 31.8697 12.3069 39.0075 9.19852 36.1873C9.8373 36.6666 9.58707 39.1659 9.51502 39.2124C8.69628 39.5495 7.80337 35.1837 7.40606 36.3306C6.92066 37.6591 8.26852 37.9642 8.5893 39.1774C10.2766 45.4282 5.73451 47.0403 8.38791 52.566C8.19859 52.5674 8.01008 52.5684 7.82236 52.5691C8.23455 53.6215 8.61554 54.6189 9.04512 55.6584C12.0454 61.95 15.1944 67.4649 18.5178 72.6358C18.5844 76.524 21.6854 83.954 23.9038 86.8002C24.3387 87.397 27.1396 89.5419 27.4357 89.6058C27.9781 89.7378 26.4837 87.3961 27.6764 87.8952C27.9101 88.0292 31.8062 92.4838 30.7481 93.0272C30.2464 92.5985 29.3965 90.4645 29.0035 90.3924C26.1077 90.0619 38.5402 103.329 38.7391 104.448C38.205 104.459 37.6714 104.466 37.1381 104.469C38.0261 105.189 38.9205 105.897 39.821 106.593ZM68.3053 9.06567C68.5374 8.324 67.2122 8.24181 66.5918 7.9319C66.4901 7.86623 66.4007 7.79828 66.3286 7.72672C65.4792 6.84232 66.2069 3.58784 64.3313 6.27936C65.0987 6.84188 65.8226 7.36652 66.5779 7.94342C67.1405 8.29697 67.718 8.67308 68.3053 9.06567ZM91.2146 18.2387C89.7729 18.1759 88.8263 20.4419 90.3688 20.114C90.5413 20.0777 93.1627 18.3203 91.2146 18.2387ZM79.803 13.7904C79.8226 13.8317 80.7382 14.2067 80.7956 14.1959C82.2511 13.8922 79.482 12.7863 79.803 13.7904ZM125.735 42.2721C124.93 41.5864 127.009 39.846 126.948 41.0901C126.945 41.1696 125.79 42.3159 125.735 42.2721ZM125.076 41.9155C123.088 43.3885 124.376 38.5746 125.195 39.6894C125.269 39.7962 125.17 41.8414 125.076 41.9155ZM86.9263 17.1128C86.5053 17.7314 87.8055 18.0006 88.3784 18.0941C88.8571 17.5666 87.3029 17.3988 86.9263 17.1128ZM112.134 31.7985C111.749 32.3622 108.651 30.4048 109.002 29.5863C109.266 30.1849 112.495 31.2989 112.134 31.7985ZM119.261 37.4594C119.117 37.5092 118.204 36.7014 118.602 36.2273C119.579 35.8947 119.919 37.234 119.261 37.4594ZM133.829 46.7717C133.806 46.9372 131.086 49.9126 134.148 48.7011C134.593 48.5212 134.183 47.0902 134.347 47.0214C134.674 46.8943 134.886 46.8694 135.02 46.9206C134.373 46.1656 133.612 45.5306 133.412 45.689C132.457 46.4334 133.839 46.7038 133.829 46.7717ZM139.369 53.192C139.229 53.8411 140.207 53.9401 140.493 53.783C140.543 53.7521 141.102 52.1533 141.399 52.4352C141.638 52.6634 140.52 54.0425 141.188 54.0511C141.856 54.0553 141.598 52.582 141.685 52.5248C141.793 52.4512 142.335 53.551 142.691 52.611C142.956 51.9186 141.882 51.9754 141.718 51.7198C141.515 51.3975 142.363 50.4336 141.784 50.4477C141.417 50.4529 140.676 52.5134 140.566 52.582C140.477 52.6402 139.89 50.9427 139.373 53.1867C139.372 53.1885 139.37 53.1903 139.369 53.192ZM135.192 47.1324C135.167 47.0328 135.115 46.957 135.02 46.9206C135.079 46.9894 135.135 47.0621 135.192 47.1324ZM70.5389 10.7526C71.4229 10.6324 70.404 9.53627 69.357 9.7372C68.9466 10.0761 70.3992 10.7691 70.5389 10.7526ZM135.069 49.1142C136.35 49.2845 136.102 48.3983 135.451 47.4743C135.37 47.3604 135.283 47.2458 135.192 47.1324C135.258 47.3997 135.117 47.852 135.009 48.2579C134.893 48.6946 134.816 49.078 135.069 49.1142ZM98.7997 25.2947C98.9637 25.2173 99.161 25.0624 99.4242 24.7722C98.9755 24.9961 98.809 25.159 98.7997 25.2947ZM102.749 26.8319C103.148 28.4638 100.764 26.9642 101.342 26.3285C101.563 26.0879 102.733 26.7659 102.749 26.8319ZM126.921 42.9048C126.761 42.9485 126.05 47.074 125.619 43.345C126.935 43.6694 126.039 42.5794 126.241 42.3096C126.818 41.5355 128.08 43.4697 128.701 43.3672C128.081 45.0251 127.433 42.753 126.923 42.9062C126.922 42.9057 126.921 42.9053 126.921 42.9048ZM150.95 56.6707C150.946 55.627 150.09 55.7086 149.576 55.6103C149.544 56.6505 150.397 56.5718 150.95 56.6707ZM333.467 49.2545C328.24 50.0523 328.67 52.7661 332.809 50.4933C332.89 50.4463 333.88 49.4201 333.467 49.2545ZM290.857 59.8271C290.785 61.2429 292.42 61.1625 293.279 60.4227C293.475 60.2549 293.919 58.7665 292.859 58.6866C293.385 60.2723 292.051 61.1772 290.857 59.8271ZM135.177 50.4997C134.945 51.7459 136.377 51.5691 136.958 51.6791C137.111 50.6424 135.855 50.4551 135.177 50.4997ZM317.611 54.9236C317.118 55.1438 316.366 54.2005 316.424 54.0926C316.68 53.6035 317.985 54.1931 317.611 54.9236ZM131.562 48.6057C131.142 49.1918 132.271 50.6629 133.252 49.1833C132.876 49.1133 131.824 48.2405 131.562 48.6057ZM149.82 56.8905C149.498 57.1711 150.509 58.146 150.978 57.9062C151.123 57.1655 150.017 56.7073 149.82 56.8905ZM308.984 56.5725C308.546 56.7717 307.375 57.0639 307.09 56.6565C306.736 56.1476 308.529 55.956 308.984 56.5725ZM395.727 27.6583C395.714 27.5313 393.399 27.6232 392.737 28.1818C391.487 29.2634 395.713 27.7723 395.727 27.6583ZM322.812 54.1769C323.919 52.8381 322.635 54.1903 322.298 53.1708C323.285 52.8809 325.756 52.1766 324.44 53.603C324.184 53.8802 323.254 53.9901 322.812 54.1769ZM321.572 54.871C321.282 54.5877 319.798 53.8258 320.756 53.6653C321.199 53.5942 322.347 54.5564 321.572 54.871ZM384.529 32.4915C383.606 33.6443 389.333 30.6547 389.447 30.4696C389.503 30.3781 389.531 30.3039 389.537 30.2487C389.87 30.32 391.016 29.8245 390.857 29.3397C390.543 29.5315 389.595 29.9185 389.521 30.0144C389.489 30.0558 389.468 30.0906 389.457 30.1209C388.804 29.9365 384.701 32.279 384.529 32.4915ZM375.122 37.3147C377.147 37.6086 376.468 35.9553 376.31 35.9627C374.315 35.9975 376.06 36.7007 376.044 36.773C375.986 36.9103 374.525 36.8506 375.126 37.3128C375.125 37.3134 375.123 37.3141 375.122 37.3147ZM382.671 33.6165C382.745 33.6085 383.954 33.0168 383.991 32.9707C384.696 32.0453 381.264 33.707 382.671 33.6165ZM142.816 57.4212C143.449 57.305 143.381 55.9091 142.896 56.2025C142.853 56.2333 142.257 57.5219 142.816 57.4212ZM320.749 54.8383C320.6 55.0527 315.372 57.0307 315.215 55.6578C315.737 55.705 321.675 53.5099 320.749 54.8383ZM280.017 63.7025C280.984 63.5325 279.547 62.3025 279.172 62.907C279.033 63.1327 279.773 63.7451 280.017 63.7025ZM128.738 48.8244C128.54 47.5238 126.929 50.4784 128.164 49.8879C128.213 49.8648 128.746 48.8752 128.738 48.8244ZM287.532 61.5887C283.96 61.3357 285.997 65.5759 289.923 63.2935C289.731 63.1277 289.538 62.9616 289.345 62.795C294.159 61.214 289.598 62.4347 288.3 62.4118C287.808 62.4041 287.987 61.6125 287.534 61.583C287.534 61.5849 287.533 61.5868 287.532 61.5887ZM274.933 64.5968C272.518 68.3205 278.164 65.2576 280.04 65.3695C277.97 64.352 275.804 64.8873 278.473 63.0681C273.98 63.496 276.152 64.4821 276.003 64.6166C275.824 64.7687 275.036 64.4378 274.933 64.5968ZM283.444 63.2399C283.658 63.2985 284.878 62.425 285.413 62.4401C284.406 61.5047 282.037 62.8279 283.444 63.2399ZM364.594 40.9221C365.006 41.4156 365.499 41.7069 366.45 41.0981C365.97 40.9602 365.166 40.9858 364.594 40.9221ZM64.2319 11.4039C63.8836 11.2646 63.3159 11.0826 63.0108 10.9018C62.6648 10.6541 62.551 10.4346 63.0657 10.3159C63.0955 10.3117 63.2537 10.3981 63.4565 10.5322C63.858 10.7428 64.4876 11.1886 64.2319 11.4039ZM305.125 59.2247C304.997 59.3595 300.858 60.3211 302.007 59.1565C302.352 58.8124 306.17 58.1016 305.125 59.2247ZM326.634 53.8101C326.29 53.9126 324.823 54.1637 324.726 54.0065C324.399 53.4635 326.259 53.3145 326.634 53.8101ZM60.1387 9.93459C59.9792 9.91925 57.8418 8.48787 58.3624 8.40701C59.3755 8.26224 60.6811 9.95109 60.1387 9.93459ZM143.95 60.5893C144.059 60.6715 144.587 59.6032 144.632 59.6054C144.706 59.6247 146.911 60.8433 146.452 59.0899C146.323 58.799 143.06 58.238 142.671 58.2197C141.96 59.6907 143.753 58.7308 144.017 59.0029C144.063 59.0536 143.664 60.3566 143.951 60.5825C143.951 60.5847 143.951 60.587 143.95 60.5893ZM370.431 39.3417C370.863 39.7814 375.058 38.4341 374.665 37.8838C373.257 38.381 371.842 38.8692 370.431 39.3417ZM368.443 40.2273C367.79 40.9134 369.855 40.2394 370.36 39.8464C370.174 39.5193 368.538 40.1286 368.443 40.2273ZM319.745 58.4253C319.261 58.3691 320.163 57.0385 319.8 56.9226C319.569 56.8506 318.777 57.4663 318.36 57.2311C318.237 57.1529 318.827 55.9749 319.119 55.9455C319.531 55.8991 319.437 56.7291 319.866 56.6233C321.289 56.2693 322.341 55.421 323.675 55.079C323.796 55.0488 323.069 55.806 324.09 55.5228C324.249 55.4788 324.892 54.4742 326.161 54.2524C329.813 55.7959 330.86 52.9947 334.624 52.7972C334.586 53.0428 332.272 54.362 332.128 54.4278C329.423 55.646 324.297 57.15 321.287 57.9581C320.516 58.1677 320.693 57.5635 320.354 57.6335C320.085 57.6894 320.763 58.5407 319.745 58.4253ZM64.1234 11.9399C63.2874 12.3492 62.7751 11.8646 62.2804 11.5076C62.0938 11.3537 61.9088 11.2112 61.7194 11.1076C62.0586 10.9647 62.3734 11.0225 62.6804 11.1758C63.1607 11.3443 63.587 11.8273 64.1234 11.9399ZM350.563 47.4011C350.15 47.5058 349.027 48.1584 348.809 47.9542C348.525 47.6876 350.216 46.9009 350.563 47.4011ZM159.801 64.5027C159.828 64.5482 160.725 64.666 160.768 64.6296C161.756 63.6908 159.076 63.3428 159.801 64.5027ZM181.844 68.1842C182.538 68.4572 183.219 68.9866 183.562 67.9084C183.093 68.0156 181.838 67.3971 181.844 68.1842ZM211.735 71.0103C211.648 72.4149 213.662 71.5513 214.042 71.4304C213.863 70.8092 211.798 70.0022 211.735 71.0103ZM365.743 43.314C367.031 42.7554 367.382 43.9781 367.933 43.1377C368.02 42.9963 367.151 40.5199 366.196 41.9477C366.025 42.2065 367.352 42.3589 365.743 43.314ZM290.621 63.1239C291.192 63.805 292.215 63.3721 292.932 63.1688C292.598 62.6518 291.159 63.0786 290.621 63.1239ZM55.4775 7.98119C54.1513 8.20795 51.8004 6.03828 52.9712 6.09882C53.1424 6.11205 55.0571 7.76334 55.4775 7.98119ZM135.319 55.8145C135.603 57.2325 133.789 56.6577 133.743 55.3786C133.967 55.5868 135.305 55.7253 135.319 55.8145ZM204.705 71.4659C204.757 71.5128 205.929 71.4795 205.981 71.4302C206.929 70.3959 203.632 70.4787 204.705 71.4659ZM174.257 68.8136C174.591 69.7766 177.626 69.5284 178.381 68.7412C177.891 67.3565 173.848 67.6179 174.257 68.8136ZM360.135 45.0587C361.092 44.7324 361.913 44.2497 362.667 43.7255C362.277 43.4071 360.078 44.7253 360.135 45.0587ZM209.012 71.7725C209.075 71.7692 209.134 71.6901 209.194 71.6838C209.132 71.7118 209.072 71.7442 209.012 71.7725ZM338.873 52.6578C338.144 53.0918 337.934 52.1992 337.973 52.1583C338.46 51.7008 339.696 52.1685 338.873 52.6578ZM62.2025 12.5393C61.7807 12.7535 61.436 12.6546 61.1176 12.4719C60.6442 12.1453 60.1869 11.6772 59.6875 11.4957C60.1881 11.2882 60.9429 11.6741 61.5603 12.1048C61.8223 12.2568 62.0515 12.4247 62.2025 12.5393ZM271.99 67.1966C271.222 68.4664 275.768 69.069 276.48 68.2107C276.371 67.5363 272.102 67.03 271.99 67.1966ZM131.814 56.074C131.456 56.6267 131.037 56.0531 130.923 55.5101C130.864 55.2247 130.895 54.9515 131.071 54.8641C131.131 54.8346 131.205 54.8392 131.284 54.8693C131.643 55.0069 132.089 55.6439 131.814 56.074ZM278.484 67.3988C278.942 67.5697 279.662 66.6444 279.212 66.2321C278.636 65.7014 278.364 67.347 278.484 67.3988ZM313.987 60.5735C313.852 60.7244 311.293 60.5989 311.991 59.6683C312.474 59.0254 312.939 59.981 313.096 59.9449C313.27 59.8996 316.521 57.7751 313.987 60.5735ZM248.59 70.9349C249.52 71.1733 250.511 70.6797 251.426 70.6041C250.956 70.1225 248.832 70.1971 248.59 70.9349ZM136.226 58.7523C135.972 59.1019 132.02 57.2677 134.773 57.3247C134.952 57.3479 137.164 57.8558 136.226 58.7523ZM365.743 43.314C365.58 43.3847 365.401 43.4833 365.205 43.6193C365.416 43.5134 365.59 43.4047 365.743 43.314ZM350.696 48.9432C351.202 49.2355 349.7 49.8839 349.135 49.8254C348.754 49.3795 350.624 48.9045 350.696 48.9432ZM251.659 71.4562C252.254 71.7501 253.145 71.2637 253.805 71.229C253.583 70.6734 251.776 70.8494 251.659 71.4562ZM215.728 74.3281C216.68 73.9621 217.891 74.1274 217.965 74.8862C217.977 74.7673 218.017 74.6409 218.087 74.5136C218.16 74.3882 219.233 74.7317 219.677 74.4656C222.269 72.9423 209.108 73.5575 216.9 75.7306C216.505 75.2651 216.114 74.7976 215.728 74.3281ZM170.042 70.0254C169.337 70.9035 167.932 69.3955 168.399 69.0846C168.721 68.8743 170.744 69.1429 170.042 70.0254ZM191.99 73.7235C191.812 73.8783 190.312 73.0314 190.308 72.5182C191.232 72.0886 192.802 73.0098 191.99 73.7235ZM165.538 70.3807C165.16 70.4617 164.965 68.8 165.018 68.7391C165.461 68.2323 166.267 69.6152 165.538 70.3807ZM364.214 46.5672C363.81 47.0158 361.779 47.0973 361.114 46.6863C361.102 46.8192 360.989 47.0296 360.734 47.3291C360.735 47.3287 360.736 47.3283 360.737 47.3279C360.417 47.78 346.605 53.1193 355.392 48.6062C355.666 48.4639 355.531 49.1245 356.67 48.5956C356.745 48.5599 356.57 48.1291 356.802 48.0194C357.341 47.7695 360.161 46.4101 360.93 46.503C360.895 46.4264 360.896 46.3406 360.942 46.2444C361.358 45.3983 364.532 46.2291 364.214 46.5672ZM195.013 74.173C194.695 74.4211 193.734 74.0604 193.671 73.3884C194.171 73.1159 195.753 73.5959 195.013 74.173ZM134.869 61.2633C134.19 61.5647 133.54 60.0184 134.138 59.6893C134.508 59.4929 135.648 60.9222 134.869 61.2633ZM185.144 72.6863C188.907 72.3707 186.022 72.8627 186.508 73.9106C186.051 73.5039 185.597 73.0958 185.144 72.6863ZM380.37 38.1446C379.856 38.5087 381.08 39.0714 381.422 38.3049C381.529 38.0642 380.658 37.9447 380.37 38.1446ZM406.851 25.3291C406.774 26.19 408.984 24.534 407.734 24.6414C407.679 24.6513 406.87 25.2873 406.851 25.3291ZM388.613 35.0038C387.898 34.7069 387.599 34.7732 386.573 35.4223C388.303 34.7777 387.071 35.9428 388.613 35.0038ZM217.963 75.0059C217.966 74.9609 217.969 74.9276 217.965 74.8862C217.961 74.9272 217.961 74.966 217.963 75.0059ZM162.219 69.4172C161.601 70.3244 160.368 69.9952 160.916 69.0683C160.97 68.9835 162.159 68.6442 162.219 69.4172ZM361.114 46.6863C361.125 46.5685 361.062 46.5196 360.93 46.503C360.963 46.5751 361.024 46.6314 361.114 46.6863ZM168.889 71.5119C168.951 70.7626 170.938 70.814 171.006 70.9133C171.954 72.3907 169.688 71.7012 168.889 71.5119ZM124.534 56.671C124.497 56.5547 126.034 55.165 125.949 56.0231C125.884 56.6903 124.675 57.1164 124.534 56.671ZM392.508 33.3382C393.125 33.0286 393.989 32.5918 393.905 32.153C393.529 32.416 392.315 33.0772 392.508 33.3382ZM406.2 26.2704C405.195 26.2915 403.509 27.173 402.483 27.7963C402.823 28.3166 405.423 26.5231 406.2 26.2704ZM365.748 45.6211C365.718 45.6661 364.509 46.3774 364.263 46.0554C364.253 46.0415 364.244 46.0257 364.237 46.0079C364.23 45.9879 364.225 45.9653 364.222 45.94C364.146 45.1032 366.04 45.1859 365.748 45.6211ZM127.464 57.2021C127.681 58.1115 125.356 59.1437 125.583 57.4127C125.704 56.5313 127.427 57.0521 127.464 57.2021ZM158.118 69.9134C157.349 69.1776 159.689 68.6735 159.821 69.7236C159.398 69.7173 158.394 70.175 158.118 69.9134ZM189.25 75.961C188.362 76.6669 187.877 76.7681 187.661 76.5651C187.39 76.3121 187.533 75.5875 187.786 74.9677C188.041 74.3397 188.408 73.819 188.58 74.003C188.647 74.0766 189.325 75.9035 189.25 75.961ZM45.4912 5.88023C45.277 5.48067 47.466 5.86838 47.2071 6.36082C47.034 6.66383 45.63 6.14545 45.4912 5.88023ZM232.113 75.2397C231.986 75.2391 231.861 75.2382 231.738 75.2382C231.835 75.2753 231.958 75.2817 232.113 75.2397ZM149.56 71.8926C152.321 68.3566 151.421 71.3901 151.591 71.4154C151.952 71.4589 153.007 70.5735 153.638 70.9095C152.966 70.2761 152.31 69.6408 151.667 69.0023C152.289 68.8726 157.848 68.6157 157.858 69.2816C157.843 70.2464 156.21 69.5811 156.146 69.6502C156.053 69.7508 155.274 72.2708 155.096 72.3333C154.783 72.4393 150.363 71.439 149.56 71.8926ZM183.146 74.7652C183.647 74.5235 183.874 73.5284 184.07 73.7992C184.137 73.8918 184.062 74.8591 184.295 75.1417C183.912 75.0169 183.529 74.8914 183.146 74.7652ZM147.298 67.4412C146.5 68.4861 148.796 68.6514 148.908 68.5353C149.475 67.8347 147.929 66.5887 147.298 67.4412ZM167.789 72.2031C167.684 72.2571 165.653 72.2689 165.774 71.6097C166.367 71.2049 169.028 71.5328 167.789 72.2031ZM184.605 75.248C185.326 75.2264 186.744 74.4208 186.471 75.8529C186.47 75.8528 186.469 75.8526 186.468 75.8525C185.846 75.6529 185.226 75.4515 184.605 75.248ZM127.775 61.0973C127.775 61.0974 127.775 61.0975 127.774 61.0975C125.861 62.3804 127.047 60.8411 128.243 60.2665C128.448 60.1679 128.653 60.0969 128.842 60.0727C128.586 61.1776 128.142 60.8538 127.775 61.0973ZM123.51 60.6862C122.988 60.8913 120.232 58.6241 121.371 57.8182C121.77 57.5325 122.882 59.5744 123.011 59.5458C123.198 59.5059 123.386 57.9604 124.153 58.7554C123.851 59.1349 123.683 60.621 123.51 60.6862ZM126.139 61.9435C124.165 62.9262 125.64 59.8496 126.424 60.3C126.733 60.4733 126.419 61.7989 126.139 61.9435ZM130.432 64.0163C129.935 64.1158 128.761 64.0108 128.63 62.6426C129.572 63.0594 130.484 63.4471 131.367 63.8049C131.171 64.4245 130.867 63.9296 130.429 64.015C130.43 64.0154 130.431 64.0159 130.432 64.0163ZM415.957 24.7801C415.157 25.6672 417.579 24.4211 417.626 24.29C417.748 23.8817 416.315 24.3864 415.957 24.7801ZM25.2278 10.3661C24.864 10.2456 24.2208 10.4593 24.0258 9.7198C24.8584 9.99233 25.6972 10.2373 26.5619 10.4821C26.0523 11.5601 25.6308 10.5037 25.2278 10.3661ZM20.4496 10.5393C20.4905 10.6367 18.8959 11.1227 20.5093 11.5641C21.623 11.8299 19.2778 7.57533 18.2573 7.23666C18.5669 8.20583 20.0841 9.71038 20.4496 10.5393ZM10.9315 6.62826C10.8134 6.62563 11.5431 8.53462 11.6997 8.68005C12.5631 9.51878 11.5295 6.64226 10.9315 6.62826ZM13.9295 12.0353C13.2844 11.4163 14.0422 13.2776 14.4691 13.7087C14.724 13.5833 14.0284 12.1355 13.9295 12.0353ZM417.4 47.0418C417.22 48.4099 415.375 47.2657 416.744 46.6983C416.81 46.6713 417.405 46.9792 417.4 47.0418ZM10.6393 9.15441C11.2415 9.84869 10.5211 7.88626 10.1433 7.37444C9.92298 7.46359 10.5456 9.04802 10.6393 9.15441ZM418.197 49.3012C417.631 50.6686 416.633 48.5012 416.701 48.3282C416.992 47.6264 419.221 46.9557 419.692 46.84C416.948 48.6741 418.462 48.6603 418.197 49.3012ZM412.898 51.8293C411.839 52.3464 413.893 50.0915 414.711 50.2718C414.244 50.6094 413.199 51.6826 412.898 51.8293ZM407.77 56.9033C407.324 57.3682 405.959 58.7109 405.482 58.5673C406.073 58.2043 407.332 56.7295 407.77 56.9033ZM407.31 58.7831C406.836 59.8535 405.76 58.673 406.924 58.3634C406.969 58.3513 407.321 58.7354 407.31 58.7831ZM403.216 62.7203C403.057 63.6722 401.589 62.7802 402.409 62.1031C402.654 61.9051 403.23 62.6151 403.216 62.7203ZM418.433 52.3482C417.877 53.1596 416.384 53.1058 417.824 51.7336C417.209 52.0584 416.588 52.382 415.968 52.701C417.622 50.5723 418.277 51.8304 418.807 51.2975C419.545 50.5531 418.827 49.6883 418.462 49.5316C419.517 49.5526 422.251 47.2149 423.884 45.9588C422.672 47.3738 420.725 49.7212 419.462 51.0601C419.103 51.4426 418.542 51.5158 418.227 51.8319C417.724 52.3406 418.463 52.3011 418.435 52.3458C418.434 52.3466 418.434 52.3474 418.433 52.3482ZM397.315 67.1999C396.166 69.0084 396.263 66.8548 397.306 66.4644C397.356 66.4559 397.344 67.1548 397.315 67.1999ZM6.30022 8.67738C7.73018 11.2449 7.65818 8.84472 8.73794 14.9438C8.5675 12.1898 9.1982 14.4669 9.30984 13.8236C9.38486 13.3081 8.68013 12.1301 9.43113 12.5858C8.53327 11.9686 6.99376 7.30988 6.7738 6.91107C6.77458 6.91335 6.77537 6.91563 6.77616 6.91791C6.67817 6.78107 5.83603 7.79724 6.30022 8.67738ZM410.003 60.2189C410.55 62.1713 408.698 59.8809 408.586 61.971C406.026 61.163 412.178 59.0004 411.705 56.9754C406.54 61.4854 414.155 52.6049 412.037 57.9084C414.488 54.5644 413.217 57.3571 413.88 57.2524C414.587 57.1347 416.045 55.3567 416.333 55.9668C416.332 55.9676 416.331 55.9684 416.331 55.9692C415.279 56.824 414.218 57.6764 413.151 58.5231C413.348 56.4687 411.461 58.6095 411.411 60.2173C410.943 60.2207 410.473 60.2217 410.003 60.2189ZM415.14 54.1569C415.06 54.2707 412.685 55.9983 412.664 55.6362C412.868 55.2377 416.193 52.739 415.14 54.1569ZM425.041 45.9798C424.261 46.6709 423.198 47.9465 422.48 47.9214C423.266 47.2295 424.334 45.9659 425.041 45.9798ZM381.649 79.8154C380.876 79.9549 381.547 79.296 382.205 78.8641C382.767 78.495 383.32 78.2847 382.994 78.8606C382.978 78.8877 382.721 79.0794 382.435 79.2846C382.084 79.5361 381.688 79.8077 381.649 79.8154ZM407.444 61.9507C406.687 63.3077 406.173 61.3538 407.241 61.1134C407.303 61.0993 407.48 61.8878 407.444 61.9507ZM6.9304 11.0742C6.64309 11.4168 8.23909 15.1108 8.49233 15.7431C8.67184 15.1502 7.25147 10.7542 6.9304 11.0742ZM427.23 45.8904C426.489 48.3805 423.473 49.0138 423.254 49.2374C423.045 49.4727 423.762 49.6447 423.719 49.7048C423.622 49.841 421.14 52.0057 420.992 52.076C420.886 52.1234 420.822 51.0109 420.149 51.234C421.448 50.7673 425.743 46.5146 426.023 46.3853C426.244 46.2826 425.413 48.2069 427.227 45.8928C427.228 45.892 427.229 45.8912 427.23 45.8904ZM422.785 49.9074C423.188 49.0669 421.438 50.5622 421.097 51.0425C420.345 52.116 422.734 50.0132 422.785 49.9074ZM418.821 53.8861C418.672 54.1309 416.915 55.7819 416.512 55.5627C417.054 54.363 419.16 53.3301 418.821 53.8861ZM397.903 71.0338C397.357 71.3669 396.158 72.7553 395.842 72.4348C396.393 72.1062 397.591 70.7211 397.903 71.0338ZM8.7184 26.0803C8.05367 25.2655 8.78263 27.7882 9.18865 28.3757C9.4454 28.2204 8.77311 26.15 8.7184 26.0803ZM409.418 65.3395C409.22 65.7 403.091 70.3815 402.11 70.8701C402.788 69.9419 408.687 65.0658 409.015 64.9553C409.117 64.9279 409.444 65.2922 409.418 65.3395ZM421.841 54.5282C422.656 54.4918 422.616 53.6657 422.676 53.6011C423.255 52.9564 424.613 51.8485 424.039 51.7067C423.063 52.894 420.214 54.5945 421.841 54.5282ZM399.006 73.8728C396.79 75.2902 400.444 71.5905 400.269 72.572C400.258 72.6325 399.238 73.7248 399.006 73.8728ZM410.17 64.9251C410.895 64.9582 416.423 59.5498 417.31 58.7301C416.018 58.7777 415.722 59.8831 414.594 60.8271C414.288 61.0802 414.166 60.7166 414.134 60.7444C413.605 61.1854 414.227 61.1845 413.91 61.471C413.723 61.6596 409.184 64.8914 410.17 64.9251ZM422.344 54.5602C422.838 54.5238 426.319 51.3991 426.404 51.2061C427.094 49.7734 422.561 54.2234 422.344 54.5602ZM410.072 66.0456C411.282 66.3632 413.773 63.259 411.517 64.5664C411.302 64.6919 410.753 65.7569 410.072 66.0456ZM399.791 74.6102C399.706 74.722 397.641 76.6298 397.412 76.3464C397.662 75.9831 400.77 73.3794 399.791 74.6102ZM401.548 74.7364C401.491 74.7706 401.637 73.7841 400.67 74.6703C400.59 74.7433 400.839 75.5333 399.407 76.3127C399.117 76.4699 398.441 76.3465 398.454 76.2956C399.165 74.2188 404.372 72.9545 401.548 74.7364ZM422.705 54.9199C422.676 55.3131 423.583 55.5367 423.75 54.829C423.821 54.5258 423.226 54.4447 422.705 54.9199ZM392.965 80.2648C394.577 79.825 390.55 82.9841 390.254 82.9903C390.196 82.5529 392.81 80.3109 392.965 80.2648ZM5.79887 31.4846C5.79851 31.4834 5.79813 31.4821 5.79776 31.4809C6.31461 32.7526 6.48023 31.5868 6.51011 31.6407C8.04572 34.0454 6.85174 34.0262 6.87991 34.576C6.92827 35.7302 8.08453 34.6458 8.12215 36.6416C7.96128 33.3935 8.47725 36.0757 8.93153 35.7928C10.7916 34.7147 6.89082 32.9265 6.85357 31.2643C6.83666 31.0401 7.82406 32.0057 7.81718 31.4074C7.73925 29.5407 3.80566 26.4921 5.79887 31.4846ZM424.099 54.5917C424.814 54.5501 427.841 51.0075 426.753 51.5511C426.585 51.6396 423.061 54.6508 424.099 54.5917ZM223.696 151.284C224.999 152.011 222.187 153.395 221.606 152.767C221.325 152.455 223.123 150.965 223.696 151.284ZM203.26 156.752C201.726 156.633 200.193 152.91 202.057 153.437C202.253 153.496 203.435 156.225 203.26 156.752ZM295.285 135.728C294.208 137.329 293.752 135.216 294.761 134.897C295.117 134.784 295.319 135.677 295.285 135.728ZM241.357 150.108C241.22 150.219 239.494 150.383 239.487 149.826C240.09 149.387 242.237 149.363 241.357 150.108ZM295.796 135.87C294.889 135.781 295.887 133.795 297.26 134.902C296.727 134.963 295.891 135.878 295.796 135.87ZM409.434 70.3273C408.612 70.3481 407.186 71.7882 406.26 72.4536C406.55 73.1309 408.751 70.7648 409.434 70.3273ZM209.705 154.905C208.258 154.068 211.302 153.109 211.049 154.351C211.012 154.421 209.764 154.941 209.705 154.905ZM338.449 117.857C337.387 117.72 339.798 115.617 339.43 116.972C339.409 117.031 338.508 117.865 338.449 117.857ZM350.002 111.426C349.446 111.954 346.716 113.354 347.557 112.264C347.687 112.097 349.755 110.967 350.002 111.426ZM6.44355 35.0212C5.66111 35.1474 6.51098 37.285 6.72571 37.4954C6.82702 37.5829 7.45132 34.828 6.44355 35.0212ZM286.422 138.934C285.672 139.022 283.888 139.896 283.416 139.383C284.321 139.234 286.365 137.642 286.422 138.934ZM216.221 154.397C215.042 155.974 212.895 156.007 213.362 154.049C215.71 153.982 213.135 155.799 216.221 154.397ZM300.693 135.534C300.152 135.838 299.306 134.469 299.35 134.374C299.775 133.468 301.093 134.734 300.693 135.534ZM257.002 147.47C257.091 148.208 255.126 148.331 255.302 147.799C255.365 147.621 256.929 146.874 257.002 147.47ZM390.069 86.2801C389.571 87.1879 391.944 85.9364 392.332 85.0164C392.288 84.1605 390.135 86.1722 390.069 86.2801ZM316.14 128.998C316.512 129.882 313.554 130.532 314.419 129.308C314.636 129.003 316.016 128.705 316.14 128.998ZM342.701 117.708C340.537 117.662 347.757 113.041 346.268 115.277C346.166 115.44 342.894 117.712 342.701 117.708ZM354.616 110.486C354.356 110.76 355.617 113.281 356.438 111.552C356.547 111.328 355.486 111.086 355.553 110.851C355.595 110.718 358.149 108.786 358.299 108.771C358.462 108.76 358.662 109.672 358.838 109.684C359.038 109.695 360.382 107.996 361.247 107.469C362.87 106.479 363.347 107.031 363.481 106.953C363.874 106.718 364.308 105.852 365.097 105.367C369.063 102.959 375.287 99.5675 377.685 96.2041C375.228 98.5564 372.34 99.7183 369.507 101.278C370.947 102.109 364.967 102.789 368.538 102.555C367.105 103.109 355.503 109.658 354.619 110.484C354.618 110.484 354.617 110.485 354.616 110.486ZM197.222 158.04C198.123 159.389 193.31 159.151 192.982 157.559C193.616 157.346 197.104 157.894 197.222 158.04ZM219.586 159.899C220.045 160.078 220.623 162.627 222.887 161.025C222.889 161.025 222.892 161.025 222.894 161.025C223.55 160.557 222.732 160.025 222.842 159.785C222.883 159.688 224.912 158.139 223.141 158.153C220.447 158.16 223.018 160.107 221.581 160.307C221.403 160.335 218.596 159.237 218.742 158.907C218.756 158.87 219.591 159.078 219.72 158.935C220.206 158.397 219.911 157.615 219.981 157.568C220.202 157.455 224.577 158.314 225.093 157.028C225.278 156.639 218.232 156.563 217.968 156.768C217.8 156.913 217.983 159.159 217.812 159.399C217.722 159.524 214.829 158.953 214.467 159.189C214.362 159.259 214.282 159.331 214.224 159.39C214.631 158.654 212.042 158.922 212.142 159.705C212.196 160.014 213.98 159.685 214.043 159.623C214.071 159.598 214.094 159.564 214.116 159.54C213.774 160.443 219.827 159.803 218.582 161.194C220.369 161.695 218.237 159.369 219.586 159.899ZM228.007 160.214C227.809 160.007 227.612 159.798 227.416 159.59C230.472 159.734 233.808 158.066 237.16 157.476C238.011 157.324 237.189 158.908 238.265 158.32C239.137 157.846 239.95 156.363 239.436 156.163C239.317 156.112 237.592 157.295 236.675 157.368C233.935 157.582 234.501 156.243 234.337 156.239C234.154 156.235 232.546 157.369 231.592 157.478C229.221 157.747 228.08 157.157 224.881 158.579C226.836 159.137 225.935 161.038 228.007 160.214ZM328.761 126.484C329.063 127.03 330.541 125.716 331.17 125.513C330.869 124.972 329.397 126.285 328.761 126.484ZM47.8379 111.735C48.2452 110.261 51.8161 113.117 50.2218 113.189C49.8624 113.207 48.2637 112.132 47.8379 111.735ZM64.4529 124.403C64.7472 125.091 62.1047 124.421 62.7336 123.539C62.931 123.259 64.4169 124.319 64.4529 124.403ZM264.825 151.235C264.937 151.244 266.412 150.567 266.445 150.494C267.216 148.975 262.351 151.044 264.825 151.235ZM85.9122 139.718C84.2632 137.798 90.767 140.826 88.2805 140.819C88.1433 140.815 85.9803 139.81 85.9122 139.718ZM95.1233 144.672C94.5628 144.363 91.8786 143.562 92.0479 143.167C92.2993 142.534 95.3288 143.482 95.1233 144.672ZM302.182 139.429C302.3 140.717 304.639 138.803 305.577 138.597C305.455 137.322 303.124 139.237 302.182 139.429ZM285.916 146.261C297.246 143.42 294.149 141.643 285.11 145.866C285.285 146.682 285.201 146.433 285.916 146.261ZM300.015 141.079C299.407 140.453 298.226 141.148 297.401 141.521C297.696 142.01 299.37 141.17 300.015 141.079ZM42.6176 109.505C42.3753 111.039 45.8521 112.357 45.7312 111.511C45.6897 111.333 42.8432 108.784 42.6176 109.505ZM265.997 152.11C265.975 153.478 269.308 151.988 269.506 151.628C270.337 150.186 266.331 152.323 265.997 152.11ZM317.867 134.128C318.435 134.546 319.292 134.155 320.107 133.708C320.505 133.491 320.893 133.26 321.233 133.103C320.936 132.885 320.454 132.958 319.928 133.146C319.196 133.408 318.38 133.893 317.867 134.128ZM310.514 138.034C310.59 138.042 312.032 137.352 312.085 137.283C313.027 135.917 308.95 137.853 310.514 138.034ZM0.369937 33.311C0.370201 33.3879 0.660106 34.6157 0.692395 34.6469C1.43134 35.3881 0.509578 31.6856 0.369937 33.311Z" fill="#CE9137"/>
</svg>
