<svg width="407" height="324" viewBox="0 0 407 324" fill="none" xmlns="http://www.w3.org/2000/svg">
<path d="M0.310944 269.251C2.34738 262.789 6.30356 257.432 9.72485 253.649C10.792 252.477 11.7921 253.942 12.6036 253.151C14.1397 251.692 14.4134 249.645 16.0771 248.238C16.6345 247.777 18.4027 249.751 18.9215 249.266C21.8048 246.507 23.0227 243.166 25.4476 240.118C35.4151 227.655 44.2525 215.079 53.2565 202.122C54.9651 199.662 56.6886 197.191 58.4506 194.706C62.1448 189.492 68.235 184.181 71.5689 177.918C71.961 177.179 69.8868 176.271 69.8332 176.035C69.0883 172.351 72.1736 175.686 73.6282 174.754C78.7606 171.442 83.2979 166.984 86.7871 162.762C88.2573 161.191 89.8512 159.99 91.3207 159.084C96.6694 156.26 89.7236 154.279 95.9928 154.797C96.3667 154.871 95.7812 157.452 97.1152 157.363C100.148 157.135 104.157 156.542 105.651 156.747C108.536 157.141 108.932 157.166 111.378 157.378C113.949 157.639 116.605 158.702 119.152 159.14C120.095 159.296 120.993 159.421 121.935 159.497C122.844 159.571 122.155 156.95 123.717 156.886C125.302 156.788 129.211 158.26 130.255 159.355C131.306 160.408 130.007 161.92 130.053 162.41C130.205 166.39 136.219 164.016 136.879 164.34C147.103 168.596 149.761 177.146 154.11 182.829C157.451 187.305 161.358 191.181 164.105 194.814C164.286 195.055 164.462 195.295 164.636 195.535C168.663 200.998 170.471 206.152 173.61 211.166C173.956 211.73 176.029 209.651 176.46 210.347C181.012 217.738 184.332 225.29 186.084 233.394C186.256 234.206 183.566 234.335 183.602 235.209C183.88 240.545 182.714 249.625 193.73 247.606C194.751 250.755 196.059 254.506 195.372 258.075C194.934 260.378 191.7 259.927 193.755 261.496C194.215 261.85 196.044 260.197 196.573 260.804C197.216 261.541 197.748 262.358 198.243 263.202C199.446 265.253 200.438 267.477 202.258 269.033C202.782 269.471 204.574 268.319 204.995 268.295C208.421 268.133 205.142 272.768 205.095 273.435C204.752 278.452 207.273 280.486 209.359 283.872C209.856 284.681 211.656 282.201 212.218 282.918C213.081 284.068 213.855 285.053 215.072 287.235C214.056 285.426 212.839 284.323 211.135 283.47C209.475 282.721 206.726 281.752 202.595 283.325C201.877 283.807 201.499 284.63 201.856 284.912C202.104 285.064 203.953 286.643 204.217 286.731C204.873 286.804 204.34 286.018 203.692 285.364C203.057 284.683 202.352 284.095 203.018 283.793C203.297 283.651 205.172 284.559 205.402 284.603C209.073 285.095 204.553 282.546 204.491 282.36C203.83 279.239 209.449 277.899 209.238 274.056C209.203 273.605 206.463 274.231 206.521 272.996C206.875 265.596 207.719 257.136 211.085 248.387C211.459 247.5 211.857 246.599 212.272 245.713C212.883 244.419 214.605 245.811 214.862 245.776C218.883 245.206 214.108 243.182 214.019 242.702C213.47 238.854 218.416 236.638 213.11 232.802C218.865 218.574 219.849 203.11 229.821 190.53C229.942 190.371 232.215 191.496 232.444 191.177C235.254 187.312 231.274 186.89 227.799 182.389C226.935 181.234 233.161 180.995 233.631 180.951C235.353 180.787 238.59 182.813 238.96 182.683C241.884 181.624 230.19 177.565 231.237 174.85C231.289 174.773 233.271 175.955 233.57 175.811C234.507 175.364 233.925 174.379 234.937 173.961C237.26 173.066 242.994 174.889 240.796 171.187C240.528 170.686 233.836 168.403 235.331 165.972C235.644 165.485 236.378 163.93 237.316 162.356C238.045 161.14 238.832 159.982 239.342 159.55C240.429 158.632 241.878 160.603 242.013 160.568C246.404 159.161 246.754 160.962 251.349 162.017C255.889 163.168 246.963 157.604 246.413 156.337C245.865 155.059 249.398 154.42 250.45 154.478C251.505 154.518 252.173 155.999 252.885 155.875C257.537 155.137 249.816 151.362 249.336 149.322C248.374 144.355 255.83 147.85 258.196 146.746C258.869 146.421 257.244 145.489 257.631 144.927C259.285 142.687 261.876 143.716 263.37 140.212C263.43 140.082 263.47 139.713 263.546 139.239C263.847 137.496 266.24 134.141 268.814 136.53C269.201 136.987 268.63 138.983 270.167 139.279C272.56 139.671 275.775 141.149 277.751 141.618C279.272 141.963 279.439 138.296 280.62 140.233C281.063 141.075 278.782 141.773 279.6 143.173C280.419 144.537 282.966 146.767 283.882 147.654C284.811 148.518 286.086 146.345 286.274 146.302C287.409 146.116 289.968 147.196 290.107 147.368C294.739 152.356 297.094 157.919 300.522 162.131C303.079 165.118 305.676 167.969 308.837 170.355C309.482 170.847 310.9 168.649 311.017 168.705C313.743 169.897 307.398 173.192 307.134 176.149C310.616 172.281 310.752 173.744 312.51 174.716C313.362 175.184 314.441 173.411 314.648 173.327C317.801 172.174 315.651 175.625 315.245 176.365C313.752 179.09 316.959 177.353 315.962 179.177C314.977 180.993 311.893 182.01 313.196 183.3C314.889 182.374 317.434 178.013 318.969 178.465C324.454 180.088 328.26 188.712 330.937 191.832C331.104 192.029 331.266 192.207 331.421 192.364C334.16 195.077 335.383 195.387 336.941 197.13C339.909 200.214 340.347 196.301 343.258 195.919C346.203 195.488 341.395 203.026 340.933 204.919C340.496 206.817 341.705 205.209 341.719 206.363C341.747 207.522 340.229 208.269 341.153 209.107C342.086 209.956 346.321 208.037 347.419 206.323C349.792 202.721 350.162 198.097 352.299 200.622C352.423 200.77 351.055 202.74 351.574 203.197C355.406 206.47 359.999 208.419 364.112 211.282C364.443 211.527 364.772 211.765 365.103 211.997C365.663 212.375 364.437 214.739 364.827 215C369.581 217.46 369.113 211.908 366.669 207.896C368.323 210.417 369.43 212.684 371.084 213.682C372.685 214.72 374.69 214.322 375.888 212.904C376.039 212.736 376.181 212.55 376.311 212.345C377.477 210.475 374.832 209.358 373.685 207.298C373.329 206.701 375.694 206.295 374.596 205.49C370.975 202.932 366.111 202.027 368.961 200.182C369.095 200.094 371.158 201.35 371.458 200.975C373.391 198.444 369.163 196.711 369.351 193.672C369.498 191.316 372.914 187.292 373.609 184.235C380.857 184.975 379.441 181.709 374.481 180.273C374.795 178.271 374.579 176.067 375.31 174.092C375.559 173.411 377.657 173.898 377.886 173.816C381.48 172.529 376.608 171.55 376.421 171.104C374.608 166.212 378.273 162.247 374.778 157.363C374.653 157.192 369.604 156.762 373.337 155.562C373.595 155.492 375.835 157.168 376.096 154.896C376.229 153.767 377.024 152.153 377.562 150.441C378.098 148.79 378.32 146.994 377.247 145.387C376.733 144.617 372.756 142.497 376.045 141.207C376.492 141.034 377.925 141.339 378.748 141.098C381.37 140.311 376.299 139.514 380.695 138.664C385.091 137.819 388.466 135.693 385.639 132.439C385.557 132.335 381.552 131.389 381.666 130.425C381.852 128.877 382.805 126.723 382.859 125.1C382.884 124.325 380.348 124.696 380.309 124.559C379.16 119.278 381.576 115.679 382.823 110.14C383.056 109.123 379.777 106.014 382.584 104.163C385.658 102.142 397.872 104.99 395.191 99.8605C394.12 97.7952 378.615 94.4072 386.917 91.2212C386.504 89.4024 386.491 87.6415 386.662 85.9033C387.163 80.7791 389.148 75.8621 387.15 70.5154C387.031 70.1864 382.686 69.079 382.761 68.3612C382.879 67.2941 384.932 66.6694 385.077 65.8896C385.737 62.6226 383.987 59.5286 384.198 56.3913C384.271 55.1677 386.394 55.5382 386.473 54.1043C386.544 52.6248 383.735 51.81 384.979 49.7726C385.927 48.2691 391.512 46.387 392.009 44.2837C386.408 44.6323 386.432 43.2957 384.697 41.0342C384.362 40.6181 382.475 41.3122 382.217 41.1289C381.123 40.3949 382.626 39.3668 381.434 38.7256C381.146 38.5568 379.247 38.8084 378.905 38.6926C375.938 37.7725 379.827 34.9923 380.475 34.4076C382.995 32.4191 380.4 32.2157 381.227 30.8397C382.042 29.4533 383.822 30.815 384.15 29.3106C384.816 26.0852 383.196 22.4252 382.118 19.7008C381.692 18.6183 379.638 20.335 379.522 20.2027C378.73 19.1806 378.782 17.8053 378.346 16.8054C377.971 15.857 377.043 15.1907 374.551 15.5337C386.1 9.03907 372.916 14.6528 373.809 10.867C373.88 10.5714 378.99 6.96282 380.41 7.59529C381.844 8.26689 380.923 10.7745 382.858 11.7848C383.308 11.95 389.643 12.3329 390.096 12.6468C390.33 12.7707 390.508 12.9026 390.637 13.0396L390.493 12.5972C391.891 13.0873 384.512 16.4815 384.093 16.7254C379.426 19.8905 386.191 19.7564 386.857 20.2919C389.889 22.5601 389.499 25.7588 391.511 28.0151C392.822 29.5475 398.807 28.4174 398.932 29.9629C399.262 35.0483 390.978 37.5143 398.763 40.9667C400.414 41.7587 406.979 40.1854 402.038 44.0161C401.727 44.2283 397.123 47.0265 400.215 48.1543C400.606 48.3056 402.545 48.1952 402.72 48.4181C403.856 49.9596 402.352 50.987 403.15 52.6652C403.946 54.2789 405.096 56.3408 404.457 58.1778C404.078 59.3218 400.466 60.8156 399.58 61.3167C397.031 62.7841 401.2 64.4766 398.101 65.3308C394.984 66.2085 390.295 64.3723 388.255 66.7241C393.297 66.8922 398.47 67.1851 403.539 67.4221C403.267 72.8338 401.437 77.9977 401.384 83.3312C401.382 83.9871 404.125 83.458 404.193 84.17C404.277 85.1059 404.132 86.0064 403.909 86.9023C403.423 88.756 402.568 90.5359 402.985 92.6175C403.463 94.9538 406.196 97.631 406.793 100.079C400.952 101.252 402.726 104.939 402.07 107.52C401.842 108.428 400.306 108.29 399.771 108.914C397.792 111.278 402.943 110.379 403.712 111.091C406.991 114.147 395.449 113.829 395.568 117.257C395.57 117.433 401.608 119.952 401.976 120.271C404.377 122.335 399.821 120.489 399.308 121.68C398.369 123.857 396.826 125.316 398.495 128.016C398.99 128.8 402.727 130.827 399.688 132.152C399.29 132.326 397.264 132.113 397.137 132.262C395.005 134.996 401.382 135.408 403.454 137.162C405.526 138.907 400.974 141.207 399.674 141.636C396.311 142.784 398.332 140.528 398.013 140.434C394.227 139.36 394.783 141.222 394.373 142.616C388.107 142.437 388.361 144.416 393.973 144.054C394.587 144.01 394.071 142.877 394.373 142.616C400.436 144.213 401.086 146.47 395.189 148.485C392.485 149.414 389.511 148.196 390.212 151.393C390.229 151.459 390.248 151.528 390.269 151.599C390.69 153.019 395.03 152.77 396.138 154.007C398.671 156.787 394.585 160.372 395.201 163.499C395.424 164.624 397.792 163.545 398.026 164.312C398.656 166.354 396.88 168.187 397.771 170.343C397.855 170.539 400.331 170.079 400.357 170.753C400.591 175.891 398.933 180.57 398.373 186.521C398.129 189.367 398.759 194.964 397.768 198.211C396.176 203.873 390.408 209.679 388.761 214.607C387.644 217.897 390.107 218.462 390.744 220.7C390.915 221.34 390.881 221.929 390.692 222.462C389.671 224.766 386.379 227.631 382.076 229.353C377.765 231.139 373.672 230.858 372.803 230.675C372.762 230.683 374.984 229.933 376.382 228.923C377.782 227.919 378.364 227.062 376.053 227.527C372.725 226.148 372.998 230.584 372.803 230.675C372.11 230.644 367.412 231.163 364.155 230.461C360.794 229.864 358.585 228.949 357.6 228.808C357.559 228.808 357.522 228.811 357.488 228.815C356.958 228.894 356.388 231.182 356.128 231.182C350.021 231.141 344.381 229.704 338.902 226.303C338.817 226.217 339.959 223.853 339.75 223.682C336.811 221.216 333.345 223.212 329.329 223.375C325.323 223.539 322.699 221.29 323.223 216.291C320.465 215.251 318.299 211.148 317.456 208.849C317.356 208.591 317.224 208.408 317.068 208.285C315.805 207.28 312.963 210.137 312.763 210.083C306.134 208.43 306.215 204.252 303.001 200.327C301.482 198.443 297.77 195.663 295.672 194.319C294.005 193.258 294.05 191.6 292.281 190.909C292.042 190.815 290.603 192.588 290.491 192.6C287.217 193.171 291.786 189.887 292.202 188.902C293.719 185.33 294.4 183.297 291.446 182.811C290.757 182.687 284.084 187.376 283.066 187.069C281.735 186.645 284.027 184.859 282.578 184.476C282.456 184.443 281.284 185.765 280.741 185.17C280.609 185.029 280.479 184.886 280.348 184.742C275.7 180.042 273.011 175.308 270.076 172.13C269.664 171.67 268.03 174.08 267.406 173.453C264.537 170.528 262.198 167.842 262.645 166.579C262.794 166.272 264.066 164.777 264.414 164.308C265.444 162.871 265.105 163.125 264.768 163.926C264.406 164.711 264.072 166.025 264.148 166.12C264.827 167.168 267.456 168.475 270.842 168.449C274.23 168.476 277.276 167.066 278.56 165.997C278.001 165.602 276.193 165.96 275.525 168.334C275.407 168.63 278.42 173.463 274.269 171.112C274.012 170.93 269.639 168.66 271.725 171.365C271.861 171.527 274.174 172.581 273.377 173.218C272.561 173.885 273.007 176.132 269.915 175.914C268.955 175.82 264.186 174.365 266.74 177.613C266.816 177.703 267.961 178.851 268.899 179.961C270.456 181.084 271.529 182.287 268.202 181.15C267.261 180.847 261.627 177.911 263.811 180.951C264.245 181.524 265.789 181.522 266.226 182.715C266.913 184.526 264.554 185.802 266.476 188.637C266.807 189.159 270.318 191.991 266.844 191.975C266.301 191.968 264.445 190.898 264.005 191.401C261.884 193.847 262.133 197.389 259.726 199.932C258.879 200.83 255.829 199.187 254.581 200.026C253.328 200.88 251.736 202.901 252.836 204.575C253.937 206.248 259.537 206.618 259.381 208.528C258.729 216.783 253.385 223.595 250.789 231.319C250.404 232.465 252.544 232.015 252.12 233.729C250.558 239.976 249.727 250.809 244.919 255.3C244.836 255.347 244.751 255.395 244.664 255.442C240.838 257.954 239.081 253.411 237.293 255.819C236.427 257.115 242.493 259.584 242.65 259.94C244.227 263.668 241.19 266.163 241.652 270.084C241.747 270.902 244.38 270.378 244.432 271.077C244.63 273.479 243.201 275.97 243.064 278.527C243.006 279.677 244.975 279.748 244.663 280.819C243.929 283.397 242.677 285.768 240.209 288.277C239.986 288.493 238.024 286.19 237.424 288.335C236.356 291.902 233.527 295.817 231.81 302.439C231.215 304.374 235.08 307.136 229.064 309.445C228.432 309.66 227.372 308.589 226.373 308.413C225.301 308.26 224.683 308.861 223.278 312.881C223.057 313.541 221.062 317.577 216.736 320.445C202.927 326.354 192.774 320.907 189.512 316.406C187.838 314.241 185.984 308.812 184.38 303.922C184.62 303.883 184.685 303.83 184.532 303.858C184.416 303.879 182.427 305.239 182.097 305.145C180.543 304.113 178.454 300.46 176.073 297.968C175.415 297.279 174.012 299.768 173.086 298.675C170.532 295.666 168.704 291.127 167.659 287.505C167.279 286.17 169.541 286.031 169.692 285.838C172.179 282.74 167.394 284.211 166.897 283.878C165.368 282.809 164.866 281.471 164.491 280.072C164.15 278.747 163.947 277.398 163.05 276.259C162.557 275.623 160.693 277.158 160.436 277.109C157.881 276.543 162.204 275.781 162.171 274.654C162.096 271.495 160.559 268.722 159.066 266.277C158.516 265.381 156.558 267.61 156.092 266.792C153.285 261.963 151.131 256.73 150.262 251.405C150.103 250.401 152.261 250.054 152.606 249.664C155.027 246.952 150.021 247.085 149.426 246.857C146.719 245.821 148.032 244.282 146.907 242.782C141.441 235.514 137.503 225.794 134.649 220.982C134.487 220.702 134.334 220.436 134.19 220.184C126.908 209.455 123.572 200.62 119.068 197.021C118.797 196.803 117.11 199.05 116.877 198.914C115.654 198.159 115.163 197.843 114.89 197.621C114.615 197.412 114.408 197.201 113.598 197.21C112.57 197.109 111.575 197.052 110.634 197.058C110.129 197.059 110.513 199.768 109.721 199.863C108.1 200.073 106.485 199.816 105.895 198.975C105.606 198.567 106.017 196.298 105.696 195.935C105.344 195.508 105.166 195.291 105.635 195.121C106.099 194.919 107.3 194.878 109.898 193.796C111.014 193.294 111.156 194.02 111.272 194.773C111.421 195.478 111.529 196.294 113.363 195.114C114.385 194.429 115.501 193.547 116.571 192.489C111.335 198.087 108.196 202.602 100.619 207.909C100.087 208.275 95.2111 205.679 95.365 207.372C96.5899 208.287 98.0966 209.262 99.4401 210.187C96.7546 215.008 93.5981 219.861 90.2988 224.69C85.8512 231.219 81.1807 237.577 76.9623 244.237C76.6553 244.723 79.6682 245.369 79.076 246.334C75.6622 251.907 73.0896 257.755 67.1945 262.013C66.6122 262.439 62.3675 259.549 62.0553 261.598C62.0291 261.918 61.0792 264.872 61.6837 266.041C61.7783 266.211 64.1007 266.98 63.7001 267.799C61.2286 272.727 57.9674 277.263 54.1452 281.148C53.5381 281.75 51.73 279.755 51.2789 280.172C48.0306 283.26 47.6312 288.188 44.4632 289.792C42.3792 290.808 38.5254 288.578 34.0671 288.231C33.4271 288.192 33.0338 289.282 30.5644 288.824C24.3043 287.754 17.7788 285.153 11.096 284.051C9.60213 283.848 10.432 288.132 7.38964 285.138C7.15578 284.944 6.72705 281.541 5.8293 280.479C5.19631 279.707 2.44094 279.975 1.76658 278.544C1.10707 277.094 3.54875 276.575 2.95663 274.657C2.37211 272.723 -0.57535 272.154 0.310944 269.251ZM314.502 198.815C315.047 195.906 308.514 202.061 311.348 201.85C311.492 201.832 314.479 198.961 314.502 198.815ZM394.65 77.6888C390.609 79.6001 396.347 81.3693 399.473 79.9834C402.593 78.5905 395.875 77.101 394.65 77.6888ZM392.06 55.5518C388.989 58.1244 401.716 58.3578 399.094 55.6203C398.945 55.4592 392.238 55.4 392.06 55.5518ZM35.2211 282.271C35.0952 282.254 34.4992 283.242 34.5904 283.331C36.9178 285.076 38.0935 283.125 35.2211 282.271ZM387.017 33.7784C385.465 34.8234 387.776 36.7596 389.741 35.4654C391.317 34.3491 388.942 32.3942 387.017 33.7784ZM261.177 149.956C261.069 149.87 260.321 150.394 260.853 150.934C262.561 152.664 262.964 151.371 261.177 149.956ZM371.612 0.181434C372.764 3.41303 369.885 14.5349 365.195 8.17999C364.772 7.47413 365.986 7.68101 367.158 7.59247C368.343 7.51782 369.44 7.1626 369.249 6.28508C368.922 4.6781 367.317 4.48483 365.812 3.85161C364.334 3.25501 363.052 2.29002 364.197 0.331864C364.647 -0.226384 371.592 0.173287 371.629 0.181512C371.623 0.18149 371.618 0.181466 371.612 0.181434ZM321.423 190.499C321.478 190.388 320.663 189.413 320.554 189.469C318.038 190.98 319.718 192.987 321.423 190.499ZM231.053 194.59C230.789 194.575 229.633 197.356 229.828 197.518C233.781 200.421 236.108 194.87 231.053 194.59ZM373.807 184.204C371.068 182.648 370.827 181.154 374.477 180.279C374.215 181.593 374.097 182.913 373.807 184.204Z" fill="#D4A714"/>
</svg>
